%TF.GenerationSoftware,KiCad,Pcbnew,9.0.3*%
%TF.CreationDate,2026-06-21T16:25:00+01:00*%
%TF.ProjectId,default_esp32_board,64656661-756c-4745-9f65-737033325f62,rev?*%
%TF.SameCoordinates,Original*%
%TF.FileFunction,Legend,Top*%
%TF.FilePolarity,Positive*%
%FSLAX46Y46*%
G04 Gerber Fmt 4.6, Leading zero omitted, Abs format (unit mm)*
G04 Created by KiCad (PCBNEW 9.0.3) date 2026-06-21 16:25:00*
%MOMM*%
%LPD*%
G01*
G04 APERTURE LIST*
%ADD10C,0.100000*%
%ADD11C,0.250000*%
%ADD12C,0.120000*%
%ADD13C,0.150000*%
%ADD14C,0.200000*%
G04 APERTURE END LIST*
D10*
X139500000Y-54895000D02*
X147500000Y-54895000D01*
X147500000Y-69645000D01*
X139500000Y-69645000D01*
X139500000Y-54895000D01*
X118827693Y-119720038D02*
X118732455Y-119672419D01*
X118732455Y-119672419D02*
X118589598Y-119672419D01*
X118589598Y-119672419D02*
X118446741Y-119720038D01*
X118446741Y-119720038D02*
X118351503Y-119815276D01*
X118351503Y-119815276D02*
X118303884Y-119910514D01*
X118303884Y-119910514D02*
X118256265Y-120100990D01*
X118256265Y-120100990D02*
X118256265Y-120243847D01*
X118256265Y-120243847D02*
X118303884Y-120434323D01*
X118303884Y-120434323D02*
X118351503Y-120529561D01*
X118351503Y-120529561D02*
X118446741Y-120624800D01*
X118446741Y-120624800D02*
X118589598Y-120672419D01*
X118589598Y-120672419D02*
X118684836Y-120672419D01*
X118684836Y-120672419D02*
X118827693Y-120624800D01*
X118827693Y-120624800D02*
X118875312Y-120577180D01*
X118875312Y-120577180D02*
X118875312Y-120243847D01*
X118875312Y-120243847D02*
X118684836Y-120243847D01*
X119303884Y-120672419D02*
X119303884Y-119672419D01*
X119303884Y-119672419D02*
X119875312Y-120672419D01*
X119875312Y-120672419D02*
X119875312Y-119672419D01*
X120351503Y-120672419D02*
X120351503Y-119672419D01*
X120351503Y-119672419D02*
X120589598Y-119672419D01*
X120589598Y-119672419D02*
X120732455Y-119720038D01*
X120732455Y-119720038D02*
X120827693Y-119815276D01*
X120827693Y-119815276D02*
X120875312Y-119910514D01*
X120875312Y-119910514D02*
X120922931Y-120100990D01*
X120922931Y-120100990D02*
X120922931Y-120243847D01*
X120922931Y-120243847D02*
X120875312Y-120434323D01*
X120875312Y-120434323D02*
X120827693Y-120529561D01*
X120827693Y-120529561D02*
X120732455Y-120624800D01*
X120732455Y-120624800D02*
X120589598Y-120672419D01*
X120589598Y-120672419D02*
X120351503Y-120672419D01*
D11*
X89652568Y-72864619D02*
X89652568Y-71864619D01*
X89652568Y-71864619D02*
X89890663Y-71864619D01*
X89890663Y-71864619D02*
X90033520Y-71912238D01*
X90033520Y-71912238D02*
X90128758Y-72007476D01*
X90128758Y-72007476D02*
X90176377Y-72102714D01*
X90176377Y-72102714D02*
X90223996Y-72293190D01*
X90223996Y-72293190D02*
X90223996Y-72436047D01*
X90223996Y-72436047D02*
X90176377Y-72626523D01*
X90176377Y-72626523D02*
X90128758Y-72721761D01*
X90128758Y-72721761D02*
X90033520Y-72817000D01*
X90033520Y-72817000D02*
X89890663Y-72864619D01*
X89890663Y-72864619D02*
X89652568Y-72864619D01*
X90604949Y-71959857D02*
X90652568Y-71912238D01*
X90652568Y-71912238D02*
X90747806Y-71864619D01*
X90747806Y-71864619D02*
X90985901Y-71864619D01*
X90985901Y-71864619D02*
X91081139Y-71912238D01*
X91081139Y-71912238D02*
X91128758Y-71959857D01*
X91128758Y-71959857D02*
X91176377Y-72055095D01*
X91176377Y-72055095D02*
X91176377Y-72150333D01*
X91176377Y-72150333D02*
X91128758Y-72293190D01*
X91128758Y-72293190D02*
X90557330Y-72864619D01*
X90557330Y-72864619D02*
X91176377Y-72864619D01*
X92033520Y-71864619D02*
X91843044Y-71864619D01*
X91843044Y-71864619D02*
X91747806Y-71912238D01*
X91747806Y-71912238D02*
X91700187Y-71959857D01*
X91700187Y-71959857D02*
X91604949Y-72102714D01*
X91604949Y-72102714D02*
X91557330Y-72293190D01*
X91557330Y-72293190D02*
X91557330Y-72674142D01*
X91557330Y-72674142D02*
X91604949Y-72769380D01*
X91604949Y-72769380D02*
X91652568Y-72817000D01*
X91652568Y-72817000D02*
X91747806Y-72864619D01*
X91747806Y-72864619D02*
X91938282Y-72864619D01*
X91938282Y-72864619D02*
X92033520Y-72817000D01*
X92033520Y-72817000D02*
X92081139Y-72769380D01*
X92081139Y-72769380D02*
X92128758Y-72674142D01*
X92128758Y-72674142D02*
X92128758Y-72436047D01*
X92128758Y-72436047D02*
X92081139Y-72340809D01*
X92081139Y-72340809D02*
X92033520Y-72293190D01*
X92033520Y-72293190D02*
X91938282Y-72245571D01*
X91938282Y-72245571D02*
X91747806Y-72245571D01*
X91747806Y-72245571D02*
X91652568Y-72293190D01*
X91652568Y-72293190D02*
X91604949Y-72340809D01*
X91604949Y-72340809D02*
X91557330Y-72436047D01*
X90009711Y-56864619D02*
X90343044Y-57864619D01*
X90343044Y-57864619D02*
X90676377Y-56864619D01*
X91009711Y-57864619D02*
X91009711Y-56864619D01*
X91009711Y-56864619D02*
X91581139Y-57864619D01*
X91581139Y-57864619D02*
X91581139Y-56864619D01*
X134402568Y-83364619D02*
X134402568Y-82364619D01*
X134402568Y-82364619D02*
X134640663Y-82364619D01*
X134640663Y-82364619D02*
X134783520Y-82412238D01*
X134783520Y-82412238D02*
X134878758Y-82507476D01*
X134878758Y-82507476D02*
X134926377Y-82602714D01*
X134926377Y-82602714D02*
X134973996Y-82793190D01*
X134973996Y-82793190D02*
X134973996Y-82936047D01*
X134973996Y-82936047D02*
X134926377Y-83126523D01*
X134926377Y-83126523D02*
X134878758Y-83221761D01*
X134878758Y-83221761D02*
X134783520Y-83317000D01*
X134783520Y-83317000D02*
X134640663Y-83364619D01*
X134640663Y-83364619D02*
X134402568Y-83364619D01*
X135926377Y-83364619D02*
X135354949Y-83364619D01*
X135640663Y-83364619D02*
X135640663Y-82364619D01*
X135640663Y-82364619D02*
X135545425Y-82507476D01*
X135545425Y-82507476D02*
X135450187Y-82602714D01*
X135450187Y-82602714D02*
X135354949Y-82650333D01*
X136831139Y-82364619D02*
X136354949Y-82364619D01*
X136354949Y-82364619D02*
X136307330Y-82840809D01*
X136307330Y-82840809D02*
X136354949Y-82793190D01*
X136354949Y-82793190D02*
X136450187Y-82745571D01*
X136450187Y-82745571D02*
X136688282Y-82745571D01*
X136688282Y-82745571D02*
X136783520Y-82793190D01*
X136783520Y-82793190D02*
X136831139Y-82840809D01*
X136831139Y-82840809D02*
X136878758Y-82936047D01*
X136878758Y-82936047D02*
X136878758Y-83174142D01*
X136878758Y-83174142D02*
X136831139Y-83269380D01*
X136831139Y-83269380D02*
X136783520Y-83317000D01*
X136783520Y-83317000D02*
X136688282Y-83364619D01*
X136688282Y-83364619D02*
X136450187Y-83364619D01*
X136450187Y-83364619D02*
X136354949Y-83317000D01*
X136354949Y-83317000D02*
X136307330Y-83269380D01*
X89652568Y-82864619D02*
X89652568Y-81864619D01*
X89652568Y-81864619D02*
X89890663Y-81864619D01*
X89890663Y-81864619D02*
X90033520Y-81912238D01*
X90033520Y-81912238D02*
X90128758Y-82007476D01*
X90128758Y-82007476D02*
X90176377Y-82102714D01*
X90176377Y-82102714D02*
X90223996Y-82293190D01*
X90223996Y-82293190D02*
X90223996Y-82436047D01*
X90223996Y-82436047D02*
X90176377Y-82626523D01*
X90176377Y-82626523D02*
X90128758Y-82721761D01*
X90128758Y-82721761D02*
X90033520Y-82817000D01*
X90033520Y-82817000D02*
X89890663Y-82864619D01*
X89890663Y-82864619D02*
X89652568Y-82864619D01*
X91176377Y-82864619D02*
X90604949Y-82864619D01*
X90890663Y-82864619D02*
X90890663Y-81864619D01*
X90890663Y-81864619D02*
X90795425Y-82007476D01*
X90795425Y-82007476D02*
X90700187Y-82102714D01*
X90700187Y-82102714D02*
X90604949Y-82150333D01*
X91509711Y-81864619D02*
X92128758Y-81864619D01*
X92128758Y-81864619D02*
X91795425Y-82245571D01*
X91795425Y-82245571D02*
X91938282Y-82245571D01*
X91938282Y-82245571D02*
X92033520Y-82293190D01*
X92033520Y-82293190D02*
X92081139Y-82340809D01*
X92081139Y-82340809D02*
X92128758Y-82436047D01*
X92128758Y-82436047D02*
X92128758Y-82674142D01*
X92128758Y-82674142D02*
X92081139Y-82769380D01*
X92081139Y-82769380D02*
X92033520Y-82817000D01*
X92033520Y-82817000D02*
X91938282Y-82864619D01*
X91938282Y-82864619D02*
X91652568Y-82864619D01*
X91652568Y-82864619D02*
X91557330Y-82817000D01*
X91557330Y-82817000D02*
X91509711Y-82769380D01*
D10*
X80458646Y-56122419D02*
X81077693Y-56122419D01*
X81077693Y-56122419D02*
X80744360Y-56503371D01*
X80744360Y-56503371D02*
X80887217Y-56503371D01*
X80887217Y-56503371D02*
X80982455Y-56550990D01*
X80982455Y-56550990D02*
X81030074Y-56598609D01*
X81030074Y-56598609D02*
X81077693Y-56693847D01*
X81077693Y-56693847D02*
X81077693Y-56931942D01*
X81077693Y-56931942D02*
X81030074Y-57027180D01*
X81030074Y-57027180D02*
X80982455Y-57074800D01*
X80982455Y-57074800D02*
X80887217Y-57122419D01*
X80887217Y-57122419D02*
X80601503Y-57122419D01*
X80601503Y-57122419D02*
X80506265Y-57074800D01*
X80506265Y-57074800D02*
X80458646Y-57027180D01*
X81506265Y-57027180D02*
X81553884Y-57074800D01*
X81553884Y-57074800D02*
X81506265Y-57122419D01*
X81506265Y-57122419D02*
X81458646Y-57074800D01*
X81458646Y-57074800D02*
X81506265Y-57027180D01*
X81506265Y-57027180D02*
X81506265Y-57122419D01*
X81887217Y-56122419D02*
X82506264Y-56122419D01*
X82506264Y-56122419D02*
X82172931Y-56503371D01*
X82172931Y-56503371D02*
X82315788Y-56503371D01*
X82315788Y-56503371D02*
X82411026Y-56550990D01*
X82411026Y-56550990D02*
X82458645Y-56598609D01*
X82458645Y-56598609D02*
X82506264Y-56693847D01*
X82506264Y-56693847D02*
X82506264Y-56931942D01*
X82506264Y-56931942D02*
X82458645Y-57027180D01*
X82458645Y-57027180D02*
X82411026Y-57074800D01*
X82411026Y-57074800D02*
X82315788Y-57122419D01*
X82315788Y-57122419D02*
X82030074Y-57122419D01*
X82030074Y-57122419D02*
X81934836Y-57074800D01*
X81934836Y-57074800D02*
X81887217Y-57027180D01*
X82791979Y-56122419D02*
X83125312Y-57122419D01*
X83125312Y-57122419D02*
X83458645Y-56122419D01*
X85125312Y-57122419D02*
X84791979Y-56646228D01*
X84553884Y-57122419D02*
X84553884Y-56122419D01*
X84553884Y-56122419D02*
X84934836Y-56122419D01*
X84934836Y-56122419D02*
X85030074Y-56170038D01*
X85030074Y-56170038D02*
X85077693Y-56217657D01*
X85077693Y-56217657D02*
X85125312Y-56312895D01*
X85125312Y-56312895D02*
X85125312Y-56455752D01*
X85125312Y-56455752D02*
X85077693Y-56550990D01*
X85077693Y-56550990D02*
X85030074Y-56598609D01*
X85030074Y-56598609D02*
X84934836Y-56646228D01*
X84934836Y-56646228D02*
X84553884Y-56646228D01*
X85506265Y-56836704D02*
X85982455Y-56836704D01*
X85411027Y-57122419D02*
X85744360Y-56122419D01*
X85744360Y-56122419D02*
X86077693Y-57122419D01*
X86411027Y-57122419D02*
X86411027Y-56122419D01*
X87363407Y-57122419D02*
X86887217Y-57122419D01*
X86887217Y-57122419D02*
X86887217Y-56122419D01*
X87649122Y-57074800D02*
X87791979Y-57122419D01*
X87791979Y-57122419D02*
X88030074Y-57122419D01*
X88030074Y-57122419D02*
X88125312Y-57074800D01*
X88125312Y-57074800D02*
X88172931Y-57027180D01*
X88172931Y-57027180D02*
X88220550Y-56931942D01*
X88220550Y-56931942D02*
X88220550Y-56836704D01*
X88220550Y-56836704D02*
X88172931Y-56741466D01*
X88172931Y-56741466D02*
X88125312Y-56693847D01*
X88125312Y-56693847D02*
X88030074Y-56646228D01*
X88030074Y-56646228D02*
X87839598Y-56598609D01*
X87839598Y-56598609D02*
X87744360Y-56550990D01*
X87744360Y-56550990D02*
X87696741Y-56503371D01*
X87696741Y-56503371D02*
X87649122Y-56408133D01*
X87649122Y-56408133D02*
X87649122Y-56312895D01*
X87649122Y-56312895D02*
X87696741Y-56217657D01*
X87696741Y-56217657D02*
X87744360Y-56170038D01*
X87744360Y-56170038D02*
X87839598Y-56122419D01*
X87839598Y-56122419D02*
X88077693Y-56122419D01*
X88077693Y-56122419D02*
X88220550Y-56170038D01*
D11*
X134259711Y-71694619D02*
X134831139Y-71694619D01*
X134545425Y-72694619D02*
X134545425Y-71694619D01*
X135069235Y-71694619D02*
X135735901Y-72694619D01*
X135735901Y-71694619D02*
X135069235Y-72694619D01*
X136069235Y-71789857D02*
X136116854Y-71742238D01*
X136116854Y-71742238D02*
X136212092Y-71694619D01*
X136212092Y-71694619D02*
X136450187Y-71694619D01*
X136450187Y-71694619D02*
X136545425Y-71742238D01*
X136545425Y-71742238D02*
X136593044Y-71789857D01*
X136593044Y-71789857D02*
X136640663Y-71885095D01*
X136640663Y-71885095D02*
X136640663Y-71980333D01*
X136640663Y-71980333D02*
X136593044Y-72123190D01*
X136593044Y-72123190D02*
X136021616Y-72694619D01*
X136021616Y-72694619D02*
X136640663Y-72694619D01*
X89652568Y-67864619D02*
X89652568Y-66864619D01*
X89652568Y-66864619D02*
X89890663Y-66864619D01*
X89890663Y-66864619D02*
X90033520Y-66912238D01*
X90033520Y-66912238D02*
X90128758Y-67007476D01*
X90128758Y-67007476D02*
X90176377Y-67102714D01*
X90176377Y-67102714D02*
X90223996Y-67293190D01*
X90223996Y-67293190D02*
X90223996Y-67436047D01*
X90223996Y-67436047D02*
X90176377Y-67626523D01*
X90176377Y-67626523D02*
X90128758Y-67721761D01*
X90128758Y-67721761D02*
X90033520Y-67817000D01*
X90033520Y-67817000D02*
X89890663Y-67864619D01*
X89890663Y-67864619D02*
X89652568Y-67864619D01*
X90557330Y-66864619D02*
X91176377Y-66864619D01*
X91176377Y-66864619D02*
X90843044Y-67245571D01*
X90843044Y-67245571D02*
X90985901Y-67245571D01*
X90985901Y-67245571D02*
X91081139Y-67293190D01*
X91081139Y-67293190D02*
X91128758Y-67340809D01*
X91128758Y-67340809D02*
X91176377Y-67436047D01*
X91176377Y-67436047D02*
X91176377Y-67674142D01*
X91176377Y-67674142D02*
X91128758Y-67769380D01*
X91128758Y-67769380D02*
X91081139Y-67817000D01*
X91081139Y-67817000D02*
X90985901Y-67864619D01*
X90985901Y-67864619D02*
X90700187Y-67864619D01*
X90700187Y-67864619D02*
X90604949Y-67817000D01*
X90604949Y-67817000D02*
X90557330Y-67769380D01*
X91509711Y-66864619D02*
X92128758Y-66864619D01*
X92128758Y-66864619D02*
X91795425Y-67245571D01*
X91795425Y-67245571D02*
X91938282Y-67245571D01*
X91938282Y-67245571D02*
X92033520Y-67293190D01*
X92033520Y-67293190D02*
X92081139Y-67340809D01*
X92081139Y-67340809D02*
X92128758Y-67436047D01*
X92128758Y-67436047D02*
X92128758Y-67674142D01*
X92128758Y-67674142D02*
X92081139Y-67769380D01*
X92081139Y-67769380D02*
X92033520Y-67817000D01*
X92033520Y-67817000D02*
X91938282Y-67864619D01*
X91938282Y-67864619D02*
X91652568Y-67864619D01*
X91652568Y-67864619D02*
X91557330Y-67817000D01*
X91557330Y-67817000D02*
X91509711Y-67769380D01*
D10*
X116780074Y-109472419D02*
X116303884Y-109472419D01*
X116303884Y-109472419D02*
X116256265Y-109948609D01*
X116256265Y-109948609D02*
X116303884Y-109900990D01*
X116303884Y-109900990D02*
X116399122Y-109853371D01*
X116399122Y-109853371D02*
X116637217Y-109853371D01*
X116637217Y-109853371D02*
X116732455Y-109900990D01*
X116732455Y-109900990D02*
X116780074Y-109948609D01*
X116780074Y-109948609D02*
X116827693Y-110043847D01*
X116827693Y-110043847D02*
X116827693Y-110281942D01*
X116827693Y-110281942D02*
X116780074Y-110377180D01*
X116780074Y-110377180D02*
X116732455Y-110424800D01*
X116732455Y-110424800D02*
X116637217Y-110472419D01*
X116637217Y-110472419D02*
X116399122Y-110472419D01*
X116399122Y-110472419D02*
X116303884Y-110424800D01*
X116303884Y-110424800D02*
X116256265Y-110377180D01*
X117113408Y-109472419D02*
X117446741Y-110472419D01*
X117446741Y-110472419D02*
X117780074Y-109472419D01*
D11*
X134402568Y-80614619D02*
X134402568Y-79614619D01*
X134402568Y-79614619D02*
X134640663Y-79614619D01*
X134640663Y-79614619D02*
X134783520Y-79662238D01*
X134783520Y-79662238D02*
X134878758Y-79757476D01*
X134878758Y-79757476D02*
X134926377Y-79852714D01*
X134926377Y-79852714D02*
X134973996Y-80043190D01*
X134973996Y-80043190D02*
X134973996Y-80186047D01*
X134973996Y-80186047D02*
X134926377Y-80376523D01*
X134926377Y-80376523D02*
X134878758Y-80471761D01*
X134878758Y-80471761D02*
X134783520Y-80567000D01*
X134783520Y-80567000D02*
X134640663Y-80614619D01*
X134640663Y-80614619D02*
X134402568Y-80614619D01*
X135354949Y-79709857D02*
X135402568Y-79662238D01*
X135402568Y-79662238D02*
X135497806Y-79614619D01*
X135497806Y-79614619D02*
X135735901Y-79614619D01*
X135735901Y-79614619D02*
X135831139Y-79662238D01*
X135831139Y-79662238D02*
X135878758Y-79709857D01*
X135878758Y-79709857D02*
X135926377Y-79805095D01*
X135926377Y-79805095D02*
X135926377Y-79900333D01*
X135926377Y-79900333D02*
X135878758Y-80043190D01*
X135878758Y-80043190D02*
X135307330Y-80614619D01*
X135307330Y-80614619D02*
X135926377Y-80614619D01*
D10*
X81327693Y-70920038D02*
X81232455Y-70872419D01*
X81232455Y-70872419D02*
X81089598Y-70872419D01*
X81089598Y-70872419D02*
X80946741Y-70920038D01*
X80946741Y-70920038D02*
X80851503Y-71015276D01*
X80851503Y-71015276D02*
X80803884Y-71110514D01*
X80803884Y-71110514D02*
X80756265Y-71300990D01*
X80756265Y-71300990D02*
X80756265Y-71443847D01*
X80756265Y-71443847D02*
X80803884Y-71634323D01*
X80803884Y-71634323D02*
X80851503Y-71729561D01*
X80851503Y-71729561D02*
X80946741Y-71824800D01*
X80946741Y-71824800D02*
X81089598Y-71872419D01*
X81089598Y-71872419D02*
X81184836Y-71872419D01*
X81184836Y-71872419D02*
X81327693Y-71824800D01*
X81327693Y-71824800D02*
X81375312Y-71777180D01*
X81375312Y-71777180D02*
X81375312Y-71443847D01*
X81375312Y-71443847D02*
X81184836Y-71443847D01*
X81803884Y-71872419D02*
X81803884Y-70872419D01*
X81803884Y-70872419D02*
X82375312Y-71872419D01*
X82375312Y-71872419D02*
X82375312Y-70872419D01*
X82851503Y-71872419D02*
X82851503Y-70872419D01*
X82851503Y-70872419D02*
X83089598Y-70872419D01*
X83089598Y-70872419D02*
X83232455Y-70920038D01*
X83232455Y-70920038D02*
X83327693Y-71015276D01*
X83327693Y-71015276D02*
X83375312Y-71110514D01*
X83375312Y-71110514D02*
X83422931Y-71300990D01*
X83422931Y-71300990D02*
X83422931Y-71443847D01*
X83422931Y-71443847D02*
X83375312Y-71634323D01*
X83375312Y-71634323D02*
X83327693Y-71729561D01*
X83327693Y-71729561D02*
X83232455Y-71824800D01*
X83232455Y-71824800D02*
X83089598Y-71872419D01*
X83089598Y-71872419D02*
X82851503Y-71872419D01*
D11*
X134402568Y-54944619D02*
X134402568Y-53944619D01*
X134402568Y-53944619D02*
X134640663Y-53944619D01*
X134640663Y-53944619D02*
X134783520Y-53992238D01*
X134783520Y-53992238D02*
X134878758Y-54087476D01*
X134878758Y-54087476D02*
X134926377Y-54182714D01*
X134926377Y-54182714D02*
X134973996Y-54373190D01*
X134973996Y-54373190D02*
X134973996Y-54516047D01*
X134973996Y-54516047D02*
X134926377Y-54706523D01*
X134926377Y-54706523D02*
X134878758Y-54801761D01*
X134878758Y-54801761D02*
X134783520Y-54897000D01*
X134783520Y-54897000D02*
X134640663Y-54944619D01*
X134640663Y-54944619D02*
X134402568Y-54944619D01*
X135354949Y-54039857D02*
X135402568Y-53992238D01*
X135402568Y-53992238D02*
X135497806Y-53944619D01*
X135497806Y-53944619D02*
X135735901Y-53944619D01*
X135735901Y-53944619D02*
X135831139Y-53992238D01*
X135831139Y-53992238D02*
X135878758Y-54039857D01*
X135878758Y-54039857D02*
X135926377Y-54135095D01*
X135926377Y-54135095D02*
X135926377Y-54230333D01*
X135926377Y-54230333D02*
X135878758Y-54373190D01*
X135878758Y-54373190D02*
X135307330Y-54944619D01*
X135307330Y-54944619D02*
X135926377Y-54944619D01*
X136307330Y-54039857D02*
X136354949Y-53992238D01*
X136354949Y-53992238D02*
X136450187Y-53944619D01*
X136450187Y-53944619D02*
X136688282Y-53944619D01*
X136688282Y-53944619D02*
X136783520Y-53992238D01*
X136783520Y-53992238D02*
X136831139Y-54039857D01*
X136831139Y-54039857D02*
X136878758Y-54135095D01*
X136878758Y-54135095D02*
X136878758Y-54230333D01*
X136878758Y-54230333D02*
X136831139Y-54373190D01*
X136831139Y-54373190D02*
X136259711Y-54944619D01*
X136259711Y-54944619D02*
X136878758Y-54944619D01*
X90152568Y-52340809D02*
X90485901Y-52340809D01*
X90628758Y-52864619D02*
X90152568Y-52864619D01*
X90152568Y-52864619D02*
X90152568Y-51864619D01*
X90152568Y-51864619D02*
X90628758Y-51864619D01*
X91057330Y-52864619D02*
X91057330Y-51864619D01*
X91057330Y-51864619D02*
X91628758Y-52864619D01*
X91628758Y-52864619D02*
X91628758Y-51864619D01*
X134402568Y-78114619D02*
X134402568Y-77114619D01*
X134402568Y-77114619D02*
X134640663Y-77114619D01*
X134640663Y-77114619D02*
X134783520Y-77162238D01*
X134783520Y-77162238D02*
X134878758Y-77257476D01*
X134878758Y-77257476D02*
X134926377Y-77352714D01*
X134926377Y-77352714D02*
X134973996Y-77543190D01*
X134973996Y-77543190D02*
X134973996Y-77686047D01*
X134973996Y-77686047D02*
X134926377Y-77876523D01*
X134926377Y-77876523D02*
X134878758Y-77971761D01*
X134878758Y-77971761D02*
X134783520Y-78067000D01*
X134783520Y-78067000D02*
X134640663Y-78114619D01*
X134640663Y-78114619D02*
X134402568Y-78114619D01*
X135831139Y-77447952D02*
X135831139Y-78114619D01*
X135593044Y-77067000D02*
X135354949Y-77781285D01*
X135354949Y-77781285D02*
X135973996Y-77781285D01*
X134307330Y-87114619D02*
X134926377Y-87114619D01*
X134926377Y-87114619D02*
X134593044Y-87495571D01*
X134593044Y-87495571D02*
X134735901Y-87495571D01*
X134735901Y-87495571D02*
X134831139Y-87543190D01*
X134831139Y-87543190D02*
X134878758Y-87590809D01*
X134878758Y-87590809D02*
X134926377Y-87686047D01*
X134926377Y-87686047D02*
X134926377Y-87924142D01*
X134926377Y-87924142D02*
X134878758Y-88019380D01*
X134878758Y-88019380D02*
X134831139Y-88067000D01*
X134831139Y-88067000D02*
X134735901Y-88114619D01*
X134735901Y-88114619D02*
X134450187Y-88114619D01*
X134450187Y-88114619D02*
X134354949Y-88067000D01*
X134354949Y-88067000D02*
X134307330Y-88019380D01*
X135212092Y-87114619D02*
X135545425Y-88114619D01*
X135545425Y-88114619D02*
X135878758Y-87114619D01*
X136116854Y-87114619D02*
X136735901Y-87114619D01*
X136735901Y-87114619D02*
X136402568Y-87495571D01*
X136402568Y-87495571D02*
X136545425Y-87495571D01*
X136545425Y-87495571D02*
X136640663Y-87543190D01*
X136640663Y-87543190D02*
X136688282Y-87590809D01*
X136688282Y-87590809D02*
X136735901Y-87686047D01*
X136735901Y-87686047D02*
X136735901Y-87924142D01*
X136735901Y-87924142D02*
X136688282Y-88019380D01*
X136688282Y-88019380D02*
X136640663Y-88067000D01*
X136640663Y-88067000D02*
X136545425Y-88114619D01*
X136545425Y-88114619D02*
X136259711Y-88114619D01*
X136259711Y-88114619D02*
X136164473Y-88067000D01*
X136164473Y-88067000D02*
X136116854Y-88019380D01*
X136926378Y-88209857D02*
X137688282Y-88209857D01*
X137926378Y-87590809D02*
X138259711Y-87590809D01*
X138402568Y-88114619D02*
X137926378Y-88114619D01*
X137926378Y-88114619D02*
X137926378Y-87114619D01*
X137926378Y-87114619D02*
X138402568Y-87114619D01*
X138783521Y-88067000D02*
X138926378Y-88114619D01*
X138926378Y-88114619D02*
X139164473Y-88114619D01*
X139164473Y-88114619D02*
X139259711Y-88067000D01*
X139259711Y-88067000D02*
X139307330Y-88019380D01*
X139307330Y-88019380D02*
X139354949Y-87924142D01*
X139354949Y-87924142D02*
X139354949Y-87828904D01*
X139354949Y-87828904D02*
X139307330Y-87733666D01*
X139307330Y-87733666D02*
X139259711Y-87686047D01*
X139259711Y-87686047D02*
X139164473Y-87638428D01*
X139164473Y-87638428D02*
X138973997Y-87590809D01*
X138973997Y-87590809D02*
X138878759Y-87543190D01*
X138878759Y-87543190D02*
X138831140Y-87495571D01*
X138831140Y-87495571D02*
X138783521Y-87400333D01*
X138783521Y-87400333D02*
X138783521Y-87305095D01*
X138783521Y-87305095D02*
X138831140Y-87209857D01*
X138831140Y-87209857D02*
X138878759Y-87162238D01*
X138878759Y-87162238D02*
X138973997Y-87114619D01*
X138973997Y-87114619D02*
X139212092Y-87114619D01*
X139212092Y-87114619D02*
X139354949Y-87162238D01*
X139783521Y-88114619D02*
X139783521Y-87114619D01*
X139783521Y-87114619D02*
X140164473Y-87114619D01*
X140164473Y-87114619D02*
X140259711Y-87162238D01*
X140259711Y-87162238D02*
X140307330Y-87209857D01*
X140307330Y-87209857D02*
X140354949Y-87305095D01*
X140354949Y-87305095D02*
X140354949Y-87447952D01*
X140354949Y-87447952D02*
X140307330Y-87543190D01*
X140307330Y-87543190D02*
X140259711Y-87590809D01*
X140259711Y-87590809D02*
X140164473Y-87638428D01*
X140164473Y-87638428D02*
X139783521Y-87638428D01*
X89652568Y-77864619D02*
X89652568Y-76864619D01*
X89652568Y-76864619D02*
X89890663Y-76864619D01*
X89890663Y-76864619D02*
X90033520Y-76912238D01*
X90033520Y-76912238D02*
X90128758Y-77007476D01*
X90128758Y-77007476D02*
X90176377Y-77102714D01*
X90176377Y-77102714D02*
X90223996Y-77293190D01*
X90223996Y-77293190D02*
X90223996Y-77436047D01*
X90223996Y-77436047D02*
X90176377Y-77626523D01*
X90176377Y-77626523D02*
X90128758Y-77721761D01*
X90128758Y-77721761D02*
X90033520Y-77817000D01*
X90033520Y-77817000D02*
X89890663Y-77864619D01*
X89890663Y-77864619D02*
X89652568Y-77864619D01*
X91176377Y-77864619D02*
X90604949Y-77864619D01*
X90890663Y-77864619D02*
X90890663Y-76864619D01*
X90890663Y-76864619D02*
X90795425Y-77007476D01*
X90795425Y-77007476D02*
X90700187Y-77102714D01*
X90700187Y-77102714D02*
X90604949Y-77150333D01*
X92033520Y-77197952D02*
X92033520Y-77864619D01*
X91795425Y-76817000D02*
X91557330Y-77531285D01*
X91557330Y-77531285D02*
X92176377Y-77531285D01*
X134973996Y-75194619D02*
X134640663Y-74718428D01*
X134402568Y-75194619D02*
X134402568Y-74194619D01*
X134402568Y-74194619D02*
X134783520Y-74194619D01*
X134783520Y-74194619D02*
X134878758Y-74242238D01*
X134878758Y-74242238D02*
X134926377Y-74289857D01*
X134926377Y-74289857D02*
X134973996Y-74385095D01*
X134973996Y-74385095D02*
X134973996Y-74527952D01*
X134973996Y-74527952D02*
X134926377Y-74623190D01*
X134926377Y-74623190D02*
X134878758Y-74670809D01*
X134878758Y-74670809D02*
X134783520Y-74718428D01*
X134783520Y-74718428D02*
X134402568Y-74718428D01*
X135307330Y-74194619D02*
X135973996Y-75194619D01*
X135973996Y-74194619D02*
X135307330Y-75194619D01*
X136307330Y-74289857D02*
X136354949Y-74242238D01*
X136354949Y-74242238D02*
X136450187Y-74194619D01*
X136450187Y-74194619D02*
X136688282Y-74194619D01*
X136688282Y-74194619D02*
X136783520Y-74242238D01*
X136783520Y-74242238D02*
X136831139Y-74289857D01*
X136831139Y-74289857D02*
X136878758Y-74385095D01*
X136878758Y-74385095D02*
X136878758Y-74480333D01*
X136878758Y-74480333D02*
X136831139Y-74623190D01*
X136831139Y-74623190D02*
X136259711Y-75194619D01*
X136259711Y-75194619D02*
X136878758Y-75194619D01*
D10*
X144875312Y-61872419D02*
X144541979Y-61396228D01*
X144303884Y-61872419D02*
X144303884Y-60872419D01*
X144303884Y-60872419D02*
X144684836Y-60872419D01*
X144684836Y-60872419D02*
X144780074Y-60920038D01*
X144780074Y-60920038D02*
X144827693Y-60967657D01*
X144827693Y-60967657D02*
X144875312Y-61062895D01*
X144875312Y-61062895D02*
X144875312Y-61205752D01*
X144875312Y-61205752D02*
X144827693Y-61300990D01*
X144827693Y-61300990D02*
X144780074Y-61348609D01*
X144780074Y-61348609D02*
X144684836Y-61396228D01*
X144684836Y-61396228D02*
X144303884Y-61396228D01*
X145208646Y-60872419D02*
X145875312Y-61872419D01*
X145875312Y-60872419D02*
X145208646Y-61872419D01*
X146208646Y-60967657D02*
X146256265Y-60920038D01*
X146256265Y-60920038D02*
X146351503Y-60872419D01*
X146351503Y-60872419D02*
X146589598Y-60872419D01*
X146589598Y-60872419D02*
X146684836Y-60920038D01*
X146684836Y-60920038D02*
X146732455Y-60967657D01*
X146732455Y-60967657D02*
X146780074Y-61062895D01*
X146780074Y-61062895D02*
X146780074Y-61158133D01*
X146780074Y-61158133D02*
X146732455Y-61300990D01*
X146732455Y-61300990D02*
X146161027Y-61872419D01*
X146161027Y-61872419D02*
X146780074Y-61872419D01*
D11*
X134973996Y-59944619D02*
X134640663Y-59468428D01*
X134402568Y-59944619D02*
X134402568Y-58944619D01*
X134402568Y-58944619D02*
X134783520Y-58944619D01*
X134783520Y-58944619D02*
X134878758Y-58992238D01*
X134878758Y-58992238D02*
X134926377Y-59039857D01*
X134926377Y-59039857D02*
X134973996Y-59135095D01*
X134973996Y-59135095D02*
X134973996Y-59277952D01*
X134973996Y-59277952D02*
X134926377Y-59373190D01*
X134926377Y-59373190D02*
X134878758Y-59420809D01*
X134878758Y-59420809D02*
X134783520Y-59468428D01*
X134783520Y-59468428D02*
X134402568Y-59468428D01*
X135307330Y-58944619D02*
X135973996Y-59944619D01*
X135973996Y-58944619D02*
X135307330Y-59944619D01*
X136545425Y-58944619D02*
X136640663Y-58944619D01*
X136640663Y-58944619D02*
X136735901Y-58992238D01*
X136735901Y-58992238D02*
X136783520Y-59039857D01*
X136783520Y-59039857D02*
X136831139Y-59135095D01*
X136831139Y-59135095D02*
X136878758Y-59325571D01*
X136878758Y-59325571D02*
X136878758Y-59563666D01*
X136878758Y-59563666D02*
X136831139Y-59754142D01*
X136831139Y-59754142D02*
X136783520Y-59849380D01*
X136783520Y-59849380D02*
X136735901Y-59897000D01*
X136735901Y-59897000D02*
X136640663Y-59944619D01*
X136640663Y-59944619D02*
X136545425Y-59944619D01*
X136545425Y-59944619D02*
X136450187Y-59897000D01*
X136450187Y-59897000D02*
X136402568Y-59849380D01*
X136402568Y-59849380D02*
X136354949Y-59754142D01*
X136354949Y-59754142D02*
X136307330Y-59563666D01*
X136307330Y-59563666D02*
X136307330Y-59325571D01*
X136307330Y-59325571D02*
X136354949Y-59135095D01*
X136354949Y-59135095D02*
X136402568Y-59039857D01*
X136402568Y-59039857D02*
X136450187Y-58992238D01*
X136450187Y-58992238D02*
X136545425Y-58944619D01*
X134402568Y-67694619D02*
X134402568Y-66694619D01*
X134402568Y-66694619D02*
X134640663Y-66694619D01*
X134640663Y-66694619D02*
X134783520Y-66742238D01*
X134783520Y-66742238D02*
X134878758Y-66837476D01*
X134878758Y-66837476D02*
X134926377Y-66932714D01*
X134926377Y-66932714D02*
X134973996Y-67123190D01*
X134973996Y-67123190D02*
X134973996Y-67266047D01*
X134973996Y-67266047D02*
X134926377Y-67456523D01*
X134926377Y-67456523D02*
X134878758Y-67551761D01*
X134878758Y-67551761D02*
X134783520Y-67647000D01*
X134783520Y-67647000D02*
X134640663Y-67694619D01*
X134640663Y-67694619D02*
X134402568Y-67694619D01*
X135926377Y-67694619D02*
X135354949Y-67694619D01*
X135640663Y-67694619D02*
X135640663Y-66694619D01*
X135640663Y-66694619D02*
X135545425Y-66837476D01*
X135545425Y-66837476D02*
X135450187Y-66932714D01*
X135450187Y-66932714D02*
X135354949Y-66980333D01*
X136497806Y-67123190D02*
X136402568Y-67075571D01*
X136402568Y-67075571D02*
X136354949Y-67027952D01*
X136354949Y-67027952D02*
X136307330Y-66932714D01*
X136307330Y-66932714D02*
X136307330Y-66885095D01*
X136307330Y-66885095D02*
X136354949Y-66789857D01*
X136354949Y-66789857D02*
X136402568Y-66742238D01*
X136402568Y-66742238D02*
X136497806Y-66694619D01*
X136497806Y-66694619D02*
X136688282Y-66694619D01*
X136688282Y-66694619D02*
X136783520Y-66742238D01*
X136783520Y-66742238D02*
X136831139Y-66789857D01*
X136831139Y-66789857D02*
X136878758Y-66885095D01*
X136878758Y-66885095D02*
X136878758Y-66932714D01*
X136878758Y-66932714D02*
X136831139Y-67027952D01*
X136831139Y-67027952D02*
X136783520Y-67075571D01*
X136783520Y-67075571D02*
X136688282Y-67123190D01*
X136688282Y-67123190D02*
X136497806Y-67123190D01*
X136497806Y-67123190D02*
X136402568Y-67170809D01*
X136402568Y-67170809D02*
X136354949Y-67218428D01*
X136354949Y-67218428D02*
X136307330Y-67313666D01*
X136307330Y-67313666D02*
X136307330Y-67504142D01*
X136307330Y-67504142D02*
X136354949Y-67599380D01*
X136354949Y-67599380D02*
X136402568Y-67647000D01*
X136402568Y-67647000D02*
X136497806Y-67694619D01*
X136497806Y-67694619D02*
X136688282Y-67694619D01*
X136688282Y-67694619D02*
X136783520Y-67647000D01*
X136783520Y-67647000D02*
X136831139Y-67599380D01*
X136831139Y-67599380D02*
X136878758Y-67504142D01*
X136878758Y-67504142D02*
X136878758Y-67313666D01*
X136878758Y-67313666D02*
X136831139Y-67218428D01*
X136831139Y-67218428D02*
X136783520Y-67170809D01*
X136783520Y-67170809D02*
X136688282Y-67123190D01*
D10*
X140530074Y-70872419D02*
X140053884Y-70872419D01*
X140053884Y-70872419D02*
X140006265Y-71348609D01*
X140006265Y-71348609D02*
X140053884Y-71300990D01*
X140053884Y-71300990D02*
X140149122Y-71253371D01*
X140149122Y-71253371D02*
X140387217Y-71253371D01*
X140387217Y-71253371D02*
X140482455Y-71300990D01*
X140482455Y-71300990D02*
X140530074Y-71348609D01*
X140530074Y-71348609D02*
X140577693Y-71443847D01*
X140577693Y-71443847D02*
X140577693Y-71681942D01*
X140577693Y-71681942D02*
X140530074Y-71777180D01*
X140530074Y-71777180D02*
X140482455Y-71824800D01*
X140482455Y-71824800D02*
X140387217Y-71872419D01*
X140387217Y-71872419D02*
X140149122Y-71872419D01*
X140149122Y-71872419D02*
X140053884Y-71824800D01*
X140053884Y-71824800D02*
X140006265Y-71777180D01*
X140863408Y-70872419D02*
X141196741Y-71872419D01*
X141196741Y-71872419D02*
X141530074Y-70872419D01*
X143196741Y-71872419D02*
X142863408Y-71396228D01*
X142625313Y-71872419D02*
X142625313Y-70872419D01*
X142625313Y-70872419D02*
X143006265Y-70872419D01*
X143006265Y-70872419D02*
X143101503Y-70920038D01*
X143101503Y-70920038D02*
X143149122Y-70967657D01*
X143149122Y-70967657D02*
X143196741Y-71062895D01*
X143196741Y-71062895D02*
X143196741Y-71205752D01*
X143196741Y-71205752D02*
X143149122Y-71300990D01*
X143149122Y-71300990D02*
X143101503Y-71348609D01*
X143101503Y-71348609D02*
X143006265Y-71396228D01*
X143006265Y-71396228D02*
X142625313Y-71396228D01*
X143577694Y-71586704D02*
X144053884Y-71586704D01*
X143482456Y-71872419D02*
X143815789Y-70872419D01*
X143815789Y-70872419D02*
X144149122Y-71872419D01*
X144482456Y-71872419D02*
X144482456Y-70872419D01*
X145434836Y-71872419D02*
X144958646Y-71872419D01*
X144958646Y-71872419D02*
X144958646Y-70872419D01*
X145720551Y-71824800D02*
X145863408Y-71872419D01*
X145863408Y-71872419D02*
X146101503Y-71872419D01*
X146101503Y-71872419D02*
X146196741Y-71824800D01*
X146196741Y-71824800D02*
X146244360Y-71777180D01*
X146244360Y-71777180D02*
X146291979Y-71681942D01*
X146291979Y-71681942D02*
X146291979Y-71586704D01*
X146291979Y-71586704D02*
X146244360Y-71491466D01*
X146244360Y-71491466D02*
X146196741Y-71443847D01*
X146196741Y-71443847D02*
X146101503Y-71396228D01*
X146101503Y-71396228D02*
X145911027Y-71348609D01*
X145911027Y-71348609D02*
X145815789Y-71300990D01*
X145815789Y-71300990D02*
X145768170Y-71253371D01*
X145768170Y-71253371D02*
X145720551Y-71158133D01*
X145720551Y-71158133D02*
X145720551Y-71062895D01*
X145720551Y-71062895D02*
X145768170Y-70967657D01*
X145768170Y-70967657D02*
X145815789Y-70920038D01*
X145815789Y-70920038D02*
X145911027Y-70872419D01*
X145911027Y-70872419D02*
X146149122Y-70872419D01*
X146149122Y-70872419D02*
X146291979Y-70920038D01*
X134661027Y-123122419D02*
X134994360Y-124122419D01*
X134994360Y-124122419D02*
X135327693Y-123122419D01*
X135661027Y-124122419D02*
X135661027Y-123455752D01*
X135661027Y-123122419D02*
X135613408Y-123170038D01*
X135613408Y-123170038D02*
X135661027Y-123217657D01*
X135661027Y-123217657D02*
X135708646Y-123170038D01*
X135708646Y-123170038D02*
X135661027Y-123122419D01*
X135661027Y-123122419D02*
X135661027Y-123217657D01*
X136137217Y-123455752D02*
X136137217Y-124122419D01*
X136137217Y-123550990D02*
X136184836Y-123503371D01*
X136184836Y-123503371D02*
X136280074Y-123455752D01*
X136280074Y-123455752D02*
X136422931Y-123455752D01*
X136422931Y-123455752D02*
X136518169Y-123503371D01*
X136518169Y-123503371D02*
X136565788Y-123598609D01*
X136565788Y-123598609D02*
X136565788Y-124122419D01*
X94827693Y-123420038D02*
X94732455Y-123372419D01*
X94732455Y-123372419D02*
X94589598Y-123372419D01*
X94589598Y-123372419D02*
X94446741Y-123420038D01*
X94446741Y-123420038D02*
X94351503Y-123515276D01*
X94351503Y-123515276D02*
X94303884Y-123610514D01*
X94303884Y-123610514D02*
X94256265Y-123800990D01*
X94256265Y-123800990D02*
X94256265Y-123943847D01*
X94256265Y-123943847D02*
X94303884Y-124134323D01*
X94303884Y-124134323D02*
X94351503Y-124229561D01*
X94351503Y-124229561D02*
X94446741Y-124324800D01*
X94446741Y-124324800D02*
X94589598Y-124372419D01*
X94589598Y-124372419D02*
X94684836Y-124372419D01*
X94684836Y-124372419D02*
X94827693Y-124324800D01*
X94827693Y-124324800D02*
X94875312Y-124277180D01*
X94875312Y-124277180D02*
X94875312Y-123943847D01*
X94875312Y-123943847D02*
X94684836Y-123943847D01*
X95303884Y-124372419D02*
X95303884Y-123372419D01*
X95303884Y-123372419D02*
X95875312Y-124372419D01*
X95875312Y-124372419D02*
X95875312Y-123372419D01*
X96351503Y-124372419D02*
X96351503Y-123372419D01*
X96351503Y-123372419D02*
X96589598Y-123372419D01*
X96589598Y-123372419D02*
X96732455Y-123420038D01*
X96732455Y-123420038D02*
X96827693Y-123515276D01*
X96827693Y-123515276D02*
X96875312Y-123610514D01*
X96875312Y-123610514D02*
X96922931Y-123800990D01*
X96922931Y-123800990D02*
X96922931Y-123943847D01*
X96922931Y-123943847D02*
X96875312Y-124134323D01*
X96875312Y-124134323D02*
X96827693Y-124229561D01*
X96827693Y-124229561D02*
X96732455Y-124324800D01*
X96732455Y-124324800D02*
X96589598Y-124372419D01*
X96589598Y-124372419D02*
X96351503Y-124372419D01*
X80708646Y-60872419D02*
X81327693Y-60872419D01*
X81327693Y-60872419D02*
X80994360Y-61253371D01*
X80994360Y-61253371D02*
X81137217Y-61253371D01*
X81137217Y-61253371D02*
X81232455Y-61300990D01*
X81232455Y-61300990D02*
X81280074Y-61348609D01*
X81280074Y-61348609D02*
X81327693Y-61443847D01*
X81327693Y-61443847D02*
X81327693Y-61681942D01*
X81327693Y-61681942D02*
X81280074Y-61777180D01*
X81280074Y-61777180D02*
X81232455Y-61824800D01*
X81232455Y-61824800D02*
X81137217Y-61872419D01*
X81137217Y-61872419D02*
X80851503Y-61872419D01*
X80851503Y-61872419D02*
X80756265Y-61824800D01*
X80756265Y-61824800D02*
X80708646Y-61777180D01*
X81756265Y-61777180D02*
X81803884Y-61824800D01*
X81803884Y-61824800D02*
X81756265Y-61872419D01*
X81756265Y-61872419D02*
X81708646Y-61824800D01*
X81708646Y-61824800D02*
X81756265Y-61777180D01*
X81756265Y-61777180D02*
X81756265Y-61872419D01*
X82137217Y-60872419D02*
X82756264Y-60872419D01*
X82756264Y-60872419D02*
X82422931Y-61253371D01*
X82422931Y-61253371D02*
X82565788Y-61253371D01*
X82565788Y-61253371D02*
X82661026Y-61300990D01*
X82661026Y-61300990D02*
X82708645Y-61348609D01*
X82708645Y-61348609D02*
X82756264Y-61443847D01*
X82756264Y-61443847D02*
X82756264Y-61681942D01*
X82756264Y-61681942D02*
X82708645Y-61777180D01*
X82708645Y-61777180D02*
X82661026Y-61824800D01*
X82661026Y-61824800D02*
X82565788Y-61872419D01*
X82565788Y-61872419D02*
X82280074Y-61872419D01*
X82280074Y-61872419D02*
X82184836Y-61824800D01*
X82184836Y-61824800D02*
X82137217Y-61777180D01*
X83041979Y-60872419D02*
X83375312Y-61872419D01*
X83375312Y-61872419D02*
X83708645Y-60872419D01*
D11*
X134259711Y-56444619D02*
X134831139Y-56444619D01*
X134545425Y-57444619D02*
X134545425Y-56444619D01*
X135069235Y-56444619D02*
X135735901Y-57444619D01*
X135735901Y-56444619D02*
X135069235Y-57444619D01*
X136307330Y-56444619D02*
X136402568Y-56444619D01*
X136402568Y-56444619D02*
X136497806Y-56492238D01*
X136497806Y-56492238D02*
X136545425Y-56539857D01*
X136545425Y-56539857D02*
X136593044Y-56635095D01*
X136593044Y-56635095D02*
X136640663Y-56825571D01*
X136640663Y-56825571D02*
X136640663Y-57063666D01*
X136640663Y-57063666D02*
X136593044Y-57254142D01*
X136593044Y-57254142D02*
X136545425Y-57349380D01*
X136545425Y-57349380D02*
X136497806Y-57397000D01*
X136497806Y-57397000D02*
X136402568Y-57444619D01*
X136402568Y-57444619D02*
X136307330Y-57444619D01*
X136307330Y-57444619D02*
X136212092Y-57397000D01*
X136212092Y-57397000D02*
X136164473Y-57349380D01*
X136164473Y-57349380D02*
X136116854Y-57254142D01*
X136116854Y-57254142D02*
X136069235Y-57063666D01*
X136069235Y-57063666D02*
X136069235Y-56825571D01*
X136069235Y-56825571D02*
X136116854Y-56635095D01*
X136116854Y-56635095D02*
X136164473Y-56539857D01*
X136164473Y-56539857D02*
X136212092Y-56492238D01*
X136212092Y-56492238D02*
X136307330Y-56444619D01*
X89652568Y-70364619D02*
X89652568Y-69364619D01*
X89652568Y-69364619D02*
X89890663Y-69364619D01*
X89890663Y-69364619D02*
X90033520Y-69412238D01*
X90033520Y-69412238D02*
X90128758Y-69507476D01*
X90128758Y-69507476D02*
X90176377Y-69602714D01*
X90176377Y-69602714D02*
X90223996Y-69793190D01*
X90223996Y-69793190D02*
X90223996Y-69936047D01*
X90223996Y-69936047D02*
X90176377Y-70126523D01*
X90176377Y-70126523D02*
X90128758Y-70221761D01*
X90128758Y-70221761D02*
X90033520Y-70317000D01*
X90033520Y-70317000D02*
X89890663Y-70364619D01*
X89890663Y-70364619D02*
X89652568Y-70364619D01*
X90604949Y-69459857D02*
X90652568Y-69412238D01*
X90652568Y-69412238D02*
X90747806Y-69364619D01*
X90747806Y-69364619D02*
X90985901Y-69364619D01*
X90985901Y-69364619D02*
X91081139Y-69412238D01*
X91081139Y-69412238D02*
X91128758Y-69459857D01*
X91128758Y-69459857D02*
X91176377Y-69555095D01*
X91176377Y-69555095D02*
X91176377Y-69650333D01*
X91176377Y-69650333D02*
X91128758Y-69793190D01*
X91128758Y-69793190D02*
X90557330Y-70364619D01*
X90557330Y-70364619D02*
X91176377Y-70364619D01*
X92081139Y-69364619D02*
X91604949Y-69364619D01*
X91604949Y-69364619D02*
X91557330Y-69840809D01*
X91557330Y-69840809D02*
X91604949Y-69793190D01*
X91604949Y-69793190D02*
X91700187Y-69745571D01*
X91700187Y-69745571D02*
X91938282Y-69745571D01*
X91938282Y-69745571D02*
X92033520Y-69793190D01*
X92033520Y-69793190D02*
X92081139Y-69840809D01*
X92081139Y-69840809D02*
X92128758Y-69936047D01*
X92128758Y-69936047D02*
X92128758Y-70174142D01*
X92128758Y-70174142D02*
X92081139Y-70269380D01*
X92081139Y-70269380D02*
X92033520Y-70317000D01*
X92033520Y-70317000D02*
X91938282Y-70364619D01*
X91938282Y-70364619D02*
X91700187Y-70364619D01*
X91700187Y-70364619D02*
X91604949Y-70317000D01*
X91604949Y-70317000D02*
X91557330Y-70269380D01*
X90628758Y-86864619D02*
X90152568Y-86864619D01*
X90152568Y-86864619D02*
X90104949Y-87340809D01*
X90104949Y-87340809D02*
X90152568Y-87293190D01*
X90152568Y-87293190D02*
X90247806Y-87245571D01*
X90247806Y-87245571D02*
X90485901Y-87245571D01*
X90485901Y-87245571D02*
X90581139Y-87293190D01*
X90581139Y-87293190D02*
X90628758Y-87340809D01*
X90628758Y-87340809D02*
X90676377Y-87436047D01*
X90676377Y-87436047D02*
X90676377Y-87674142D01*
X90676377Y-87674142D02*
X90628758Y-87769380D01*
X90628758Y-87769380D02*
X90581139Y-87817000D01*
X90581139Y-87817000D02*
X90485901Y-87864619D01*
X90485901Y-87864619D02*
X90247806Y-87864619D01*
X90247806Y-87864619D02*
X90152568Y-87817000D01*
X90152568Y-87817000D02*
X90104949Y-87769380D01*
X90962092Y-86864619D02*
X91295425Y-87864619D01*
X91295425Y-87864619D02*
X91628758Y-86864619D01*
D10*
X144577693Y-86920038D02*
X144482455Y-86872419D01*
X144482455Y-86872419D02*
X144339598Y-86872419D01*
X144339598Y-86872419D02*
X144196741Y-86920038D01*
X144196741Y-86920038D02*
X144101503Y-87015276D01*
X144101503Y-87015276D02*
X144053884Y-87110514D01*
X144053884Y-87110514D02*
X144006265Y-87300990D01*
X144006265Y-87300990D02*
X144006265Y-87443847D01*
X144006265Y-87443847D02*
X144053884Y-87634323D01*
X144053884Y-87634323D02*
X144101503Y-87729561D01*
X144101503Y-87729561D02*
X144196741Y-87824800D01*
X144196741Y-87824800D02*
X144339598Y-87872419D01*
X144339598Y-87872419D02*
X144434836Y-87872419D01*
X144434836Y-87872419D02*
X144577693Y-87824800D01*
X144577693Y-87824800D02*
X144625312Y-87777180D01*
X144625312Y-87777180D02*
X144625312Y-87443847D01*
X144625312Y-87443847D02*
X144434836Y-87443847D01*
X145053884Y-87872419D02*
X145053884Y-86872419D01*
X145053884Y-86872419D02*
X145625312Y-87872419D01*
X145625312Y-87872419D02*
X145625312Y-86872419D01*
X146101503Y-87872419D02*
X146101503Y-86872419D01*
X146101503Y-86872419D02*
X146339598Y-86872419D01*
X146339598Y-86872419D02*
X146482455Y-86920038D01*
X146482455Y-86920038D02*
X146577693Y-87015276D01*
X146577693Y-87015276D02*
X146625312Y-87110514D01*
X146625312Y-87110514D02*
X146672931Y-87300990D01*
X146672931Y-87300990D02*
X146672931Y-87443847D01*
X146672931Y-87443847D02*
X146625312Y-87634323D01*
X146625312Y-87634323D02*
X146577693Y-87729561D01*
X146577693Y-87729561D02*
X146482455Y-87824800D01*
X146482455Y-87824800D02*
X146339598Y-87872419D01*
X146339598Y-87872419D02*
X146101503Y-87872419D01*
X144780074Y-75422419D02*
X144303884Y-75422419D01*
X144303884Y-75422419D02*
X144256265Y-75898609D01*
X144256265Y-75898609D02*
X144303884Y-75850990D01*
X144303884Y-75850990D02*
X144399122Y-75803371D01*
X144399122Y-75803371D02*
X144637217Y-75803371D01*
X144637217Y-75803371D02*
X144732455Y-75850990D01*
X144732455Y-75850990D02*
X144780074Y-75898609D01*
X144780074Y-75898609D02*
X144827693Y-75993847D01*
X144827693Y-75993847D02*
X144827693Y-76231942D01*
X144827693Y-76231942D02*
X144780074Y-76327180D01*
X144780074Y-76327180D02*
X144732455Y-76374800D01*
X144732455Y-76374800D02*
X144637217Y-76422419D01*
X144637217Y-76422419D02*
X144399122Y-76422419D01*
X144399122Y-76422419D02*
X144303884Y-76374800D01*
X144303884Y-76374800D02*
X144256265Y-76327180D01*
X145113408Y-75422419D02*
X145446741Y-76422419D01*
X145446741Y-76422419D02*
X145780074Y-75422419D01*
X144577693Y-78220038D02*
X144482455Y-78172419D01*
X144482455Y-78172419D02*
X144339598Y-78172419D01*
X144339598Y-78172419D02*
X144196741Y-78220038D01*
X144196741Y-78220038D02*
X144101503Y-78315276D01*
X144101503Y-78315276D02*
X144053884Y-78410514D01*
X144053884Y-78410514D02*
X144006265Y-78600990D01*
X144006265Y-78600990D02*
X144006265Y-78743847D01*
X144006265Y-78743847D02*
X144053884Y-78934323D01*
X144053884Y-78934323D02*
X144101503Y-79029561D01*
X144101503Y-79029561D02*
X144196741Y-79124800D01*
X144196741Y-79124800D02*
X144339598Y-79172419D01*
X144339598Y-79172419D02*
X144434836Y-79172419D01*
X144434836Y-79172419D02*
X144577693Y-79124800D01*
X144577693Y-79124800D02*
X144625312Y-79077180D01*
X144625312Y-79077180D02*
X144625312Y-78743847D01*
X144625312Y-78743847D02*
X144434836Y-78743847D01*
X145053884Y-79172419D02*
X145053884Y-78172419D01*
X145053884Y-78172419D02*
X145625312Y-79172419D01*
X145625312Y-79172419D02*
X145625312Y-78172419D01*
X146101503Y-79172419D02*
X146101503Y-78172419D01*
X146101503Y-78172419D02*
X146339598Y-78172419D01*
X146339598Y-78172419D02*
X146482455Y-78220038D01*
X146482455Y-78220038D02*
X146577693Y-78315276D01*
X146577693Y-78315276D02*
X146625312Y-78410514D01*
X146625312Y-78410514D02*
X146672931Y-78600990D01*
X146672931Y-78600990D02*
X146672931Y-78743847D01*
X146672931Y-78743847D02*
X146625312Y-78934323D01*
X146625312Y-78934323D02*
X146577693Y-79029561D01*
X146577693Y-79029561D02*
X146482455Y-79124800D01*
X146482455Y-79124800D02*
X146339598Y-79172419D01*
X146339598Y-79172419D02*
X146101503Y-79172419D01*
D11*
X90009711Y-54364619D02*
X90343044Y-55364619D01*
X90343044Y-55364619D02*
X90676377Y-54364619D01*
X91009711Y-55364619D02*
X91009711Y-54364619D01*
X91009711Y-54364619D02*
X91390663Y-54364619D01*
X91390663Y-54364619D02*
X91485901Y-54412238D01*
X91485901Y-54412238D02*
X91533520Y-54459857D01*
X91533520Y-54459857D02*
X91581139Y-54555095D01*
X91581139Y-54555095D02*
X91581139Y-54697952D01*
X91581139Y-54697952D02*
X91533520Y-54793190D01*
X91533520Y-54793190D02*
X91485901Y-54840809D01*
X91485901Y-54840809D02*
X91390663Y-54888428D01*
X91390663Y-54888428D02*
X91009711Y-54888428D01*
D10*
X144161027Y-63622419D02*
X144732455Y-63622419D01*
X144446741Y-64622419D02*
X144446741Y-63622419D01*
X144970551Y-63622419D02*
X145637217Y-64622419D01*
X145637217Y-63622419D02*
X144970551Y-64622419D01*
X145970551Y-63717657D02*
X146018170Y-63670038D01*
X146018170Y-63670038D02*
X146113408Y-63622419D01*
X146113408Y-63622419D02*
X146351503Y-63622419D01*
X146351503Y-63622419D02*
X146446741Y-63670038D01*
X146446741Y-63670038D02*
X146494360Y-63717657D01*
X146494360Y-63717657D02*
X146541979Y-63812895D01*
X146541979Y-63812895D02*
X146541979Y-63908133D01*
X146541979Y-63908133D02*
X146494360Y-64050990D01*
X146494360Y-64050990D02*
X145922932Y-64622419D01*
X145922932Y-64622419D02*
X146541979Y-64622419D01*
D11*
X134926377Y-84412238D02*
X134831139Y-84364619D01*
X134831139Y-84364619D02*
X134688282Y-84364619D01*
X134688282Y-84364619D02*
X134545425Y-84412238D01*
X134545425Y-84412238D02*
X134450187Y-84507476D01*
X134450187Y-84507476D02*
X134402568Y-84602714D01*
X134402568Y-84602714D02*
X134354949Y-84793190D01*
X134354949Y-84793190D02*
X134354949Y-84936047D01*
X134354949Y-84936047D02*
X134402568Y-85126523D01*
X134402568Y-85126523D02*
X134450187Y-85221761D01*
X134450187Y-85221761D02*
X134545425Y-85317000D01*
X134545425Y-85317000D02*
X134688282Y-85364619D01*
X134688282Y-85364619D02*
X134783520Y-85364619D01*
X134783520Y-85364619D02*
X134926377Y-85317000D01*
X134926377Y-85317000D02*
X134973996Y-85269380D01*
X134973996Y-85269380D02*
X134973996Y-84936047D01*
X134973996Y-84936047D02*
X134783520Y-84936047D01*
X135402568Y-85364619D02*
X135402568Y-84364619D01*
X135402568Y-84364619D02*
X135973996Y-85364619D01*
X135973996Y-85364619D02*
X135973996Y-84364619D01*
X136450187Y-85364619D02*
X136450187Y-84364619D01*
X136450187Y-84364619D02*
X136688282Y-84364619D01*
X136688282Y-84364619D02*
X136831139Y-84412238D01*
X136831139Y-84412238D02*
X136926377Y-84507476D01*
X136926377Y-84507476D02*
X136973996Y-84602714D01*
X136973996Y-84602714D02*
X137021615Y-84793190D01*
X137021615Y-84793190D02*
X137021615Y-84936047D01*
X137021615Y-84936047D02*
X136973996Y-85126523D01*
X136973996Y-85126523D02*
X136926377Y-85221761D01*
X136926377Y-85221761D02*
X136831139Y-85317000D01*
X136831139Y-85317000D02*
X136688282Y-85364619D01*
X136688282Y-85364619D02*
X136450187Y-85364619D01*
D10*
X141803884Y-53442419D02*
X141803884Y-54251942D01*
X141803884Y-54251942D02*
X141851503Y-54347180D01*
X141851503Y-54347180D02*
X141899122Y-54394800D01*
X141899122Y-54394800D02*
X141994360Y-54442419D01*
X141994360Y-54442419D02*
X142184836Y-54442419D01*
X142184836Y-54442419D02*
X142280074Y-54394800D01*
X142280074Y-54394800D02*
X142327693Y-54347180D01*
X142327693Y-54347180D02*
X142375312Y-54251942D01*
X142375312Y-54251942D02*
X142375312Y-53442419D01*
X142803884Y-54156704D02*
X143280074Y-54156704D01*
X142708646Y-54442419D02*
X143041979Y-53442419D01*
X143041979Y-53442419D02*
X143375312Y-54442419D01*
X144280074Y-54442419D02*
X143946741Y-53966228D01*
X143708646Y-54442419D02*
X143708646Y-53442419D01*
X143708646Y-53442419D02*
X144089598Y-53442419D01*
X144089598Y-53442419D02*
X144184836Y-53490038D01*
X144184836Y-53490038D02*
X144232455Y-53537657D01*
X144232455Y-53537657D02*
X144280074Y-53632895D01*
X144280074Y-53632895D02*
X144280074Y-53775752D01*
X144280074Y-53775752D02*
X144232455Y-53870990D01*
X144232455Y-53870990D02*
X144184836Y-53918609D01*
X144184836Y-53918609D02*
X144089598Y-53966228D01*
X144089598Y-53966228D02*
X143708646Y-53966228D01*
X144565789Y-53442419D02*
X145137217Y-53442419D01*
X144851503Y-54442419D02*
X144851503Y-53442419D01*
X145422932Y-53537657D02*
X145470551Y-53490038D01*
X145470551Y-53490038D02*
X145565789Y-53442419D01*
X145565789Y-53442419D02*
X145803884Y-53442419D01*
X145803884Y-53442419D02*
X145899122Y-53490038D01*
X145899122Y-53490038D02*
X145946741Y-53537657D01*
X145946741Y-53537657D02*
X145994360Y-53632895D01*
X145994360Y-53632895D02*
X145994360Y-53728133D01*
X145994360Y-53728133D02*
X145946741Y-53870990D01*
X145946741Y-53870990D02*
X145375313Y-54442419D01*
X145375313Y-54442419D02*
X145994360Y-54442419D01*
D11*
X89652568Y-65364619D02*
X89652568Y-64364619D01*
X89652568Y-64364619D02*
X89890663Y-64364619D01*
X89890663Y-64364619D02*
X90033520Y-64412238D01*
X90033520Y-64412238D02*
X90128758Y-64507476D01*
X90128758Y-64507476D02*
X90176377Y-64602714D01*
X90176377Y-64602714D02*
X90223996Y-64793190D01*
X90223996Y-64793190D02*
X90223996Y-64936047D01*
X90223996Y-64936047D02*
X90176377Y-65126523D01*
X90176377Y-65126523D02*
X90128758Y-65221761D01*
X90128758Y-65221761D02*
X90033520Y-65317000D01*
X90033520Y-65317000D02*
X89890663Y-65364619D01*
X89890663Y-65364619D02*
X89652568Y-65364619D01*
X90557330Y-64364619D02*
X91176377Y-64364619D01*
X91176377Y-64364619D02*
X90843044Y-64745571D01*
X90843044Y-64745571D02*
X90985901Y-64745571D01*
X90985901Y-64745571D02*
X91081139Y-64793190D01*
X91081139Y-64793190D02*
X91128758Y-64840809D01*
X91128758Y-64840809D02*
X91176377Y-64936047D01*
X91176377Y-64936047D02*
X91176377Y-65174142D01*
X91176377Y-65174142D02*
X91128758Y-65269380D01*
X91128758Y-65269380D02*
X91081139Y-65317000D01*
X91081139Y-65317000D02*
X90985901Y-65364619D01*
X90985901Y-65364619D02*
X90700187Y-65364619D01*
X90700187Y-65364619D02*
X90604949Y-65317000D01*
X90604949Y-65317000D02*
X90557330Y-65269380D01*
X91557330Y-64459857D02*
X91604949Y-64412238D01*
X91604949Y-64412238D02*
X91700187Y-64364619D01*
X91700187Y-64364619D02*
X91938282Y-64364619D01*
X91938282Y-64364619D02*
X92033520Y-64412238D01*
X92033520Y-64412238D02*
X92081139Y-64459857D01*
X92081139Y-64459857D02*
X92128758Y-64555095D01*
X92128758Y-64555095D02*
X92128758Y-64650333D01*
X92128758Y-64650333D02*
X92081139Y-64793190D01*
X92081139Y-64793190D02*
X91509711Y-65364619D01*
X91509711Y-65364619D02*
X92128758Y-65364619D01*
X89652568Y-75364619D02*
X89652568Y-74364619D01*
X89652568Y-74364619D02*
X89890663Y-74364619D01*
X89890663Y-74364619D02*
X90033520Y-74412238D01*
X90033520Y-74412238D02*
X90128758Y-74507476D01*
X90128758Y-74507476D02*
X90176377Y-74602714D01*
X90176377Y-74602714D02*
X90223996Y-74793190D01*
X90223996Y-74793190D02*
X90223996Y-74936047D01*
X90223996Y-74936047D02*
X90176377Y-75126523D01*
X90176377Y-75126523D02*
X90128758Y-75221761D01*
X90128758Y-75221761D02*
X90033520Y-75317000D01*
X90033520Y-75317000D02*
X89890663Y-75364619D01*
X89890663Y-75364619D02*
X89652568Y-75364619D01*
X90604949Y-74459857D02*
X90652568Y-74412238D01*
X90652568Y-74412238D02*
X90747806Y-74364619D01*
X90747806Y-74364619D02*
X90985901Y-74364619D01*
X90985901Y-74364619D02*
X91081139Y-74412238D01*
X91081139Y-74412238D02*
X91128758Y-74459857D01*
X91128758Y-74459857D02*
X91176377Y-74555095D01*
X91176377Y-74555095D02*
X91176377Y-74650333D01*
X91176377Y-74650333D02*
X91128758Y-74793190D01*
X91128758Y-74793190D02*
X90557330Y-75364619D01*
X90557330Y-75364619D02*
X91176377Y-75364619D01*
X91509711Y-74364619D02*
X92176377Y-74364619D01*
X92176377Y-74364619D02*
X91747806Y-75364619D01*
X89652568Y-80364619D02*
X89652568Y-79364619D01*
X89652568Y-79364619D02*
X89890663Y-79364619D01*
X89890663Y-79364619D02*
X90033520Y-79412238D01*
X90033520Y-79412238D02*
X90128758Y-79507476D01*
X90128758Y-79507476D02*
X90176377Y-79602714D01*
X90176377Y-79602714D02*
X90223996Y-79793190D01*
X90223996Y-79793190D02*
X90223996Y-79936047D01*
X90223996Y-79936047D02*
X90176377Y-80126523D01*
X90176377Y-80126523D02*
X90128758Y-80221761D01*
X90128758Y-80221761D02*
X90033520Y-80317000D01*
X90033520Y-80317000D02*
X89890663Y-80364619D01*
X89890663Y-80364619D02*
X89652568Y-80364619D01*
X91176377Y-80364619D02*
X90604949Y-80364619D01*
X90890663Y-80364619D02*
X90890663Y-79364619D01*
X90890663Y-79364619D02*
X90795425Y-79507476D01*
X90795425Y-79507476D02*
X90700187Y-79602714D01*
X90700187Y-79602714D02*
X90604949Y-79650333D01*
X91557330Y-79459857D02*
X91604949Y-79412238D01*
X91604949Y-79412238D02*
X91700187Y-79364619D01*
X91700187Y-79364619D02*
X91938282Y-79364619D01*
X91938282Y-79364619D02*
X92033520Y-79412238D01*
X92033520Y-79412238D02*
X92081139Y-79459857D01*
X92081139Y-79459857D02*
X92128758Y-79555095D01*
X92128758Y-79555095D02*
X92128758Y-79650333D01*
X92128758Y-79650333D02*
X92081139Y-79793190D01*
X92081139Y-79793190D02*
X91509711Y-80364619D01*
X91509711Y-80364619D02*
X92128758Y-80364619D01*
D10*
X121753884Y-123522419D02*
X121753884Y-122522419D01*
X121753884Y-122522419D02*
X122134836Y-122522419D01*
X122134836Y-122522419D02*
X122230074Y-122570038D01*
X122230074Y-122570038D02*
X122277693Y-122617657D01*
X122277693Y-122617657D02*
X122325312Y-122712895D01*
X122325312Y-122712895D02*
X122325312Y-122855752D01*
X122325312Y-122855752D02*
X122277693Y-122950990D01*
X122277693Y-122950990D02*
X122230074Y-122998609D01*
X122230074Y-122998609D02*
X122134836Y-123046228D01*
X122134836Y-123046228D02*
X121753884Y-123046228D01*
X122658646Y-122522419D02*
X122896741Y-123522419D01*
X122896741Y-123522419D02*
X123087217Y-122808133D01*
X123087217Y-122808133D02*
X123277693Y-123522419D01*
X123277693Y-123522419D02*
X123515789Y-122522419D01*
X124468169Y-123522419D02*
X124134836Y-123046228D01*
X123896741Y-123522419D02*
X123896741Y-122522419D01*
X123896741Y-122522419D02*
X124277693Y-122522419D01*
X124277693Y-122522419D02*
X124372931Y-122570038D01*
X124372931Y-122570038D02*
X124420550Y-122617657D01*
X124420550Y-122617657D02*
X124468169Y-122712895D01*
X124468169Y-122712895D02*
X124468169Y-122855752D01*
X124468169Y-122855752D02*
X124420550Y-122950990D01*
X124420550Y-122950990D02*
X124372931Y-122998609D01*
X124372931Y-122998609D02*
X124277693Y-123046228D01*
X124277693Y-123046228D02*
X123896741Y-123046228D01*
X125658646Y-123522419D02*
X125658646Y-122522419D01*
X126134836Y-123522419D02*
X126134836Y-122522419D01*
X126134836Y-122522419D02*
X126706264Y-123522419D01*
X126706264Y-123522419D02*
X126706264Y-122522419D01*
X82708646Y-81372419D02*
X83327693Y-81372419D01*
X83327693Y-81372419D02*
X82994360Y-81753371D01*
X82994360Y-81753371D02*
X83137217Y-81753371D01*
X83137217Y-81753371D02*
X83232455Y-81800990D01*
X83232455Y-81800990D02*
X83280074Y-81848609D01*
X83280074Y-81848609D02*
X83327693Y-81943847D01*
X83327693Y-81943847D02*
X83327693Y-82181942D01*
X83327693Y-82181942D02*
X83280074Y-82277180D01*
X83280074Y-82277180D02*
X83232455Y-82324800D01*
X83232455Y-82324800D02*
X83137217Y-82372419D01*
X83137217Y-82372419D02*
X82851503Y-82372419D01*
X82851503Y-82372419D02*
X82756265Y-82324800D01*
X82756265Y-82324800D02*
X82708646Y-82277180D01*
X83613408Y-81372419D02*
X83946741Y-82372419D01*
X83946741Y-82372419D02*
X84280074Y-81372419D01*
X84518170Y-81372419D02*
X85137217Y-81372419D01*
X85137217Y-81372419D02*
X84803884Y-81753371D01*
X84803884Y-81753371D02*
X84946741Y-81753371D01*
X84946741Y-81753371D02*
X85041979Y-81800990D01*
X85041979Y-81800990D02*
X85089598Y-81848609D01*
X85089598Y-81848609D02*
X85137217Y-81943847D01*
X85137217Y-81943847D02*
X85137217Y-82181942D01*
X85137217Y-82181942D02*
X85089598Y-82277180D01*
X85089598Y-82277180D02*
X85041979Y-82324800D01*
X85041979Y-82324800D02*
X84946741Y-82372419D01*
X84946741Y-82372419D02*
X84661027Y-82372419D01*
X84661027Y-82372419D02*
X84565789Y-82324800D01*
X84565789Y-82324800D02*
X84518170Y-82277180D01*
D11*
X134902568Y-70194619D02*
X134902568Y-69194619D01*
X134902568Y-69194619D02*
X135140663Y-69194619D01*
X135140663Y-69194619D02*
X135283520Y-69242238D01*
X135283520Y-69242238D02*
X135378758Y-69337476D01*
X135378758Y-69337476D02*
X135426377Y-69432714D01*
X135426377Y-69432714D02*
X135473996Y-69623190D01*
X135473996Y-69623190D02*
X135473996Y-69766047D01*
X135473996Y-69766047D02*
X135426377Y-69956523D01*
X135426377Y-69956523D02*
X135378758Y-70051761D01*
X135378758Y-70051761D02*
X135283520Y-70147000D01*
X135283520Y-70147000D02*
X135140663Y-70194619D01*
X135140663Y-70194619D02*
X134902568Y-70194619D01*
X136378758Y-69194619D02*
X135902568Y-69194619D01*
X135902568Y-69194619D02*
X135854949Y-69670809D01*
X135854949Y-69670809D02*
X135902568Y-69623190D01*
X135902568Y-69623190D02*
X135997806Y-69575571D01*
X135997806Y-69575571D02*
X136235901Y-69575571D01*
X136235901Y-69575571D02*
X136331139Y-69623190D01*
X136331139Y-69623190D02*
X136378758Y-69670809D01*
X136378758Y-69670809D02*
X136426377Y-69766047D01*
X136426377Y-69766047D02*
X136426377Y-70004142D01*
X136426377Y-70004142D02*
X136378758Y-70099380D01*
X136378758Y-70099380D02*
X136331139Y-70147000D01*
X136331139Y-70147000D02*
X136235901Y-70194619D01*
X136235901Y-70194619D02*
X135997806Y-70194619D01*
X135997806Y-70194619D02*
X135902568Y-70147000D01*
X135902568Y-70147000D02*
X135854949Y-70099380D01*
X134402568Y-62444619D02*
X134402568Y-61444619D01*
X134402568Y-61444619D02*
X134640663Y-61444619D01*
X134640663Y-61444619D02*
X134783520Y-61492238D01*
X134783520Y-61492238D02*
X134878758Y-61587476D01*
X134878758Y-61587476D02*
X134926377Y-61682714D01*
X134926377Y-61682714D02*
X134973996Y-61873190D01*
X134973996Y-61873190D02*
X134973996Y-62016047D01*
X134973996Y-62016047D02*
X134926377Y-62206523D01*
X134926377Y-62206523D02*
X134878758Y-62301761D01*
X134878758Y-62301761D02*
X134783520Y-62397000D01*
X134783520Y-62397000D02*
X134640663Y-62444619D01*
X134640663Y-62444619D02*
X134402568Y-62444619D01*
X135354949Y-61539857D02*
X135402568Y-61492238D01*
X135402568Y-61492238D02*
X135497806Y-61444619D01*
X135497806Y-61444619D02*
X135735901Y-61444619D01*
X135735901Y-61444619D02*
X135831139Y-61492238D01*
X135831139Y-61492238D02*
X135878758Y-61539857D01*
X135878758Y-61539857D02*
X135926377Y-61635095D01*
X135926377Y-61635095D02*
X135926377Y-61730333D01*
X135926377Y-61730333D02*
X135878758Y-61873190D01*
X135878758Y-61873190D02*
X135307330Y-62444619D01*
X135307330Y-62444619D02*
X135926377Y-62444619D01*
X136878758Y-62444619D02*
X136307330Y-62444619D01*
X136593044Y-62444619D02*
X136593044Y-61444619D01*
X136593044Y-61444619D02*
X136497806Y-61587476D01*
X136497806Y-61587476D02*
X136402568Y-61682714D01*
X136402568Y-61682714D02*
X136307330Y-61730333D01*
D10*
X144827693Y-58170038D02*
X144732455Y-58122419D01*
X144732455Y-58122419D02*
X144589598Y-58122419D01*
X144589598Y-58122419D02*
X144446741Y-58170038D01*
X144446741Y-58170038D02*
X144351503Y-58265276D01*
X144351503Y-58265276D02*
X144303884Y-58360514D01*
X144303884Y-58360514D02*
X144256265Y-58550990D01*
X144256265Y-58550990D02*
X144256265Y-58693847D01*
X144256265Y-58693847D02*
X144303884Y-58884323D01*
X144303884Y-58884323D02*
X144351503Y-58979561D01*
X144351503Y-58979561D02*
X144446741Y-59074800D01*
X144446741Y-59074800D02*
X144589598Y-59122419D01*
X144589598Y-59122419D02*
X144684836Y-59122419D01*
X144684836Y-59122419D02*
X144827693Y-59074800D01*
X144827693Y-59074800D02*
X144875312Y-59027180D01*
X144875312Y-59027180D02*
X144875312Y-58693847D01*
X144875312Y-58693847D02*
X144684836Y-58693847D01*
X145303884Y-59122419D02*
X145303884Y-58122419D01*
X145303884Y-58122419D02*
X145875312Y-59122419D01*
X145875312Y-59122419D02*
X145875312Y-58122419D01*
X146351503Y-59122419D02*
X146351503Y-58122419D01*
X146351503Y-58122419D02*
X146589598Y-58122419D01*
X146589598Y-58122419D02*
X146732455Y-58170038D01*
X146732455Y-58170038D02*
X146827693Y-58265276D01*
X146827693Y-58265276D02*
X146875312Y-58360514D01*
X146875312Y-58360514D02*
X146922931Y-58550990D01*
X146922931Y-58550990D02*
X146922931Y-58693847D01*
X146922931Y-58693847D02*
X146875312Y-58884323D01*
X146875312Y-58884323D02*
X146827693Y-58979561D01*
X146827693Y-58979561D02*
X146732455Y-59074800D01*
X146732455Y-59074800D02*
X146589598Y-59122419D01*
X146589598Y-59122419D02*
X146351503Y-59122419D01*
D11*
X90176377Y-84412238D02*
X90081139Y-84364619D01*
X90081139Y-84364619D02*
X89938282Y-84364619D01*
X89938282Y-84364619D02*
X89795425Y-84412238D01*
X89795425Y-84412238D02*
X89700187Y-84507476D01*
X89700187Y-84507476D02*
X89652568Y-84602714D01*
X89652568Y-84602714D02*
X89604949Y-84793190D01*
X89604949Y-84793190D02*
X89604949Y-84936047D01*
X89604949Y-84936047D02*
X89652568Y-85126523D01*
X89652568Y-85126523D02*
X89700187Y-85221761D01*
X89700187Y-85221761D02*
X89795425Y-85317000D01*
X89795425Y-85317000D02*
X89938282Y-85364619D01*
X89938282Y-85364619D02*
X90033520Y-85364619D01*
X90033520Y-85364619D02*
X90176377Y-85317000D01*
X90176377Y-85317000D02*
X90223996Y-85269380D01*
X90223996Y-85269380D02*
X90223996Y-84936047D01*
X90223996Y-84936047D02*
X90033520Y-84936047D01*
X90652568Y-85364619D02*
X90652568Y-84364619D01*
X90652568Y-84364619D02*
X91223996Y-85364619D01*
X91223996Y-85364619D02*
X91223996Y-84364619D01*
X91700187Y-85364619D02*
X91700187Y-84364619D01*
X91700187Y-84364619D02*
X91938282Y-84364619D01*
X91938282Y-84364619D02*
X92081139Y-84412238D01*
X92081139Y-84412238D02*
X92176377Y-84507476D01*
X92176377Y-84507476D02*
X92223996Y-84602714D01*
X92223996Y-84602714D02*
X92271615Y-84793190D01*
X92271615Y-84793190D02*
X92271615Y-84936047D01*
X92271615Y-84936047D02*
X92223996Y-85126523D01*
X92223996Y-85126523D02*
X92176377Y-85221761D01*
X92176377Y-85221761D02*
X92081139Y-85317000D01*
X92081139Y-85317000D02*
X91938282Y-85364619D01*
X91938282Y-85364619D02*
X91700187Y-85364619D01*
D10*
X81327693Y-63420038D02*
X81232455Y-63372419D01*
X81232455Y-63372419D02*
X81089598Y-63372419D01*
X81089598Y-63372419D02*
X80946741Y-63420038D01*
X80946741Y-63420038D02*
X80851503Y-63515276D01*
X80851503Y-63515276D02*
X80803884Y-63610514D01*
X80803884Y-63610514D02*
X80756265Y-63800990D01*
X80756265Y-63800990D02*
X80756265Y-63943847D01*
X80756265Y-63943847D02*
X80803884Y-64134323D01*
X80803884Y-64134323D02*
X80851503Y-64229561D01*
X80851503Y-64229561D02*
X80946741Y-64324800D01*
X80946741Y-64324800D02*
X81089598Y-64372419D01*
X81089598Y-64372419D02*
X81184836Y-64372419D01*
X81184836Y-64372419D02*
X81327693Y-64324800D01*
X81327693Y-64324800D02*
X81375312Y-64277180D01*
X81375312Y-64277180D02*
X81375312Y-63943847D01*
X81375312Y-63943847D02*
X81184836Y-63943847D01*
X81803884Y-64372419D02*
X81803884Y-63372419D01*
X81803884Y-63372419D02*
X82375312Y-64372419D01*
X82375312Y-64372419D02*
X82375312Y-63372419D01*
X82851503Y-64372419D02*
X82851503Y-63372419D01*
X82851503Y-63372419D02*
X83089598Y-63372419D01*
X83089598Y-63372419D02*
X83232455Y-63420038D01*
X83232455Y-63420038D02*
X83327693Y-63515276D01*
X83327693Y-63515276D02*
X83375312Y-63610514D01*
X83375312Y-63610514D02*
X83422931Y-63800990D01*
X83422931Y-63800990D02*
X83422931Y-63943847D01*
X83422931Y-63943847D02*
X83375312Y-64134323D01*
X83375312Y-64134323D02*
X83327693Y-64229561D01*
X83327693Y-64229561D02*
X83232455Y-64324800D01*
X83232455Y-64324800D02*
X83089598Y-64372419D01*
X83089598Y-64372419D02*
X82851503Y-64372419D01*
X80708646Y-68372419D02*
X81327693Y-68372419D01*
X81327693Y-68372419D02*
X80994360Y-68753371D01*
X80994360Y-68753371D02*
X81137217Y-68753371D01*
X81137217Y-68753371D02*
X81232455Y-68800990D01*
X81232455Y-68800990D02*
X81280074Y-68848609D01*
X81280074Y-68848609D02*
X81327693Y-68943847D01*
X81327693Y-68943847D02*
X81327693Y-69181942D01*
X81327693Y-69181942D02*
X81280074Y-69277180D01*
X81280074Y-69277180D02*
X81232455Y-69324800D01*
X81232455Y-69324800D02*
X81137217Y-69372419D01*
X81137217Y-69372419D02*
X80851503Y-69372419D01*
X80851503Y-69372419D02*
X80756265Y-69324800D01*
X80756265Y-69324800D02*
X80708646Y-69277180D01*
X81756265Y-69277180D02*
X81803884Y-69324800D01*
X81803884Y-69324800D02*
X81756265Y-69372419D01*
X81756265Y-69372419D02*
X81708646Y-69324800D01*
X81708646Y-69324800D02*
X81756265Y-69277180D01*
X81756265Y-69277180D02*
X81756265Y-69372419D01*
X82137217Y-68372419D02*
X82756264Y-68372419D01*
X82756264Y-68372419D02*
X82422931Y-68753371D01*
X82422931Y-68753371D02*
X82565788Y-68753371D01*
X82565788Y-68753371D02*
X82661026Y-68800990D01*
X82661026Y-68800990D02*
X82708645Y-68848609D01*
X82708645Y-68848609D02*
X82756264Y-68943847D01*
X82756264Y-68943847D02*
X82756264Y-69181942D01*
X82756264Y-69181942D02*
X82708645Y-69277180D01*
X82708645Y-69277180D02*
X82661026Y-69324800D01*
X82661026Y-69324800D02*
X82565788Y-69372419D01*
X82565788Y-69372419D02*
X82280074Y-69372419D01*
X82280074Y-69372419D02*
X82184836Y-69324800D01*
X82184836Y-69324800D02*
X82137217Y-69277180D01*
X83041979Y-68372419D02*
X83375312Y-69372419D01*
X83375312Y-69372419D02*
X83708645Y-68372419D01*
X128053884Y-93848609D02*
X128387217Y-93848609D01*
X128530074Y-94372419D02*
X128053884Y-94372419D01*
X128053884Y-94372419D02*
X128053884Y-93372419D01*
X128053884Y-93372419D02*
X128530074Y-93372419D01*
X128958646Y-94372419D02*
X128958646Y-93372419D01*
X128958646Y-93372419D02*
X129530074Y-94372419D01*
X129530074Y-94372419D02*
X129530074Y-93372419D01*
X129768170Y-94467657D02*
X130530074Y-94467657D01*
X131244360Y-93372419D02*
X130768170Y-93372419D01*
X130768170Y-93372419D02*
X130720551Y-93848609D01*
X130720551Y-93848609D02*
X130768170Y-93800990D01*
X130768170Y-93800990D02*
X130863408Y-93753371D01*
X130863408Y-93753371D02*
X131101503Y-93753371D01*
X131101503Y-93753371D02*
X131196741Y-93800990D01*
X131196741Y-93800990D02*
X131244360Y-93848609D01*
X131244360Y-93848609D02*
X131291979Y-93943847D01*
X131291979Y-93943847D02*
X131291979Y-94181942D01*
X131291979Y-94181942D02*
X131244360Y-94277180D01*
X131244360Y-94277180D02*
X131196741Y-94324800D01*
X131196741Y-94324800D02*
X131101503Y-94372419D01*
X131101503Y-94372419D02*
X130863408Y-94372419D01*
X130863408Y-94372419D02*
X130768170Y-94324800D01*
X130768170Y-94324800D02*
X130720551Y-94277180D01*
X131577694Y-93372419D02*
X131911027Y-94372419D01*
X131911027Y-94372419D02*
X132244360Y-93372419D01*
X144780074Y-83672419D02*
X144303884Y-83672419D01*
X144303884Y-83672419D02*
X144256265Y-84148609D01*
X144256265Y-84148609D02*
X144303884Y-84100990D01*
X144303884Y-84100990D02*
X144399122Y-84053371D01*
X144399122Y-84053371D02*
X144637217Y-84053371D01*
X144637217Y-84053371D02*
X144732455Y-84100990D01*
X144732455Y-84100990D02*
X144780074Y-84148609D01*
X144780074Y-84148609D02*
X144827693Y-84243847D01*
X144827693Y-84243847D02*
X144827693Y-84481942D01*
X144827693Y-84481942D02*
X144780074Y-84577180D01*
X144780074Y-84577180D02*
X144732455Y-84624800D01*
X144732455Y-84624800D02*
X144637217Y-84672419D01*
X144637217Y-84672419D02*
X144399122Y-84672419D01*
X144399122Y-84672419D02*
X144303884Y-84624800D01*
X144303884Y-84624800D02*
X144256265Y-84577180D01*
X145113408Y-83672419D02*
X145446741Y-84672419D01*
X145446741Y-84672419D02*
X145780074Y-83672419D01*
X81030074Y-97622419D02*
X80553884Y-97622419D01*
X80553884Y-97622419D02*
X80553884Y-96622419D01*
X81553884Y-96622419D02*
X81744360Y-96622419D01*
X81744360Y-96622419D02*
X81839598Y-96670038D01*
X81839598Y-96670038D02*
X81934836Y-96765276D01*
X81934836Y-96765276D02*
X81982455Y-96955752D01*
X81982455Y-96955752D02*
X81982455Y-97289085D01*
X81982455Y-97289085D02*
X81934836Y-97479561D01*
X81934836Y-97479561D02*
X81839598Y-97574800D01*
X81839598Y-97574800D02*
X81744360Y-97622419D01*
X81744360Y-97622419D02*
X81553884Y-97622419D01*
X81553884Y-97622419D02*
X81458646Y-97574800D01*
X81458646Y-97574800D02*
X81363408Y-97479561D01*
X81363408Y-97479561D02*
X81315789Y-97289085D01*
X81315789Y-97289085D02*
X81315789Y-96955752D01*
X81315789Y-96955752D02*
X81363408Y-96765276D01*
X81363408Y-96765276D02*
X81458646Y-96670038D01*
X81458646Y-96670038D02*
X81553884Y-96622419D01*
X82601503Y-96622419D02*
X82791979Y-96622419D01*
X82791979Y-96622419D02*
X82887217Y-96670038D01*
X82887217Y-96670038D02*
X82982455Y-96765276D01*
X82982455Y-96765276D02*
X83030074Y-96955752D01*
X83030074Y-96955752D02*
X83030074Y-97289085D01*
X83030074Y-97289085D02*
X82982455Y-97479561D01*
X82982455Y-97479561D02*
X82887217Y-97574800D01*
X82887217Y-97574800D02*
X82791979Y-97622419D01*
X82791979Y-97622419D02*
X82601503Y-97622419D01*
X82601503Y-97622419D02*
X82506265Y-97574800D01*
X82506265Y-97574800D02*
X82411027Y-97479561D01*
X82411027Y-97479561D02*
X82363408Y-97289085D01*
X82363408Y-97289085D02*
X82363408Y-96955752D01*
X82363408Y-96955752D02*
X82411027Y-96765276D01*
X82411027Y-96765276D02*
X82506265Y-96670038D01*
X82506265Y-96670038D02*
X82601503Y-96622419D01*
X83458646Y-97622419D02*
X83458646Y-96622419D01*
X83458646Y-96622419D02*
X83839598Y-96622419D01*
X83839598Y-96622419D02*
X83934836Y-96670038D01*
X83934836Y-96670038D02*
X83982455Y-96717657D01*
X83982455Y-96717657D02*
X84030074Y-96812895D01*
X84030074Y-96812895D02*
X84030074Y-96955752D01*
X84030074Y-96955752D02*
X83982455Y-97050990D01*
X83982455Y-97050990D02*
X83934836Y-97098609D01*
X83934836Y-97098609D02*
X83839598Y-97146228D01*
X83839598Y-97146228D02*
X83458646Y-97146228D01*
X84220551Y-97717657D02*
X84982455Y-97717657D01*
X85125313Y-96622419D02*
X85744360Y-96622419D01*
X85744360Y-96622419D02*
X85411027Y-97003371D01*
X85411027Y-97003371D02*
X85553884Y-97003371D01*
X85553884Y-97003371D02*
X85649122Y-97050990D01*
X85649122Y-97050990D02*
X85696741Y-97098609D01*
X85696741Y-97098609D02*
X85744360Y-97193847D01*
X85744360Y-97193847D02*
X85744360Y-97431942D01*
X85744360Y-97431942D02*
X85696741Y-97527180D01*
X85696741Y-97527180D02*
X85649122Y-97574800D01*
X85649122Y-97574800D02*
X85553884Y-97622419D01*
X85553884Y-97622419D02*
X85268170Y-97622419D01*
X85268170Y-97622419D02*
X85172932Y-97574800D01*
X85172932Y-97574800D02*
X85125313Y-97527180D01*
X86030075Y-96622419D02*
X86363408Y-97622419D01*
X86363408Y-97622419D02*
X86696741Y-96622419D01*
X86934837Y-96622419D02*
X87553884Y-96622419D01*
X87553884Y-96622419D02*
X87220551Y-97003371D01*
X87220551Y-97003371D02*
X87363408Y-97003371D01*
X87363408Y-97003371D02*
X87458646Y-97050990D01*
X87458646Y-97050990D02*
X87506265Y-97098609D01*
X87506265Y-97098609D02*
X87553884Y-97193847D01*
X87553884Y-97193847D02*
X87553884Y-97431942D01*
X87553884Y-97431942D02*
X87506265Y-97527180D01*
X87506265Y-97527180D02*
X87458646Y-97574800D01*
X87458646Y-97574800D02*
X87363408Y-97622419D01*
X87363408Y-97622419D02*
X87077694Y-97622419D01*
X87077694Y-97622419D02*
X86982456Y-97574800D01*
X86982456Y-97574800D02*
X86934837Y-97527180D01*
D11*
X134402568Y-52444619D02*
X134402568Y-51444619D01*
X134402568Y-51444619D02*
X134640663Y-51444619D01*
X134640663Y-51444619D02*
X134783520Y-51492238D01*
X134783520Y-51492238D02*
X134878758Y-51587476D01*
X134878758Y-51587476D02*
X134926377Y-51682714D01*
X134926377Y-51682714D02*
X134973996Y-51873190D01*
X134973996Y-51873190D02*
X134973996Y-52016047D01*
X134973996Y-52016047D02*
X134926377Y-52206523D01*
X134926377Y-52206523D02*
X134878758Y-52301761D01*
X134878758Y-52301761D02*
X134783520Y-52397000D01*
X134783520Y-52397000D02*
X134640663Y-52444619D01*
X134640663Y-52444619D02*
X134402568Y-52444619D01*
X135354949Y-51539857D02*
X135402568Y-51492238D01*
X135402568Y-51492238D02*
X135497806Y-51444619D01*
X135497806Y-51444619D02*
X135735901Y-51444619D01*
X135735901Y-51444619D02*
X135831139Y-51492238D01*
X135831139Y-51492238D02*
X135878758Y-51539857D01*
X135878758Y-51539857D02*
X135926377Y-51635095D01*
X135926377Y-51635095D02*
X135926377Y-51730333D01*
X135926377Y-51730333D02*
X135878758Y-51873190D01*
X135878758Y-51873190D02*
X135307330Y-52444619D01*
X135307330Y-52444619D02*
X135926377Y-52444619D01*
X136259711Y-51444619D02*
X136878758Y-51444619D01*
X136878758Y-51444619D02*
X136545425Y-51825571D01*
X136545425Y-51825571D02*
X136688282Y-51825571D01*
X136688282Y-51825571D02*
X136783520Y-51873190D01*
X136783520Y-51873190D02*
X136831139Y-51920809D01*
X136831139Y-51920809D02*
X136878758Y-52016047D01*
X136878758Y-52016047D02*
X136878758Y-52254142D01*
X136878758Y-52254142D02*
X136831139Y-52349380D01*
X136831139Y-52349380D02*
X136783520Y-52397000D01*
X136783520Y-52397000D02*
X136688282Y-52444619D01*
X136688282Y-52444619D02*
X136402568Y-52444619D01*
X136402568Y-52444619D02*
X136307330Y-52397000D01*
X136307330Y-52397000D02*
X136259711Y-52349380D01*
X89652568Y-60364619D02*
X89652568Y-59364619D01*
X89652568Y-59364619D02*
X89890663Y-59364619D01*
X89890663Y-59364619D02*
X90033520Y-59412238D01*
X90033520Y-59412238D02*
X90128758Y-59507476D01*
X90128758Y-59507476D02*
X90176377Y-59602714D01*
X90176377Y-59602714D02*
X90223996Y-59793190D01*
X90223996Y-59793190D02*
X90223996Y-59936047D01*
X90223996Y-59936047D02*
X90176377Y-60126523D01*
X90176377Y-60126523D02*
X90128758Y-60221761D01*
X90128758Y-60221761D02*
X90033520Y-60317000D01*
X90033520Y-60317000D02*
X89890663Y-60364619D01*
X89890663Y-60364619D02*
X89652568Y-60364619D01*
X90557330Y-59364619D02*
X91176377Y-59364619D01*
X91176377Y-59364619D02*
X90843044Y-59745571D01*
X90843044Y-59745571D02*
X90985901Y-59745571D01*
X90985901Y-59745571D02*
X91081139Y-59793190D01*
X91081139Y-59793190D02*
X91128758Y-59840809D01*
X91128758Y-59840809D02*
X91176377Y-59936047D01*
X91176377Y-59936047D02*
X91176377Y-60174142D01*
X91176377Y-60174142D02*
X91128758Y-60269380D01*
X91128758Y-60269380D02*
X91081139Y-60317000D01*
X91081139Y-60317000D02*
X90985901Y-60364619D01*
X90985901Y-60364619D02*
X90700187Y-60364619D01*
X90700187Y-60364619D02*
X90604949Y-60317000D01*
X90604949Y-60317000D02*
X90557330Y-60269380D01*
X92033520Y-59697952D02*
X92033520Y-60364619D01*
X91795425Y-59317000D02*
X91557330Y-60031285D01*
X91557330Y-60031285D02*
X92176377Y-60031285D01*
D10*
X81303884Y-89098609D02*
X81637217Y-89098609D01*
X81780074Y-89622419D02*
X81303884Y-89622419D01*
X81303884Y-89622419D02*
X81303884Y-88622419D01*
X81303884Y-88622419D02*
X81780074Y-88622419D01*
X82208646Y-89622419D02*
X82208646Y-88622419D01*
X82208646Y-88622419D02*
X82780074Y-89622419D01*
X82780074Y-89622419D02*
X82780074Y-88622419D01*
X83018170Y-89717657D02*
X83780074Y-89717657D01*
X83922932Y-88622419D02*
X84541979Y-88622419D01*
X84541979Y-88622419D02*
X84208646Y-89003371D01*
X84208646Y-89003371D02*
X84351503Y-89003371D01*
X84351503Y-89003371D02*
X84446741Y-89050990D01*
X84446741Y-89050990D02*
X84494360Y-89098609D01*
X84494360Y-89098609D02*
X84541979Y-89193847D01*
X84541979Y-89193847D02*
X84541979Y-89431942D01*
X84541979Y-89431942D02*
X84494360Y-89527180D01*
X84494360Y-89527180D02*
X84446741Y-89574800D01*
X84446741Y-89574800D02*
X84351503Y-89622419D01*
X84351503Y-89622419D02*
X84065789Y-89622419D01*
X84065789Y-89622419D02*
X83970551Y-89574800D01*
X83970551Y-89574800D02*
X83922932Y-89527180D01*
X84827694Y-88622419D02*
X85161027Y-89622419D01*
X85161027Y-89622419D02*
X85494360Y-88622419D01*
X85732456Y-88622419D02*
X86351503Y-88622419D01*
X86351503Y-88622419D02*
X86018170Y-89003371D01*
X86018170Y-89003371D02*
X86161027Y-89003371D01*
X86161027Y-89003371D02*
X86256265Y-89050990D01*
X86256265Y-89050990D02*
X86303884Y-89098609D01*
X86303884Y-89098609D02*
X86351503Y-89193847D01*
X86351503Y-89193847D02*
X86351503Y-89431942D01*
X86351503Y-89431942D02*
X86303884Y-89527180D01*
X86303884Y-89527180D02*
X86256265Y-89574800D01*
X86256265Y-89574800D02*
X86161027Y-89622419D01*
X86161027Y-89622419D02*
X85875313Y-89622419D01*
X85875313Y-89622419D02*
X85780075Y-89574800D01*
X85780075Y-89574800D02*
X85732456Y-89527180D01*
X145280074Y-66122419D02*
X144803884Y-66122419D01*
X144803884Y-66122419D02*
X144756265Y-66598609D01*
X144756265Y-66598609D02*
X144803884Y-66550990D01*
X144803884Y-66550990D02*
X144899122Y-66503371D01*
X144899122Y-66503371D02*
X145137217Y-66503371D01*
X145137217Y-66503371D02*
X145232455Y-66550990D01*
X145232455Y-66550990D02*
X145280074Y-66598609D01*
X145280074Y-66598609D02*
X145327693Y-66693847D01*
X145327693Y-66693847D02*
X145327693Y-66931942D01*
X145327693Y-66931942D02*
X145280074Y-67027180D01*
X145280074Y-67027180D02*
X145232455Y-67074800D01*
X145232455Y-67074800D02*
X145137217Y-67122419D01*
X145137217Y-67122419D02*
X144899122Y-67122419D01*
X144899122Y-67122419D02*
X144803884Y-67074800D01*
X144803884Y-67074800D02*
X144756265Y-67027180D01*
X145613408Y-66122419D02*
X145946741Y-67122419D01*
X145946741Y-67122419D02*
X146280074Y-66122419D01*
X115761027Y-119672419D02*
X116094360Y-120672419D01*
X116094360Y-120672419D02*
X116427693Y-119672419D01*
X116761027Y-120291466D02*
X117522932Y-120291466D01*
X117141979Y-120672419D02*
X117141979Y-119910514D01*
D11*
X134402568Y-65194619D02*
X134402568Y-64194619D01*
X134402568Y-64194619D02*
X134640663Y-64194619D01*
X134640663Y-64194619D02*
X134783520Y-64242238D01*
X134783520Y-64242238D02*
X134878758Y-64337476D01*
X134878758Y-64337476D02*
X134926377Y-64432714D01*
X134926377Y-64432714D02*
X134973996Y-64623190D01*
X134973996Y-64623190D02*
X134973996Y-64766047D01*
X134973996Y-64766047D02*
X134926377Y-64956523D01*
X134926377Y-64956523D02*
X134878758Y-65051761D01*
X134878758Y-65051761D02*
X134783520Y-65147000D01*
X134783520Y-65147000D02*
X134640663Y-65194619D01*
X134640663Y-65194619D02*
X134402568Y-65194619D01*
X135926377Y-65194619D02*
X135354949Y-65194619D01*
X135640663Y-65194619D02*
X135640663Y-64194619D01*
X135640663Y-64194619D02*
X135545425Y-64337476D01*
X135545425Y-64337476D02*
X135450187Y-64432714D01*
X135450187Y-64432714D02*
X135354949Y-64480333D01*
X136402568Y-65194619D02*
X136593044Y-65194619D01*
X136593044Y-65194619D02*
X136688282Y-65147000D01*
X136688282Y-65147000D02*
X136735901Y-65099380D01*
X136735901Y-65099380D02*
X136831139Y-64956523D01*
X136831139Y-64956523D02*
X136878758Y-64766047D01*
X136878758Y-64766047D02*
X136878758Y-64385095D01*
X136878758Y-64385095D02*
X136831139Y-64289857D01*
X136831139Y-64289857D02*
X136783520Y-64242238D01*
X136783520Y-64242238D02*
X136688282Y-64194619D01*
X136688282Y-64194619D02*
X136497806Y-64194619D01*
X136497806Y-64194619D02*
X136402568Y-64242238D01*
X136402568Y-64242238D02*
X136354949Y-64289857D01*
X136354949Y-64289857D02*
X136307330Y-64385095D01*
X136307330Y-64385095D02*
X136307330Y-64623190D01*
X136307330Y-64623190D02*
X136354949Y-64718428D01*
X136354949Y-64718428D02*
X136402568Y-64766047D01*
X136402568Y-64766047D02*
X136497806Y-64813666D01*
X136497806Y-64813666D02*
X136688282Y-64813666D01*
X136688282Y-64813666D02*
X136783520Y-64766047D01*
X136783520Y-64766047D02*
X136831139Y-64718428D01*
X136831139Y-64718428D02*
X136878758Y-64623190D01*
X89652568Y-62864619D02*
X89652568Y-61864619D01*
X89652568Y-61864619D02*
X89890663Y-61864619D01*
X89890663Y-61864619D02*
X90033520Y-61912238D01*
X90033520Y-61912238D02*
X90128758Y-62007476D01*
X90128758Y-62007476D02*
X90176377Y-62102714D01*
X90176377Y-62102714D02*
X90223996Y-62293190D01*
X90223996Y-62293190D02*
X90223996Y-62436047D01*
X90223996Y-62436047D02*
X90176377Y-62626523D01*
X90176377Y-62626523D02*
X90128758Y-62721761D01*
X90128758Y-62721761D02*
X90033520Y-62817000D01*
X90033520Y-62817000D02*
X89890663Y-62864619D01*
X89890663Y-62864619D02*
X89652568Y-62864619D01*
X90557330Y-61864619D02*
X91176377Y-61864619D01*
X91176377Y-61864619D02*
X90843044Y-62245571D01*
X90843044Y-62245571D02*
X90985901Y-62245571D01*
X90985901Y-62245571D02*
X91081139Y-62293190D01*
X91081139Y-62293190D02*
X91128758Y-62340809D01*
X91128758Y-62340809D02*
X91176377Y-62436047D01*
X91176377Y-62436047D02*
X91176377Y-62674142D01*
X91176377Y-62674142D02*
X91128758Y-62769380D01*
X91128758Y-62769380D02*
X91081139Y-62817000D01*
X91081139Y-62817000D02*
X90985901Y-62864619D01*
X90985901Y-62864619D02*
X90700187Y-62864619D01*
X90700187Y-62864619D02*
X90604949Y-62817000D01*
X90604949Y-62817000D02*
X90557330Y-62769380D01*
X92081139Y-61864619D02*
X91604949Y-61864619D01*
X91604949Y-61864619D02*
X91557330Y-62340809D01*
X91557330Y-62340809D02*
X91604949Y-62293190D01*
X91604949Y-62293190D02*
X91700187Y-62245571D01*
X91700187Y-62245571D02*
X91938282Y-62245571D01*
X91938282Y-62245571D02*
X92033520Y-62293190D01*
X92033520Y-62293190D02*
X92081139Y-62340809D01*
X92081139Y-62340809D02*
X92128758Y-62436047D01*
X92128758Y-62436047D02*
X92128758Y-62674142D01*
X92128758Y-62674142D02*
X92081139Y-62769380D01*
X92081139Y-62769380D02*
X92033520Y-62817000D01*
X92033520Y-62817000D02*
X91938282Y-62864619D01*
X91938282Y-62864619D02*
X91700187Y-62864619D01*
X91700187Y-62864619D02*
X91604949Y-62817000D01*
X91604949Y-62817000D02*
X91557330Y-62769380D01*
D10*
X133280074Y-94372419D02*
X132803884Y-94372419D01*
X132803884Y-94372419D02*
X132803884Y-93372419D01*
X133803884Y-93372419D02*
X133994360Y-93372419D01*
X133994360Y-93372419D02*
X134089598Y-93420038D01*
X134089598Y-93420038D02*
X134184836Y-93515276D01*
X134184836Y-93515276D02*
X134232455Y-93705752D01*
X134232455Y-93705752D02*
X134232455Y-94039085D01*
X134232455Y-94039085D02*
X134184836Y-94229561D01*
X134184836Y-94229561D02*
X134089598Y-94324800D01*
X134089598Y-94324800D02*
X133994360Y-94372419D01*
X133994360Y-94372419D02*
X133803884Y-94372419D01*
X133803884Y-94372419D02*
X133708646Y-94324800D01*
X133708646Y-94324800D02*
X133613408Y-94229561D01*
X133613408Y-94229561D02*
X133565789Y-94039085D01*
X133565789Y-94039085D02*
X133565789Y-93705752D01*
X133565789Y-93705752D02*
X133613408Y-93515276D01*
X133613408Y-93515276D02*
X133708646Y-93420038D01*
X133708646Y-93420038D02*
X133803884Y-93372419D01*
X134851503Y-93372419D02*
X135041979Y-93372419D01*
X135041979Y-93372419D02*
X135137217Y-93420038D01*
X135137217Y-93420038D02*
X135232455Y-93515276D01*
X135232455Y-93515276D02*
X135280074Y-93705752D01*
X135280074Y-93705752D02*
X135280074Y-94039085D01*
X135280074Y-94039085D02*
X135232455Y-94229561D01*
X135232455Y-94229561D02*
X135137217Y-94324800D01*
X135137217Y-94324800D02*
X135041979Y-94372419D01*
X135041979Y-94372419D02*
X134851503Y-94372419D01*
X134851503Y-94372419D02*
X134756265Y-94324800D01*
X134756265Y-94324800D02*
X134661027Y-94229561D01*
X134661027Y-94229561D02*
X134613408Y-94039085D01*
X134613408Y-94039085D02*
X134613408Y-93705752D01*
X134613408Y-93705752D02*
X134661027Y-93515276D01*
X134661027Y-93515276D02*
X134756265Y-93420038D01*
X134756265Y-93420038D02*
X134851503Y-93372419D01*
X135708646Y-94372419D02*
X135708646Y-93372419D01*
X135708646Y-93372419D02*
X136089598Y-93372419D01*
X136089598Y-93372419D02*
X136184836Y-93420038D01*
X136184836Y-93420038D02*
X136232455Y-93467657D01*
X136232455Y-93467657D02*
X136280074Y-93562895D01*
X136280074Y-93562895D02*
X136280074Y-93705752D01*
X136280074Y-93705752D02*
X136232455Y-93800990D01*
X136232455Y-93800990D02*
X136184836Y-93848609D01*
X136184836Y-93848609D02*
X136089598Y-93896228D01*
X136089598Y-93896228D02*
X135708646Y-93896228D01*
X136470551Y-94467657D02*
X137232455Y-94467657D01*
X137946741Y-93372419D02*
X137470551Y-93372419D01*
X137470551Y-93372419D02*
X137422932Y-93848609D01*
X137422932Y-93848609D02*
X137470551Y-93800990D01*
X137470551Y-93800990D02*
X137565789Y-93753371D01*
X137565789Y-93753371D02*
X137803884Y-93753371D01*
X137803884Y-93753371D02*
X137899122Y-93800990D01*
X137899122Y-93800990D02*
X137946741Y-93848609D01*
X137946741Y-93848609D02*
X137994360Y-93943847D01*
X137994360Y-93943847D02*
X137994360Y-94181942D01*
X137994360Y-94181942D02*
X137946741Y-94277180D01*
X137946741Y-94277180D02*
X137899122Y-94324800D01*
X137899122Y-94324800D02*
X137803884Y-94372419D01*
X137803884Y-94372419D02*
X137565789Y-94372419D01*
X137565789Y-94372419D02*
X137470551Y-94324800D01*
X137470551Y-94324800D02*
X137422932Y-94277180D01*
X138280075Y-93372419D02*
X138613408Y-94372419D01*
X138613408Y-94372419D02*
X138946741Y-93372419D01*
D12*
X86566666Y-102313855D02*
X86185714Y-102313855D01*
X86185714Y-102313855D02*
X86185714Y-101513855D01*
X86795237Y-101590045D02*
X86833333Y-101551950D01*
X86833333Y-101551950D02*
X86909523Y-101513855D01*
X86909523Y-101513855D02*
X87099999Y-101513855D01*
X87099999Y-101513855D02*
X87176190Y-101551950D01*
X87176190Y-101551950D02*
X87214285Y-101590045D01*
X87214285Y-101590045D02*
X87252380Y-101666236D01*
X87252380Y-101666236D02*
X87252380Y-101742426D01*
X87252380Y-101742426D02*
X87214285Y-101856712D01*
X87214285Y-101856712D02*
X86757142Y-102313855D01*
X86757142Y-102313855D02*
X87252380Y-102313855D01*
X121866666Y-107763855D02*
X121485714Y-107763855D01*
X121485714Y-107763855D02*
X121485714Y-106963855D01*
X122552380Y-107763855D02*
X122095237Y-107763855D01*
X122323809Y-107763855D02*
X122323809Y-106963855D01*
X122323809Y-106963855D02*
X122247618Y-107078140D01*
X122247618Y-107078140D02*
X122171428Y-107154331D01*
X122171428Y-107154331D02*
X122095237Y-107192426D01*
X137969048Y-105613855D02*
X137969048Y-104813855D01*
X138807143Y-105537664D02*
X138769047Y-105575760D01*
X138769047Y-105575760D02*
X138654762Y-105613855D01*
X138654762Y-105613855D02*
X138578571Y-105613855D01*
X138578571Y-105613855D02*
X138464285Y-105575760D01*
X138464285Y-105575760D02*
X138388095Y-105499569D01*
X138388095Y-105499569D02*
X138350000Y-105423379D01*
X138350000Y-105423379D02*
X138311904Y-105270998D01*
X138311904Y-105270998D02*
X138311904Y-105156712D01*
X138311904Y-105156712D02*
X138350000Y-105004331D01*
X138350000Y-105004331D02*
X138388095Y-104928140D01*
X138388095Y-104928140D02*
X138464285Y-104851950D01*
X138464285Y-104851950D02*
X138578571Y-104813855D01*
X138578571Y-104813855D02*
X138654762Y-104813855D01*
X138654762Y-104813855D02*
X138769047Y-104851950D01*
X138769047Y-104851950D02*
X138807143Y-104890045D01*
X139569047Y-105613855D02*
X139111904Y-105613855D01*
X139340476Y-105613855D02*
X139340476Y-104813855D01*
X139340476Y-104813855D02*
X139264285Y-104928140D01*
X139264285Y-104928140D02*
X139188095Y-105004331D01*
X139188095Y-105004331D02*
X139111904Y-105042426D01*
X101019048Y-107763855D02*
X101019048Y-106963855D01*
X101857143Y-107687664D02*
X101819047Y-107725760D01*
X101819047Y-107725760D02*
X101704762Y-107763855D01*
X101704762Y-107763855D02*
X101628571Y-107763855D01*
X101628571Y-107763855D02*
X101514285Y-107725760D01*
X101514285Y-107725760D02*
X101438095Y-107649569D01*
X101438095Y-107649569D02*
X101400000Y-107573379D01*
X101400000Y-107573379D02*
X101361904Y-107420998D01*
X101361904Y-107420998D02*
X101361904Y-107306712D01*
X101361904Y-107306712D02*
X101400000Y-107154331D01*
X101400000Y-107154331D02*
X101438095Y-107078140D01*
X101438095Y-107078140D02*
X101514285Y-107001950D01*
X101514285Y-107001950D02*
X101628571Y-106963855D01*
X101628571Y-106963855D02*
X101704762Y-106963855D01*
X101704762Y-106963855D02*
X101819047Y-107001950D01*
X101819047Y-107001950D02*
X101857143Y-107040045D01*
X102161904Y-107040045D02*
X102200000Y-107001950D01*
X102200000Y-107001950D02*
X102276190Y-106963855D01*
X102276190Y-106963855D02*
X102466666Y-106963855D01*
X102466666Y-106963855D02*
X102542857Y-107001950D01*
X102542857Y-107001950D02*
X102580952Y-107040045D01*
X102580952Y-107040045D02*
X102619047Y-107116236D01*
X102619047Y-107116236D02*
X102619047Y-107192426D01*
X102619047Y-107192426D02*
X102580952Y-107306712D01*
X102580952Y-107306712D02*
X102123809Y-107763855D01*
X102123809Y-107763855D02*
X102619047Y-107763855D01*
X134116667Y-100537664D02*
X134078571Y-100575760D01*
X134078571Y-100575760D02*
X133964286Y-100613855D01*
X133964286Y-100613855D02*
X133888095Y-100613855D01*
X133888095Y-100613855D02*
X133773809Y-100575760D01*
X133773809Y-100575760D02*
X133697619Y-100499569D01*
X133697619Y-100499569D02*
X133659524Y-100423379D01*
X133659524Y-100423379D02*
X133621428Y-100270998D01*
X133621428Y-100270998D02*
X133621428Y-100156712D01*
X133621428Y-100156712D02*
X133659524Y-100004331D01*
X133659524Y-100004331D02*
X133697619Y-99928140D01*
X133697619Y-99928140D02*
X133773809Y-99851950D01*
X133773809Y-99851950D02*
X133888095Y-99813855D01*
X133888095Y-99813855D02*
X133964286Y-99813855D01*
X133964286Y-99813855D02*
X134078571Y-99851950D01*
X134078571Y-99851950D02*
X134116667Y-99890045D01*
X134802381Y-100080521D02*
X134802381Y-100613855D01*
X134611905Y-99775760D02*
X134421428Y-100347188D01*
X134421428Y-100347188D02*
X134916667Y-100347188D01*
X108560024Y-113688855D02*
X108560024Y-112888855D01*
X108560024Y-112888855D02*
X108750500Y-112888855D01*
X108750500Y-112888855D02*
X108864786Y-112926950D01*
X108864786Y-112926950D02*
X108940976Y-113003140D01*
X108940976Y-113003140D02*
X108979071Y-113079331D01*
X108979071Y-113079331D02*
X109017167Y-113231712D01*
X109017167Y-113231712D02*
X109017167Y-113345998D01*
X109017167Y-113345998D02*
X108979071Y-113498379D01*
X108979071Y-113498379D02*
X108940976Y-113574569D01*
X108940976Y-113574569D02*
X108864786Y-113650760D01*
X108864786Y-113650760D02*
X108750500Y-113688855D01*
X108750500Y-113688855D02*
X108560024Y-113688855D01*
X109321928Y-112965045D02*
X109360024Y-112926950D01*
X109360024Y-112926950D02*
X109436214Y-112888855D01*
X109436214Y-112888855D02*
X109626690Y-112888855D01*
X109626690Y-112888855D02*
X109702881Y-112926950D01*
X109702881Y-112926950D02*
X109740976Y-112965045D01*
X109740976Y-112965045D02*
X109779071Y-113041236D01*
X109779071Y-113041236D02*
X109779071Y-113117426D01*
X109779071Y-113117426D02*
X109740976Y-113231712D01*
X109740976Y-113231712D02*
X109283833Y-113688855D01*
X109283833Y-113688855D02*
X109779071Y-113688855D01*
X82990476Y-83565855D02*
X83447619Y-83565855D01*
X83219047Y-84365855D02*
X83219047Y-83565855D01*
X83714286Y-84365855D02*
X83714286Y-83565855D01*
X83714286Y-83565855D02*
X84019048Y-83565855D01*
X84019048Y-83565855D02*
X84095238Y-83603950D01*
X84095238Y-83603950D02*
X84133333Y-83642045D01*
X84133333Y-83642045D02*
X84171429Y-83718236D01*
X84171429Y-83718236D02*
X84171429Y-83832521D01*
X84171429Y-83832521D02*
X84133333Y-83908712D01*
X84133333Y-83908712D02*
X84095238Y-83946807D01*
X84095238Y-83946807D02*
X84019048Y-83984902D01*
X84019048Y-83984902D02*
X83714286Y-83984902D01*
X84438095Y-83565855D02*
X84971429Y-83565855D01*
X84971429Y-83565855D02*
X84628571Y-84365855D01*
X106985714Y-107763855D02*
X106719047Y-107382902D01*
X106528571Y-107763855D02*
X106528571Y-106963855D01*
X106528571Y-106963855D02*
X106833333Y-106963855D01*
X106833333Y-106963855D02*
X106909523Y-107001950D01*
X106909523Y-107001950D02*
X106947618Y-107040045D01*
X106947618Y-107040045D02*
X106985714Y-107116236D01*
X106985714Y-107116236D02*
X106985714Y-107230521D01*
X106985714Y-107230521D02*
X106947618Y-107306712D01*
X106947618Y-107306712D02*
X106909523Y-107344807D01*
X106909523Y-107344807D02*
X106833333Y-107382902D01*
X106833333Y-107382902D02*
X106528571Y-107382902D01*
X107747618Y-107763855D02*
X107290475Y-107763855D01*
X107519047Y-107763855D02*
X107519047Y-106963855D01*
X107519047Y-106963855D02*
X107442856Y-107078140D01*
X107442856Y-107078140D02*
X107366666Y-107154331D01*
X107366666Y-107154331D02*
X107290475Y-107192426D01*
X108509523Y-107763855D02*
X108052380Y-107763855D01*
X108280952Y-107763855D02*
X108280952Y-106963855D01*
X108280952Y-106963855D02*
X108204761Y-107078140D01*
X108204761Y-107078140D02*
X108128571Y-107154331D01*
X108128571Y-107154331D02*
X108052380Y-107192426D01*
X95399436Y-113304080D02*
X95361340Y-113342176D01*
X95361340Y-113342176D02*
X95247055Y-113380271D01*
X95247055Y-113380271D02*
X95170864Y-113380271D01*
X95170864Y-113380271D02*
X95056578Y-113342176D01*
X95056578Y-113342176D02*
X94980388Y-113265985D01*
X94980388Y-113265985D02*
X94942293Y-113189795D01*
X94942293Y-113189795D02*
X94904197Y-113037414D01*
X94904197Y-113037414D02*
X94904197Y-112923128D01*
X94904197Y-112923128D02*
X94942293Y-112770747D01*
X94942293Y-112770747D02*
X94980388Y-112694556D01*
X94980388Y-112694556D02*
X95056578Y-112618366D01*
X95056578Y-112618366D02*
X95170864Y-112580271D01*
X95170864Y-112580271D02*
X95247055Y-112580271D01*
X95247055Y-112580271D02*
X95361340Y-112618366D01*
X95361340Y-112618366D02*
X95399436Y-112656461D01*
X95780388Y-113380271D02*
X95932769Y-113380271D01*
X95932769Y-113380271D02*
X96008959Y-113342176D01*
X96008959Y-113342176D02*
X96047055Y-113304080D01*
X96047055Y-113304080D02*
X96123245Y-113189795D01*
X96123245Y-113189795D02*
X96161340Y-113037414D01*
X96161340Y-113037414D02*
X96161340Y-112732652D01*
X96161340Y-112732652D02*
X96123245Y-112656461D01*
X96123245Y-112656461D02*
X96085150Y-112618366D01*
X96085150Y-112618366D02*
X96008959Y-112580271D01*
X96008959Y-112580271D02*
X95856578Y-112580271D01*
X95856578Y-112580271D02*
X95780388Y-112618366D01*
X95780388Y-112618366D02*
X95742293Y-112656461D01*
X95742293Y-112656461D02*
X95704197Y-112732652D01*
X95704197Y-112732652D02*
X95704197Y-112923128D01*
X95704197Y-112923128D02*
X95742293Y-112999318D01*
X95742293Y-112999318D02*
X95780388Y-113037414D01*
X95780388Y-113037414D02*
X95856578Y-113075509D01*
X95856578Y-113075509D02*
X96008959Y-113075509D01*
X96008959Y-113075509D02*
X96085150Y-113037414D01*
X96085150Y-113037414D02*
X96123245Y-112999318D01*
X96123245Y-112999318D02*
X96161340Y-112923128D01*
X94740476Y-118315855D02*
X95197619Y-118315855D01*
X94969047Y-119115855D02*
X94969047Y-118315855D01*
X95464286Y-119115855D02*
X95464286Y-118315855D01*
X95464286Y-118315855D02*
X95769048Y-118315855D01*
X95769048Y-118315855D02*
X95845238Y-118353950D01*
X95845238Y-118353950D02*
X95883333Y-118392045D01*
X95883333Y-118392045D02*
X95921429Y-118468236D01*
X95921429Y-118468236D02*
X95921429Y-118582521D01*
X95921429Y-118582521D02*
X95883333Y-118658712D01*
X95883333Y-118658712D02*
X95845238Y-118696807D01*
X95845238Y-118696807D02*
X95769048Y-118734902D01*
X95769048Y-118734902D02*
X95464286Y-118734902D01*
X96683333Y-119115855D02*
X96226190Y-119115855D01*
X96454762Y-119115855D02*
X96454762Y-118315855D01*
X96454762Y-118315855D02*
X96378571Y-118430140D01*
X96378571Y-118430140D02*
X96302381Y-118506331D01*
X96302381Y-118506331D02*
X96226190Y-118544426D01*
X120116667Y-99787664D02*
X120078571Y-99825760D01*
X120078571Y-99825760D02*
X119964286Y-99863855D01*
X119964286Y-99863855D02*
X119888095Y-99863855D01*
X119888095Y-99863855D02*
X119773809Y-99825760D01*
X119773809Y-99825760D02*
X119697619Y-99749569D01*
X119697619Y-99749569D02*
X119659524Y-99673379D01*
X119659524Y-99673379D02*
X119621428Y-99520998D01*
X119621428Y-99520998D02*
X119621428Y-99406712D01*
X119621428Y-99406712D02*
X119659524Y-99254331D01*
X119659524Y-99254331D02*
X119697619Y-99178140D01*
X119697619Y-99178140D02*
X119773809Y-99101950D01*
X119773809Y-99101950D02*
X119888095Y-99063855D01*
X119888095Y-99063855D02*
X119964286Y-99063855D01*
X119964286Y-99063855D02*
X120078571Y-99101950D01*
X120078571Y-99101950D02*
X120116667Y-99140045D01*
X120383333Y-99063855D02*
X120916667Y-99063855D01*
X120916667Y-99063855D02*
X120573809Y-99863855D01*
D13*
X85166666Y-58299819D02*
X85166666Y-59014104D01*
X85166666Y-59014104D02*
X85119047Y-59156961D01*
X85119047Y-59156961D02*
X85023809Y-59252200D01*
X85023809Y-59252200D02*
X84880952Y-59299819D01*
X84880952Y-59299819D02*
X84785714Y-59299819D01*
X85785714Y-58728390D02*
X85690476Y-58680771D01*
X85690476Y-58680771D02*
X85642857Y-58633152D01*
X85642857Y-58633152D02*
X85595238Y-58537914D01*
X85595238Y-58537914D02*
X85595238Y-58490295D01*
X85595238Y-58490295D02*
X85642857Y-58395057D01*
X85642857Y-58395057D02*
X85690476Y-58347438D01*
X85690476Y-58347438D02*
X85785714Y-58299819D01*
X85785714Y-58299819D02*
X85976190Y-58299819D01*
X85976190Y-58299819D02*
X86071428Y-58347438D01*
X86071428Y-58347438D02*
X86119047Y-58395057D01*
X86119047Y-58395057D02*
X86166666Y-58490295D01*
X86166666Y-58490295D02*
X86166666Y-58537914D01*
X86166666Y-58537914D02*
X86119047Y-58633152D01*
X86119047Y-58633152D02*
X86071428Y-58680771D01*
X86071428Y-58680771D02*
X85976190Y-58728390D01*
X85976190Y-58728390D02*
X85785714Y-58728390D01*
X85785714Y-58728390D02*
X85690476Y-58776009D01*
X85690476Y-58776009D02*
X85642857Y-58823628D01*
X85642857Y-58823628D02*
X85595238Y-58918866D01*
X85595238Y-58918866D02*
X85595238Y-59109342D01*
X85595238Y-59109342D02*
X85642857Y-59204580D01*
X85642857Y-59204580D02*
X85690476Y-59252200D01*
X85690476Y-59252200D02*
X85785714Y-59299819D01*
X85785714Y-59299819D02*
X85976190Y-59299819D01*
X85976190Y-59299819D02*
X86071428Y-59252200D01*
X86071428Y-59252200D02*
X86119047Y-59204580D01*
X86119047Y-59204580D02*
X86166666Y-59109342D01*
X86166666Y-59109342D02*
X86166666Y-58918866D01*
X86166666Y-58918866D02*
X86119047Y-58823628D01*
X86119047Y-58823628D02*
X86071428Y-58776009D01*
X86071428Y-58776009D02*
X85976190Y-58728390D01*
X85166666Y-66074819D02*
X85166666Y-66789104D01*
X85166666Y-66789104D02*
X85119047Y-66931961D01*
X85119047Y-66931961D02*
X85023809Y-67027200D01*
X85023809Y-67027200D02*
X84880952Y-67074819D01*
X84880952Y-67074819D02*
X84785714Y-67074819D01*
X85690476Y-67074819D02*
X85880952Y-67074819D01*
X85880952Y-67074819D02*
X85976190Y-67027200D01*
X85976190Y-67027200D02*
X86023809Y-66979580D01*
X86023809Y-66979580D02*
X86119047Y-66836723D01*
X86119047Y-66836723D02*
X86166666Y-66646247D01*
X86166666Y-66646247D02*
X86166666Y-66265295D01*
X86166666Y-66265295D02*
X86119047Y-66170057D01*
X86119047Y-66170057D02*
X86071428Y-66122438D01*
X86071428Y-66122438D02*
X85976190Y-66074819D01*
X85976190Y-66074819D02*
X85785714Y-66074819D01*
X85785714Y-66074819D02*
X85690476Y-66122438D01*
X85690476Y-66122438D02*
X85642857Y-66170057D01*
X85642857Y-66170057D02*
X85595238Y-66265295D01*
X85595238Y-66265295D02*
X85595238Y-66503390D01*
X85595238Y-66503390D02*
X85642857Y-66598628D01*
X85642857Y-66598628D02*
X85690476Y-66646247D01*
X85690476Y-66646247D02*
X85785714Y-66693866D01*
X85785714Y-66693866D02*
X85976190Y-66693866D01*
X85976190Y-66693866D02*
X86071428Y-66646247D01*
X86071428Y-66646247D02*
X86119047Y-66598628D01*
X86119047Y-66598628D02*
X86166666Y-66503390D01*
D12*
X104735714Y-104563855D02*
X104469047Y-104182902D01*
X104278571Y-104563855D02*
X104278571Y-103763855D01*
X104278571Y-103763855D02*
X104583333Y-103763855D01*
X104583333Y-103763855D02*
X104659523Y-103801950D01*
X104659523Y-103801950D02*
X104697618Y-103840045D01*
X104697618Y-103840045D02*
X104735714Y-103916236D01*
X104735714Y-103916236D02*
X104735714Y-104030521D01*
X104735714Y-104030521D02*
X104697618Y-104106712D01*
X104697618Y-104106712D02*
X104659523Y-104144807D01*
X104659523Y-104144807D02*
X104583333Y-104182902D01*
X104583333Y-104182902D02*
X104278571Y-104182902D01*
X105497618Y-104563855D02*
X105040475Y-104563855D01*
X105269047Y-104563855D02*
X105269047Y-103763855D01*
X105269047Y-103763855D02*
X105192856Y-103878140D01*
X105192856Y-103878140D02*
X105116666Y-103954331D01*
X105116666Y-103954331D02*
X105040475Y-103992426D01*
X105802380Y-103840045D02*
X105840476Y-103801950D01*
X105840476Y-103801950D02*
X105916666Y-103763855D01*
X105916666Y-103763855D02*
X106107142Y-103763855D01*
X106107142Y-103763855D02*
X106183333Y-103801950D01*
X106183333Y-103801950D02*
X106221428Y-103840045D01*
X106221428Y-103840045D02*
X106259523Y-103916236D01*
X106259523Y-103916236D02*
X106259523Y-103992426D01*
X106259523Y-103992426D02*
X106221428Y-104106712D01*
X106221428Y-104106712D02*
X105764285Y-104563855D01*
X105764285Y-104563855D02*
X106259523Y-104563855D01*
X105783333Y-122494807D02*
X105516667Y-122494807D01*
X105516667Y-122913855D02*
X105516667Y-122113855D01*
X105516667Y-122113855D02*
X105897619Y-122113855D01*
X106621428Y-122913855D02*
X106164285Y-122913855D01*
X106392857Y-122913855D02*
X106392857Y-122113855D01*
X106392857Y-122113855D02*
X106316666Y-122228140D01*
X106316666Y-122228140D02*
X106240476Y-122304331D01*
X106240476Y-122304331D02*
X106164285Y-122342426D01*
X94768483Y-108804080D02*
X94730387Y-108842176D01*
X94730387Y-108842176D02*
X94616102Y-108880271D01*
X94616102Y-108880271D02*
X94539911Y-108880271D01*
X94539911Y-108880271D02*
X94425625Y-108842176D01*
X94425625Y-108842176D02*
X94349435Y-108765985D01*
X94349435Y-108765985D02*
X94311340Y-108689795D01*
X94311340Y-108689795D02*
X94273244Y-108537414D01*
X94273244Y-108537414D02*
X94273244Y-108423128D01*
X94273244Y-108423128D02*
X94311340Y-108270747D01*
X94311340Y-108270747D02*
X94349435Y-108194556D01*
X94349435Y-108194556D02*
X94425625Y-108118366D01*
X94425625Y-108118366D02*
X94539911Y-108080271D01*
X94539911Y-108080271D02*
X94616102Y-108080271D01*
X94616102Y-108080271D02*
X94730387Y-108118366D01*
X94730387Y-108118366D02*
X94768483Y-108156461D01*
X95530387Y-108880271D02*
X95073244Y-108880271D01*
X95301816Y-108880271D02*
X95301816Y-108080271D01*
X95301816Y-108080271D02*
X95225625Y-108194556D01*
X95225625Y-108194556D02*
X95149435Y-108270747D01*
X95149435Y-108270747D02*
X95073244Y-108308842D01*
X96292292Y-108880271D02*
X95835149Y-108880271D01*
X96063721Y-108880271D02*
X96063721Y-108080271D01*
X96063721Y-108080271D02*
X95987530Y-108194556D01*
X95987530Y-108194556D02*
X95911340Y-108270747D01*
X95911340Y-108270747D02*
X95835149Y-108308842D01*
X136616667Y-100613855D02*
X136350000Y-100232902D01*
X136159524Y-100613855D02*
X136159524Y-99813855D01*
X136159524Y-99813855D02*
X136464286Y-99813855D01*
X136464286Y-99813855D02*
X136540476Y-99851950D01*
X136540476Y-99851950D02*
X136578571Y-99890045D01*
X136578571Y-99890045D02*
X136616667Y-99966236D01*
X136616667Y-99966236D02*
X136616667Y-100080521D01*
X136616667Y-100080521D02*
X136578571Y-100156712D01*
X136578571Y-100156712D02*
X136540476Y-100194807D01*
X136540476Y-100194807D02*
X136464286Y-100232902D01*
X136464286Y-100232902D02*
X136159524Y-100232902D01*
X137378571Y-100613855D02*
X136921428Y-100613855D01*
X137150000Y-100613855D02*
X137150000Y-99813855D01*
X137150000Y-99813855D02*
X137073809Y-99928140D01*
X137073809Y-99928140D02*
X136997619Y-100004331D01*
X136997619Y-100004331D02*
X136921428Y-100042426D01*
X92235714Y-94287664D02*
X92197618Y-94325760D01*
X92197618Y-94325760D02*
X92083333Y-94363855D01*
X92083333Y-94363855D02*
X92007142Y-94363855D01*
X92007142Y-94363855D02*
X91892856Y-94325760D01*
X91892856Y-94325760D02*
X91816666Y-94249569D01*
X91816666Y-94249569D02*
X91778571Y-94173379D01*
X91778571Y-94173379D02*
X91740475Y-94020998D01*
X91740475Y-94020998D02*
X91740475Y-93906712D01*
X91740475Y-93906712D02*
X91778571Y-93754331D01*
X91778571Y-93754331D02*
X91816666Y-93678140D01*
X91816666Y-93678140D02*
X91892856Y-93601950D01*
X91892856Y-93601950D02*
X92007142Y-93563855D01*
X92007142Y-93563855D02*
X92083333Y-93563855D01*
X92083333Y-93563855D02*
X92197618Y-93601950D01*
X92197618Y-93601950D02*
X92235714Y-93640045D01*
X92997618Y-94363855D02*
X92540475Y-94363855D01*
X92769047Y-94363855D02*
X92769047Y-93563855D01*
X92769047Y-93563855D02*
X92692856Y-93678140D01*
X92692856Y-93678140D02*
X92616666Y-93754331D01*
X92616666Y-93754331D02*
X92540475Y-93792426D01*
X93721428Y-93563855D02*
X93340476Y-93563855D01*
X93340476Y-93563855D02*
X93302380Y-93944807D01*
X93302380Y-93944807D02*
X93340476Y-93906712D01*
X93340476Y-93906712D02*
X93416666Y-93868617D01*
X93416666Y-93868617D02*
X93607142Y-93868617D01*
X93607142Y-93868617D02*
X93683333Y-93906712D01*
X93683333Y-93906712D02*
X93721428Y-93944807D01*
X93721428Y-93944807D02*
X93759523Y-94020998D01*
X93759523Y-94020998D02*
X93759523Y-94211474D01*
X93759523Y-94211474D02*
X93721428Y-94287664D01*
X93721428Y-94287664D02*
X93683333Y-94325760D01*
X93683333Y-94325760D02*
X93607142Y-94363855D01*
X93607142Y-94363855D02*
X93416666Y-94363855D01*
X93416666Y-94363855D02*
X93340476Y-94325760D01*
X93340476Y-94325760D02*
X93302380Y-94287664D01*
X143833333Y-99563855D02*
X143833333Y-100135283D01*
X143833333Y-100135283D02*
X143795238Y-100249569D01*
X143795238Y-100249569D02*
X143719047Y-100325760D01*
X143719047Y-100325760D02*
X143604762Y-100363855D01*
X143604762Y-100363855D02*
X143528571Y-100363855D01*
X144214286Y-100363855D02*
X144214286Y-99563855D01*
X144214286Y-99563855D02*
X144519048Y-99563855D01*
X144519048Y-99563855D02*
X144595238Y-99601950D01*
X144595238Y-99601950D02*
X144633333Y-99640045D01*
X144633333Y-99640045D02*
X144671429Y-99716236D01*
X144671429Y-99716236D02*
X144671429Y-99830521D01*
X144671429Y-99830521D02*
X144633333Y-99906712D01*
X144633333Y-99906712D02*
X144595238Y-99944807D01*
X144595238Y-99944807D02*
X144519048Y-99982902D01*
X144519048Y-99982902D02*
X144214286Y-99982902D01*
X145433333Y-100363855D02*
X144976190Y-100363855D01*
X145204762Y-100363855D02*
X145204762Y-99563855D01*
X145204762Y-99563855D02*
X145128571Y-99678140D01*
X145128571Y-99678140D02*
X145052381Y-99754331D01*
X145052381Y-99754331D02*
X144976190Y-99792426D01*
X145254762Y-103813855D02*
X145407143Y-103813855D01*
X145407143Y-103813855D02*
X145483333Y-103851950D01*
X145483333Y-103851950D02*
X145559524Y-103928140D01*
X145559524Y-103928140D02*
X145597619Y-104080521D01*
X145597619Y-104080521D02*
X145597619Y-104347188D01*
X145597619Y-104347188D02*
X145559524Y-104499569D01*
X145559524Y-104499569D02*
X145483333Y-104575760D01*
X145483333Y-104575760D02*
X145407143Y-104613855D01*
X145407143Y-104613855D02*
X145254762Y-104613855D01*
X145254762Y-104613855D02*
X145178571Y-104575760D01*
X145178571Y-104575760D02*
X145102381Y-104499569D01*
X145102381Y-104499569D02*
X145064285Y-104347188D01*
X145064285Y-104347188D02*
X145064285Y-104080521D01*
X145064285Y-104080521D02*
X145102381Y-103928140D01*
X145102381Y-103928140D02*
X145178571Y-103851950D01*
X145178571Y-103851950D02*
X145254762Y-103813855D01*
X145940476Y-104613855D02*
X145940476Y-103813855D01*
X145940476Y-103813855D02*
X146397619Y-104613855D01*
X146397619Y-104613855D02*
X146397619Y-103813855D01*
X142038096Y-103813855D02*
X142190477Y-103813855D01*
X142190477Y-103813855D02*
X142266667Y-103851950D01*
X142266667Y-103851950D02*
X142342858Y-103928140D01*
X142342858Y-103928140D02*
X142380953Y-104080521D01*
X142380953Y-104080521D02*
X142380953Y-104347188D01*
X142380953Y-104347188D02*
X142342858Y-104499569D01*
X142342858Y-104499569D02*
X142266667Y-104575760D01*
X142266667Y-104575760D02*
X142190477Y-104613855D01*
X142190477Y-104613855D02*
X142038096Y-104613855D01*
X142038096Y-104613855D02*
X141961905Y-104575760D01*
X141961905Y-104575760D02*
X141885715Y-104499569D01*
X141885715Y-104499569D02*
X141847619Y-104347188D01*
X141847619Y-104347188D02*
X141847619Y-104080521D01*
X141847619Y-104080521D02*
X141885715Y-103928140D01*
X141885715Y-103928140D02*
X141961905Y-103851950D01*
X141961905Y-103851950D02*
X142038096Y-103813855D01*
X142990476Y-104194807D02*
X142723810Y-104194807D01*
X142723810Y-104613855D02*
X142723810Y-103813855D01*
X142723810Y-103813855D02*
X143104762Y-103813855D01*
X143676190Y-104194807D02*
X143409524Y-104194807D01*
X143409524Y-104613855D02*
X143409524Y-103813855D01*
X143409524Y-103813855D02*
X143790476Y-103813855D01*
X92235714Y-92037664D02*
X92197618Y-92075760D01*
X92197618Y-92075760D02*
X92083333Y-92113855D01*
X92083333Y-92113855D02*
X92007142Y-92113855D01*
X92007142Y-92113855D02*
X91892856Y-92075760D01*
X91892856Y-92075760D02*
X91816666Y-91999569D01*
X91816666Y-91999569D02*
X91778571Y-91923379D01*
X91778571Y-91923379D02*
X91740475Y-91770998D01*
X91740475Y-91770998D02*
X91740475Y-91656712D01*
X91740475Y-91656712D02*
X91778571Y-91504331D01*
X91778571Y-91504331D02*
X91816666Y-91428140D01*
X91816666Y-91428140D02*
X91892856Y-91351950D01*
X91892856Y-91351950D02*
X92007142Y-91313855D01*
X92007142Y-91313855D02*
X92083333Y-91313855D01*
X92083333Y-91313855D02*
X92197618Y-91351950D01*
X92197618Y-91351950D02*
X92235714Y-91390045D01*
X92997618Y-92113855D02*
X92540475Y-92113855D01*
X92769047Y-92113855D02*
X92769047Y-91313855D01*
X92769047Y-91313855D02*
X92692856Y-91428140D01*
X92692856Y-91428140D02*
X92616666Y-91504331D01*
X92616666Y-91504331D02*
X92540475Y-91542426D01*
X93683333Y-91580521D02*
X93683333Y-92113855D01*
X93492857Y-91275760D02*
X93302380Y-91847188D01*
X93302380Y-91847188D02*
X93797619Y-91847188D01*
X138116667Y-111363855D02*
X137850000Y-110982902D01*
X137659524Y-111363855D02*
X137659524Y-110563855D01*
X137659524Y-110563855D02*
X137964286Y-110563855D01*
X137964286Y-110563855D02*
X138040476Y-110601950D01*
X138040476Y-110601950D02*
X138078571Y-110640045D01*
X138078571Y-110640045D02*
X138116667Y-110716236D01*
X138116667Y-110716236D02*
X138116667Y-110830521D01*
X138116667Y-110830521D02*
X138078571Y-110906712D01*
X138078571Y-110906712D02*
X138040476Y-110944807D01*
X138040476Y-110944807D02*
X137964286Y-110982902D01*
X137964286Y-110982902D02*
X137659524Y-110982902D01*
X138383333Y-110563855D02*
X138878571Y-110563855D01*
X138878571Y-110563855D02*
X138611905Y-110868617D01*
X138611905Y-110868617D02*
X138726190Y-110868617D01*
X138726190Y-110868617D02*
X138802381Y-110906712D01*
X138802381Y-110906712D02*
X138840476Y-110944807D01*
X138840476Y-110944807D02*
X138878571Y-111020998D01*
X138878571Y-111020998D02*
X138878571Y-111211474D01*
X138878571Y-111211474D02*
X138840476Y-111287664D01*
X138840476Y-111287664D02*
X138802381Y-111325760D01*
X138802381Y-111325760D02*
X138726190Y-111363855D01*
X138726190Y-111363855D02*
X138497619Y-111363855D01*
X138497619Y-111363855D02*
X138421428Y-111325760D01*
X138421428Y-111325760D02*
X138383333Y-111287664D01*
X82740476Y-91315855D02*
X83197619Y-91315855D01*
X82969047Y-92115855D02*
X82969047Y-91315855D01*
X83464286Y-92115855D02*
X83464286Y-91315855D01*
X83464286Y-91315855D02*
X83769048Y-91315855D01*
X83769048Y-91315855D02*
X83845238Y-91353950D01*
X83845238Y-91353950D02*
X83883333Y-91392045D01*
X83883333Y-91392045D02*
X83921429Y-91468236D01*
X83921429Y-91468236D02*
X83921429Y-91582521D01*
X83921429Y-91582521D02*
X83883333Y-91658712D01*
X83883333Y-91658712D02*
X83845238Y-91696807D01*
X83845238Y-91696807D02*
X83769048Y-91734902D01*
X83769048Y-91734902D02*
X83464286Y-91734902D01*
X84607143Y-91315855D02*
X84454762Y-91315855D01*
X84454762Y-91315855D02*
X84378571Y-91353950D01*
X84378571Y-91353950D02*
X84340476Y-91392045D01*
X84340476Y-91392045D02*
X84264286Y-91506331D01*
X84264286Y-91506331D02*
X84226190Y-91658712D01*
X84226190Y-91658712D02*
X84226190Y-91963474D01*
X84226190Y-91963474D02*
X84264286Y-92039664D01*
X84264286Y-92039664D02*
X84302381Y-92077760D01*
X84302381Y-92077760D02*
X84378571Y-92115855D01*
X84378571Y-92115855D02*
X84530952Y-92115855D01*
X84530952Y-92115855D02*
X84607143Y-92077760D01*
X84607143Y-92077760D02*
X84645238Y-92039664D01*
X84645238Y-92039664D02*
X84683333Y-91963474D01*
X84683333Y-91963474D02*
X84683333Y-91772998D01*
X84683333Y-91772998D02*
X84645238Y-91696807D01*
X84645238Y-91696807D02*
X84607143Y-91658712D01*
X84607143Y-91658712D02*
X84530952Y-91620617D01*
X84530952Y-91620617D02*
X84378571Y-91620617D01*
X84378571Y-91620617D02*
X84302381Y-91658712D01*
X84302381Y-91658712D02*
X84264286Y-91696807D01*
X84264286Y-91696807D02*
X84226190Y-91772998D01*
D13*
X141666666Y-55914819D02*
X141666666Y-56629104D01*
X141666666Y-56629104D02*
X141619047Y-56771961D01*
X141619047Y-56771961D02*
X141523809Y-56867200D01*
X141523809Y-56867200D02*
X141380952Y-56914819D01*
X141380952Y-56914819D02*
X141285714Y-56914819D01*
X142619047Y-55914819D02*
X142142857Y-55914819D01*
X142142857Y-55914819D02*
X142095238Y-56391009D01*
X142095238Y-56391009D02*
X142142857Y-56343390D01*
X142142857Y-56343390D02*
X142238095Y-56295771D01*
X142238095Y-56295771D02*
X142476190Y-56295771D01*
X142476190Y-56295771D02*
X142571428Y-56343390D01*
X142571428Y-56343390D02*
X142619047Y-56391009D01*
X142619047Y-56391009D02*
X142666666Y-56486247D01*
X142666666Y-56486247D02*
X142666666Y-56724342D01*
X142666666Y-56724342D02*
X142619047Y-56819580D01*
X142619047Y-56819580D02*
X142571428Y-56867200D01*
X142571428Y-56867200D02*
X142476190Y-56914819D01*
X142476190Y-56914819D02*
X142238095Y-56914819D01*
X142238095Y-56914819D02*
X142142857Y-56867200D01*
X142142857Y-56867200D02*
X142095238Y-56819580D01*
D12*
X115990476Y-104563855D02*
X116447619Y-104563855D01*
X116219047Y-105363855D02*
X116219047Y-104563855D01*
X116714286Y-105363855D02*
X116714286Y-104563855D01*
X116714286Y-104563855D02*
X117019048Y-104563855D01*
X117019048Y-104563855D02*
X117095238Y-104601950D01*
X117095238Y-104601950D02*
X117133333Y-104640045D01*
X117133333Y-104640045D02*
X117171429Y-104716236D01*
X117171429Y-104716236D02*
X117171429Y-104830521D01*
X117171429Y-104830521D02*
X117133333Y-104906712D01*
X117133333Y-104906712D02*
X117095238Y-104944807D01*
X117095238Y-104944807D02*
X117019048Y-104982902D01*
X117019048Y-104982902D02*
X116714286Y-104982902D01*
X117438095Y-104563855D02*
X117933333Y-104563855D01*
X117933333Y-104563855D02*
X117666667Y-104868617D01*
X117666667Y-104868617D02*
X117780952Y-104868617D01*
X117780952Y-104868617D02*
X117857143Y-104906712D01*
X117857143Y-104906712D02*
X117895238Y-104944807D01*
X117895238Y-104944807D02*
X117933333Y-105020998D01*
X117933333Y-105020998D02*
X117933333Y-105211474D01*
X117933333Y-105211474D02*
X117895238Y-105287664D01*
X117895238Y-105287664D02*
X117857143Y-105325760D01*
X117857143Y-105325760D02*
X117780952Y-105363855D01*
X117780952Y-105363855D02*
X117552381Y-105363855D01*
X117552381Y-105363855D02*
X117476190Y-105325760D01*
X117476190Y-105325760D02*
X117438095Y-105287664D01*
X145866667Y-109613855D02*
X145600000Y-109232902D01*
X145409524Y-109613855D02*
X145409524Y-108813855D01*
X145409524Y-108813855D02*
X145714286Y-108813855D01*
X145714286Y-108813855D02*
X145790476Y-108851950D01*
X145790476Y-108851950D02*
X145828571Y-108890045D01*
X145828571Y-108890045D02*
X145866667Y-108966236D01*
X145866667Y-108966236D02*
X145866667Y-109080521D01*
X145866667Y-109080521D02*
X145828571Y-109156712D01*
X145828571Y-109156712D02*
X145790476Y-109194807D01*
X145790476Y-109194807D02*
X145714286Y-109232902D01*
X145714286Y-109232902D02*
X145409524Y-109232902D01*
X146133333Y-108813855D02*
X146666667Y-108813855D01*
X146666667Y-108813855D02*
X146323809Y-109613855D01*
X120116667Y-97287664D02*
X120078571Y-97325760D01*
X120078571Y-97325760D02*
X119964286Y-97363855D01*
X119964286Y-97363855D02*
X119888095Y-97363855D01*
X119888095Y-97363855D02*
X119773809Y-97325760D01*
X119773809Y-97325760D02*
X119697619Y-97249569D01*
X119697619Y-97249569D02*
X119659524Y-97173379D01*
X119659524Y-97173379D02*
X119621428Y-97020998D01*
X119621428Y-97020998D02*
X119621428Y-96906712D01*
X119621428Y-96906712D02*
X119659524Y-96754331D01*
X119659524Y-96754331D02*
X119697619Y-96678140D01*
X119697619Y-96678140D02*
X119773809Y-96601950D01*
X119773809Y-96601950D02*
X119888095Y-96563855D01*
X119888095Y-96563855D02*
X119964286Y-96563855D01*
X119964286Y-96563855D02*
X120078571Y-96601950D01*
X120078571Y-96601950D02*
X120116667Y-96640045D01*
X120802381Y-96563855D02*
X120650000Y-96563855D01*
X120650000Y-96563855D02*
X120573809Y-96601950D01*
X120573809Y-96601950D02*
X120535714Y-96640045D01*
X120535714Y-96640045D02*
X120459524Y-96754331D01*
X120459524Y-96754331D02*
X120421428Y-96906712D01*
X120421428Y-96906712D02*
X120421428Y-97211474D01*
X120421428Y-97211474D02*
X120459524Y-97287664D01*
X120459524Y-97287664D02*
X120497619Y-97325760D01*
X120497619Y-97325760D02*
X120573809Y-97363855D01*
X120573809Y-97363855D02*
X120726190Y-97363855D01*
X120726190Y-97363855D02*
X120802381Y-97325760D01*
X120802381Y-97325760D02*
X120840476Y-97287664D01*
X120840476Y-97287664D02*
X120878571Y-97211474D01*
X120878571Y-97211474D02*
X120878571Y-97020998D01*
X120878571Y-97020998D02*
X120840476Y-96944807D01*
X120840476Y-96944807D02*
X120802381Y-96906712D01*
X120802381Y-96906712D02*
X120726190Y-96868617D01*
X120726190Y-96868617D02*
X120573809Y-96868617D01*
X120573809Y-96868617D02*
X120497619Y-96906712D01*
X120497619Y-96906712D02*
X120459524Y-96944807D01*
X120459524Y-96944807D02*
X120421428Y-97020998D01*
X132233333Y-89584042D02*
X132233333Y-90155470D01*
X132233333Y-90155470D02*
X132195238Y-90269756D01*
X132195238Y-90269756D02*
X132119047Y-90345947D01*
X132119047Y-90345947D02*
X132004762Y-90384042D01*
X132004762Y-90384042D02*
X131928571Y-90384042D01*
X132957143Y-89584042D02*
X132804762Y-89584042D01*
X132804762Y-89584042D02*
X132728571Y-89622137D01*
X132728571Y-89622137D02*
X132690476Y-89660232D01*
X132690476Y-89660232D02*
X132614286Y-89774518D01*
X132614286Y-89774518D02*
X132576190Y-89926899D01*
X132576190Y-89926899D02*
X132576190Y-90231661D01*
X132576190Y-90231661D02*
X132614286Y-90307851D01*
X132614286Y-90307851D02*
X132652381Y-90345947D01*
X132652381Y-90345947D02*
X132728571Y-90384042D01*
X132728571Y-90384042D02*
X132880952Y-90384042D01*
X132880952Y-90384042D02*
X132957143Y-90345947D01*
X132957143Y-90345947D02*
X132995238Y-90307851D01*
X132995238Y-90307851D02*
X133033333Y-90231661D01*
X133033333Y-90231661D02*
X133033333Y-90041185D01*
X133033333Y-90041185D02*
X132995238Y-89964994D01*
X132995238Y-89964994D02*
X132957143Y-89926899D01*
X132957143Y-89926899D02*
X132880952Y-89888804D01*
X132880952Y-89888804D02*
X132728571Y-89888804D01*
X132728571Y-89888804D02*
X132652381Y-89926899D01*
X132652381Y-89926899D02*
X132614286Y-89964994D01*
X132614286Y-89964994D02*
X132576190Y-90041185D01*
D13*
X141666666Y-73004819D02*
X141666666Y-73719104D01*
X141666666Y-73719104D02*
X141619047Y-73861961D01*
X141619047Y-73861961D02*
X141523809Y-73957200D01*
X141523809Y-73957200D02*
X141380952Y-74004819D01*
X141380952Y-74004819D02*
X141285714Y-74004819D01*
X142047619Y-73004819D02*
X142714285Y-73004819D01*
X142714285Y-73004819D02*
X142285714Y-74004819D01*
D12*
X132404167Y-111037664D02*
X132366071Y-111075760D01*
X132366071Y-111075760D02*
X132251786Y-111113855D01*
X132251786Y-111113855D02*
X132175595Y-111113855D01*
X132175595Y-111113855D02*
X132061309Y-111075760D01*
X132061309Y-111075760D02*
X131985119Y-110999569D01*
X131985119Y-110999569D02*
X131947024Y-110923379D01*
X131947024Y-110923379D02*
X131908928Y-110770998D01*
X131908928Y-110770998D02*
X131908928Y-110656712D01*
X131908928Y-110656712D02*
X131947024Y-110504331D01*
X131947024Y-110504331D02*
X131985119Y-110428140D01*
X131985119Y-110428140D02*
X132061309Y-110351950D01*
X132061309Y-110351950D02*
X132175595Y-110313855D01*
X132175595Y-110313855D02*
X132251786Y-110313855D01*
X132251786Y-110313855D02*
X132366071Y-110351950D01*
X132366071Y-110351950D02*
X132404167Y-110390045D01*
X132670833Y-110313855D02*
X133166071Y-110313855D01*
X133166071Y-110313855D02*
X132899405Y-110618617D01*
X132899405Y-110618617D02*
X133013690Y-110618617D01*
X133013690Y-110618617D02*
X133089881Y-110656712D01*
X133089881Y-110656712D02*
X133127976Y-110694807D01*
X133127976Y-110694807D02*
X133166071Y-110770998D01*
X133166071Y-110770998D02*
X133166071Y-110961474D01*
X133166071Y-110961474D02*
X133127976Y-111037664D01*
X133127976Y-111037664D02*
X133089881Y-111075760D01*
X133089881Y-111075760D02*
X133013690Y-111113855D01*
X133013690Y-111113855D02*
X132785119Y-111113855D01*
X132785119Y-111113855D02*
X132708928Y-111075760D01*
X132708928Y-111075760D02*
X132670833Y-111037664D01*
X146116667Y-114613855D02*
X145850000Y-114232902D01*
X145659524Y-114613855D02*
X145659524Y-113813855D01*
X145659524Y-113813855D02*
X145964286Y-113813855D01*
X145964286Y-113813855D02*
X146040476Y-113851950D01*
X146040476Y-113851950D02*
X146078571Y-113890045D01*
X146078571Y-113890045D02*
X146116667Y-113966236D01*
X146116667Y-113966236D02*
X146116667Y-114080521D01*
X146116667Y-114080521D02*
X146078571Y-114156712D01*
X146078571Y-114156712D02*
X146040476Y-114194807D01*
X146040476Y-114194807D02*
X145964286Y-114232902D01*
X145964286Y-114232902D02*
X145659524Y-114232902D01*
X146421428Y-113890045D02*
X146459524Y-113851950D01*
X146459524Y-113851950D02*
X146535714Y-113813855D01*
X146535714Y-113813855D02*
X146726190Y-113813855D01*
X146726190Y-113813855D02*
X146802381Y-113851950D01*
X146802381Y-113851950D02*
X146840476Y-113890045D01*
X146840476Y-113890045D02*
X146878571Y-113966236D01*
X146878571Y-113966236D02*
X146878571Y-114042426D01*
X146878571Y-114042426D02*
X146840476Y-114156712D01*
X146840476Y-114156712D02*
X146383333Y-114613855D01*
X146383333Y-114613855D02*
X146878571Y-114613855D01*
X129659524Y-115023855D02*
X129659524Y-114223855D01*
X129659524Y-114223855D02*
X129850000Y-114223855D01*
X129850000Y-114223855D02*
X129964286Y-114261950D01*
X129964286Y-114261950D02*
X130040476Y-114338140D01*
X130040476Y-114338140D02*
X130078571Y-114414331D01*
X130078571Y-114414331D02*
X130116667Y-114566712D01*
X130116667Y-114566712D02*
X130116667Y-114680998D01*
X130116667Y-114680998D02*
X130078571Y-114833379D01*
X130078571Y-114833379D02*
X130040476Y-114909569D01*
X130040476Y-114909569D02*
X129964286Y-114985760D01*
X129964286Y-114985760D02*
X129850000Y-115023855D01*
X129850000Y-115023855D02*
X129659524Y-115023855D01*
X130878571Y-115023855D02*
X130421428Y-115023855D01*
X130650000Y-115023855D02*
X130650000Y-114223855D01*
X130650000Y-114223855D02*
X130573809Y-114338140D01*
X130573809Y-114338140D02*
X130497619Y-114414331D01*
X130497619Y-114414331D02*
X130421428Y-114452426D01*
X105416667Y-101963855D02*
X105150000Y-101582902D01*
X104959524Y-101963855D02*
X104959524Y-101163855D01*
X104959524Y-101163855D02*
X105264286Y-101163855D01*
X105264286Y-101163855D02*
X105340476Y-101201950D01*
X105340476Y-101201950D02*
X105378571Y-101240045D01*
X105378571Y-101240045D02*
X105416667Y-101316236D01*
X105416667Y-101316236D02*
X105416667Y-101430521D01*
X105416667Y-101430521D02*
X105378571Y-101506712D01*
X105378571Y-101506712D02*
X105340476Y-101544807D01*
X105340476Y-101544807D02*
X105264286Y-101582902D01*
X105264286Y-101582902D02*
X104959524Y-101582902D01*
X105797619Y-101963855D02*
X105950000Y-101963855D01*
X105950000Y-101963855D02*
X106026190Y-101925760D01*
X106026190Y-101925760D02*
X106064286Y-101887664D01*
X106064286Y-101887664D02*
X106140476Y-101773379D01*
X106140476Y-101773379D02*
X106178571Y-101620998D01*
X106178571Y-101620998D02*
X106178571Y-101316236D01*
X106178571Y-101316236D02*
X106140476Y-101240045D01*
X106140476Y-101240045D02*
X106102381Y-101201950D01*
X106102381Y-101201950D02*
X106026190Y-101163855D01*
X106026190Y-101163855D02*
X105873809Y-101163855D01*
X105873809Y-101163855D02*
X105797619Y-101201950D01*
X105797619Y-101201950D02*
X105759524Y-101240045D01*
X105759524Y-101240045D02*
X105721428Y-101316236D01*
X105721428Y-101316236D02*
X105721428Y-101506712D01*
X105721428Y-101506712D02*
X105759524Y-101582902D01*
X105759524Y-101582902D02*
X105797619Y-101620998D01*
X105797619Y-101620998D02*
X105873809Y-101659093D01*
X105873809Y-101659093D02*
X106026190Y-101659093D01*
X106026190Y-101659093D02*
X106102381Y-101620998D01*
X106102381Y-101620998D02*
X106140476Y-101582902D01*
X106140476Y-101582902D02*
X106178571Y-101506712D01*
X138116667Y-113537664D02*
X138078571Y-113575760D01*
X138078571Y-113575760D02*
X137964286Y-113613855D01*
X137964286Y-113613855D02*
X137888095Y-113613855D01*
X137888095Y-113613855D02*
X137773809Y-113575760D01*
X137773809Y-113575760D02*
X137697619Y-113499569D01*
X137697619Y-113499569D02*
X137659524Y-113423379D01*
X137659524Y-113423379D02*
X137621428Y-113270998D01*
X137621428Y-113270998D02*
X137621428Y-113156712D01*
X137621428Y-113156712D02*
X137659524Y-113004331D01*
X137659524Y-113004331D02*
X137697619Y-112928140D01*
X137697619Y-112928140D02*
X137773809Y-112851950D01*
X137773809Y-112851950D02*
X137888095Y-112813855D01*
X137888095Y-112813855D02*
X137964286Y-112813855D01*
X137964286Y-112813855D02*
X138078571Y-112851950D01*
X138078571Y-112851950D02*
X138116667Y-112890045D01*
X138840476Y-112813855D02*
X138459524Y-112813855D01*
X138459524Y-112813855D02*
X138421428Y-113194807D01*
X138421428Y-113194807D02*
X138459524Y-113156712D01*
X138459524Y-113156712D02*
X138535714Y-113118617D01*
X138535714Y-113118617D02*
X138726190Y-113118617D01*
X138726190Y-113118617D02*
X138802381Y-113156712D01*
X138802381Y-113156712D02*
X138840476Y-113194807D01*
X138840476Y-113194807D02*
X138878571Y-113270998D01*
X138878571Y-113270998D02*
X138878571Y-113461474D01*
X138878571Y-113461474D02*
X138840476Y-113537664D01*
X138840476Y-113537664D02*
X138802381Y-113575760D01*
X138802381Y-113575760D02*
X138726190Y-113613855D01*
X138726190Y-113613855D02*
X138535714Y-113613855D01*
X138535714Y-113613855D02*
X138459524Y-113575760D01*
X138459524Y-113575760D02*
X138421428Y-113537664D01*
X120116667Y-102287664D02*
X120078571Y-102325760D01*
X120078571Y-102325760D02*
X119964286Y-102363855D01*
X119964286Y-102363855D02*
X119888095Y-102363855D01*
X119888095Y-102363855D02*
X119773809Y-102325760D01*
X119773809Y-102325760D02*
X119697619Y-102249569D01*
X119697619Y-102249569D02*
X119659524Y-102173379D01*
X119659524Y-102173379D02*
X119621428Y-102020998D01*
X119621428Y-102020998D02*
X119621428Y-101906712D01*
X119621428Y-101906712D02*
X119659524Y-101754331D01*
X119659524Y-101754331D02*
X119697619Y-101678140D01*
X119697619Y-101678140D02*
X119773809Y-101601950D01*
X119773809Y-101601950D02*
X119888095Y-101563855D01*
X119888095Y-101563855D02*
X119964286Y-101563855D01*
X119964286Y-101563855D02*
X120078571Y-101601950D01*
X120078571Y-101601950D02*
X120116667Y-101640045D01*
X120573809Y-101906712D02*
X120497619Y-101868617D01*
X120497619Y-101868617D02*
X120459524Y-101830521D01*
X120459524Y-101830521D02*
X120421428Y-101754331D01*
X120421428Y-101754331D02*
X120421428Y-101716236D01*
X120421428Y-101716236D02*
X120459524Y-101640045D01*
X120459524Y-101640045D02*
X120497619Y-101601950D01*
X120497619Y-101601950D02*
X120573809Y-101563855D01*
X120573809Y-101563855D02*
X120726190Y-101563855D01*
X120726190Y-101563855D02*
X120802381Y-101601950D01*
X120802381Y-101601950D02*
X120840476Y-101640045D01*
X120840476Y-101640045D02*
X120878571Y-101716236D01*
X120878571Y-101716236D02*
X120878571Y-101754331D01*
X120878571Y-101754331D02*
X120840476Y-101830521D01*
X120840476Y-101830521D02*
X120802381Y-101868617D01*
X120802381Y-101868617D02*
X120726190Y-101906712D01*
X120726190Y-101906712D02*
X120573809Y-101906712D01*
X120573809Y-101906712D02*
X120497619Y-101944807D01*
X120497619Y-101944807D02*
X120459524Y-101982902D01*
X120459524Y-101982902D02*
X120421428Y-102059093D01*
X120421428Y-102059093D02*
X120421428Y-102211474D01*
X120421428Y-102211474D02*
X120459524Y-102287664D01*
X120459524Y-102287664D02*
X120497619Y-102325760D01*
X120497619Y-102325760D02*
X120573809Y-102363855D01*
X120573809Y-102363855D02*
X120726190Y-102363855D01*
X120726190Y-102363855D02*
X120802381Y-102325760D01*
X120802381Y-102325760D02*
X120840476Y-102287664D01*
X120840476Y-102287664D02*
X120878571Y-102211474D01*
X120878571Y-102211474D02*
X120878571Y-102059093D01*
X120878571Y-102059093D02*
X120840476Y-101982902D01*
X120840476Y-101982902D02*
X120802381Y-101944807D01*
X120802381Y-101944807D02*
X120726190Y-101906712D01*
X132404167Y-113537664D02*
X132366071Y-113575760D01*
X132366071Y-113575760D02*
X132251786Y-113613855D01*
X132251786Y-113613855D02*
X132175595Y-113613855D01*
X132175595Y-113613855D02*
X132061309Y-113575760D01*
X132061309Y-113575760D02*
X131985119Y-113499569D01*
X131985119Y-113499569D02*
X131947024Y-113423379D01*
X131947024Y-113423379D02*
X131908928Y-113270998D01*
X131908928Y-113270998D02*
X131908928Y-113156712D01*
X131908928Y-113156712D02*
X131947024Y-113004331D01*
X131947024Y-113004331D02*
X131985119Y-112928140D01*
X131985119Y-112928140D02*
X132061309Y-112851950D01*
X132061309Y-112851950D02*
X132175595Y-112813855D01*
X132175595Y-112813855D02*
X132251786Y-112813855D01*
X132251786Y-112813855D02*
X132366071Y-112851950D01*
X132366071Y-112851950D02*
X132404167Y-112890045D01*
X132708928Y-112890045D02*
X132747024Y-112851950D01*
X132747024Y-112851950D02*
X132823214Y-112813855D01*
X132823214Y-112813855D02*
X133013690Y-112813855D01*
X133013690Y-112813855D02*
X133089881Y-112851950D01*
X133089881Y-112851950D02*
X133127976Y-112890045D01*
X133127976Y-112890045D02*
X133166071Y-112966236D01*
X133166071Y-112966236D02*
X133166071Y-113042426D01*
X133166071Y-113042426D02*
X133127976Y-113156712D01*
X133127976Y-113156712D02*
X132670833Y-113613855D01*
X132670833Y-113613855D02*
X133166071Y-113613855D01*
X109485714Y-107687664D02*
X109447618Y-107725760D01*
X109447618Y-107725760D02*
X109333333Y-107763855D01*
X109333333Y-107763855D02*
X109257142Y-107763855D01*
X109257142Y-107763855D02*
X109142856Y-107725760D01*
X109142856Y-107725760D02*
X109066666Y-107649569D01*
X109066666Y-107649569D02*
X109028571Y-107573379D01*
X109028571Y-107573379D02*
X108990475Y-107420998D01*
X108990475Y-107420998D02*
X108990475Y-107306712D01*
X108990475Y-107306712D02*
X109028571Y-107154331D01*
X109028571Y-107154331D02*
X109066666Y-107078140D01*
X109066666Y-107078140D02*
X109142856Y-107001950D01*
X109142856Y-107001950D02*
X109257142Y-106963855D01*
X109257142Y-106963855D02*
X109333333Y-106963855D01*
X109333333Y-106963855D02*
X109447618Y-107001950D01*
X109447618Y-107001950D02*
X109485714Y-107040045D01*
X110247618Y-107763855D02*
X109790475Y-107763855D01*
X110019047Y-107763855D02*
X110019047Y-106963855D01*
X110019047Y-106963855D02*
X109942856Y-107078140D01*
X109942856Y-107078140D02*
X109866666Y-107154331D01*
X109866666Y-107154331D02*
X109790475Y-107192426D01*
X110514285Y-106963855D02*
X111009523Y-106963855D01*
X111009523Y-106963855D02*
X110742857Y-107268617D01*
X110742857Y-107268617D02*
X110857142Y-107268617D01*
X110857142Y-107268617D02*
X110933333Y-107306712D01*
X110933333Y-107306712D02*
X110971428Y-107344807D01*
X110971428Y-107344807D02*
X111009523Y-107420998D01*
X111009523Y-107420998D02*
X111009523Y-107611474D01*
X111009523Y-107611474D02*
X110971428Y-107687664D01*
X110971428Y-107687664D02*
X110933333Y-107725760D01*
X110933333Y-107725760D02*
X110857142Y-107763855D01*
X110857142Y-107763855D02*
X110628571Y-107763855D01*
X110628571Y-107763855D02*
X110552380Y-107725760D01*
X110552380Y-107725760D02*
X110514285Y-107687664D01*
X102883333Y-95813855D02*
X102883333Y-96385283D01*
X102883333Y-96385283D02*
X102845238Y-96499569D01*
X102845238Y-96499569D02*
X102769047Y-96575760D01*
X102769047Y-96575760D02*
X102654762Y-96613855D01*
X102654762Y-96613855D02*
X102578571Y-96613855D01*
X103264286Y-96613855D02*
X103264286Y-95813855D01*
X103264286Y-95813855D02*
X103569048Y-95813855D01*
X103569048Y-95813855D02*
X103645238Y-95851950D01*
X103645238Y-95851950D02*
X103683333Y-95890045D01*
X103683333Y-95890045D02*
X103721429Y-95966236D01*
X103721429Y-95966236D02*
X103721429Y-96080521D01*
X103721429Y-96080521D02*
X103683333Y-96156712D01*
X103683333Y-96156712D02*
X103645238Y-96194807D01*
X103645238Y-96194807D02*
X103569048Y-96232902D01*
X103569048Y-96232902D02*
X103264286Y-96232902D01*
X104026190Y-95890045D02*
X104064286Y-95851950D01*
X104064286Y-95851950D02*
X104140476Y-95813855D01*
X104140476Y-95813855D02*
X104330952Y-95813855D01*
X104330952Y-95813855D02*
X104407143Y-95851950D01*
X104407143Y-95851950D02*
X104445238Y-95890045D01*
X104445238Y-95890045D02*
X104483333Y-95966236D01*
X104483333Y-95966236D02*
X104483333Y-96042426D01*
X104483333Y-96042426D02*
X104445238Y-96156712D01*
X104445238Y-96156712D02*
X103988095Y-96613855D01*
X103988095Y-96613855D02*
X104483333Y-96613855D01*
X109454762Y-96563855D02*
X109607143Y-96563855D01*
X109607143Y-96563855D02*
X109683333Y-96601950D01*
X109683333Y-96601950D02*
X109759524Y-96678140D01*
X109759524Y-96678140D02*
X109797619Y-96830521D01*
X109797619Y-96830521D02*
X109797619Y-97097188D01*
X109797619Y-97097188D02*
X109759524Y-97249569D01*
X109759524Y-97249569D02*
X109683333Y-97325760D01*
X109683333Y-97325760D02*
X109607143Y-97363855D01*
X109607143Y-97363855D02*
X109454762Y-97363855D01*
X109454762Y-97363855D02*
X109378571Y-97325760D01*
X109378571Y-97325760D02*
X109302381Y-97249569D01*
X109302381Y-97249569D02*
X109264285Y-97097188D01*
X109264285Y-97097188D02*
X109264285Y-96830521D01*
X109264285Y-96830521D02*
X109302381Y-96678140D01*
X109302381Y-96678140D02*
X109378571Y-96601950D01*
X109378571Y-96601950D02*
X109454762Y-96563855D01*
X110140476Y-97363855D02*
X110140476Y-96563855D01*
X110140476Y-96563855D02*
X110597619Y-97363855D01*
X110597619Y-97363855D02*
X110597619Y-96563855D01*
X102738096Y-97063855D02*
X102890477Y-97063855D01*
X102890477Y-97063855D02*
X102966667Y-97101950D01*
X102966667Y-97101950D02*
X103042858Y-97178140D01*
X103042858Y-97178140D02*
X103080953Y-97330521D01*
X103080953Y-97330521D02*
X103080953Y-97597188D01*
X103080953Y-97597188D02*
X103042858Y-97749569D01*
X103042858Y-97749569D02*
X102966667Y-97825760D01*
X102966667Y-97825760D02*
X102890477Y-97863855D01*
X102890477Y-97863855D02*
X102738096Y-97863855D01*
X102738096Y-97863855D02*
X102661905Y-97825760D01*
X102661905Y-97825760D02*
X102585715Y-97749569D01*
X102585715Y-97749569D02*
X102547619Y-97597188D01*
X102547619Y-97597188D02*
X102547619Y-97330521D01*
X102547619Y-97330521D02*
X102585715Y-97178140D01*
X102585715Y-97178140D02*
X102661905Y-97101950D01*
X102661905Y-97101950D02*
X102738096Y-97063855D01*
X103690476Y-97444807D02*
X103423810Y-97444807D01*
X103423810Y-97863855D02*
X103423810Y-97063855D01*
X103423810Y-97063855D02*
X103804762Y-97063855D01*
X104376190Y-97444807D02*
X104109524Y-97444807D01*
X104109524Y-97863855D02*
X104109524Y-97063855D01*
X104109524Y-97063855D02*
X104490476Y-97063855D01*
X143866667Y-114613855D02*
X143600000Y-114232902D01*
X143409524Y-114613855D02*
X143409524Y-113813855D01*
X143409524Y-113813855D02*
X143714286Y-113813855D01*
X143714286Y-113813855D02*
X143790476Y-113851950D01*
X143790476Y-113851950D02*
X143828571Y-113890045D01*
X143828571Y-113890045D02*
X143866667Y-113966236D01*
X143866667Y-113966236D02*
X143866667Y-114080521D01*
X143866667Y-114080521D02*
X143828571Y-114156712D01*
X143828571Y-114156712D02*
X143790476Y-114194807D01*
X143790476Y-114194807D02*
X143714286Y-114232902D01*
X143714286Y-114232902D02*
X143409524Y-114232902D01*
X144590476Y-113813855D02*
X144209524Y-113813855D01*
X144209524Y-113813855D02*
X144171428Y-114194807D01*
X144171428Y-114194807D02*
X144209524Y-114156712D01*
X144209524Y-114156712D02*
X144285714Y-114118617D01*
X144285714Y-114118617D02*
X144476190Y-114118617D01*
X144476190Y-114118617D02*
X144552381Y-114156712D01*
X144552381Y-114156712D02*
X144590476Y-114194807D01*
X144590476Y-114194807D02*
X144628571Y-114270998D01*
X144628571Y-114270998D02*
X144628571Y-114461474D01*
X144628571Y-114461474D02*
X144590476Y-114537664D01*
X144590476Y-114537664D02*
X144552381Y-114575760D01*
X144552381Y-114575760D02*
X144476190Y-114613855D01*
X144476190Y-114613855D02*
X144285714Y-114613855D01*
X144285714Y-114613855D02*
X144209524Y-114575760D01*
X144209524Y-114575760D02*
X144171428Y-114537664D01*
X134490476Y-118065855D02*
X134947619Y-118065855D01*
X134719047Y-118865855D02*
X134719047Y-118065855D01*
X135214286Y-118865855D02*
X135214286Y-118065855D01*
X135214286Y-118065855D02*
X135519048Y-118065855D01*
X135519048Y-118065855D02*
X135595238Y-118103950D01*
X135595238Y-118103950D02*
X135633333Y-118142045D01*
X135633333Y-118142045D02*
X135671429Y-118218236D01*
X135671429Y-118218236D02*
X135671429Y-118332521D01*
X135671429Y-118332521D02*
X135633333Y-118408712D01*
X135633333Y-118408712D02*
X135595238Y-118446807D01*
X135595238Y-118446807D02*
X135519048Y-118484902D01*
X135519048Y-118484902D02*
X135214286Y-118484902D01*
X135976190Y-118142045D02*
X136014286Y-118103950D01*
X136014286Y-118103950D02*
X136090476Y-118065855D01*
X136090476Y-118065855D02*
X136280952Y-118065855D01*
X136280952Y-118065855D02*
X136357143Y-118103950D01*
X136357143Y-118103950D02*
X136395238Y-118142045D01*
X136395238Y-118142045D02*
X136433333Y-118218236D01*
X136433333Y-118218236D02*
X136433333Y-118294426D01*
X136433333Y-118294426D02*
X136395238Y-118408712D01*
X136395238Y-118408712D02*
X135938095Y-118865855D01*
X135938095Y-118865855D02*
X136433333Y-118865855D01*
X141616667Y-107113855D02*
X141350000Y-106732902D01*
X141159524Y-107113855D02*
X141159524Y-106313855D01*
X141159524Y-106313855D02*
X141464286Y-106313855D01*
X141464286Y-106313855D02*
X141540476Y-106351950D01*
X141540476Y-106351950D02*
X141578571Y-106390045D01*
X141578571Y-106390045D02*
X141616667Y-106466236D01*
X141616667Y-106466236D02*
X141616667Y-106580521D01*
X141616667Y-106580521D02*
X141578571Y-106656712D01*
X141578571Y-106656712D02*
X141540476Y-106694807D01*
X141540476Y-106694807D02*
X141464286Y-106732902D01*
X141464286Y-106732902D02*
X141159524Y-106732902D01*
X142302381Y-106313855D02*
X142150000Y-106313855D01*
X142150000Y-106313855D02*
X142073809Y-106351950D01*
X142073809Y-106351950D02*
X142035714Y-106390045D01*
X142035714Y-106390045D02*
X141959524Y-106504331D01*
X141959524Y-106504331D02*
X141921428Y-106656712D01*
X141921428Y-106656712D02*
X141921428Y-106961474D01*
X141921428Y-106961474D02*
X141959524Y-107037664D01*
X141959524Y-107037664D02*
X141997619Y-107075760D01*
X141997619Y-107075760D02*
X142073809Y-107113855D01*
X142073809Y-107113855D02*
X142226190Y-107113855D01*
X142226190Y-107113855D02*
X142302381Y-107075760D01*
X142302381Y-107075760D02*
X142340476Y-107037664D01*
X142340476Y-107037664D02*
X142378571Y-106961474D01*
X142378571Y-106961474D02*
X142378571Y-106770998D01*
X142378571Y-106770998D02*
X142340476Y-106694807D01*
X142340476Y-106694807D02*
X142302381Y-106656712D01*
X142302381Y-106656712D02*
X142226190Y-106618617D01*
X142226190Y-106618617D02*
X142073809Y-106618617D01*
X142073809Y-106618617D02*
X141997619Y-106656712D01*
X141997619Y-106656712D02*
X141959524Y-106694807D01*
X141959524Y-106694807D02*
X141921428Y-106770998D01*
X138116667Y-109113855D02*
X137850000Y-108732902D01*
X137659524Y-109113855D02*
X137659524Y-108313855D01*
X137659524Y-108313855D02*
X137964286Y-108313855D01*
X137964286Y-108313855D02*
X138040476Y-108351950D01*
X138040476Y-108351950D02*
X138078571Y-108390045D01*
X138078571Y-108390045D02*
X138116667Y-108466236D01*
X138116667Y-108466236D02*
X138116667Y-108580521D01*
X138116667Y-108580521D02*
X138078571Y-108656712D01*
X138078571Y-108656712D02*
X138040476Y-108694807D01*
X138040476Y-108694807D02*
X137964286Y-108732902D01*
X137964286Y-108732902D02*
X137659524Y-108732902D01*
X138802381Y-108580521D02*
X138802381Y-109113855D01*
X138611905Y-108275760D02*
X138421428Y-108847188D01*
X138421428Y-108847188D02*
X138916667Y-108847188D01*
X111735714Y-101363855D02*
X111469047Y-100982902D01*
X111278571Y-101363855D02*
X111278571Y-100563855D01*
X111278571Y-100563855D02*
X111583333Y-100563855D01*
X111583333Y-100563855D02*
X111659523Y-100601950D01*
X111659523Y-100601950D02*
X111697618Y-100640045D01*
X111697618Y-100640045D02*
X111735714Y-100716236D01*
X111735714Y-100716236D02*
X111735714Y-100830521D01*
X111735714Y-100830521D02*
X111697618Y-100906712D01*
X111697618Y-100906712D02*
X111659523Y-100944807D01*
X111659523Y-100944807D02*
X111583333Y-100982902D01*
X111583333Y-100982902D02*
X111278571Y-100982902D01*
X112497618Y-101363855D02*
X112040475Y-101363855D01*
X112269047Y-101363855D02*
X112269047Y-100563855D01*
X112269047Y-100563855D02*
X112192856Y-100678140D01*
X112192856Y-100678140D02*
X112116666Y-100754331D01*
X112116666Y-100754331D02*
X112040475Y-100792426D01*
X112764285Y-100563855D02*
X113259523Y-100563855D01*
X113259523Y-100563855D02*
X112992857Y-100868617D01*
X112992857Y-100868617D02*
X113107142Y-100868617D01*
X113107142Y-100868617D02*
X113183333Y-100906712D01*
X113183333Y-100906712D02*
X113221428Y-100944807D01*
X113221428Y-100944807D02*
X113259523Y-101020998D01*
X113259523Y-101020998D02*
X113259523Y-101211474D01*
X113259523Y-101211474D02*
X113221428Y-101287664D01*
X113221428Y-101287664D02*
X113183333Y-101325760D01*
X113183333Y-101325760D02*
X113107142Y-101363855D01*
X113107142Y-101363855D02*
X112878571Y-101363855D01*
X112878571Y-101363855D02*
X112802380Y-101325760D01*
X112802380Y-101325760D02*
X112764285Y-101287664D01*
X132366667Y-116037664D02*
X132328571Y-116075760D01*
X132328571Y-116075760D02*
X132214286Y-116113855D01*
X132214286Y-116113855D02*
X132138095Y-116113855D01*
X132138095Y-116113855D02*
X132023809Y-116075760D01*
X132023809Y-116075760D02*
X131947619Y-115999569D01*
X131947619Y-115999569D02*
X131909524Y-115923379D01*
X131909524Y-115923379D02*
X131871428Y-115770998D01*
X131871428Y-115770998D02*
X131871428Y-115656712D01*
X131871428Y-115656712D02*
X131909524Y-115504331D01*
X131909524Y-115504331D02*
X131947619Y-115428140D01*
X131947619Y-115428140D02*
X132023809Y-115351950D01*
X132023809Y-115351950D02*
X132138095Y-115313855D01*
X132138095Y-115313855D02*
X132214286Y-115313855D01*
X132214286Y-115313855D02*
X132328571Y-115351950D01*
X132328571Y-115351950D02*
X132366667Y-115390045D01*
X133128571Y-116113855D02*
X132671428Y-116113855D01*
X132900000Y-116113855D02*
X132900000Y-115313855D01*
X132900000Y-115313855D02*
X132823809Y-115428140D01*
X132823809Y-115428140D02*
X132747619Y-115504331D01*
X132747619Y-115504331D02*
X132671428Y-115542426D01*
X82990476Y-76313855D02*
X83447619Y-76313855D01*
X83219047Y-77113855D02*
X83219047Y-76313855D01*
X83714286Y-77113855D02*
X83714286Y-76313855D01*
X83714286Y-76313855D02*
X84019048Y-76313855D01*
X84019048Y-76313855D02*
X84095238Y-76351950D01*
X84095238Y-76351950D02*
X84133333Y-76390045D01*
X84133333Y-76390045D02*
X84171429Y-76466236D01*
X84171429Y-76466236D02*
X84171429Y-76580521D01*
X84171429Y-76580521D02*
X84133333Y-76656712D01*
X84133333Y-76656712D02*
X84095238Y-76694807D01*
X84095238Y-76694807D02*
X84019048Y-76732902D01*
X84019048Y-76732902D02*
X83714286Y-76732902D01*
X84628571Y-76656712D02*
X84552381Y-76618617D01*
X84552381Y-76618617D02*
X84514286Y-76580521D01*
X84514286Y-76580521D02*
X84476190Y-76504331D01*
X84476190Y-76504331D02*
X84476190Y-76466236D01*
X84476190Y-76466236D02*
X84514286Y-76390045D01*
X84514286Y-76390045D02*
X84552381Y-76351950D01*
X84552381Y-76351950D02*
X84628571Y-76313855D01*
X84628571Y-76313855D02*
X84780952Y-76313855D01*
X84780952Y-76313855D02*
X84857143Y-76351950D01*
X84857143Y-76351950D02*
X84895238Y-76390045D01*
X84895238Y-76390045D02*
X84933333Y-76466236D01*
X84933333Y-76466236D02*
X84933333Y-76504331D01*
X84933333Y-76504331D02*
X84895238Y-76580521D01*
X84895238Y-76580521D02*
X84857143Y-76618617D01*
X84857143Y-76618617D02*
X84780952Y-76656712D01*
X84780952Y-76656712D02*
X84628571Y-76656712D01*
X84628571Y-76656712D02*
X84552381Y-76694807D01*
X84552381Y-76694807D02*
X84514286Y-76732902D01*
X84514286Y-76732902D02*
X84476190Y-76809093D01*
X84476190Y-76809093D02*
X84476190Y-76961474D01*
X84476190Y-76961474D02*
X84514286Y-77037664D01*
X84514286Y-77037664D02*
X84552381Y-77075760D01*
X84552381Y-77075760D02*
X84628571Y-77113855D01*
X84628571Y-77113855D02*
X84780952Y-77113855D01*
X84780952Y-77113855D02*
X84857143Y-77075760D01*
X84857143Y-77075760D02*
X84895238Y-77037664D01*
X84895238Y-77037664D02*
X84933333Y-76961474D01*
X84933333Y-76961474D02*
X84933333Y-76809093D01*
X84933333Y-76809093D02*
X84895238Y-76732902D01*
X84895238Y-76732902D02*
X84857143Y-76694807D01*
X84857143Y-76694807D02*
X84780952Y-76656712D01*
X94233333Y-48563855D02*
X94233333Y-49135283D01*
X94233333Y-49135283D02*
X94195238Y-49249569D01*
X94195238Y-49249569D02*
X94119047Y-49325760D01*
X94119047Y-49325760D02*
X94004762Y-49363855D01*
X94004762Y-49363855D02*
X93928571Y-49363855D01*
X94957143Y-48830521D02*
X94957143Y-49363855D01*
X94766667Y-48525760D02*
X94576190Y-49097188D01*
X94576190Y-49097188D02*
X95071429Y-49097188D01*
X105035714Y-99701355D02*
X104769047Y-99320402D01*
X104578571Y-99701355D02*
X104578571Y-98901355D01*
X104578571Y-98901355D02*
X104883333Y-98901355D01*
X104883333Y-98901355D02*
X104959523Y-98939450D01*
X104959523Y-98939450D02*
X104997618Y-98977545D01*
X104997618Y-98977545D02*
X105035714Y-99053736D01*
X105035714Y-99053736D02*
X105035714Y-99168021D01*
X105035714Y-99168021D02*
X104997618Y-99244212D01*
X104997618Y-99244212D02*
X104959523Y-99282307D01*
X104959523Y-99282307D02*
X104883333Y-99320402D01*
X104883333Y-99320402D02*
X104578571Y-99320402D01*
X105797618Y-99701355D02*
X105340475Y-99701355D01*
X105569047Y-99701355D02*
X105569047Y-98901355D01*
X105569047Y-98901355D02*
X105492856Y-99015640D01*
X105492856Y-99015640D02*
X105416666Y-99091831D01*
X105416666Y-99091831D02*
X105340475Y-99129926D01*
X106292857Y-98901355D02*
X106369047Y-98901355D01*
X106369047Y-98901355D02*
X106445238Y-98939450D01*
X106445238Y-98939450D02*
X106483333Y-98977545D01*
X106483333Y-98977545D02*
X106521428Y-99053736D01*
X106521428Y-99053736D02*
X106559523Y-99206117D01*
X106559523Y-99206117D02*
X106559523Y-99396593D01*
X106559523Y-99396593D02*
X106521428Y-99548974D01*
X106521428Y-99548974D02*
X106483333Y-99625164D01*
X106483333Y-99625164D02*
X106445238Y-99663260D01*
X106445238Y-99663260D02*
X106369047Y-99701355D01*
X106369047Y-99701355D02*
X106292857Y-99701355D01*
X106292857Y-99701355D02*
X106216666Y-99663260D01*
X106216666Y-99663260D02*
X106178571Y-99625164D01*
X106178571Y-99625164D02*
X106140476Y-99548974D01*
X106140476Y-99548974D02*
X106102380Y-99396593D01*
X106102380Y-99396593D02*
X106102380Y-99206117D01*
X106102380Y-99206117D02*
X106140476Y-99053736D01*
X106140476Y-99053736D02*
X106178571Y-98977545D01*
X106178571Y-98977545D02*
X106216666Y-98939450D01*
X106216666Y-98939450D02*
X106292857Y-98901355D01*
X116285714Y-98363855D02*
X116019047Y-97982902D01*
X115828571Y-98363855D02*
X115828571Y-97563855D01*
X115828571Y-97563855D02*
X116133333Y-97563855D01*
X116133333Y-97563855D02*
X116209523Y-97601950D01*
X116209523Y-97601950D02*
X116247618Y-97640045D01*
X116247618Y-97640045D02*
X116285714Y-97716236D01*
X116285714Y-97716236D02*
X116285714Y-97830521D01*
X116285714Y-97830521D02*
X116247618Y-97906712D01*
X116247618Y-97906712D02*
X116209523Y-97944807D01*
X116209523Y-97944807D02*
X116133333Y-97982902D01*
X116133333Y-97982902D02*
X115828571Y-97982902D01*
X117047618Y-98363855D02*
X116590475Y-98363855D01*
X116819047Y-98363855D02*
X116819047Y-97563855D01*
X116819047Y-97563855D02*
X116742856Y-97678140D01*
X116742856Y-97678140D02*
X116666666Y-97754331D01*
X116666666Y-97754331D02*
X116590475Y-97792426D01*
X117733333Y-97830521D02*
X117733333Y-98363855D01*
X117542857Y-97525760D02*
X117352380Y-98097188D01*
X117352380Y-98097188D02*
X117847619Y-98097188D01*
D13*
X141190476Y-81574819D02*
X141190476Y-82289104D01*
X141190476Y-82289104D02*
X141142857Y-82431961D01*
X141142857Y-82431961D02*
X141047619Y-82527200D01*
X141047619Y-82527200D02*
X140904762Y-82574819D01*
X140904762Y-82574819D02*
X140809524Y-82574819D01*
X142190476Y-82574819D02*
X141619048Y-82574819D01*
X141904762Y-82574819D02*
X141904762Y-81574819D01*
X141904762Y-81574819D02*
X141809524Y-81717676D01*
X141809524Y-81717676D02*
X141714286Y-81812914D01*
X141714286Y-81812914D02*
X141619048Y-81860533D01*
X142809524Y-81574819D02*
X142904762Y-81574819D01*
X142904762Y-81574819D02*
X143000000Y-81622438D01*
X143000000Y-81622438D02*
X143047619Y-81670057D01*
X143047619Y-81670057D02*
X143095238Y-81765295D01*
X143095238Y-81765295D02*
X143142857Y-81955771D01*
X143142857Y-81955771D02*
X143142857Y-82193866D01*
X143142857Y-82193866D02*
X143095238Y-82384342D01*
X143095238Y-82384342D02*
X143047619Y-82479580D01*
X143047619Y-82479580D02*
X143000000Y-82527200D01*
X143000000Y-82527200D02*
X142904762Y-82574819D01*
X142904762Y-82574819D02*
X142809524Y-82574819D01*
X142809524Y-82574819D02*
X142714286Y-82527200D01*
X142714286Y-82527200D02*
X142666667Y-82479580D01*
X142666667Y-82479580D02*
X142619048Y-82384342D01*
X142619048Y-82384342D02*
X142571429Y-82193866D01*
X142571429Y-82193866D02*
X142571429Y-81955771D01*
X142571429Y-81955771D02*
X142619048Y-81765295D01*
X142619048Y-81765295D02*
X142666667Y-81670057D01*
X142666667Y-81670057D02*
X142714286Y-81622438D01*
X142714286Y-81622438D02*
X142809524Y-81574819D01*
D12*
X97140476Y-46563855D02*
X97140476Y-47211474D01*
X97140476Y-47211474D02*
X97178571Y-47287664D01*
X97178571Y-47287664D02*
X97216666Y-47325760D01*
X97216666Y-47325760D02*
X97292857Y-47363855D01*
X97292857Y-47363855D02*
X97445238Y-47363855D01*
X97445238Y-47363855D02*
X97521428Y-47325760D01*
X97521428Y-47325760D02*
X97559523Y-47287664D01*
X97559523Y-47287664D02*
X97597619Y-47211474D01*
X97597619Y-47211474D02*
X97597619Y-46563855D01*
X98397618Y-47363855D02*
X97940475Y-47363855D01*
X98169047Y-47363855D02*
X98169047Y-46563855D01*
X98169047Y-46563855D02*
X98092856Y-46678140D01*
X98092856Y-46678140D02*
X98016666Y-46754331D01*
X98016666Y-46754331D02*
X97940475Y-46792426D01*
D10*
X103287836Y-52380590D02*
X103287836Y-53009162D01*
X103287836Y-52694876D02*
X102287836Y-52694876D01*
X102287836Y-52694876D02*
X102430693Y-52799638D01*
X102430693Y-52799638D02*
X102525931Y-52904400D01*
X102525931Y-52904400D02*
X102573550Y-53009162D01*
X102287836Y-51385352D02*
X102287836Y-51909162D01*
X102287836Y-51909162D02*
X102764026Y-51961543D01*
X102764026Y-51961543D02*
X102716407Y-51909162D01*
X102716407Y-51909162D02*
X102668788Y-51804400D01*
X102668788Y-51804400D02*
X102668788Y-51542495D01*
X102668788Y-51542495D02*
X102716407Y-51437733D01*
X102716407Y-51437733D02*
X102764026Y-51385352D01*
X102764026Y-51385352D02*
X102859264Y-51332971D01*
X102859264Y-51332971D02*
X103097359Y-51332971D01*
X103097359Y-51332971D02*
X103192597Y-51385352D01*
X103192597Y-51385352D02*
X103240217Y-51437733D01*
X103240217Y-51437733D02*
X103287836Y-51542495D01*
X103287836Y-51542495D02*
X103287836Y-51804400D01*
X103287836Y-51804400D02*
X103240217Y-51909162D01*
X103240217Y-51909162D02*
X103192597Y-51961543D01*
X103287836Y-60000590D02*
X103287836Y-60629162D01*
X103287836Y-60314876D02*
X102287836Y-60314876D01*
X102287836Y-60314876D02*
X102430693Y-60419638D01*
X102430693Y-60419638D02*
X102525931Y-60524400D01*
X102525931Y-60524400D02*
X102573550Y-60629162D01*
X102383074Y-59581543D02*
X102335455Y-59529162D01*
X102335455Y-59529162D02*
X102287836Y-59424400D01*
X102287836Y-59424400D02*
X102287836Y-59162495D01*
X102287836Y-59162495D02*
X102335455Y-59057733D01*
X102335455Y-59057733D02*
X102383074Y-59005352D01*
X102383074Y-59005352D02*
X102478312Y-58952971D01*
X102478312Y-58952971D02*
X102573550Y-58952971D01*
X102573550Y-58952971D02*
X102716407Y-59005352D01*
X102716407Y-59005352D02*
X103287836Y-59633924D01*
X103287836Y-59633924D02*
X103287836Y-58952971D01*
X102348829Y-72833243D02*
X102348829Y-72099909D01*
X102348829Y-72099909D02*
X103348829Y-72571338D01*
X123551502Y-88009572D02*
X123551502Y-87328619D01*
X123551502Y-87328619D02*
X123932454Y-87695286D01*
X123932454Y-87695286D02*
X123932454Y-87538143D01*
X123932454Y-87538143D02*
X123980073Y-87433381D01*
X123980073Y-87433381D02*
X124027692Y-87381000D01*
X124027692Y-87381000D02*
X124122930Y-87328619D01*
X124122930Y-87328619D02*
X124361025Y-87328619D01*
X124361025Y-87328619D02*
X124456263Y-87381000D01*
X124456263Y-87381000D02*
X124503883Y-87433381D01*
X124503883Y-87433381D02*
X124551502Y-87538143D01*
X124551502Y-87538143D02*
X124551502Y-87852429D01*
X124551502Y-87852429D02*
X124503883Y-87957191D01*
X124503883Y-87957191D02*
X124456263Y-88009572D01*
X123551502Y-86647667D02*
X123551502Y-86542905D01*
X123551502Y-86542905D02*
X123599121Y-86438143D01*
X123599121Y-86438143D02*
X123646740Y-86385762D01*
X123646740Y-86385762D02*
X123741978Y-86333381D01*
X123741978Y-86333381D02*
X123932454Y-86281000D01*
X123932454Y-86281000D02*
X124170549Y-86281000D01*
X124170549Y-86281000D02*
X124361025Y-86333381D01*
X124361025Y-86333381D02*
X124456263Y-86385762D01*
X124456263Y-86385762D02*
X124503883Y-86438143D01*
X124503883Y-86438143D02*
X124551502Y-86542905D01*
X124551502Y-86542905D02*
X124551502Y-86647667D01*
X124551502Y-86647667D02*
X124503883Y-86752429D01*
X124503883Y-86752429D02*
X124456263Y-86804810D01*
X124456263Y-86804810D02*
X124361025Y-86857191D01*
X124361025Y-86857191D02*
X124170549Y-86909572D01*
X124170549Y-86909572D02*
X123932454Y-86909572D01*
X123932454Y-86909572D02*
X123741978Y-86857191D01*
X123741978Y-86857191D02*
X123646740Y-86804810D01*
X123646740Y-86804810D02*
X123599121Y-86752429D01*
X123599121Y-86752429D02*
X123551502Y-86647667D01*
X123591488Y-65198145D02*
X123543869Y-65145764D01*
X123543869Y-65145764D02*
X123496250Y-65041002D01*
X123496250Y-65041002D02*
X123496250Y-64779097D01*
X123496250Y-64779097D02*
X123543869Y-64674335D01*
X123543869Y-64674335D02*
X123591488Y-64621954D01*
X123591488Y-64621954D02*
X123686726Y-64569573D01*
X123686726Y-64569573D02*
X123781964Y-64569573D01*
X123781964Y-64569573D02*
X123924821Y-64621954D01*
X123924821Y-64621954D02*
X124496250Y-65250526D01*
X124496250Y-65250526D02*
X124496250Y-64569573D01*
X124496250Y-63521954D02*
X124496250Y-64150526D01*
X124496250Y-63836240D02*
X123496250Y-63836240D01*
X123496250Y-63836240D02*
X123639107Y-63941002D01*
X123639107Y-63941002D02*
X123734345Y-64045764D01*
X123734345Y-64045764D02*
X123781964Y-64150526D01*
X123646740Y-77797191D02*
X123599121Y-77744810D01*
X123599121Y-77744810D02*
X123551502Y-77640048D01*
X123551502Y-77640048D02*
X123551502Y-77378143D01*
X123551502Y-77378143D02*
X123599121Y-77273381D01*
X123599121Y-77273381D02*
X123646740Y-77221000D01*
X123646740Y-77221000D02*
X123741978Y-77168619D01*
X123741978Y-77168619D02*
X123837216Y-77168619D01*
X123837216Y-77168619D02*
X123980073Y-77221000D01*
X123980073Y-77221000D02*
X124551502Y-77849572D01*
X124551502Y-77849572D02*
X124551502Y-77168619D01*
X123551502Y-76225762D02*
X123551502Y-76435286D01*
X123551502Y-76435286D02*
X123599121Y-76540048D01*
X123599121Y-76540048D02*
X123646740Y-76592429D01*
X123646740Y-76592429D02*
X123789597Y-76697191D01*
X123789597Y-76697191D02*
X123980073Y-76749572D01*
X123980073Y-76749572D02*
X124361025Y-76749572D01*
X124361025Y-76749572D02*
X124456263Y-76697191D01*
X124456263Y-76697191D02*
X124503883Y-76644810D01*
X124503883Y-76644810D02*
X124551502Y-76540048D01*
X124551502Y-76540048D02*
X124551502Y-76330524D01*
X124551502Y-76330524D02*
X124503883Y-76225762D01*
X124503883Y-76225762D02*
X124456263Y-76173381D01*
X124456263Y-76173381D02*
X124361025Y-76121000D01*
X124361025Y-76121000D02*
X124122930Y-76121000D01*
X124122930Y-76121000D02*
X124027692Y-76173381D01*
X124027692Y-76173381D02*
X123980073Y-76225762D01*
X123980073Y-76225762D02*
X123932454Y-76330524D01*
X123932454Y-76330524D02*
X123932454Y-76540048D01*
X123932454Y-76540048D02*
X123980073Y-76644810D01*
X123980073Y-76644810D02*
X124027692Y-76697191D01*
X124027692Y-76697191D02*
X124122930Y-76749572D01*
X123646740Y-85417191D02*
X123599121Y-85364810D01*
X123599121Y-85364810D02*
X123551502Y-85260048D01*
X123551502Y-85260048D02*
X123551502Y-84998143D01*
X123551502Y-84998143D02*
X123599121Y-84893381D01*
X123599121Y-84893381D02*
X123646740Y-84841000D01*
X123646740Y-84841000D02*
X123741978Y-84788619D01*
X123741978Y-84788619D02*
X123837216Y-84788619D01*
X123837216Y-84788619D02*
X123980073Y-84841000D01*
X123980073Y-84841000D02*
X124551502Y-85469572D01*
X124551502Y-85469572D02*
X124551502Y-84788619D01*
X124551502Y-84264810D02*
X124551502Y-84055286D01*
X124551502Y-84055286D02*
X124503883Y-83950524D01*
X124503883Y-83950524D02*
X124456263Y-83898143D01*
X124456263Y-83898143D02*
X124313406Y-83793381D01*
X124313406Y-83793381D02*
X124122930Y-83741000D01*
X124122930Y-83741000D02*
X123741978Y-83741000D01*
X123741978Y-83741000D02*
X123646740Y-83793381D01*
X123646740Y-83793381D02*
X123599121Y-83845762D01*
X123599121Y-83845762D02*
X123551502Y-83950524D01*
X123551502Y-83950524D02*
X123551502Y-84160048D01*
X123551502Y-84160048D02*
X123599121Y-84264810D01*
X123599121Y-84264810D02*
X123646740Y-84317191D01*
X123646740Y-84317191D02*
X123741978Y-84369572D01*
X123741978Y-84369572D02*
X123980073Y-84369572D01*
X123980073Y-84369572D02*
X124075311Y-84317191D01*
X124075311Y-84317191D02*
X124122930Y-84264810D01*
X124122930Y-84264810D02*
X124170549Y-84160048D01*
X124170549Y-84160048D02*
X124170549Y-83950524D01*
X124170549Y-83950524D02*
X124122930Y-83845762D01*
X124122930Y-83845762D02*
X124075311Y-83793381D01*
X124075311Y-83793381D02*
X123980073Y-83741000D01*
X124490897Y-57061513D02*
X124490897Y-57690085D01*
X124490897Y-57375799D02*
X123490897Y-57375799D01*
X123490897Y-57375799D02*
X123633754Y-57480561D01*
X123633754Y-57480561D02*
X123728992Y-57585323D01*
X123728992Y-57585323D02*
X123776611Y-57690085D01*
X123919468Y-56432942D02*
X123871849Y-56537704D01*
X123871849Y-56537704D02*
X123824230Y-56590085D01*
X123824230Y-56590085D02*
X123728992Y-56642466D01*
X123728992Y-56642466D02*
X123681373Y-56642466D01*
X123681373Y-56642466D02*
X123586135Y-56590085D01*
X123586135Y-56590085D02*
X123538516Y-56537704D01*
X123538516Y-56537704D02*
X123490897Y-56432942D01*
X123490897Y-56432942D02*
X123490897Y-56223418D01*
X123490897Y-56223418D02*
X123538516Y-56118656D01*
X123538516Y-56118656D02*
X123586135Y-56066275D01*
X123586135Y-56066275D02*
X123681373Y-56013894D01*
X123681373Y-56013894D02*
X123728992Y-56013894D01*
X123728992Y-56013894D02*
X123824230Y-56066275D01*
X123824230Y-56066275D02*
X123871849Y-56118656D01*
X123871849Y-56118656D02*
X123919468Y-56223418D01*
X123919468Y-56223418D02*
X123919468Y-56432942D01*
X123919468Y-56432942D02*
X123967087Y-56537704D01*
X123967087Y-56537704D02*
X124014706Y-56590085D01*
X124014706Y-56590085D02*
X124109944Y-56642466D01*
X124109944Y-56642466D02*
X124300420Y-56642466D01*
X124300420Y-56642466D02*
X124395658Y-56590085D01*
X124395658Y-56590085D02*
X124443278Y-56537704D01*
X124443278Y-56537704D02*
X124490897Y-56432942D01*
X124490897Y-56432942D02*
X124490897Y-56223418D01*
X124490897Y-56223418D02*
X124443278Y-56118656D01*
X124443278Y-56118656D02*
X124395658Y-56066275D01*
X124395658Y-56066275D02*
X124300420Y-56013894D01*
X124300420Y-56013894D02*
X124109944Y-56013894D01*
X124109944Y-56013894D02*
X124014706Y-56066275D01*
X124014706Y-56066275D02*
X123967087Y-56118656D01*
X123967087Y-56118656D02*
X123919468Y-56223418D01*
X124490897Y-51981513D02*
X124490897Y-52610085D01*
X124490897Y-52295799D02*
X123490897Y-52295799D01*
X123490897Y-52295799D02*
X123633754Y-52400561D01*
X123633754Y-52400561D02*
X123728992Y-52505323D01*
X123728992Y-52505323D02*
X123776611Y-52610085D01*
X123490897Y-51038656D02*
X123490897Y-51248180D01*
X123490897Y-51248180D02*
X123538516Y-51352942D01*
X123538516Y-51352942D02*
X123586135Y-51405323D01*
X123586135Y-51405323D02*
X123728992Y-51510085D01*
X123728992Y-51510085D02*
X123919468Y-51562466D01*
X123919468Y-51562466D02*
X124300420Y-51562466D01*
X124300420Y-51562466D02*
X124395658Y-51510085D01*
X124395658Y-51510085D02*
X124443278Y-51457704D01*
X124443278Y-51457704D02*
X124490897Y-51352942D01*
X124490897Y-51352942D02*
X124490897Y-51143418D01*
X124490897Y-51143418D02*
X124443278Y-51038656D01*
X124443278Y-51038656D02*
X124395658Y-50986275D01*
X124395658Y-50986275D02*
X124300420Y-50933894D01*
X124300420Y-50933894D02*
X124062325Y-50933894D01*
X124062325Y-50933894D02*
X123967087Y-50986275D01*
X123967087Y-50986275D02*
X123919468Y-51038656D01*
X123919468Y-51038656D02*
X123871849Y-51143418D01*
X123871849Y-51143418D02*
X123871849Y-51352942D01*
X123871849Y-51352942D02*
X123919468Y-51457704D01*
X123919468Y-51457704D02*
X123967087Y-51510085D01*
X123967087Y-51510085D02*
X124062325Y-51562466D01*
X123591488Y-72818145D02*
X123543869Y-72765764D01*
X123543869Y-72765764D02*
X123496250Y-72661002D01*
X123496250Y-72661002D02*
X123496250Y-72399097D01*
X123496250Y-72399097D02*
X123543869Y-72294335D01*
X123543869Y-72294335D02*
X123591488Y-72241954D01*
X123591488Y-72241954D02*
X123686726Y-72189573D01*
X123686726Y-72189573D02*
X123781964Y-72189573D01*
X123781964Y-72189573D02*
X123924821Y-72241954D01*
X123924821Y-72241954D02*
X124496250Y-72870526D01*
X124496250Y-72870526D02*
X124496250Y-72189573D01*
X123829583Y-71246716D02*
X124496250Y-71246716D01*
X123448631Y-71508621D02*
X124162916Y-71770526D01*
X124162916Y-71770526D02*
X124162916Y-71089573D01*
X102348829Y-82993243D02*
X102348829Y-82312290D01*
X102348829Y-82312290D02*
X102729781Y-82678957D01*
X102729781Y-82678957D02*
X102729781Y-82521814D01*
X102729781Y-82521814D02*
X102777400Y-82417052D01*
X102777400Y-82417052D02*
X102825019Y-82364671D01*
X102825019Y-82364671D02*
X102920257Y-82312290D01*
X102920257Y-82312290D02*
X103158352Y-82312290D01*
X103158352Y-82312290D02*
X103253590Y-82364671D01*
X103253590Y-82364671D02*
X103301210Y-82417052D01*
X103301210Y-82417052D02*
X103348829Y-82521814D01*
X103348829Y-82521814D02*
X103348829Y-82836100D01*
X103348829Y-82836100D02*
X103301210Y-82940862D01*
X103301210Y-82940862D02*
X103253590Y-82993243D01*
X123646740Y-82877191D02*
X123599121Y-82824810D01*
X123599121Y-82824810D02*
X123551502Y-82720048D01*
X123551502Y-82720048D02*
X123551502Y-82458143D01*
X123551502Y-82458143D02*
X123599121Y-82353381D01*
X123599121Y-82353381D02*
X123646740Y-82301000D01*
X123646740Y-82301000D02*
X123741978Y-82248619D01*
X123741978Y-82248619D02*
X123837216Y-82248619D01*
X123837216Y-82248619D02*
X123980073Y-82301000D01*
X123980073Y-82301000D02*
X124551502Y-82929572D01*
X124551502Y-82929572D02*
X124551502Y-82248619D01*
X123980073Y-81620048D02*
X123932454Y-81724810D01*
X123932454Y-81724810D02*
X123884835Y-81777191D01*
X123884835Y-81777191D02*
X123789597Y-81829572D01*
X123789597Y-81829572D02*
X123741978Y-81829572D01*
X123741978Y-81829572D02*
X123646740Y-81777191D01*
X123646740Y-81777191D02*
X123599121Y-81724810D01*
X123599121Y-81724810D02*
X123551502Y-81620048D01*
X123551502Y-81620048D02*
X123551502Y-81410524D01*
X123551502Y-81410524D02*
X123599121Y-81305762D01*
X123599121Y-81305762D02*
X123646740Y-81253381D01*
X123646740Y-81253381D02*
X123741978Y-81201000D01*
X123741978Y-81201000D02*
X123789597Y-81201000D01*
X123789597Y-81201000D02*
X123884835Y-81253381D01*
X123884835Y-81253381D02*
X123932454Y-81305762D01*
X123932454Y-81305762D02*
X123980073Y-81410524D01*
X123980073Y-81410524D02*
X123980073Y-81620048D01*
X123980073Y-81620048D02*
X124027692Y-81724810D01*
X124027692Y-81724810D02*
X124075311Y-81777191D01*
X124075311Y-81777191D02*
X124170549Y-81829572D01*
X124170549Y-81829572D02*
X124361025Y-81829572D01*
X124361025Y-81829572D02*
X124456263Y-81777191D01*
X124456263Y-81777191D02*
X124503883Y-81724810D01*
X124503883Y-81724810D02*
X124551502Y-81620048D01*
X124551502Y-81620048D02*
X124551502Y-81410524D01*
X124551502Y-81410524D02*
X124503883Y-81305762D01*
X124503883Y-81305762D02*
X124456263Y-81253381D01*
X124456263Y-81253381D02*
X124361025Y-81201000D01*
X124361025Y-81201000D02*
X124170549Y-81201000D01*
X124170549Y-81201000D02*
X124075311Y-81253381D01*
X124075311Y-81253381D02*
X124027692Y-81305762D01*
X124027692Y-81305762D02*
X123980073Y-81410524D01*
X103287836Y-54920590D02*
X103287836Y-55549162D01*
X103287836Y-55234876D02*
X102287836Y-55234876D01*
X102287836Y-55234876D02*
X102430693Y-55339638D01*
X102430693Y-55339638D02*
X102525931Y-55444400D01*
X102525931Y-55444400D02*
X102573550Y-55549162D01*
X102621169Y-53977733D02*
X103287836Y-53977733D01*
X102240217Y-54239638D02*
X102954502Y-54501543D01*
X102954502Y-54501543D02*
X102954502Y-53820590D01*
X123646740Y-75257191D02*
X123599121Y-75204810D01*
X123599121Y-75204810D02*
X123551502Y-75100048D01*
X123551502Y-75100048D02*
X123551502Y-74838143D01*
X123551502Y-74838143D02*
X123599121Y-74733381D01*
X123599121Y-74733381D02*
X123646740Y-74681000D01*
X123646740Y-74681000D02*
X123741978Y-74628619D01*
X123741978Y-74628619D02*
X123837216Y-74628619D01*
X123837216Y-74628619D02*
X123980073Y-74681000D01*
X123980073Y-74681000D02*
X124551502Y-75309572D01*
X124551502Y-75309572D02*
X124551502Y-74628619D01*
X123551502Y-73633381D02*
X123551502Y-74157191D01*
X123551502Y-74157191D02*
X124027692Y-74209572D01*
X124027692Y-74209572D02*
X123980073Y-74157191D01*
X123980073Y-74157191D02*
X123932454Y-74052429D01*
X123932454Y-74052429D02*
X123932454Y-73790524D01*
X123932454Y-73790524D02*
X123980073Y-73685762D01*
X123980073Y-73685762D02*
X124027692Y-73633381D01*
X124027692Y-73633381D02*
X124122930Y-73581000D01*
X124122930Y-73581000D02*
X124361025Y-73581000D01*
X124361025Y-73581000D02*
X124456263Y-73633381D01*
X124456263Y-73633381D02*
X124503883Y-73685762D01*
X124503883Y-73685762D02*
X124551502Y-73790524D01*
X124551502Y-73790524D02*
X124551502Y-74052429D01*
X124551502Y-74052429D02*
X124503883Y-74157191D01*
X124503883Y-74157191D02*
X124456263Y-74209572D01*
X102348829Y-77284671D02*
X102348829Y-77808481D01*
X102348829Y-77808481D02*
X102825019Y-77860862D01*
X102825019Y-77860862D02*
X102777400Y-77808481D01*
X102777400Y-77808481D02*
X102729781Y-77703719D01*
X102729781Y-77703719D02*
X102729781Y-77441814D01*
X102729781Y-77441814D02*
X102777400Y-77337052D01*
X102777400Y-77337052D02*
X102825019Y-77284671D01*
X102825019Y-77284671D02*
X102920257Y-77232290D01*
X102920257Y-77232290D02*
X103158352Y-77232290D01*
X103158352Y-77232290D02*
X103253590Y-77284671D01*
X103253590Y-77284671D02*
X103301210Y-77337052D01*
X103301210Y-77337052D02*
X103348829Y-77441814D01*
X103348829Y-77441814D02*
X103348829Y-77703719D01*
X103348829Y-77703719D02*
X103301210Y-77808481D01*
X103301210Y-77808481D02*
X103253590Y-77860862D01*
X103348829Y-87392290D02*
X103348829Y-88020862D01*
X103348829Y-87706576D02*
X102348829Y-87706576D01*
X102348829Y-87706576D02*
X102491686Y-87811338D01*
X102491686Y-87811338D02*
X102586924Y-87916100D01*
X102586924Y-87916100D02*
X102634543Y-88020862D01*
X123591488Y-67738145D02*
X123543869Y-67685764D01*
X123543869Y-67685764D02*
X123496250Y-67581002D01*
X123496250Y-67581002D02*
X123496250Y-67319097D01*
X123496250Y-67319097D02*
X123543869Y-67214335D01*
X123543869Y-67214335D02*
X123591488Y-67161954D01*
X123591488Y-67161954D02*
X123686726Y-67109573D01*
X123686726Y-67109573D02*
X123781964Y-67109573D01*
X123781964Y-67109573D02*
X123924821Y-67161954D01*
X123924821Y-67161954D02*
X124496250Y-67790526D01*
X124496250Y-67790526D02*
X124496250Y-67109573D01*
X123591488Y-66690526D02*
X123543869Y-66638145D01*
X123543869Y-66638145D02*
X123496250Y-66533383D01*
X123496250Y-66533383D02*
X123496250Y-66271478D01*
X123496250Y-66271478D02*
X123543869Y-66166716D01*
X123543869Y-66166716D02*
X123591488Y-66114335D01*
X123591488Y-66114335D02*
X123686726Y-66061954D01*
X123686726Y-66061954D02*
X123781964Y-66061954D01*
X123781964Y-66061954D02*
X123924821Y-66114335D01*
X123924821Y-66114335D02*
X124496250Y-66742907D01*
X124496250Y-66742907D02*
X124496250Y-66061954D01*
X102444067Y-85480862D02*
X102396448Y-85428481D01*
X102396448Y-85428481D02*
X102348829Y-85323719D01*
X102348829Y-85323719D02*
X102348829Y-85061814D01*
X102348829Y-85061814D02*
X102396448Y-84957052D01*
X102396448Y-84957052D02*
X102444067Y-84904671D01*
X102444067Y-84904671D02*
X102539305Y-84852290D01*
X102539305Y-84852290D02*
X102634543Y-84852290D01*
X102634543Y-84852290D02*
X102777400Y-84904671D01*
X102777400Y-84904671D02*
X103348829Y-85533243D01*
X103348829Y-85533243D02*
X103348829Y-84852290D01*
X103287836Y-65080590D02*
X103287836Y-65709162D01*
X103287836Y-65394876D02*
X102287836Y-65394876D01*
X102287836Y-65394876D02*
X102430693Y-65499638D01*
X102430693Y-65499638D02*
X102525931Y-65604400D01*
X102525931Y-65604400D02*
X102573550Y-65709162D01*
X102287836Y-64399638D02*
X102287836Y-64294876D01*
X102287836Y-64294876D02*
X102335455Y-64190114D01*
X102335455Y-64190114D02*
X102383074Y-64137733D01*
X102383074Y-64137733D02*
X102478312Y-64085352D01*
X102478312Y-64085352D02*
X102668788Y-64032971D01*
X102668788Y-64032971D02*
X102906883Y-64032971D01*
X102906883Y-64032971D02*
X103097359Y-64085352D01*
X103097359Y-64085352D02*
X103192597Y-64137733D01*
X103192597Y-64137733D02*
X103240217Y-64190114D01*
X103240217Y-64190114D02*
X103287836Y-64294876D01*
X103287836Y-64294876D02*
X103287836Y-64399638D01*
X103287836Y-64399638D02*
X103240217Y-64504400D01*
X103240217Y-64504400D02*
X103192597Y-64556781D01*
X103192597Y-64556781D02*
X103097359Y-64609162D01*
X103097359Y-64609162D02*
X102906883Y-64661543D01*
X102906883Y-64661543D02*
X102668788Y-64661543D01*
X102668788Y-64661543D02*
X102478312Y-64609162D01*
X102478312Y-64609162D02*
X102383074Y-64556781D01*
X102383074Y-64556781D02*
X102335455Y-64504400D01*
X102335455Y-64504400D02*
X102287836Y-64399638D01*
X103287836Y-57460590D02*
X103287836Y-58089162D01*
X103287836Y-57774876D02*
X102287836Y-57774876D01*
X102287836Y-57774876D02*
X102430693Y-57879638D01*
X102430693Y-57879638D02*
X102525931Y-57984400D01*
X102525931Y-57984400D02*
X102573550Y-58089162D01*
X102287836Y-57093924D02*
X102287836Y-56412971D01*
X102287836Y-56412971D02*
X102668788Y-56779638D01*
X102668788Y-56779638D02*
X102668788Y-56622495D01*
X102668788Y-56622495D02*
X102716407Y-56517733D01*
X102716407Y-56517733D02*
X102764026Y-56465352D01*
X102764026Y-56465352D02*
X102859264Y-56412971D01*
X102859264Y-56412971D02*
X103097359Y-56412971D01*
X103097359Y-56412971D02*
X103192597Y-56465352D01*
X103192597Y-56465352D02*
X103240217Y-56517733D01*
X103240217Y-56517733D02*
X103287836Y-56622495D01*
X103287836Y-56622495D02*
X103287836Y-56936781D01*
X103287836Y-56936781D02*
X103240217Y-57041543D01*
X103240217Y-57041543D02*
X103192597Y-57093924D01*
X102777400Y-70031338D02*
X102729781Y-70136100D01*
X102729781Y-70136100D02*
X102682162Y-70188481D01*
X102682162Y-70188481D02*
X102586924Y-70240862D01*
X102586924Y-70240862D02*
X102539305Y-70240862D01*
X102539305Y-70240862D02*
X102444067Y-70188481D01*
X102444067Y-70188481D02*
X102396448Y-70136100D01*
X102396448Y-70136100D02*
X102348829Y-70031338D01*
X102348829Y-70031338D02*
X102348829Y-69821814D01*
X102348829Y-69821814D02*
X102396448Y-69717052D01*
X102396448Y-69717052D02*
X102444067Y-69664671D01*
X102444067Y-69664671D02*
X102539305Y-69612290D01*
X102539305Y-69612290D02*
X102586924Y-69612290D01*
X102586924Y-69612290D02*
X102682162Y-69664671D01*
X102682162Y-69664671D02*
X102729781Y-69717052D01*
X102729781Y-69717052D02*
X102777400Y-69821814D01*
X102777400Y-69821814D02*
X102777400Y-70031338D01*
X102777400Y-70031338D02*
X102825019Y-70136100D01*
X102825019Y-70136100D02*
X102872638Y-70188481D01*
X102872638Y-70188481D02*
X102967876Y-70240862D01*
X102967876Y-70240862D02*
X103158352Y-70240862D01*
X103158352Y-70240862D02*
X103253590Y-70188481D01*
X103253590Y-70188481D02*
X103301210Y-70136100D01*
X103301210Y-70136100D02*
X103348829Y-70031338D01*
X103348829Y-70031338D02*
X103348829Y-69821814D01*
X103348829Y-69821814D02*
X103301210Y-69717052D01*
X103301210Y-69717052D02*
X103253590Y-69664671D01*
X103253590Y-69664671D02*
X103158352Y-69612290D01*
X103158352Y-69612290D02*
X102967876Y-69612290D01*
X102967876Y-69612290D02*
X102872638Y-69664671D01*
X102872638Y-69664671D02*
X102825019Y-69717052D01*
X102825019Y-69717052D02*
X102777400Y-69821814D01*
X102682162Y-79877052D02*
X103348829Y-79877052D01*
X102301210Y-80138957D02*
X103015495Y-80400862D01*
X103015495Y-80400862D02*
X103015495Y-79719909D01*
X123591488Y-70278145D02*
X123543869Y-70225764D01*
X123543869Y-70225764D02*
X123496250Y-70121002D01*
X123496250Y-70121002D02*
X123496250Y-69859097D01*
X123496250Y-69859097D02*
X123543869Y-69754335D01*
X123543869Y-69754335D02*
X123591488Y-69701954D01*
X123591488Y-69701954D02*
X123686726Y-69649573D01*
X123686726Y-69649573D02*
X123781964Y-69649573D01*
X123781964Y-69649573D02*
X123924821Y-69701954D01*
X123924821Y-69701954D02*
X124496250Y-70330526D01*
X124496250Y-70330526D02*
X124496250Y-69649573D01*
X123496250Y-69282907D02*
X123496250Y-68601954D01*
X123496250Y-68601954D02*
X123877202Y-68968621D01*
X123877202Y-68968621D02*
X123877202Y-68811478D01*
X123877202Y-68811478D02*
X123924821Y-68706716D01*
X123924821Y-68706716D02*
X123972440Y-68654335D01*
X123972440Y-68654335D02*
X124067678Y-68601954D01*
X124067678Y-68601954D02*
X124305773Y-68601954D01*
X124305773Y-68601954D02*
X124401011Y-68654335D01*
X124401011Y-68654335D02*
X124448631Y-68706716D01*
X124448631Y-68706716D02*
X124496250Y-68811478D01*
X124496250Y-68811478D02*
X124496250Y-69125764D01*
X124496250Y-69125764D02*
X124448631Y-69230526D01*
X124448631Y-69230526D02*
X124401011Y-69282907D01*
X124490897Y-54521513D02*
X124490897Y-55150085D01*
X124490897Y-54835799D02*
X123490897Y-54835799D01*
X123490897Y-54835799D02*
X123633754Y-54940561D01*
X123633754Y-54940561D02*
X123728992Y-55045323D01*
X123728992Y-55045323D02*
X123776611Y-55150085D01*
X123490897Y-54154847D02*
X123490897Y-53421513D01*
X123490897Y-53421513D02*
X124490897Y-53892942D01*
X124496250Y-59489573D02*
X124496250Y-60118145D01*
X124496250Y-59803859D02*
X123496250Y-59803859D01*
X123496250Y-59803859D02*
X123639107Y-59908621D01*
X123639107Y-59908621D02*
X123734345Y-60013383D01*
X123734345Y-60013383D02*
X123781964Y-60118145D01*
X124496250Y-58965764D02*
X124496250Y-58756240D01*
X124496250Y-58756240D02*
X124448631Y-58651478D01*
X124448631Y-58651478D02*
X124401011Y-58599097D01*
X124401011Y-58599097D02*
X124258154Y-58494335D01*
X124258154Y-58494335D02*
X124067678Y-58441954D01*
X124067678Y-58441954D02*
X123686726Y-58441954D01*
X123686726Y-58441954D02*
X123591488Y-58494335D01*
X123591488Y-58494335D02*
X123543869Y-58546716D01*
X123543869Y-58546716D02*
X123496250Y-58651478D01*
X123496250Y-58651478D02*
X123496250Y-58861002D01*
X123496250Y-58861002D02*
X123543869Y-58965764D01*
X123543869Y-58965764D02*
X123591488Y-59018145D01*
X123591488Y-59018145D02*
X123686726Y-59070526D01*
X123686726Y-59070526D02*
X123924821Y-59070526D01*
X123924821Y-59070526D02*
X124020059Y-59018145D01*
X124020059Y-59018145D02*
X124067678Y-58965764D01*
X124067678Y-58965764D02*
X124115297Y-58861002D01*
X124115297Y-58861002D02*
X124115297Y-58651478D01*
X124115297Y-58651478D02*
X124067678Y-58546716D01*
X124067678Y-58546716D02*
X124020059Y-58494335D01*
X124020059Y-58494335D02*
X123924821Y-58441954D01*
X103287836Y-62540590D02*
X103287836Y-63169162D01*
X103287836Y-62854876D02*
X102287836Y-62854876D01*
X102287836Y-62854876D02*
X102430693Y-62959638D01*
X102430693Y-62959638D02*
X102525931Y-63064400D01*
X102525931Y-63064400D02*
X102573550Y-63169162D01*
X103287836Y-61492971D02*
X103287836Y-62121543D01*
X103287836Y-61807257D02*
X102287836Y-61807257D01*
X102287836Y-61807257D02*
X102430693Y-61912019D01*
X102430693Y-61912019D02*
X102525931Y-62016781D01*
X102525931Y-62016781D02*
X102573550Y-62121543D01*
X123646740Y-80337191D02*
X123599121Y-80284810D01*
X123599121Y-80284810D02*
X123551502Y-80180048D01*
X123551502Y-80180048D02*
X123551502Y-79918143D01*
X123551502Y-79918143D02*
X123599121Y-79813381D01*
X123599121Y-79813381D02*
X123646740Y-79761000D01*
X123646740Y-79761000D02*
X123741978Y-79708619D01*
X123741978Y-79708619D02*
X123837216Y-79708619D01*
X123837216Y-79708619D02*
X123980073Y-79761000D01*
X123980073Y-79761000D02*
X124551502Y-80389572D01*
X124551502Y-80389572D02*
X124551502Y-79708619D01*
X123551502Y-79341953D02*
X123551502Y-78608619D01*
X123551502Y-78608619D02*
X124551502Y-79080048D01*
X102348829Y-74797052D02*
X102348829Y-75006576D01*
X102348829Y-75006576D02*
X102396448Y-75111338D01*
X102396448Y-75111338D02*
X102444067Y-75163719D01*
X102444067Y-75163719D02*
X102586924Y-75268481D01*
X102586924Y-75268481D02*
X102777400Y-75320862D01*
X102777400Y-75320862D02*
X103158352Y-75320862D01*
X103158352Y-75320862D02*
X103253590Y-75268481D01*
X103253590Y-75268481D02*
X103301210Y-75216100D01*
X103301210Y-75216100D02*
X103348829Y-75111338D01*
X103348829Y-75111338D02*
X103348829Y-74901814D01*
X103348829Y-74901814D02*
X103301210Y-74797052D01*
X103301210Y-74797052D02*
X103253590Y-74744671D01*
X103253590Y-74744671D02*
X103158352Y-74692290D01*
X103158352Y-74692290D02*
X102920257Y-74692290D01*
X102920257Y-74692290D02*
X102825019Y-74744671D01*
X102825019Y-74744671D02*
X102777400Y-74797052D01*
X102777400Y-74797052D02*
X102729781Y-74901814D01*
X102729781Y-74901814D02*
X102729781Y-75111338D01*
X102729781Y-75111338D02*
X102777400Y-75216100D01*
X102777400Y-75216100D02*
X102825019Y-75268481D01*
X102825019Y-75268481D02*
X102920257Y-75320862D01*
X103348829Y-67596100D02*
X103348829Y-67386576D01*
X103348829Y-67386576D02*
X103301210Y-67281814D01*
X103301210Y-67281814D02*
X103253590Y-67229433D01*
X103253590Y-67229433D02*
X103110733Y-67124671D01*
X103110733Y-67124671D02*
X102920257Y-67072290D01*
X102920257Y-67072290D02*
X102539305Y-67072290D01*
X102539305Y-67072290D02*
X102444067Y-67124671D01*
X102444067Y-67124671D02*
X102396448Y-67177052D01*
X102396448Y-67177052D02*
X102348829Y-67281814D01*
X102348829Y-67281814D02*
X102348829Y-67491338D01*
X102348829Y-67491338D02*
X102396448Y-67596100D01*
X102396448Y-67596100D02*
X102444067Y-67648481D01*
X102444067Y-67648481D02*
X102539305Y-67700862D01*
X102539305Y-67700862D02*
X102777400Y-67700862D01*
X102777400Y-67700862D02*
X102872638Y-67648481D01*
X102872638Y-67648481D02*
X102920257Y-67596100D01*
X102920257Y-67596100D02*
X102967876Y-67491338D01*
X102967876Y-67491338D02*
X102967876Y-67281814D01*
X102967876Y-67281814D02*
X102920257Y-67177052D01*
X102920257Y-67177052D02*
X102872638Y-67124671D01*
X102872638Y-67124671D02*
X102777400Y-67072290D01*
X123591488Y-62658145D02*
X123543869Y-62605764D01*
X123543869Y-62605764D02*
X123496250Y-62501002D01*
X123496250Y-62501002D02*
X123496250Y-62239097D01*
X123496250Y-62239097D02*
X123543869Y-62134335D01*
X123543869Y-62134335D02*
X123591488Y-62081954D01*
X123591488Y-62081954D02*
X123686726Y-62029573D01*
X123686726Y-62029573D02*
X123781964Y-62029573D01*
X123781964Y-62029573D02*
X123924821Y-62081954D01*
X123924821Y-62081954D02*
X124496250Y-62710526D01*
X124496250Y-62710526D02*
X124496250Y-62029573D01*
X123496250Y-61348621D02*
X123496250Y-61243859D01*
X123496250Y-61243859D02*
X123543869Y-61139097D01*
X123543869Y-61139097D02*
X123591488Y-61086716D01*
X123591488Y-61086716D02*
X123686726Y-61034335D01*
X123686726Y-61034335D02*
X123877202Y-60981954D01*
X123877202Y-60981954D02*
X124115297Y-60981954D01*
X124115297Y-60981954D02*
X124305773Y-61034335D01*
X124305773Y-61034335D02*
X124401011Y-61086716D01*
X124401011Y-61086716D02*
X124448631Y-61139097D01*
X124448631Y-61139097D02*
X124496250Y-61243859D01*
X124496250Y-61243859D02*
X124496250Y-61348621D01*
X124496250Y-61348621D02*
X124448631Y-61453383D01*
X124448631Y-61453383D02*
X124401011Y-61505764D01*
X124401011Y-61505764D02*
X124305773Y-61558145D01*
X124305773Y-61558145D02*
X124115297Y-61610526D01*
X124115297Y-61610526D02*
X123877202Y-61610526D01*
X123877202Y-61610526D02*
X123686726Y-61558145D01*
X123686726Y-61558145D02*
X123591488Y-61505764D01*
X123591488Y-61505764D02*
X123543869Y-61453383D01*
X123543869Y-61453383D02*
X123496250Y-61348621D01*
D12*
X92235714Y-96537664D02*
X92197618Y-96575760D01*
X92197618Y-96575760D02*
X92083333Y-96613855D01*
X92083333Y-96613855D02*
X92007142Y-96613855D01*
X92007142Y-96613855D02*
X91892856Y-96575760D01*
X91892856Y-96575760D02*
X91816666Y-96499569D01*
X91816666Y-96499569D02*
X91778571Y-96423379D01*
X91778571Y-96423379D02*
X91740475Y-96270998D01*
X91740475Y-96270998D02*
X91740475Y-96156712D01*
X91740475Y-96156712D02*
X91778571Y-96004331D01*
X91778571Y-96004331D02*
X91816666Y-95928140D01*
X91816666Y-95928140D02*
X91892856Y-95851950D01*
X91892856Y-95851950D02*
X92007142Y-95813855D01*
X92007142Y-95813855D02*
X92083333Y-95813855D01*
X92083333Y-95813855D02*
X92197618Y-95851950D01*
X92197618Y-95851950D02*
X92235714Y-95890045D01*
X92997618Y-96613855D02*
X92540475Y-96613855D01*
X92769047Y-96613855D02*
X92769047Y-95813855D01*
X92769047Y-95813855D02*
X92692856Y-95928140D01*
X92692856Y-95928140D02*
X92616666Y-96004331D01*
X92616666Y-96004331D02*
X92540475Y-96042426D01*
X93683333Y-95813855D02*
X93530952Y-95813855D01*
X93530952Y-95813855D02*
X93454761Y-95851950D01*
X93454761Y-95851950D02*
X93416666Y-95890045D01*
X93416666Y-95890045D02*
X93340476Y-96004331D01*
X93340476Y-96004331D02*
X93302380Y-96156712D01*
X93302380Y-96156712D02*
X93302380Y-96461474D01*
X93302380Y-96461474D02*
X93340476Y-96537664D01*
X93340476Y-96537664D02*
X93378571Y-96575760D01*
X93378571Y-96575760D02*
X93454761Y-96613855D01*
X93454761Y-96613855D02*
X93607142Y-96613855D01*
X93607142Y-96613855D02*
X93683333Y-96575760D01*
X93683333Y-96575760D02*
X93721428Y-96537664D01*
X93721428Y-96537664D02*
X93759523Y-96461474D01*
X93759523Y-96461474D02*
X93759523Y-96270998D01*
X93759523Y-96270998D02*
X93721428Y-96194807D01*
X93721428Y-96194807D02*
X93683333Y-96156712D01*
X93683333Y-96156712D02*
X93607142Y-96118617D01*
X93607142Y-96118617D02*
X93454761Y-96118617D01*
X93454761Y-96118617D02*
X93378571Y-96156712D01*
X93378571Y-96156712D02*
X93340476Y-96194807D01*
X93340476Y-96194807D02*
X93302380Y-96270998D01*
X134240476Y-88563855D02*
X134697619Y-88563855D01*
X134469047Y-89363855D02*
X134469047Y-88563855D01*
X134964286Y-89363855D02*
X134964286Y-88563855D01*
X134964286Y-88563855D02*
X135269048Y-88563855D01*
X135269048Y-88563855D02*
X135345238Y-88601950D01*
X135345238Y-88601950D02*
X135383333Y-88640045D01*
X135383333Y-88640045D02*
X135421429Y-88716236D01*
X135421429Y-88716236D02*
X135421429Y-88830521D01*
X135421429Y-88830521D02*
X135383333Y-88906712D01*
X135383333Y-88906712D02*
X135345238Y-88944807D01*
X135345238Y-88944807D02*
X135269048Y-88982902D01*
X135269048Y-88982902D02*
X134964286Y-88982902D01*
X136107143Y-88830521D02*
X136107143Y-89363855D01*
X135916667Y-88525760D02*
X135726190Y-89097188D01*
X135726190Y-89097188D02*
X136221429Y-89097188D01*
X128740476Y-88563855D02*
X129197619Y-88563855D01*
X128969047Y-89363855D02*
X128969047Y-88563855D01*
X129464286Y-89363855D02*
X129464286Y-88563855D01*
X129464286Y-88563855D02*
X129769048Y-88563855D01*
X129769048Y-88563855D02*
X129845238Y-88601950D01*
X129845238Y-88601950D02*
X129883333Y-88640045D01*
X129883333Y-88640045D02*
X129921429Y-88716236D01*
X129921429Y-88716236D02*
X129921429Y-88830521D01*
X129921429Y-88830521D02*
X129883333Y-88906712D01*
X129883333Y-88906712D02*
X129845238Y-88944807D01*
X129845238Y-88944807D02*
X129769048Y-88982902D01*
X129769048Y-88982902D02*
X129464286Y-88982902D01*
X130645238Y-88563855D02*
X130264286Y-88563855D01*
X130264286Y-88563855D02*
X130226190Y-88944807D01*
X130226190Y-88944807D02*
X130264286Y-88906712D01*
X130264286Y-88906712D02*
X130340476Y-88868617D01*
X130340476Y-88868617D02*
X130530952Y-88868617D01*
X130530952Y-88868617D02*
X130607143Y-88906712D01*
X130607143Y-88906712D02*
X130645238Y-88944807D01*
X130645238Y-88944807D02*
X130683333Y-89020998D01*
X130683333Y-89020998D02*
X130683333Y-89211474D01*
X130683333Y-89211474D02*
X130645238Y-89287664D01*
X130645238Y-89287664D02*
X130607143Y-89325760D01*
X130607143Y-89325760D02*
X130530952Y-89363855D01*
X130530952Y-89363855D02*
X130340476Y-89363855D01*
X130340476Y-89363855D02*
X130264286Y-89325760D01*
X130264286Y-89325760D02*
X130226190Y-89287664D01*
X123733333Y-121113855D02*
X123733333Y-121685283D01*
X123733333Y-121685283D02*
X123695238Y-121799569D01*
X123695238Y-121799569D02*
X123619047Y-121875760D01*
X123619047Y-121875760D02*
X123504762Y-121913855D01*
X123504762Y-121913855D02*
X123428571Y-121913855D01*
X124038095Y-121113855D02*
X124533333Y-121113855D01*
X124533333Y-121113855D02*
X124266667Y-121418617D01*
X124266667Y-121418617D02*
X124380952Y-121418617D01*
X124380952Y-121418617D02*
X124457143Y-121456712D01*
X124457143Y-121456712D02*
X124495238Y-121494807D01*
X124495238Y-121494807D02*
X124533333Y-121570998D01*
X124533333Y-121570998D02*
X124533333Y-121761474D01*
X124533333Y-121761474D02*
X124495238Y-121837664D01*
X124495238Y-121837664D02*
X124457143Y-121875760D01*
X124457143Y-121875760D02*
X124380952Y-121913855D01*
X124380952Y-121913855D02*
X124152381Y-121913855D01*
X124152381Y-121913855D02*
X124076190Y-121875760D01*
X124076190Y-121875760D02*
X124038095Y-121837664D01*
X98885714Y-97491544D02*
X98847618Y-97529640D01*
X98847618Y-97529640D02*
X98733333Y-97567735D01*
X98733333Y-97567735D02*
X98657142Y-97567735D01*
X98657142Y-97567735D02*
X98542856Y-97529640D01*
X98542856Y-97529640D02*
X98466666Y-97453449D01*
X98466666Y-97453449D02*
X98428571Y-97377259D01*
X98428571Y-97377259D02*
X98390475Y-97224878D01*
X98390475Y-97224878D02*
X98390475Y-97110592D01*
X98390475Y-97110592D02*
X98428571Y-96958211D01*
X98428571Y-96958211D02*
X98466666Y-96882020D01*
X98466666Y-96882020D02*
X98542856Y-96805830D01*
X98542856Y-96805830D02*
X98657142Y-96767735D01*
X98657142Y-96767735D02*
X98733333Y-96767735D01*
X98733333Y-96767735D02*
X98847618Y-96805830D01*
X98847618Y-96805830D02*
X98885714Y-96843925D01*
X99647618Y-97567735D02*
X99190475Y-97567735D01*
X99419047Y-97567735D02*
X99419047Y-96767735D01*
X99419047Y-96767735D02*
X99342856Y-96882020D01*
X99342856Y-96882020D02*
X99266666Y-96958211D01*
X99266666Y-96958211D02*
X99190475Y-96996306D01*
X99952380Y-96843925D02*
X99990476Y-96805830D01*
X99990476Y-96805830D02*
X100066666Y-96767735D01*
X100066666Y-96767735D02*
X100257142Y-96767735D01*
X100257142Y-96767735D02*
X100333333Y-96805830D01*
X100333333Y-96805830D02*
X100371428Y-96843925D01*
X100371428Y-96843925D02*
X100409523Y-96920116D01*
X100409523Y-96920116D02*
X100409523Y-96996306D01*
X100409523Y-96996306D02*
X100371428Y-97110592D01*
X100371428Y-97110592D02*
X99914285Y-97567735D01*
X99914285Y-97567735D02*
X100409523Y-97567735D01*
X103616667Y-100363855D02*
X103350000Y-99982902D01*
X103159524Y-100363855D02*
X103159524Y-99563855D01*
X103159524Y-99563855D02*
X103464286Y-99563855D01*
X103464286Y-99563855D02*
X103540476Y-99601950D01*
X103540476Y-99601950D02*
X103578571Y-99640045D01*
X103578571Y-99640045D02*
X103616667Y-99716236D01*
X103616667Y-99716236D02*
X103616667Y-99830521D01*
X103616667Y-99830521D02*
X103578571Y-99906712D01*
X103578571Y-99906712D02*
X103540476Y-99944807D01*
X103540476Y-99944807D02*
X103464286Y-99982902D01*
X103464286Y-99982902D02*
X103159524Y-99982902D01*
X104073809Y-99906712D02*
X103997619Y-99868617D01*
X103997619Y-99868617D02*
X103959524Y-99830521D01*
X103959524Y-99830521D02*
X103921428Y-99754331D01*
X103921428Y-99754331D02*
X103921428Y-99716236D01*
X103921428Y-99716236D02*
X103959524Y-99640045D01*
X103959524Y-99640045D02*
X103997619Y-99601950D01*
X103997619Y-99601950D02*
X104073809Y-99563855D01*
X104073809Y-99563855D02*
X104226190Y-99563855D01*
X104226190Y-99563855D02*
X104302381Y-99601950D01*
X104302381Y-99601950D02*
X104340476Y-99640045D01*
X104340476Y-99640045D02*
X104378571Y-99716236D01*
X104378571Y-99716236D02*
X104378571Y-99754331D01*
X104378571Y-99754331D02*
X104340476Y-99830521D01*
X104340476Y-99830521D02*
X104302381Y-99868617D01*
X104302381Y-99868617D02*
X104226190Y-99906712D01*
X104226190Y-99906712D02*
X104073809Y-99906712D01*
X104073809Y-99906712D02*
X103997619Y-99944807D01*
X103997619Y-99944807D02*
X103959524Y-99982902D01*
X103959524Y-99982902D02*
X103921428Y-100059093D01*
X103921428Y-100059093D02*
X103921428Y-100211474D01*
X103921428Y-100211474D02*
X103959524Y-100287664D01*
X103959524Y-100287664D02*
X103997619Y-100325760D01*
X103997619Y-100325760D02*
X104073809Y-100363855D01*
X104073809Y-100363855D02*
X104226190Y-100363855D01*
X104226190Y-100363855D02*
X104302381Y-100325760D01*
X104302381Y-100325760D02*
X104340476Y-100287664D01*
X104340476Y-100287664D02*
X104378571Y-100211474D01*
X104378571Y-100211474D02*
X104378571Y-100059093D01*
X104378571Y-100059093D02*
X104340476Y-99982902D01*
X104340476Y-99982902D02*
X104302381Y-99944807D01*
X104302381Y-99944807D02*
X104226190Y-99906712D01*
X94768483Y-111054080D02*
X94730387Y-111092176D01*
X94730387Y-111092176D02*
X94616102Y-111130271D01*
X94616102Y-111130271D02*
X94539911Y-111130271D01*
X94539911Y-111130271D02*
X94425625Y-111092176D01*
X94425625Y-111092176D02*
X94349435Y-111015985D01*
X94349435Y-111015985D02*
X94311340Y-110939795D01*
X94311340Y-110939795D02*
X94273244Y-110787414D01*
X94273244Y-110787414D02*
X94273244Y-110673128D01*
X94273244Y-110673128D02*
X94311340Y-110520747D01*
X94311340Y-110520747D02*
X94349435Y-110444556D01*
X94349435Y-110444556D02*
X94425625Y-110368366D01*
X94425625Y-110368366D02*
X94539911Y-110330271D01*
X94539911Y-110330271D02*
X94616102Y-110330271D01*
X94616102Y-110330271D02*
X94730387Y-110368366D01*
X94730387Y-110368366D02*
X94768483Y-110406461D01*
X95530387Y-111130271D02*
X95073244Y-111130271D01*
X95301816Y-111130271D02*
X95301816Y-110330271D01*
X95301816Y-110330271D02*
X95225625Y-110444556D01*
X95225625Y-110444556D02*
X95149435Y-110520747D01*
X95149435Y-110520747D02*
X95073244Y-110558842D01*
X96025626Y-110330271D02*
X96101816Y-110330271D01*
X96101816Y-110330271D02*
X96178007Y-110368366D01*
X96178007Y-110368366D02*
X96216102Y-110406461D01*
X96216102Y-110406461D02*
X96254197Y-110482652D01*
X96254197Y-110482652D02*
X96292292Y-110635033D01*
X96292292Y-110635033D02*
X96292292Y-110825509D01*
X96292292Y-110825509D02*
X96254197Y-110977890D01*
X96254197Y-110977890D02*
X96216102Y-111054080D01*
X96216102Y-111054080D02*
X96178007Y-111092176D01*
X96178007Y-111092176D02*
X96101816Y-111130271D01*
X96101816Y-111130271D02*
X96025626Y-111130271D01*
X96025626Y-111130271D02*
X95949435Y-111092176D01*
X95949435Y-111092176D02*
X95911340Y-111054080D01*
X95911340Y-111054080D02*
X95873245Y-110977890D01*
X95873245Y-110977890D02*
X95835149Y-110825509D01*
X95835149Y-110825509D02*
X95835149Y-110635033D01*
X95835149Y-110635033D02*
X95873245Y-110482652D01*
X95873245Y-110482652D02*
X95911340Y-110406461D01*
X95911340Y-110406461D02*
X95949435Y-110368366D01*
X95949435Y-110368366D02*
X96025626Y-110330271D01*
D14*
%TO.C,L2*%
X92050000Y-107500000D02*
G75*
G02*
X91950000Y-107500000I-50000J0D01*
G01*
X91950000Y-107500000D02*
G75*
G02*
X92050000Y-107500000I50000J0D01*
G01*
%TO.C,L1*%
X130000000Y-104550000D02*
X124000000Y-104550000D01*
X124000000Y-104550000D02*
X124000000Y-105250000D01*
X130000000Y-105250000D02*
X130000000Y-104550000D01*
X130800000Y-107250000D02*
X130800000Y-107250000D01*
X130800000Y-107250000D02*
X130800000Y-107250000D01*
X130700000Y-107250000D02*
X130700000Y-107250000D01*
X124000000Y-109250000D02*
X124000000Y-109950000D01*
X130000000Y-109950000D02*
X130000000Y-109250000D01*
X124000000Y-109950000D02*
X130000000Y-109950000D01*
X130800000Y-107250000D02*
G75*
G02*
X130700000Y-107250000I-50000J0D01*
G01*
X130700000Y-107250000D02*
G75*
G02*
X130800000Y-107250000I50000J0D01*
G01*
X130700000Y-107250000D02*
G75*
G02*
X130800000Y-107250000I50000J0D01*
G01*
%TO.C,IC1*%
X133375000Y-105400000D02*
X134625000Y-105400000D01*
X134975000Y-105550000D02*
X135525000Y-105550000D01*
X134975000Y-108450000D02*
X134975000Y-105550000D01*
X135525000Y-105550000D02*
X135525000Y-108450000D01*
X135525000Y-108450000D02*
X134975000Y-108450000D01*
%TO.C,IC2*%
X98625000Y-103150000D02*
X99875000Y-103150000D01*
X100225000Y-103300000D02*
X100775000Y-103300000D01*
X100225000Y-106200000D02*
X100225000Y-103300000D01*
X100775000Y-103300000D02*
X100775000Y-106200000D01*
X100775000Y-106200000D02*
X100225000Y-106200000D01*
D12*
%TO.C,C4*%
X133515000Y-102488748D02*
X133515000Y-103011252D01*
X134985000Y-102488748D02*
X134985000Y-103011252D01*
D14*
%TO.C,D2*%
X109900000Y-114800000D02*
X117400000Y-114800000D01*
X109900000Y-117000000D02*
X102538000Y-117000000D01*
X109900000Y-119200000D02*
X109900000Y-114800000D01*
X117400000Y-114800000D02*
X117400000Y-119200000D01*
X117400000Y-117000000D02*
X115200000Y-119200000D01*
X117400000Y-119200000D02*
X109900000Y-119200000D01*
X124762000Y-117000000D02*
X117400000Y-117000000D01*
D12*
%TO.C,TP7*%
X85700000Y-86500000D02*
G75*
G02*
X82300000Y-86500000I-1700000J0D01*
G01*
X82300000Y-86500000D02*
G75*
G02*
X85700000Y-86500000I1700000J0D01*
G01*
%TO.C,R11*%
X106765000Y-105027064D02*
X106765000Y-104572936D01*
X108235000Y-105027064D02*
X108235000Y-104572936D01*
%TO.C,C9*%
X98794021Y-112281416D02*
X98271517Y-112281416D01*
X98794021Y-113751416D02*
X98271517Y-113751416D01*
%TO.C,TP1*%
X97450000Y-121250000D02*
G75*
G02*
X94050000Y-121250000I-1700000J0D01*
G01*
X94050000Y-121250000D02*
G75*
G02*
X97450000Y-121250000I1700000J0D01*
G01*
%TO.C,C7*%
X123261252Y-98765000D02*
X122738748Y-98765000D01*
X123261252Y-100235000D02*
X122738748Y-100235000D01*
%TO.C,J8*%
X84120000Y-59845000D02*
X85500000Y-59845000D01*
X84120000Y-61225000D02*
X84120000Y-59845000D01*
X84120000Y-62495000D02*
X84120000Y-65145000D01*
X84120000Y-62495000D02*
X86880000Y-62495000D01*
X84120000Y-65145000D02*
X86880000Y-65145000D01*
X86880000Y-62495000D02*
X86880000Y-65145000D01*
%TO.C,J9*%
X84120000Y-67620000D02*
X85500000Y-67620000D01*
X84120000Y-69000000D02*
X84120000Y-67620000D01*
X84120000Y-70270000D02*
X84120000Y-72920000D01*
X84120000Y-70270000D02*
X86880000Y-70270000D01*
X84120000Y-72920000D02*
X86880000Y-72920000D01*
X86880000Y-70270000D02*
X86880000Y-72920000D01*
%TO.C,R12*%
X104515000Y-107027064D02*
X104515000Y-106572936D01*
X105985000Y-107027064D02*
X105985000Y-106572936D01*
D14*
%TO.C,F1*%
X111350000Y-121750000D02*
X109750000Y-121750000D01*
X111350000Y-123350000D02*
X109750000Y-123350000D01*
D10*
X113350000Y-122550000D02*
X113350000Y-122550000D01*
X113450000Y-122550000D02*
X113450000Y-122550000D01*
X113350000Y-122550000D02*
G75*
G02*
X113450000Y-122550000I50000J0D01*
G01*
X113450000Y-122550000D02*
G75*
G02*
X113350000Y-122550000I-50000J0D01*
G01*
D12*
%TO.C,C11*%
X98794021Y-107781416D02*
X98271517Y-107781416D01*
X98794021Y-109251416D02*
X98271517Y-109251416D01*
%TO.C,R1*%
X136015000Y-102977064D02*
X136015000Y-102522936D01*
X137485000Y-102977064D02*
X137485000Y-102522936D01*
%TO.C,C15*%
X95988748Y-93265000D02*
X96511252Y-93265000D01*
X95988748Y-94735000D02*
X96511252Y-94735000D01*
%TO.C,JP1*%
X142200000Y-101250000D02*
X146300000Y-101250000D01*
X142200000Y-103250000D02*
X142200000Y-101250000D01*
X146300000Y-101250000D02*
X146300000Y-103250000D01*
X146300000Y-103250000D02*
X142200000Y-103250000D01*
%TO.C,C14*%
X95988748Y-91015000D02*
X96511252Y-91015000D01*
X95988748Y-92485000D02*
X96511252Y-92485000D01*
%TO.C,R3*%
X140522936Y-110265000D02*
X140977064Y-110265000D01*
X140522936Y-111735000D02*
X140977064Y-111735000D01*
%TO.C,TP6*%
X85450000Y-94250000D02*
G75*
G02*
X82050000Y-94250000I-1700000J0D01*
G01*
X82050000Y-94250000D02*
G75*
G02*
X85450000Y-94250000I1700000J0D01*
G01*
%TO.C,J5*%
X140620000Y-65310000D02*
X140620000Y-57580000D01*
X143380000Y-57580000D02*
X140620000Y-57580000D01*
X143380000Y-65310000D02*
X140620000Y-65310000D01*
X143380000Y-65310000D02*
X143380000Y-57580000D01*
X143380000Y-66580000D02*
X143380000Y-67960000D01*
X143380000Y-67960000D02*
X142000000Y-67960000D01*
%TO.C,TP3*%
X118700000Y-107400000D02*
G75*
G02*
X115300000Y-107400000I-1700000J0D01*
G01*
X115300000Y-107400000D02*
G75*
G02*
X118700000Y-107400000I1700000J0D01*
G01*
%TO.C,R7*%
X145265000Y-107029943D02*
X145265000Y-106575815D01*
X146735000Y-107029943D02*
X146735000Y-106575815D01*
%TO.C,C6*%
X123261252Y-96265000D02*
X122738748Y-96265000D01*
X123261252Y-97735000D02*
X122738748Y-97735000D01*
D14*
%TO.C,J6*%
X131250000Y-50120000D02*
X131250000Y-88970000D01*
X131250000Y-88970000D02*
X132500000Y-88970000D01*
X133750000Y-50120000D02*
X131250000Y-50120000D01*
X133750000Y-87500000D02*
X133750000Y-50120000D01*
D12*
%TO.C,J7*%
X140620000Y-74645000D02*
X142000000Y-74645000D01*
X140620000Y-76025000D02*
X140620000Y-74645000D01*
X140620000Y-77295000D02*
X140620000Y-79945000D01*
X140620000Y-77295000D02*
X143380000Y-77295000D01*
X140620000Y-79945000D02*
X143380000Y-79945000D01*
X143380000Y-77295000D02*
X143380000Y-79945000D01*
%TO.C,C3*%
X134988748Y-110015000D02*
X135511252Y-110015000D01*
X134988748Y-111485000D02*
X135511252Y-111485000D01*
%TO.C,R2*%
X145515000Y-111977064D02*
X145515000Y-111522936D01*
X146985000Y-111977064D02*
X146985000Y-111522936D01*
%TO.C,D1*%
X130250000Y-119340000D02*
X130250000Y-121000000D01*
X132170000Y-117420000D02*
G75*
G02*
X128330000Y-117420000I-1920000J0D01*
G01*
X128330000Y-117420000D02*
G75*
G02*
X132170000Y-117420000I1920000J0D01*
G01*
%TO.C,R9*%
X108522936Y-100865000D02*
X108977064Y-100865000D01*
X108522936Y-102335000D02*
X108977064Y-102335000D01*
%TO.C,C5*%
X140488748Y-112515000D02*
X141011252Y-112515000D01*
X140488748Y-113985000D02*
X141011252Y-113985000D01*
%TO.C,C8*%
X123261252Y-101265000D02*
X122738748Y-101265000D01*
X123261252Y-102735000D02*
X122738748Y-102735000D01*
%TO.C,C2*%
X134988748Y-112515000D02*
X135511252Y-112515000D01*
X134988748Y-113985000D02*
X135511252Y-113985000D01*
%TO.C,C13*%
X109265000Y-105061252D02*
X109265000Y-104538748D01*
X110735000Y-105061252D02*
X110735000Y-104538748D01*
%TO.C,JP2*%
X104700000Y-95750000D02*
X108800000Y-95750000D01*
X104700000Y-97750000D02*
X104700000Y-95750000D01*
X108800000Y-95750000D02*
X108800000Y-97750000D01*
X108800000Y-97750000D02*
X104700000Y-97750000D01*
%TO.C,R5*%
X143265000Y-111522936D02*
X143265000Y-111977064D01*
X144735000Y-111522936D02*
X144735000Y-111977064D01*
%TO.C,TP2*%
X137200000Y-121000000D02*
G75*
G02*
X133800000Y-121000000I-1700000J0D01*
G01*
X133800000Y-121000000D02*
G75*
G02*
X137200000Y-121000000I1700000J0D01*
G01*
%TO.C,R6*%
X143015000Y-106575815D02*
X143015000Y-107029943D01*
X144485000Y-106575815D02*
X144485000Y-107029943D01*
%TO.C,R4*%
X140977064Y-108015000D02*
X140522936Y-108015000D01*
X140977064Y-109485000D02*
X140522936Y-109485000D01*
%TO.C,R13*%
X111515000Y-97772936D02*
X111515000Y-98227064D01*
X112985000Y-97772936D02*
X112985000Y-98227064D01*
%TO.C,C1*%
X134988748Y-115015000D02*
X135511252Y-115015000D01*
X134988748Y-116485000D02*
X135511252Y-116485000D01*
%TO.C,TP8*%
X85700000Y-79250000D02*
G75*
G02*
X82300000Y-79250000I-1700000J0D01*
G01*
X82300000Y-79250000D02*
G75*
G02*
X85700000Y-79250000I1700000J0D01*
G01*
D14*
%TO.C,J4*%
X93250000Y-50140187D02*
X93250000Y-88990187D01*
X93250000Y-88990187D02*
X94500000Y-88990187D01*
X95750000Y-50140187D02*
X93250000Y-50140187D01*
X95750000Y-87520187D02*
X95750000Y-50140187D01*
D12*
%TO.C,R10*%
X108522936Y-98665000D02*
X108977064Y-98665000D01*
X108522936Y-100135000D02*
X108977064Y-100135000D01*
%TO.C,R14*%
X113715000Y-98227064D02*
X113715000Y-97772936D01*
X115185000Y-98227064D02*
X115185000Y-97772936D01*
%TO.C,J10*%
X140620000Y-83120000D02*
X142000000Y-83120000D01*
X140620000Y-84500000D02*
X140620000Y-83120000D01*
X140620000Y-85770000D02*
X140620000Y-88420000D01*
X140620000Y-85770000D02*
X143380000Y-85770000D01*
X140620000Y-88420000D02*
X143380000Y-88420000D01*
X143380000Y-85770000D02*
X143380000Y-88420000D01*
%TO.C,U1*%
D14*
X99280000Y-95400000D02*
X127580000Y-95400000D01*
X127580000Y-43900000D01*
X99280000Y-43900000D01*
X99280000Y-95400000D01*
D10*
X109440000Y-47140000D02*
X117060000Y-47140000D01*
X117060000Y-42885821D01*
X109440000Y-42885821D01*
X109440000Y-47140000D01*
D12*
%TO.C,C16*%
X95988748Y-95515000D02*
X96511252Y-95515000D01*
X95988748Y-96985000D02*
X96511252Y-96985000D01*
%TO.C,TP4*%
X136950000Y-91500000D02*
G75*
G02*
X133550000Y-91500000I-1700000J0D01*
G01*
X133550000Y-91500000D02*
G75*
G02*
X136950000Y-91500000I1700000J0D01*
G01*
%TO.C,TP5*%
X131450000Y-91500000D02*
G75*
G02*
X128050000Y-91500000I-1700000J0D01*
G01*
X128050000Y-91500000D02*
G75*
G02*
X131450000Y-91500000I1700000J0D01*
G01*
%TO.C,J3*%
X115570000Y-123930000D02*
X115570000Y-122550000D01*
X116950000Y-123930000D02*
X115570000Y-123930000D01*
X118220000Y-121170000D02*
X120870000Y-121170000D01*
X118220000Y-123930000D02*
X118220000Y-121170000D01*
X118220000Y-123930000D02*
X120870000Y-123930000D01*
X120870000Y-123930000D02*
X120870000Y-121170000D01*
%TO.C,C12*%
X98665000Y-99692628D02*
X98665000Y-100215132D01*
X100135000Y-99692628D02*
X100135000Y-100215132D01*
%TO.C,R8*%
X101065000Y-100180944D02*
X101065000Y-99726816D01*
X102535000Y-100180944D02*
X102535000Y-99726816D01*
%TO.C,C10*%
X98794021Y-110031416D02*
X98271517Y-110031416D01*
X98794021Y-111501416D02*
X98271517Y-111501416D01*
%TD*%
M02*
