%TF.GenerationSoftware,KiCad,Pcbnew,9.0.3*%
%TF.CreationDate,2026-06-19T14:20:22+01:00*%
%TF.ProjectId,default_esp32_board,64656661-756c-4745-9f65-737033325f62,rev?*%
%TF.SameCoordinates,Original*%
%TF.FileFunction,Soldermask,Bot*%
%TF.FilePolarity,Negative*%
%FSLAX46Y46*%
G04 Gerber Fmt 4.6, Leading zero omitted, Abs format (unit mm)*
G04 Created by KiCad (PCBNEW 9.0.3) date 2026-06-19 14:20:22*
%MOMM*%
%LPD*%
G01*
G04 APERTURE LIST*
G04 Aperture macros list*
%AMRoundRect*
0 Rectangle with rounded corners*
0 $1 Rounding radius*
0 $2 $3 $4 $5 $6 $7 $8 $9 X,Y pos of 4 corners*
0 Add a 4 corners polygon primitive as box body*
4,1,4,$2,$3,$4,$5,$6,$7,$8,$9,$2,$3,0*
0 Add four circle primitives for the rounded corners*
1,1,$1+$1,$2,$3*
1,1,$1+$1,$4,$5*
1,1,$1+$1,$6,$7*
1,1,$1+$1,$8,$9*
0 Add four rect primitives between the rounded corners*
20,1,$1+$1,$2,$3,$4,$5,0*
20,1,$1+$1,$4,$5,$6,$7,0*
20,1,$1+$1,$6,$7,$8,$9,0*
20,1,$1+$1,$8,$9,$2,$3,0*%
G04 Aperture macros list end*
%ADD10R,2.175000X2.175000*%
%ADD11C,2.175000*%
%ADD12C,3.000000*%
%ADD13C,4.300000*%
%ADD14R,1.700000X1.700000*%
%ADD15C,1.700000*%
%ADD16R,1.800000X1.800000*%
%ADD17C,1.800000*%
%ADD18RoundRect,0.250001X0.949999X-0.949999X0.949999X0.949999X-0.949999X0.949999X-0.949999X-0.949999X0*%
%ADD19C,2.400000*%
%ADD20O,1.900000X1.524000*%
G04 APERTURE END LIST*
D10*
%TO.C,D2*%
X126200000Y-117000000D03*
D11*
X101100000Y-117000000D03*
%TD*%
D12*
%TO.C,TP7*%
X84000000Y-86500000D03*
%TD*%
D13*
%TO.C,H3*%
X143000000Y-47750000D03*
%TD*%
D12*
%TO.C,TP1*%
X95750000Y-121250000D03*
%TD*%
D13*
%TO.C,H1*%
X85000000Y-119750000D03*
%TD*%
D14*
%TO.C,J8*%
X85500000Y-61225000D03*
D15*
X85500000Y-63765000D03*
%TD*%
D14*
%TO.C,J9*%
X85500000Y-69000000D03*
D15*
X85500000Y-71540000D03*
%TD*%
D13*
%TO.C,H2*%
X85000000Y-47750000D03*
%TD*%
D12*
%TO.C,TP6*%
X83750000Y-94250000D03*
%TD*%
D14*
%TO.C,J5*%
X142000000Y-66580000D03*
D15*
X142000000Y-64040000D03*
X142000000Y-61500000D03*
X142000000Y-58960000D03*
%TD*%
D12*
%TO.C,TP3*%
X117000000Y-107400000D03*
%TD*%
D16*
%TO.C,J6*%
X132500000Y-87500000D03*
D17*
X132500000Y-84960000D03*
X132500000Y-82420000D03*
X132500000Y-79880000D03*
X132500000Y-77340000D03*
X132500000Y-74800000D03*
X132500000Y-72260000D03*
X132500000Y-69720000D03*
X132500000Y-67180000D03*
X132500000Y-64640000D03*
X132500000Y-62100000D03*
X132500000Y-59560000D03*
X132500000Y-57020000D03*
X132500000Y-54480000D03*
X132500000Y-51940000D03*
%TD*%
D14*
%TO.C,J7*%
X142000000Y-76025000D03*
D15*
X142000000Y-78565000D03*
%TD*%
D18*
%TO.C,D1*%
X130250000Y-122500000D03*
D19*
X130250000Y-117420000D03*
%TD*%
D13*
%TO.C,H4*%
X143000000Y-119750000D03*
%TD*%
D12*
%TO.C,TP2*%
X135500000Y-121000000D03*
%TD*%
%TO.C,TP8*%
X84000000Y-79250000D03*
%TD*%
D16*
%TO.C,J4*%
X94500000Y-87520187D03*
D17*
X94500000Y-84980187D03*
X94500000Y-82440187D03*
X94500000Y-79900187D03*
X94500000Y-77360187D03*
X94500000Y-74820187D03*
X94500000Y-72280187D03*
X94500000Y-69740187D03*
X94500000Y-67200187D03*
X94500000Y-64660187D03*
X94500000Y-62120187D03*
X94500000Y-59580187D03*
X94500000Y-57040187D03*
X94500000Y-54500187D03*
X94500000Y-51960187D03*
%TD*%
D14*
%TO.C,J10*%
X142000000Y-84500000D03*
D15*
X142000000Y-87040000D03*
%TD*%
D20*
%TO.C,U1*%
X100777540Y-87540187D03*
X100777540Y-85000187D03*
X100777540Y-82460187D03*
X100777540Y-79920187D03*
X100777540Y-77380187D03*
X100777540Y-74840187D03*
X100777540Y-72300187D03*
X100777540Y-69760187D03*
X100777540Y-67220187D03*
X100777540Y-64680187D03*
X100777540Y-62140187D03*
X100777540Y-59600187D03*
X100777540Y-57060187D03*
X100777540Y-54520187D03*
X100777540Y-51980187D03*
X126177540Y-87540187D03*
X126177540Y-85000187D03*
X126177540Y-82460187D03*
X126177540Y-79920187D03*
X126177540Y-77380187D03*
X126177540Y-74840187D03*
X126177540Y-72300187D03*
X126177540Y-69760187D03*
X126177540Y-67220187D03*
X126177540Y-64680187D03*
X126177540Y-62140187D03*
X126177540Y-59600187D03*
X126177540Y-57060187D03*
X126177540Y-54520187D03*
X126177540Y-51980187D03*
%TD*%
D12*
%TO.C,TP4*%
X135250000Y-91500000D03*
%TD*%
%TO.C,TP5*%
X129750000Y-91500000D03*
%TD*%
D14*
%TO.C,J3*%
X116950000Y-122550000D03*
D15*
X119490000Y-122550000D03*
%TD*%
M02*
