M48
; DRILL file {KiCad 9.0.3} date 2026-06-19T14:20:18+0100
; FORMAT={-:-/ absolute / metric / decimal}
; #@! TF.CreationDate,2026-06-19T14:20:18+01:00
; #@! TF.GenerationSoftware,Kicad,Pcbnew,9.0.3
; #@! TF.FileFunction,Plated,1,2,PTH
FMAT,2
METRIC
; #@! TA.AperFunction,Plated,PTH,ViaDrill
T1C0.300
; #@! TA.AperFunction,Plated,PTH,ComponentDrill
T2C0.800
; #@! TA.AperFunction,Plated,PTH,ComponentDrill
T3C1.000
; #@! TA.AperFunction,Plated,PTH,ComponentDrill
T4C1.200
; #@! TA.AperFunction,Plated,PTH,ComponentDrill
T5C1.450
; #@! TA.AperFunction,Plated,PTH,ComponentDrill
T6C2.000
%
G90
G05
T1
X81.4Y-99.0
X81.4Y-100.0
X81.4Y-101.3
X81.4Y-102.25
X81.4Y-103.55
X81.4Y-104.5
X81.4Y-105.45
X81.4Y-106.45
X81.4Y-107.55
X81.4Y-108.55
X81.4Y-109.85
X81.4Y-110.8
X81.4Y-112.1
X81.4Y-113.05
X81.4Y-114.0
X81.4Y-115.0
X82.25Y-99.0
X82.25Y-100.0
X82.25Y-101.3
X82.25Y-102.25
X82.25Y-103.55
X82.25Y-104.5
X82.25Y-105.45
X82.25Y-106.45
X82.25Y-107.55
X82.25Y-108.55
X82.25Y-109.85
X82.25Y-110.8
X82.25Y-112.1
X82.25Y-113.05
X82.25Y-114.0
X82.25Y-115.0
X83.4Y-99.0
X83.4Y-100.0
X83.4Y-101.3
X83.4Y-102.25
X83.4Y-103.55
X83.4Y-104.5
X83.4Y-105.45
X83.4Y-106.45
X83.4Y-107.55
X83.4Y-108.55
X83.4Y-109.85
X83.4Y-110.8
X83.4Y-112.1
X83.4Y-113.05
X83.4Y-114.0
X83.4Y-115.0
X84.25Y-99.0
X84.25Y-100.0
X84.25Y-101.3
X84.25Y-102.25
X84.25Y-103.55
X84.25Y-104.5
X84.25Y-105.45
X84.25Y-106.45
X84.25Y-107.55
X84.25Y-108.55
X84.25Y-109.85
X84.25Y-110.8
X84.25Y-112.1
X84.25Y-113.05
X84.25Y-114.0
X84.25Y-115.0
X85.15Y-99.0
X85.15Y-100.0
X85.15Y-101.3
X85.15Y-102.25
X85.15Y-103.55
X85.15Y-104.5
X85.15Y-105.45
X85.15Y-106.45
X85.15Y-107.55
X85.15Y-108.55
X85.15Y-109.85
X85.15Y-110.8
X85.15Y-112.1
X85.15Y-113.05
X85.15Y-114.0
X85.15Y-115.0
X86.0Y-99.0
X86.0Y-100.0
X86.0Y-101.3
X86.0Y-102.25
X86.0Y-103.55
X86.0Y-104.5
X86.0Y-105.45
X86.0Y-106.45
X86.0Y-107.55
X86.0Y-108.55
X86.0Y-109.85
X86.0Y-110.8
X86.0Y-112.1
X86.0Y-113.05
X86.0Y-114.0
X86.0Y-115.0
X87.65Y-107.75
X87.65Y-108.75
X87.65Y-110.05
X87.65Y-111.0
X87.65Y-112.3
X87.65Y-113.25
X87.65Y-114.25
X87.65Y-115.25
X88.5Y-107.75
X88.5Y-108.75
X88.5Y-110.05
X88.5Y-111.0
X88.5Y-112.3
X88.5Y-113.25
X88.5Y-114.25
X88.5Y-115.25
X90.0Y-107.75
X90.0Y-108.75
X90.0Y-110.05
X90.0Y-111.0
X90.0Y-112.25
X90.0Y-113.2
X90.0Y-114.25
X90.0Y-115.25
X90.85Y-107.75
X90.85Y-108.75
X90.85Y-110.05
X90.85Y-111.0
X90.85Y-112.25
X90.85Y-113.2
X90.85Y-114.25
X90.85Y-115.25
X92.5Y-107.75
X92.5Y-108.75
X92.5Y-110.05
X92.5Y-111.0
X92.5Y-112.25
X92.5Y-113.2
X92.5Y-114.25
X92.5Y-115.25
X93.35Y-107.75
X93.35Y-108.75
X93.35Y-110.05
X93.35Y-111.0
X93.35Y-112.25
X93.35Y-113.2
X93.35Y-114.25
X93.35Y-115.25
X95.8Y-90.0
X96.0Y-108.5
X96.0Y-110.75
X96.0Y-113.0
X96.6Y-101.2
X96.6Y-104.0
X97.0Y-83.6
X97.0Y-84.35
X97.0Y-85.4
X97.0Y-86.2
X97.0Y-88.75
X97.3Y-97.8
X98.0Y-83.6
X98.0Y-84.35
X98.0Y-85.4
X98.0Y-86.2
X98.0Y-88.75
X98.0Y-102.8
X98.4Y-91.75
X98.5Y-94.0
X98.5Y-95.4
X98.5Y-96.4
X98.8Y-102.6
X99.6Y-96.4
X99.8Y-102.6
X100.5Y-103.25
X100.5Y-104.75
X100.7Y-96.4
X100.7Y-97.3
X101.0Y-106.8
X101.6Y-96.4
X101.6Y-97.3
X102.0Y-106.75
X103.0Y-102.75
X103.0Y-106.75
X104.0Y-97.0
X104.0Y-98.75
X104.2Y-109.4
X105.2Y-45.75
X105.2Y-46.75
X105.2Y-47.8
X105.2Y-48.85
X105.2Y-51.9
X105.2Y-52.9
X105.2Y-53.95
X105.2Y-55.0
X105.2Y-60.1
X105.2Y-61.1
X105.2Y-62.15
X105.2Y-63.2
X105.2Y-68.7
X105.2Y-69.7
X105.2Y-70.75
X105.2Y-71.8
X105.2Y-75.7
X105.2Y-76.7
X105.2Y-77.75
X105.2Y-78.8
X105.2Y-109.4
X105.25Y-82.9
X105.25Y-83.9
X105.25Y-84.95
X105.25Y-86.0
X106.142Y-99.542
X106.2Y-45.75
X106.2Y-46.75
X106.2Y-47.8
X106.2Y-48.85
X106.2Y-51.9
X106.2Y-52.9
X106.2Y-53.95
X106.2Y-55.0
X106.2Y-60.1
X106.2Y-61.1
X106.2Y-62.15
X106.2Y-63.2
X106.2Y-68.7
X106.2Y-69.7
X106.2Y-70.75
X106.2Y-71.8
X106.2Y-75.7
X106.2Y-76.7
X106.2Y-77.75
X106.2Y-78.8
X106.25Y-82.9
X106.25Y-83.9
X106.25Y-84.95
X106.25Y-86.0
X106.25Y-108.6
X106.25Y-109.45
X107.0Y-95.93
X107.2Y-108.6
X107.2Y-109.45
X108.2Y-108.6
X108.2Y-109.4
X109.25Y-108.6
X109.25Y-109.45
X109.5Y-45.7
X109.5Y-46.7
X109.5Y-47.75
X109.5Y-48.8
X109.5Y-51.9
X109.5Y-52.9
X109.5Y-53.95
X109.5Y-55.0
X109.5Y-60.1
X109.5Y-61.1
X109.5Y-62.15
X109.5Y-63.2
X109.6Y-68.7
X109.6Y-69.7
X109.6Y-70.75
X109.6Y-71.8
X109.6Y-75.7
X109.6Y-76.7
X109.6Y-77.75
X109.6Y-78.8
X109.65Y-82.9
X109.65Y-83.9
X109.65Y-84.95
X109.65Y-86.0
X110.2Y-108.6
X110.2Y-109.45
X110.5Y-45.7
X110.5Y-46.7
X110.5Y-47.75
X110.5Y-48.8
X110.5Y-51.9
X110.5Y-52.9
X110.5Y-53.95
X110.5Y-55.0
X110.5Y-60.1
X110.5Y-61.1
X110.5Y-62.15
X110.5Y-63.2
X110.6Y-68.7
X110.6Y-69.7
X110.6Y-70.75
X110.6Y-71.8
X110.6Y-75.7
X110.6Y-76.7
X110.6Y-77.75
X110.6Y-78.8
X110.6Y-99.4
X110.65Y-82.9
X110.65Y-83.9
X110.65Y-84.95
X110.65Y-86.0
X111.2Y-108.6
X111.2Y-109.4
X111.85Y-103.75
X111.85Y-104.7
X111.9Y-105.75
X112.7Y-103.75
X112.7Y-104.7
X112.75Y-105.75
X113.1Y-45.7
X113.1Y-46.7
X113.1Y-47.75
X113.1Y-48.8
X113.1Y-51.9
X113.1Y-52.9
X113.1Y-53.95
X113.1Y-55.0
X113.1Y-75.7
X113.1Y-76.7
X113.1Y-77.75
X113.1Y-78.8
X113.15Y-82.9
X113.15Y-83.9
X113.15Y-84.95
X113.15Y-86.0
X113.2Y-60.1
X113.2Y-61.1
X113.2Y-62.15
X113.2Y-63.2
X113.2Y-68.7
X113.2Y-69.7
X113.2Y-70.75
X113.2Y-71.8
X114.0Y-121.5
X114.0Y-122.25
X114.0Y-123.0
X114.0Y-123.75
X114.1Y-45.7
X114.1Y-46.7
X114.1Y-47.75
X114.1Y-48.8
X114.1Y-51.9
X114.1Y-52.9
X114.1Y-53.95
X114.1Y-55.0
X114.1Y-75.7
X114.1Y-76.7
X114.1Y-77.75
X114.1Y-78.8
X114.15Y-82.9
X114.15Y-83.9
X114.15Y-84.95
X114.15Y-86.0
X114.2Y-60.1
X114.2Y-61.1
X114.2Y-62.15
X114.2Y-63.2
X114.2Y-68.7
X114.2Y-69.7
X114.2Y-70.75
X114.2Y-71.8
X115.0Y-121.5
X115.0Y-122.25
X115.0Y-123.0
X115.0Y-123.75
X115.75Y-101.0
X115.85Y-102.0
X115.9Y-103.05
X115.9Y-104.0
X116.7Y-101.05
X116.7Y-102.0
X116.75Y-96.75
X116.75Y-97.75
X116.75Y-99.0
X116.75Y-100.0
X116.75Y-103.05
X116.75Y-104.0
X117.1Y-45.7
X117.1Y-46.7
X117.1Y-47.75
X117.1Y-48.8
X117.1Y-51.9
X117.1Y-52.9
X117.1Y-53.95
X117.1Y-55.0
X117.1Y-60.1
X117.1Y-61.1
X117.1Y-62.15
X117.1Y-63.2
X117.1Y-68.65
X117.1Y-69.65
X117.1Y-70.7
X117.1Y-71.75
X117.1Y-75.7
X117.1Y-76.7
X117.1Y-77.75
X117.1Y-78.8
X117.15Y-82.9
X117.15Y-83.9
X117.15Y-84.95
X117.15Y-86.0
X117.75Y-96.7
X117.75Y-97.7
X117.75Y-99.0
X117.75Y-99.95
X117.75Y-101.05
X117.75Y-102.0
X117.75Y-103.0
X117.75Y-104.0
X118.1Y-45.7
X118.1Y-46.7
X118.1Y-47.75
X118.1Y-48.8
X118.1Y-51.9
X118.1Y-52.9
X118.1Y-53.95
X118.1Y-55.0
X118.1Y-60.1
X118.1Y-61.1
X118.1Y-62.15
X118.1Y-63.2
X118.1Y-68.65
X118.1Y-69.65
X118.1Y-70.7
X118.1Y-71.75
X118.1Y-75.7
X118.1Y-76.7
X118.1Y-77.75
X118.1Y-78.8
X118.15Y-82.9
X118.15Y-83.9
X118.15Y-84.95
X118.15Y-86.0
X118.6Y-96.7
X118.6Y-97.7
X118.6Y-99.0
X118.6Y-99.95
X118.6Y-101.05
X118.6Y-102.0
X118.6Y-103.0
X118.6Y-104.0
X121.2Y-45.7
X121.2Y-46.7
X121.2Y-47.75
X121.2Y-48.8
X121.2Y-68.7
X121.2Y-69.7
X121.2Y-70.75
X121.2Y-71.8
X121.2Y-75.7
X121.2Y-76.7
X121.2Y-77.75
X121.2Y-78.8
X121.25Y-51.9
X121.25Y-52.9
X121.25Y-53.95
X121.25Y-55.0
X121.25Y-60.1
X121.25Y-61.1
X121.25Y-62.15
X121.25Y-63.2
X121.25Y-82.9
X121.25Y-83.9
X121.25Y-84.95
X121.25Y-86.0
X122.2Y-45.7
X122.2Y-46.7
X122.2Y-47.75
X122.2Y-48.8
X122.2Y-68.7
X122.2Y-69.7
X122.2Y-70.75
X122.2Y-71.8
X122.2Y-75.7
X122.2Y-76.7
X122.2Y-77.75
X122.2Y-78.8
X122.25Y-51.9
X122.25Y-52.9
X122.25Y-53.95
X122.25Y-55.0
X122.25Y-60.1
X122.25Y-61.1
X122.25Y-62.15
X122.25Y-63.2
X122.25Y-82.9
X122.25Y-83.9
X122.25Y-84.95
X122.25Y-86.0
X124.1Y-110.0
X125.6Y-110.0
X127.0Y-110.0
X128.4Y-110.0
X129.6Y-110.0
X129.75Y-104.2
X130.0Y-103.2
X130.65Y-102.4
X130.75Y-106.0
X131.0Y-110.0
X131.4Y-101.8
X132.15Y-101.2
X132.5Y-102.75
X132.5Y-105.0
X133.5Y-105.0
X134.0Y-117.25
X134.5Y-53.5
X134.5Y-54.5
X134.5Y-55.55
X134.5Y-56.6
X134.5Y-105.0
X134.5Y-105.8
X134.5Y-107.75
X134.75Y-109.25
X135.5Y-53.5
X135.5Y-54.5
X135.5Y-55.55
X135.5Y-56.6
X135.75Y-109.25
X136.75Y-109.25
X137.6Y-109.8
X137.6Y-110.75
X137.6Y-111.75
X137.6Y-113.05
X137.6Y-114.0
X137.6Y-115.25
X137.6Y-116.2
X138.25Y-111.25
X138.25Y-113.5
X138.25Y-115.75
X138.75Y-114.5
X139.0Y-107.2
X139.75Y-114.5
X140.0Y-100.5
X140.0Y-101.5
X140.0Y-102.5
X140.0Y-103.5
X140.2Y-107.2
X140.3Y-105.75
X141.0Y-100.5
X141.0Y-101.5
X141.0Y-102.5
X141.0Y-103.5
X141.5Y-105.75
X141.5Y-107.2
X141.75Y-102.25
X142.7Y-109.9
X143.2Y-95.2
X143.75Y-109.0
X144.0Y-115.75
X144.0Y-116.75
X144.3Y-100.4
X145.0Y-96.25
X145.0Y-97.3
X145.0Y-98.35
X145.2Y-56.0
X145.2Y-57.0
X145.2Y-58.05
X145.2Y-59.1
X145.2Y-77.25
X145.2Y-78.25
X145.2Y-79.3
X145.2Y-80.35
X145.2Y-85.25
X145.2Y-86.25
X145.2Y-87.3
X145.2Y-88.35
X145.2Y-89.8
X145.2Y-90.8
X145.2Y-92.0
X145.2Y-93.2
X146.0Y-96.25
X146.0Y-97.3
X146.0Y-98.35
X146.0Y-108.9
X146.0Y-115.75
X146.0Y-116.75
X146.2Y-56.0
X146.2Y-57.0
X146.2Y-58.05
X146.2Y-59.1
X146.2Y-77.25
X146.2Y-78.25
X146.2Y-79.3
X146.2Y-80.35
X146.2Y-85.25
X146.2Y-86.25
X146.2Y-87.3
X146.2Y-88.35
X146.2Y-89.8
X146.2Y-90.8
X146.2Y-92.0
X146.2Y-93.2
X147.0Y-109.5
T2
X100.778Y-51.98
X100.778Y-54.52
X100.778Y-57.06
X100.778Y-59.6
X100.778Y-62.14
X100.778Y-64.68
X100.778Y-67.22
X100.778Y-69.76
X100.778Y-72.3
X100.778Y-74.84
X100.778Y-77.38
X100.778Y-79.92
X100.778Y-82.46
X100.778Y-85.0
X100.778Y-87.54
X126.178Y-51.98
X126.178Y-54.52
X126.178Y-57.06
X126.178Y-59.6
X126.178Y-62.14
X126.178Y-64.68
X126.178Y-67.22
X126.178Y-69.76
X126.178Y-72.3
X126.178Y-74.84
X126.178Y-77.38
X126.178Y-79.92
X126.178Y-82.46
X126.178Y-85.0
X126.178Y-87.54
T3
X85.5Y-61.225
X85.5Y-63.765
X85.5Y-69.0
X85.5Y-71.54
X116.95Y-122.55
X119.49Y-122.55
X142.0Y-58.96
X142.0Y-61.5
X142.0Y-64.04
X142.0Y-66.58
X142.0Y-76.025
X142.0Y-78.565
X142.0Y-84.5
X142.0Y-87.04
T4
X94.5Y-51.96
X94.5Y-54.5
X94.5Y-57.04
X94.5Y-59.58
X94.5Y-62.12
X94.5Y-64.66
X94.5Y-67.2
X94.5Y-69.74
X94.5Y-72.28
X94.5Y-74.82
X94.5Y-77.36
X94.5Y-79.9
X94.5Y-82.44
X94.5Y-84.98
X94.5Y-87.52
X130.25Y-117.42
X130.25Y-122.5
X132.5Y-51.94
X132.5Y-54.48
X132.5Y-57.02
X132.5Y-59.56
X132.5Y-62.1
X132.5Y-64.64
X132.5Y-67.18
X132.5Y-69.72
X132.5Y-72.26
X132.5Y-74.8
X132.5Y-77.34
X132.5Y-79.88
X132.5Y-82.42
X132.5Y-84.96
X132.5Y-87.5
T5
X101.1Y-117.0
X126.2Y-117.0
T6
X83.75Y-94.25
X84.0Y-79.25
X84.0Y-86.5
X95.75Y-121.25
X117.0Y-107.4
X129.75Y-91.5
X135.25Y-91.5
X135.5Y-121.0
M30
