%TF.GenerationSoftware,KiCad,Pcbnew,9.0.3*%
%TF.CreationDate,2026-05-01T17:42:47+01:00*%
%TF.ProjectId,default_esp32_board,64656661-756c-4745-9f65-737033325f62,rev?*%
%TF.SameCoordinates,Original*%
%TF.FileFunction,Copper,L1,Top*%
%TF.FilePolarity,Positive*%
%FSLAX46Y46*%
G04 Gerber Fmt 4.6, Leading zero omitted, Abs format (unit mm)*
G04 Created by KiCad (PCBNEW 9.0.3) date 2026-05-01 17:42:47*
%MOMM*%
%LPD*%
G01*
G04 APERTURE LIST*
G04 Aperture macros list*
%AMRoundRect*
0 Rectangle with rounded corners*
0 $1 Rounding radius*
0 $2 $3 $4 $5 $6 $7 $8 $9 X,Y pos of 4 corners*
0 Add a 4 corners polygon primitive as box body*
4,1,4,$2,$3,$4,$5,$6,$7,$8,$9,$2,$3,0*
0 Add four circle primitives for the rounded corners*
1,1,$1+$1,$2,$3*
1,1,$1+$1,$4,$5*
1,1,$1+$1,$6,$7*
1,1,$1+$1,$8,$9*
0 Add four rect primitives between the rounded corners*
20,1,$1+$1,$2,$3,$4,$5,0*
20,1,$1+$1,$4,$5,$6,$7,0*
20,1,$1+$1,$6,$7,$8,$9,0*
20,1,$1+$1,$8,$9,$2,$3,0*%
G04 Aperture macros list end*
%TA.AperFunction,SMDPad,CuDef*%
%ADD10R,1.250000X0.600000*%
%TD*%
%TA.AperFunction,SMDPad,CuDef*%
%ADD11RoundRect,0.250000X-0.450000X0.350000X-0.450000X-0.350000X0.450000X-0.350000X0.450000X0.350000X0*%
%TD*%
%TA.AperFunction,SMDPad,CuDef*%
%ADD12RoundRect,0.250000X0.450000X-0.350000X0.450000X0.350000X-0.450000X0.350000X-0.450000X-0.350000X0*%
%TD*%
%TA.AperFunction,SMDPad,CuDef*%
%ADD13R,1.000000X1.500000*%
%TD*%
%TA.AperFunction,SMDPad,CuDef*%
%ADD14RoundRect,0.250000X-0.475000X0.337500X-0.475000X-0.337500X0.475000X-0.337500X0.475000X0.337500X0*%
%TD*%
%TA.AperFunction,ComponentPad*%
%ADD15R,2.175000X2.175000*%
%TD*%
%TA.AperFunction,ComponentPad*%
%ADD16C,2.175000*%
%TD*%
%TA.AperFunction,ComponentPad*%
%ADD17C,3.000000*%
%TD*%
%TA.AperFunction,SMDPad,CuDef*%
%ADD18RoundRect,0.250000X0.337500X0.475000X-0.337500X0.475000X-0.337500X-0.475000X0.337500X-0.475000X0*%
%TD*%
%TA.AperFunction,ComponentPad*%
%ADD19R,1.700000X1.700000*%
%TD*%
%TA.AperFunction,ComponentPad*%
%ADD20C,1.700000*%
%TD*%
%TA.AperFunction,SMDPad,CuDef*%
%ADD21R,1.250000X1.500000*%
%TD*%
%TA.AperFunction,SMDPad,CuDef*%
%ADD22R,2.000000X1.800000*%
%TD*%
%TA.AperFunction,SMDPad,CuDef*%
%ADD23RoundRect,0.250000X-0.337500X-0.475000X0.337500X-0.475000X0.337500X0.475000X-0.337500X0.475000X0*%
%TD*%
%TA.AperFunction,SMDPad,CuDef*%
%ADD24R,5.100000X1.900000*%
%TD*%
%TA.AperFunction,SMDPad,CuDef*%
%ADD25RoundRect,0.250000X-0.350000X-0.450000X0.350000X-0.450000X0.350000X0.450000X-0.350000X0.450000X0*%
%TD*%
%TA.AperFunction,ComponentPad*%
%ADD26R,1.800000X1.800000*%
%TD*%
%TA.AperFunction,ComponentPad*%
%ADD27C,1.800000*%
%TD*%
%TA.AperFunction,ComponentPad*%
%ADD28RoundRect,0.250001X0.949999X-0.949999X0.949999X0.949999X-0.949999X0.949999X-0.949999X-0.949999X0*%
%TD*%
%TA.AperFunction,ComponentPad*%
%ADD29C,2.400000*%
%TD*%
%TA.AperFunction,SMDPad,CuDef*%
%ADD30RoundRect,0.250000X0.475000X-0.337500X0.475000X0.337500X-0.475000X0.337500X-0.475000X-0.337500X0*%
%TD*%
%TA.AperFunction,SMDPad,CuDef*%
%ADD31RoundRect,0.250000X0.350000X0.450000X-0.350000X0.450000X-0.350000X-0.450000X0.350000X-0.450000X0*%
%TD*%
%TA.AperFunction,ComponentPad*%
%ADD32O,1.900000X1.524000*%
%TD*%
%TA.AperFunction,ViaPad*%
%ADD33C,0.600000*%
%TD*%
%TA.AperFunction,Conductor*%
%ADD34C,0.500000*%
%TD*%
%TA.AperFunction,Conductor*%
%ADD35C,0.250000*%
%TD*%
%TA.AperFunction,Conductor*%
%ADD36C,0.200000*%
%TD*%
G04 APERTURE END LIST*
D10*
%TO.P,IC2,1,GND*%
%TO.N,GND*%
X99250000Y-103800000D03*
%TO.P,IC2,2,SW*%
%TO.N,SW_3V3*%
X99250000Y-104750000D03*
%TO.P,IC2,3,VIN*%
%TO.N,Vin*%
X99250000Y-105700000D03*
%TO.P,IC2,4,FB*%
%TO.N,Net-(IC2-FB)*%
X101750000Y-105700000D03*
%TO.P,IC2,5,EN*%
%TO.N,EN_3V3*%
X101750000Y-104750000D03*
%TO.P,IC2,6,BOOT*%
%TO.N,Net-(IC2-BOOT)*%
X101750000Y-103800000D03*
%TD*%
D11*
%TO.P,R13,2*%
%TO.N,Vin*%
X112250000Y-99000000D03*
%TO.P,R13,1*%
%TO.N,Net-(JP2-A)*%
X112250000Y-97000000D03*
%TD*%
D12*
%TO.P,R14,2*%
%TO.N,Net-(JP2-A)*%
X114450000Y-97000000D03*
%TO.P,R14,1*%
%TO.N,GND*%
X114450000Y-99000000D03*
%TD*%
D13*
%TO.P,JP2,3,B*%
%TO.N,GND*%
X105700000Y-97000000D03*
%TO.P,JP2,2,C*%
%TO.N,EN_3V3*%
X107000000Y-97000000D03*
%TO.P,JP2,1,A*%
%TO.N,Net-(JP2-A)*%
X108300000Y-97000000D03*
%TD*%
D14*
%TO.P,C4,1*%
%TO.N,Net-(C4-Pad1)*%
X133600000Y-101462500D03*
%TO.P,C4,2*%
%TO.N,SW*%
X133600000Y-103537500D03*
%TD*%
D15*
%TO.P,D2,1,K*%
%TO.N,Vin*%
X126200000Y-117000000D03*
D16*
%TO.P,D2,2,A*%
%TO.N,Net-(D2-A)*%
X101100000Y-117000000D03*
%TD*%
D17*
%TO.P,TP7,1,1*%
%TO.N,EN_3V3*%
X84000000Y-86500000D03*
%TD*%
D12*
%TO.P,R11,1*%
%TO.N,Net-(IC2-FB)*%
X107000000Y-105800000D03*
%TO.P,R11,2*%
%TO.N,Net-(R10-Pad1)*%
X107000000Y-103800000D03*
%TD*%
D18*
%TO.P,C9,1*%
%TO.N,Vin*%
X99570269Y-113016416D03*
%TO.P,C9,2*%
%TO.N,GND*%
X97495269Y-113016416D03*
%TD*%
D17*
%TO.P,TP1,1,1*%
%TO.N,GND*%
X95750000Y-121250000D03*
%TD*%
D18*
%TO.P,C7,1*%
%TO.N,5V*%
X124037500Y-99500000D03*
%TO.P,C7,2*%
%TO.N,GND*%
X121962500Y-99500000D03*
%TD*%
D19*
%TO.P,J8,1,Pin_1*%
%TO.N,3V3*%
X85500000Y-61225000D03*
D20*
%TO.P,J8,2,Pin_2*%
%TO.N,GND*%
X85500000Y-63765000D03*
%TD*%
D19*
%TO.P,J9,1,Pin_1*%
%TO.N,3V3*%
X85500000Y-69000000D03*
D20*
%TO.P,J9,2,Pin_2*%
%TO.N,GND*%
X85500000Y-71540000D03*
%TD*%
D12*
%TO.P,R12,1*%
%TO.N,GND*%
X104600000Y-107800000D03*
%TO.P,R12,2*%
%TO.N,Net-(IC2-FB)*%
X104600000Y-105800000D03*
%TD*%
D21*
%TO.P,F1,1,1*%
%TO.N,Net-(J3-Pin_1)*%
X112275000Y-122550000D03*
%TO.P,F1,2,2*%
%TO.N,Net-(D2-A)*%
X108825000Y-122550000D03*
%TD*%
D22*
%TO.P,L1,1,1*%
%TO.N,SW*%
X129250000Y-107250000D03*
%TO.P,L1,2,2*%
%TO.N,5V*%
X124750000Y-107250000D03*
%TD*%
D18*
%TO.P,C11,1*%
%TO.N,Vin*%
X99570269Y-108516416D03*
%TO.P,C11,2*%
%TO.N,GND*%
X97495269Y-108516416D03*
%TD*%
D12*
%TO.P,R1,1*%
%TO.N,Net-(IC1-BOOT)*%
X135750000Y-103500000D03*
%TO.P,R1,2*%
%TO.N,Net-(C4-Pad1)*%
X135750000Y-101500000D03*
%TD*%
D23*
%TO.P,C15,1*%
%TO.N,3V3*%
X95212500Y-94000000D03*
%TO.P,C15,2*%
%TO.N,GND*%
X97287500Y-94000000D03*
%TD*%
D24*
%TO.P,L2,1,1*%
%TO.N,SW_3V3*%
X93500000Y-104350000D03*
%TO.P,L2,2,2*%
%TO.N,3V3*%
X93500000Y-100150000D03*
%TD*%
D13*
%TO.P,JP1,1,A*%
%TO.N,Net-(JP1-A)*%
X145550000Y-102250000D03*
%TO.P,JP1,2,C*%
%TO.N,EN*%
X144250000Y-102250000D03*
%TO.P,JP1,3,B*%
%TO.N,GND*%
X142950000Y-102250000D03*
%TD*%
D23*
%TO.P,C14,1*%
%TO.N,3V3*%
X95212500Y-91750000D03*
%TO.P,C14,2*%
%TO.N,GND*%
X97287500Y-91750000D03*
%TD*%
D25*
%TO.P,R3,1*%
%TO.N,Net-(IC1-FB)*%
X139500000Y-110600000D03*
%TO.P,R3,2*%
%TO.N,Net-(R2-Pad1)*%
X141500000Y-110600000D03*
%TD*%
D17*
%TO.P,TP6,1,1*%
%TO.N,Net-(R10-Pad1)*%
X83750000Y-94250000D03*
%TD*%
D19*
%TO.P,J5,1,Pin_1*%
%TO.N,5V*%
X142000000Y-66580000D03*
D20*
%TO.P,J5,2,Pin_2*%
%TO.N,TX2*%
X142000000Y-64040000D03*
%TO.P,J5,3,Pin_3*%
%TO.N,RX2*%
X142000000Y-61500000D03*
%TO.P,J5,4,Pin_4*%
%TO.N,GND*%
X142000000Y-58960000D03*
%TD*%
D17*
%TO.P,TP3,1,1*%
%TO.N,5V*%
X117000000Y-107400000D03*
%TD*%
D12*
%TO.P,R7,1*%
%TO.N,GND*%
X146000000Y-107802879D03*
%TO.P,R7,2*%
%TO.N,Net-(JP1-A)*%
X146000000Y-105802879D03*
%TD*%
D18*
%TO.P,C6,1*%
%TO.N,5V*%
X124037500Y-97000000D03*
%TO.P,C6,2*%
%TO.N,GND*%
X121962500Y-97000000D03*
%TD*%
D26*
%TO.P,J6,1,Pin_1*%
%TO.N,3V3_esp*%
X132500000Y-51980187D03*
D27*
%TO.P,J6,2,Pin_2*%
%TO.N,GND*%
X132500000Y-54520187D03*
%TO.P,J6,3,Pin_3*%
%TO.N,D15*%
X132500000Y-57060187D03*
%TO.P,J6,4,Pin_4*%
%TO.N,D2*%
X132500000Y-59600187D03*
%TO.P,J6,5,Pin_5*%
%TO.N,D4*%
X132500000Y-62140187D03*
%TO.P,J6,6,Pin_6*%
%TO.N,RX2*%
X132500000Y-64680187D03*
%TO.P,J6,7,Pin_7*%
%TO.N,TX2*%
X132500000Y-67220187D03*
%TO.P,J6,8,Pin_8*%
%TO.N,D5*%
X132500000Y-69760187D03*
%TO.P,J6,9,Pin_9*%
%TO.N,D18*%
X132500000Y-72300187D03*
%TO.P,J6,10,Pin_10*%
%TO.N,D19*%
X132500000Y-74840187D03*
%TO.P,J6,11,Pin_11*%
%TO.N,D21*%
X132500000Y-77380187D03*
%TO.P,J6,12,Pin_12*%
%TO.N,RX0*%
X132500000Y-79920187D03*
%TO.P,J6,13,Pin_13*%
%TO.N,TX0*%
X132500000Y-82460187D03*
%TO.P,J6,14,Pin_14*%
%TO.N,D22*%
X132500000Y-85000187D03*
%TO.P,J6,15,Pin_15*%
%TO.N,D23*%
X132500000Y-87540187D03*
%TD*%
D19*
%TO.P,J7,1,Pin_1*%
%TO.N,5V*%
X142000000Y-76025000D03*
D20*
%TO.P,J7,2,Pin_2*%
%TO.N,GND*%
X142000000Y-78565000D03*
%TD*%
D23*
%TO.P,C3,1*%
%TO.N,Vin*%
X134212500Y-110750000D03*
%TO.P,C3,2*%
%TO.N,GND*%
X136287500Y-110750000D03*
%TD*%
D12*
%TO.P,R2,1*%
%TO.N,Net-(R2-Pad1)*%
X146250000Y-112750000D03*
%TO.P,R2,2*%
%TO.N,5V*%
X146250000Y-110750000D03*
%TD*%
D28*
%TO.P,D1,1,Pin_1*%
%TO.N,GND*%
X130250000Y-122500000D03*
D29*
%TO.P,D1,2,Pin_2*%
%TO.N,Vin*%
X130250000Y-117420000D03*
%TD*%
D25*
%TO.P,R9,1*%
%TO.N,Net-(R10-Pad1)*%
X107200000Y-101600000D03*
%TO.P,R9,2*%
%TO.N,Net-(C13-Pad2)*%
X109200000Y-101600000D03*
%TD*%
D23*
%TO.P,C5,1*%
%TO.N,Net-(IC1-FB)*%
X139462500Y-112800000D03*
%TO.P,C5,2*%
%TO.N,Net-(C5-Pad2)*%
X141537500Y-112800000D03*
%TD*%
D18*
%TO.P,C8,1*%
%TO.N,5V*%
X124037500Y-102000000D03*
%TO.P,C8,2*%
%TO.N,GND*%
X121962500Y-102000000D03*
%TD*%
D23*
%TO.P,C2,1*%
%TO.N,Vin*%
X134212500Y-113250000D03*
%TO.P,C2,2*%
%TO.N,GND*%
X136287500Y-113250000D03*
%TD*%
D30*
%TO.P,C13,1*%
%TO.N,Net-(IC2-FB)*%
X109400000Y-105837500D03*
%TO.P,C13,2*%
%TO.N,Net-(C13-Pad2)*%
X109400000Y-103762500D03*
%TD*%
D11*
%TO.P,R5,1*%
%TO.N,Net-(R2-Pad1)*%
X144000000Y-110750000D03*
%TO.P,R5,2*%
%TO.N,Net-(C5-Pad2)*%
X144000000Y-112750000D03*
%TD*%
D17*
%TO.P,TP2,1,1*%
%TO.N,Vin*%
X135500000Y-121000000D03*
%TD*%
D11*
%TO.P,R6,1*%
%TO.N,Net-(JP1-A)*%
X143750000Y-105802879D03*
%TO.P,R6,2*%
%TO.N,Vin*%
X143750000Y-107802879D03*
%TD*%
D31*
%TO.P,R4,1*%
%TO.N,GND*%
X141500000Y-108500000D03*
%TO.P,R4,2*%
%TO.N,Net-(IC1-FB)*%
X139500000Y-108500000D03*
%TD*%
D23*
%TO.P,C1,1*%
%TO.N,Vin*%
X134212500Y-115750000D03*
%TO.P,C1,2*%
%TO.N,GND*%
X136287500Y-115750000D03*
%TD*%
D17*
%TO.P,TP8,1,1*%
%TO.N,3V3*%
X84000000Y-79250000D03*
%TD*%
D26*
%TO.P,J4,1,Pin_1*%
%TO.N,5V*%
X94500000Y-87520187D03*
D27*
%TO.P,J4,2,Pin_2*%
%TO.N,GND*%
X94500000Y-84980187D03*
%TO.P,J4,3,Pin_3*%
%TO.N,D13*%
X94500000Y-82440187D03*
%TO.P,J4,4,Pin_4*%
%TO.N,D12*%
X94500000Y-79900187D03*
%TO.P,J4,5,Pin_5*%
%TO.N,D14*%
X94500000Y-77360187D03*
%TO.P,J4,6,Pin_6*%
%TO.N,D27*%
X94500000Y-74820187D03*
%TO.P,J4,7,Pin_7*%
%TO.N,D26*%
X94500000Y-72280187D03*
%TO.P,J4,8,Pin_8*%
%TO.N,D25*%
X94500000Y-69740187D03*
%TO.P,J4,9,Pin_9*%
%TO.N,D33*%
X94500000Y-67200187D03*
%TO.P,J4,10,Pin_10*%
%TO.N,D32*%
X94500000Y-64660187D03*
%TO.P,J4,11,Pin_11*%
%TO.N,D35*%
X94500000Y-62120187D03*
%TO.P,J4,12,Pin_12*%
%TO.N,D34*%
X94500000Y-59580187D03*
%TO.P,J4,13,Pin_13*%
%TO.N,VN*%
X94500000Y-57040187D03*
%TO.P,J4,14,Pin_14*%
%TO.N,VP*%
X94500000Y-54500187D03*
%TO.P,J4,15,Pin_15*%
%TO.N,EN_esp*%
X94500000Y-51960187D03*
%TD*%
D25*
%TO.P,R10,1*%
%TO.N,Net-(R10-Pad1)*%
X107200000Y-99400000D03*
%TO.P,R10,2*%
%TO.N,3V3*%
X109200000Y-99400000D03*
%TD*%
D19*
%TO.P,J10,1,Pin_1*%
%TO.N,5V*%
X142000000Y-84500000D03*
D20*
%TO.P,J10,2,Pin_2*%
%TO.N,GND*%
X142000000Y-87040000D03*
%TD*%
D32*
%TO.P,U1,1,VIN*%
%TO.N,5V*%
X100777540Y-87540187D03*
%TO.P,U1,2,GND*%
%TO.N,GND*%
X100777540Y-85000187D03*
%TO.P,U1,3,GPIO13*%
%TO.N,D13*%
X100777540Y-82460187D03*
%TO.P,U1,4,GPIO12*%
%TO.N,D12*%
X100777540Y-79920187D03*
%TO.P,U1,5,GPIO14*%
%TO.N,D14*%
X100777540Y-77380187D03*
%TO.P,U1,6,GPIO27*%
%TO.N,D27*%
X100777540Y-74840187D03*
%TO.P,U1,7,GPIO26*%
%TO.N,D26*%
X100777540Y-72300187D03*
%TO.P,U1,8,GPIO25*%
%TO.N,D25*%
X100777540Y-69760187D03*
%TO.P,U1,9,GPIO33*%
%TO.N,D33*%
X100777540Y-67220187D03*
%TO.P,U1,10,GPIO32*%
%TO.N,D32*%
X100777540Y-64680187D03*
%TO.P,U1,11,GPIO35*%
%TO.N,D35*%
X100777540Y-62140187D03*
%TO.P,U1,12,GPIO34*%
%TO.N,D34*%
X100777540Y-59600187D03*
%TO.P,U1,13,GPIO39*%
%TO.N,VN*%
X100777540Y-57060187D03*
%TO.P,U1,14,GPIO36*%
%TO.N,VP*%
X100777540Y-54520187D03*
%TO.P,U1,15,EN*%
%TO.N,EN_esp*%
X100777540Y-51980187D03*
%TO.P,U1,16,3.3v*%
%TO.N,3V3_esp*%
X126177540Y-51980187D03*
%TO.P,U1,17,GND*%
%TO.N,GND*%
X126177540Y-54520187D03*
%TO.P,U1,18,GPIO15*%
%TO.N,D15*%
X126177540Y-57060187D03*
%TO.P,U1,19,GPIO2*%
%TO.N,D2*%
X126177540Y-59600187D03*
%TO.P,U1,20,GPIO4*%
%TO.N,D4*%
X126177540Y-62140187D03*
%TO.P,U1,21,GPIO16*%
%TO.N,RX2*%
X126177540Y-64680187D03*
%TO.P,U1,22,GPIO17*%
%TO.N,TX2*%
X126177540Y-67220187D03*
%TO.P,U1,23,GPIO5*%
%TO.N,D5*%
X126177540Y-69760187D03*
%TO.P,U1,24,GPIO18*%
%TO.N,D18*%
X126177540Y-72300187D03*
%TO.P,U1,25,GPIO19*%
%TO.N,D19*%
X126177540Y-74840187D03*
%TO.P,U1,26,GPIO21*%
%TO.N,D21*%
X126177540Y-77380187D03*
%TO.P,U1,27,GPIO3*%
%TO.N,RX0*%
X126177540Y-79920187D03*
%TO.P,U1,28,GPIO1*%
%TO.N,TX0*%
X126177540Y-82460187D03*
%TO.P,U1,29,GPIO22*%
%TO.N,D22*%
X126177540Y-85000187D03*
%TO.P,U1,30,GPIO23*%
%TO.N,D23*%
X126177540Y-87540187D03*
%TD*%
D23*
%TO.P,C16,1*%
%TO.N,3V3*%
X95212500Y-96250000D03*
%TO.P,C16,2*%
%TO.N,GND*%
X97287500Y-96250000D03*
%TD*%
D10*
%TO.P,IC1,1,GND*%
%TO.N,GND*%
X133250000Y-106050000D03*
%TO.P,IC1,2,SW*%
%TO.N,SW*%
X133250000Y-107000000D03*
%TO.P,IC1,3,VIN*%
%TO.N,Vin*%
X133250000Y-107950000D03*
%TO.P,IC1,4,FB*%
%TO.N,Net-(IC1-FB)*%
X135750000Y-107950000D03*
%TO.P,IC1,5,EN*%
%TO.N,EN*%
X135750000Y-107000000D03*
%TO.P,IC1,6,BOOT*%
%TO.N,Net-(IC1-BOOT)*%
X135750000Y-106050000D03*
%TD*%
D17*
%TO.P,TP4,1,1*%
%TO.N,Net-(R2-Pad1)*%
X135250000Y-91500000D03*
%TD*%
%TO.P,TP5,1,1*%
%TO.N,EN*%
X129750000Y-91500000D03*
%TD*%
D19*
%TO.P,J3,1,Pin_1*%
%TO.N,Net-(J3-Pin_1)*%
X116950000Y-122550000D03*
D20*
%TO.P,J3,2,Pin_2*%
%TO.N,GND*%
X119490000Y-122550000D03*
%TD*%
D14*
%TO.P,C12,1*%
%TO.N,Net-(C12-Pad1)*%
X99400000Y-99162500D03*
%TO.P,C12,2*%
%TO.N,SW_3V3*%
X99400000Y-101237500D03*
%TD*%
D12*
%TO.P,R8,1*%
%TO.N,Net-(IC2-BOOT)*%
X101800000Y-101200000D03*
%TO.P,R8,2*%
%TO.N,Net-(C12-Pad1)*%
X101800000Y-99200000D03*
%TD*%
D18*
%TO.P,C10,1*%
%TO.N,Vin*%
X99570269Y-110766416D03*
%TO.P,C10,2*%
%TO.N,GND*%
X97495269Y-110766416D03*
%TD*%
D33*
%TO.N,GND*%
X111200000Y-109400000D03*
X110200000Y-108600000D03*
X111200000Y-108600000D03*
X109250000Y-108600000D03*
X109250000Y-109450000D03*
X110200000Y-109450000D03*
X106250000Y-109450000D03*
X107200000Y-109450000D03*
X108200000Y-108600000D03*
X108200000Y-109400000D03*
X106250000Y-108600000D03*
X107200000Y-108600000D03*
X105200000Y-109400000D03*
X104200000Y-109400000D03*
X98000000Y-102800000D03*
%TO.N,SW_3V3*%
X96600000Y-104000000D03*
%TO.N,GND*%
X98800000Y-102600000D03*
X99800000Y-102600000D03*
X96000000Y-113000000D03*
X96000000Y-110750000D03*
X96000000Y-108500000D03*
%TO.N,3V3*%
X110600000Y-99400000D03*
%TO.N,EN_3V3*%
X107000000Y-95929907D03*
%TO.N,Net-(R10-Pad1)*%
X106141942Y-99541942D03*
%TO.N,GND*%
X97300000Y-97800000D03*
%TO.N,Vin*%
X134000000Y-117250000D03*
X143750000Y-109000000D03*
%TO.N,GND*%
X146200000Y-79300000D03*
X86000000Y-114000000D03*
X82250000Y-103550000D03*
X118100000Y-45700000D03*
X116750000Y-99000000D03*
X135750000Y-109250000D03*
X105200000Y-53950000D03*
X85150000Y-108550000D03*
X114150000Y-83900000D03*
X118100000Y-52900000D03*
X121250000Y-62150000D03*
X141500000Y-107200000D03*
X118100000Y-55000000D03*
X81400000Y-105450000D03*
X92500000Y-112250000D03*
X122250000Y-86000000D03*
X112700000Y-104700000D03*
X105250000Y-82900000D03*
X105200000Y-62150000D03*
X88500000Y-115250000D03*
X145200000Y-57000000D03*
X137600000Y-111750000D03*
X83400000Y-109850000D03*
X118100000Y-76700000D03*
X122250000Y-53950000D03*
X121200000Y-47750000D03*
X118100000Y-51900000D03*
X97000000Y-84350000D03*
X113100000Y-55000000D03*
X117100000Y-47750000D03*
X84250000Y-115000000D03*
X114100000Y-46700000D03*
X121200000Y-71800000D03*
X117100000Y-55000000D03*
X83400000Y-113050000D03*
X110600000Y-77750000D03*
X134500000Y-55550000D03*
X83400000Y-104500000D03*
X136750000Y-109250000D03*
X86000000Y-106450000D03*
X114100000Y-55000000D03*
X121250000Y-63200000D03*
X138250000Y-113500000D03*
X114200000Y-68700000D03*
X113100000Y-75700000D03*
X129600000Y-110000000D03*
X90000000Y-107750000D03*
X83400000Y-106450000D03*
X117100000Y-48800000D03*
X83400000Y-107550000D03*
X130000000Y-103200000D03*
X109500000Y-52900000D03*
X113100000Y-52900000D03*
X98000000Y-85400000D03*
X121250000Y-60100000D03*
X145200000Y-56000000D03*
X106200000Y-45750000D03*
X140000000Y-101500000D03*
X146200000Y-93200000D03*
X113150000Y-82900000D03*
X113100000Y-53950000D03*
X118100000Y-63200000D03*
X145200000Y-85250000D03*
X145200000Y-79300000D03*
X109650000Y-86000000D03*
X131000000Y-110000000D03*
X116700000Y-102000000D03*
X117100000Y-68650000D03*
X138750000Y-114500000D03*
X86000000Y-105450000D03*
X90850000Y-115250000D03*
X117750000Y-96700000D03*
X117100000Y-76700000D03*
X105200000Y-61100000D03*
X97000000Y-86200000D03*
X90000000Y-115250000D03*
X113150000Y-84950000D03*
X117100000Y-69650000D03*
X121250000Y-51900000D03*
X140000000Y-100500000D03*
X137600000Y-116200000D03*
X114150000Y-82900000D03*
X114100000Y-52900000D03*
X116750000Y-103050000D03*
X84250000Y-99000000D03*
X87650000Y-107750000D03*
X109500000Y-60100000D03*
X118100000Y-62150000D03*
X113150000Y-83900000D03*
X93350000Y-113200000D03*
X118600000Y-99000000D03*
X93350000Y-107750000D03*
X118100000Y-48800000D03*
X145200000Y-58050000D03*
X116750000Y-96750000D03*
X81400000Y-102250000D03*
X85150000Y-105450000D03*
X86000000Y-99000000D03*
X85150000Y-109850000D03*
X109600000Y-77750000D03*
X106200000Y-70750000D03*
X117150000Y-82900000D03*
X84250000Y-102250000D03*
X137600000Y-114000000D03*
X93350000Y-110050000D03*
X84250000Y-110800000D03*
X117150000Y-86000000D03*
X86000000Y-104500000D03*
X105250000Y-86000000D03*
X117100000Y-45700000D03*
X117750000Y-99950000D03*
X84250000Y-112100000D03*
X110600000Y-68700000D03*
X84250000Y-113050000D03*
X81400000Y-115000000D03*
X84250000Y-101300000D03*
X90850000Y-107750000D03*
X113100000Y-78800000D03*
X82250000Y-101300000D03*
X122250000Y-55000000D03*
X122250000Y-82900000D03*
X106250000Y-83900000D03*
X125600000Y-110000000D03*
X84250000Y-114000000D03*
X122200000Y-78800000D03*
X87650000Y-113250000D03*
X141000000Y-103500000D03*
X81400000Y-106450000D03*
X113200000Y-70750000D03*
X110650000Y-86000000D03*
X122200000Y-68700000D03*
X88500000Y-108750000D03*
X106200000Y-71800000D03*
X113200000Y-69700000D03*
X87650000Y-110050000D03*
X86000000Y-109850000D03*
X118100000Y-69650000D03*
X114100000Y-53950000D03*
X83400000Y-114000000D03*
X101600000Y-97300000D03*
X122250000Y-62150000D03*
X86000000Y-107550000D03*
X86000000Y-103550000D03*
X146200000Y-88350000D03*
X106200000Y-78800000D03*
X112700000Y-103750000D03*
X84250000Y-109850000D03*
X114200000Y-61100000D03*
X85150000Y-102250000D03*
X113150000Y-86000000D03*
X85150000Y-104500000D03*
X146200000Y-92000000D03*
X113100000Y-76700000D03*
X82250000Y-112100000D03*
X138250000Y-115750000D03*
X121200000Y-68700000D03*
X86000000Y-115000000D03*
X114200000Y-71800000D03*
X97000000Y-88750000D03*
X121200000Y-48800000D03*
X83400000Y-108550000D03*
X128400000Y-110000000D03*
X114100000Y-45700000D03*
X110500000Y-51900000D03*
X118150000Y-82900000D03*
X83400000Y-103550000D03*
X105200000Y-75700000D03*
X84250000Y-106450000D03*
X110500000Y-62150000D03*
X82250000Y-109850000D03*
X82250000Y-107550000D03*
X88500000Y-114250000D03*
X106200000Y-60100000D03*
X109650000Y-84950000D03*
X82250000Y-106450000D03*
X105200000Y-71800000D03*
X114100000Y-78800000D03*
X139750000Y-114500000D03*
X99600000Y-96400000D03*
X113100000Y-45700000D03*
X134500000Y-105800000D03*
X103000000Y-102750000D03*
X117750000Y-102000000D03*
X82250000Y-113050000D03*
X139000000Y-107200000D03*
X118100000Y-78800000D03*
X146000000Y-96250000D03*
X118600000Y-104000000D03*
X105200000Y-47800000D03*
X81400000Y-114000000D03*
X137600000Y-115250000D03*
X118600000Y-97700000D03*
X145000000Y-96250000D03*
X110500000Y-48800000D03*
X110600000Y-76700000D03*
X114200000Y-60100000D03*
X121200000Y-69700000D03*
X116750000Y-100000000D03*
X93350000Y-115250000D03*
X98500000Y-95400000D03*
X140000000Y-102500000D03*
X118600000Y-96700000D03*
X134500000Y-53500000D03*
X85150000Y-112100000D03*
X109600000Y-71800000D03*
X146000000Y-108900000D03*
X111900000Y-105750000D03*
X117150000Y-84950000D03*
X129750000Y-104200000D03*
X106250000Y-84950000D03*
X110600000Y-75700000D03*
X138250000Y-111250000D03*
X86000000Y-100000000D03*
X110500000Y-60100000D03*
X114100000Y-75700000D03*
X114150000Y-84950000D03*
X131400000Y-101800000D03*
X90000000Y-114250000D03*
X106200000Y-51900000D03*
X124100000Y-110000000D03*
X97000000Y-85400000D03*
X118600000Y-99950000D03*
X101600000Y-96400000D03*
X118600000Y-101050000D03*
X110650000Y-84950000D03*
X118100000Y-75700000D03*
X90850000Y-113200000D03*
X106250000Y-86000000D03*
X116750000Y-104000000D03*
X114100000Y-76700000D03*
X81400000Y-113050000D03*
X87650000Y-111000000D03*
X141500000Y-105750000D03*
X135500000Y-53500000D03*
X145200000Y-92000000D03*
X83400000Y-99000000D03*
X81400000Y-100000000D03*
X98000000Y-83600000D03*
X140300000Y-105750000D03*
X121200000Y-77750000D03*
X97000000Y-83600000D03*
X117750000Y-103000000D03*
X121250000Y-86000000D03*
X145200000Y-90800000D03*
X83400000Y-101300000D03*
X132150000Y-101200000D03*
X144000000Y-115750000D03*
X146000000Y-116750000D03*
X92500000Y-111000000D03*
X93350000Y-108750000D03*
X146200000Y-80350000D03*
X84250000Y-104500000D03*
X81400000Y-110800000D03*
X146200000Y-89800000D03*
X82250000Y-102250000D03*
X118100000Y-70700000D03*
X109500000Y-63200000D03*
X100500000Y-104750000D03*
X113200000Y-68700000D03*
X146200000Y-87300000D03*
X141750000Y-102250000D03*
X110500000Y-45700000D03*
X86000000Y-110800000D03*
X113100000Y-46700000D03*
X117100000Y-70700000D03*
X118100000Y-68650000D03*
X85150000Y-106450000D03*
X115900000Y-103050000D03*
X105200000Y-55000000D03*
X87650000Y-114250000D03*
X105200000Y-68700000D03*
X145000000Y-97300000D03*
X121250000Y-55000000D03*
X106200000Y-61100000D03*
X134500000Y-105000000D03*
X86000000Y-108550000D03*
X106200000Y-53950000D03*
X85150000Y-103550000D03*
X121250000Y-82900000D03*
X117100000Y-75700000D03*
X90000000Y-112250000D03*
X81400000Y-99000000D03*
X106200000Y-55000000D03*
X145200000Y-77250000D03*
X110500000Y-47750000D03*
X122250000Y-61100000D03*
X106200000Y-63200000D03*
X109650000Y-82900000D03*
X93350000Y-114250000D03*
X133500000Y-105000000D03*
X82250000Y-99000000D03*
X122200000Y-45700000D03*
X113200000Y-62150000D03*
X81400000Y-112100000D03*
X82250000Y-108550000D03*
X109600000Y-70750000D03*
X106200000Y-46750000D03*
X109600000Y-78800000D03*
X87650000Y-115250000D03*
X121200000Y-45700000D03*
X101000000Y-106800000D03*
X105200000Y-48850000D03*
X90000000Y-110050000D03*
X93350000Y-112250000D03*
X109500000Y-62150000D03*
X117750000Y-97700000D03*
X90000000Y-113200000D03*
X114100000Y-47750000D03*
X105200000Y-63200000D03*
X118100000Y-47750000D03*
X121200000Y-75700000D03*
X98000000Y-86200000D03*
X83400000Y-100000000D03*
X146000000Y-98350000D03*
X92500000Y-108750000D03*
X117100000Y-62150000D03*
X112750000Y-105750000D03*
X116700000Y-101050000D03*
X140000000Y-103500000D03*
X122200000Y-46700000D03*
X114100000Y-48800000D03*
X88500000Y-113250000D03*
X106200000Y-52900000D03*
X121200000Y-78800000D03*
X106200000Y-76700000D03*
X109500000Y-45700000D03*
X105200000Y-70750000D03*
X145200000Y-78250000D03*
X85150000Y-107550000D03*
X122200000Y-77750000D03*
X84250000Y-108550000D03*
X106200000Y-62150000D03*
X92500000Y-114250000D03*
X109500000Y-48800000D03*
X145200000Y-59100000D03*
X146200000Y-59100000D03*
X81400000Y-107550000D03*
X84250000Y-107550000D03*
X81400000Y-109850000D03*
X115750000Y-101000000D03*
X109600000Y-76700000D03*
X110500000Y-61100000D03*
X83400000Y-110800000D03*
X121200000Y-76700000D03*
X113200000Y-63200000D03*
X109500000Y-61100000D03*
X110650000Y-83900000D03*
X92500000Y-113200000D03*
X118100000Y-71750000D03*
X117100000Y-78800000D03*
X117750000Y-101050000D03*
X98000000Y-84350000D03*
X118100000Y-53950000D03*
X146200000Y-57000000D03*
X145000000Y-98350000D03*
X105200000Y-51900000D03*
X84250000Y-100000000D03*
X85150000Y-113050000D03*
X137600000Y-109800000D03*
X118100000Y-46700000D03*
X122250000Y-83900000D03*
X116750000Y-97750000D03*
X141000000Y-100500000D03*
X105200000Y-60100000D03*
X98000000Y-88750000D03*
X82250000Y-104500000D03*
X84250000Y-105450000D03*
X135500000Y-56600000D03*
X113200000Y-71800000D03*
X87650000Y-108750000D03*
X145200000Y-93200000D03*
X121250000Y-61100000D03*
X85150000Y-114000000D03*
X106200000Y-48850000D03*
X145200000Y-89800000D03*
X114100000Y-77750000D03*
X109600000Y-68700000D03*
X110650000Y-82900000D03*
X114200000Y-69700000D03*
X100500000Y-103250000D03*
X141000000Y-102500000D03*
X145200000Y-87300000D03*
X118100000Y-60100000D03*
X88500000Y-107750000D03*
X145200000Y-88350000D03*
X111850000Y-104700000D03*
X86000000Y-112100000D03*
X113100000Y-48800000D03*
X105200000Y-52900000D03*
X117100000Y-46700000D03*
X118150000Y-83900000D03*
X110600000Y-78800000D03*
X110500000Y-52900000D03*
X135500000Y-55550000D03*
X85150000Y-110800000D03*
X122250000Y-63200000D03*
X122200000Y-75700000D03*
X117100000Y-63200000D03*
X127000000Y-110000000D03*
X109500000Y-47750000D03*
X90000000Y-108750000D03*
X86000000Y-102250000D03*
X92500000Y-110050000D03*
X110500000Y-53950000D03*
X117100000Y-53950000D03*
X82250000Y-105450000D03*
X90850000Y-108750000D03*
X109500000Y-51900000D03*
X134500000Y-107750000D03*
X106200000Y-77750000D03*
X140200000Y-107200000D03*
X90850000Y-112250000D03*
X105250000Y-83900000D03*
X85150000Y-100000000D03*
X106200000Y-47800000D03*
X117150000Y-83900000D03*
X118150000Y-84950000D03*
X85150000Y-99000000D03*
X100700000Y-96400000D03*
X122200000Y-69700000D03*
X117100000Y-61100000D03*
X117100000Y-60100000D03*
X106200000Y-75700000D03*
X81400000Y-101300000D03*
X121200000Y-70750000D03*
X105200000Y-78800000D03*
X82250000Y-114000000D03*
X118100000Y-61100000D03*
X98500000Y-94000000D03*
X106200000Y-68700000D03*
X115900000Y-104000000D03*
X102000000Y-106750000D03*
X134500000Y-56600000D03*
X137600000Y-113050000D03*
X113100000Y-51900000D03*
X105200000Y-45750000D03*
X106250000Y-82900000D03*
X93350000Y-111000000D03*
X82250000Y-100000000D03*
X86000000Y-101300000D03*
X113100000Y-77750000D03*
X135500000Y-54500000D03*
X146200000Y-78250000D03*
X146200000Y-77250000D03*
X92500000Y-107750000D03*
X122250000Y-60100000D03*
X122200000Y-71800000D03*
X145200000Y-80350000D03*
X105250000Y-84950000D03*
X122250000Y-52900000D03*
X146000000Y-115750000D03*
X146200000Y-85250000D03*
X83400000Y-112100000D03*
X121250000Y-83900000D03*
X130650000Y-102400000D03*
X121250000Y-53950000D03*
X83400000Y-105450000D03*
X92500000Y-115250000D03*
X122250000Y-84950000D03*
X141000000Y-101500000D03*
X100700000Y-97300000D03*
X117750000Y-104000000D03*
X87650000Y-112300000D03*
X114200000Y-63200000D03*
X117100000Y-71750000D03*
X109500000Y-55000000D03*
X122200000Y-47750000D03*
X88500000Y-110050000D03*
X110500000Y-46700000D03*
X110600000Y-69700000D03*
X90850000Y-110050000D03*
X145200000Y-86250000D03*
X146200000Y-58050000D03*
X113200000Y-61100000D03*
X137600000Y-110750000D03*
X109600000Y-69700000D03*
X113200000Y-60100000D03*
X122200000Y-70750000D03*
X81400000Y-108550000D03*
X98500000Y-96400000D03*
X103000000Y-106750000D03*
X105200000Y-46750000D03*
X114200000Y-70750000D03*
X105200000Y-76700000D03*
X110600000Y-70750000D03*
X146200000Y-90800000D03*
X110500000Y-55000000D03*
X85150000Y-115000000D03*
X146200000Y-56000000D03*
X122200000Y-48800000D03*
X121200000Y-46700000D03*
X121250000Y-84950000D03*
X134750000Y-109250000D03*
X83400000Y-102250000D03*
X118100000Y-77750000D03*
X144000000Y-116750000D03*
X117100000Y-52900000D03*
X114100000Y-51900000D03*
X122250000Y-51900000D03*
X84250000Y-103550000D03*
X118600000Y-102000000D03*
X109500000Y-46700000D03*
X88500000Y-112300000D03*
X86000000Y-113050000D03*
X106200000Y-69700000D03*
X117100000Y-77750000D03*
X117750000Y-99000000D03*
X105200000Y-77750000D03*
X88500000Y-111000000D03*
X146200000Y-86250000D03*
X110600000Y-71800000D03*
X122200000Y-76700000D03*
X121250000Y-52900000D03*
X114150000Y-86000000D03*
X90850000Y-114250000D03*
X134500000Y-54500000D03*
X90850000Y-111000000D03*
X109650000Y-83900000D03*
X114200000Y-62150000D03*
X110500000Y-63200000D03*
X81400000Y-103550000D03*
X132500000Y-105000000D03*
X146000000Y-97300000D03*
X82250000Y-115000000D03*
X117100000Y-51900000D03*
X90000000Y-111000000D03*
X85150000Y-101300000D03*
X118600000Y-103000000D03*
X109600000Y-75700000D03*
X81400000Y-104500000D03*
X115850000Y-102000000D03*
X118150000Y-86000000D03*
X105200000Y-69700000D03*
X111850000Y-103750000D03*
X98400000Y-91750000D03*
X83400000Y-115000000D03*
X82250000Y-110800000D03*
X113100000Y-47750000D03*
X109500000Y-53950000D03*
%TO.N,SW*%
X132500000Y-102750000D03*
X130750000Y-106000000D03*
%TO.N,5V*%
X143200000Y-95200000D03*
X147000000Y-109500000D03*
%TO.N,SW_3V3*%
X96600000Y-101200000D03*
%TO.N,3V3*%
X95800000Y-90000000D03*
%TO.N,Net-(J3-Pin_1)*%
X114000000Y-122250000D03*
X115000000Y-123750000D03*
X114000000Y-123750000D03*
X115000000Y-123000000D03*
X115000000Y-122250000D03*
X114000000Y-121500000D03*
X114000000Y-123000000D03*
X115000000Y-121500000D03*
%TO.N,EN*%
X144300000Y-100400000D03*
%TO.N,Net-(R2-Pad1)*%
X142700000Y-109900000D03*
%TO.N,GND*%
X104000000Y-97000000D03*
X104000000Y-98750000D03*
%TD*%
D34*
%TO.N,Net-(C12-Pad1)*%
X101750000Y-99200000D02*
X101550000Y-99000000D01*
X101550000Y-99000000D02*
X99562500Y-99000000D01*
X101800000Y-99200000D02*
X101750000Y-99200000D01*
X99562500Y-99000000D02*
X99400000Y-99162500D01*
%TO.N,Net-(IC2-BOOT)*%
X101750000Y-103800000D02*
X101750000Y-101250000D01*
X101750000Y-101250000D02*
X101800000Y-101200000D01*
D35*
%TO.N,3V3*%
X110600000Y-99400000D02*
X109200000Y-99400000D01*
%TO.N,EN_3V3*%
X107000000Y-97600000D02*
X107000000Y-97000000D01*
X104000000Y-103600000D02*
X104000000Y-100600000D01*
X104000000Y-100600000D02*
X107000000Y-97600000D01*
X101750000Y-104750000D02*
X102850000Y-104750000D01*
X102850000Y-104750000D02*
X104000000Y-103600000D01*
%TO.N,Net-(R10-Pad1)*%
X107137500Y-99462500D02*
X107200000Y-99400000D01*
X106221384Y-99462500D02*
X107137500Y-99462500D01*
X106141942Y-99541942D02*
X106221384Y-99462500D01*
D34*
%TO.N,Net-(C13-Pad2)*%
X109400000Y-101800000D02*
X109400000Y-103762500D01*
X109200000Y-101600000D02*
X109400000Y-101800000D01*
%TO.N,Net-(R10-Pad1)*%
X107200000Y-101600000D02*
X107200000Y-99400000D01*
X107200000Y-101600000D02*
X107200000Y-103600000D01*
X107200000Y-103600000D02*
X107000000Y-103800000D01*
%TO.N,Net-(IC2-FB)*%
X107000000Y-105800000D02*
X104600000Y-105800000D01*
X104300000Y-105700000D02*
X104400000Y-105800000D01*
X101750000Y-105700000D02*
X104300000Y-105700000D01*
X104400000Y-105800000D02*
X104600000Y-105800000D01*
X107037500Y-105837500D02*
X107000000Y-105800000D01*
X109400000Y-105837500D02*
X107037500Y-105837500D01*
%TO.N,SW_3V3*%
X96637500Y-101237500D02*
X99400000Y-101237500D01*
X96600000Y-101200000D02*
X96637500Y-101237500D01*
%TO.N,GND*%
X96016416Y-113016416D02*
X96000000Y-113000000D01*
X97495269Y-113016416D02*
X96016416Y-113016416D01*
X96016416Y-110766416D02*
X96000000Y-110750000D01*
X97495269Y-110766416D02*
X96016416Y-110766416D01*
X96016416Y-108516416D02*
X96000000Y-108500000D01*
X97495269Y-108516416D02*
X96016416Y-108516416D01*
%TO.N,Vin*%
X135375000Y-120625000D02*
X135375000Y-120875000D01*
D36*
X134212500Y-111250000D02*
X134370606Y-111091894D01*
D34*
X135500000Y-121000000D02*
X134750000Y-121000000D01*
X135375000Y-120875000D02*
X135500000Y-121000000D01*
X134750000Y-121000000D02*
X133500000Y-119750000D01*
D36*
X134370606Y-111091894D02*
X134629053Y-111091894D01*
X114200000Y-102450000D02*
X114200000Y-111200000D01*
D35*
X143750000Y-107802879D02*
X143750000Y-109000000D01*
D34*
X133500000Y-119750000D02*
X133500000Y-118500000D01*
%TO.N,GND*%
X97287500Y-91750000D02*
X98400000Y-91750000D01*
D35*
X146000000Y-108900000D02*
X146000000Y-107802879D01*
X141500000Y-108500000D02*
X141500000Y-107200000D01*
X141750000Y-102250000D02*
X142950000Y-102250000D01*
D34*
X97287500Y-94000000D02*
X98500000Y-94000000D01*
%TO.N,SW*%
X132500000Y-102750000D02*
X133287500Y-103537500D01*
X133250000Y-107000000D02*
X131000000Y-107000000D01*
X133287500Y-103537500D02*
X133600000Y-103537500D01*
%TO.N,Net-(C4-Pad1)*%
X133637500Y-101637500D02*
X133600000Y-101600000D01*
X135750000Y-101500000D02*
X135750000Y-101525000D01*
X135750000Y-101525000D02*
X135637500Y-101637500D01*
X133600000Y-101600000D02*
X133600000Y-101462500D01*
X135637500Y-101637500D02*
X133637500Y-101637500D01*
D35*
%TO.N,Net-(C5-Pad2)*%
X141737500Y-113000000D02*
X143750000Y-113000000D01*
X143750000Y-113000000D02*
X144000000Y-112750000D01*
X141537500Y-112800000D02*
X141737500Y-113000000D01*
D34*
%TO.N,Net-(IC1-FB)*%
X138250000Y-108500000D02*
X139500000Y-108500000D01*
D35*
X139500000Y-112762500D02*
X139462500Y-112800000D01*
D34*
X135750000Y-107950000D02*
X137700000Y-107950000D01*
X139500000Y-110600000D02*
X139500000Y-112762500D01*
X137700000Y-107950000D02*
X138250000Y-108500000D01*
X139500000Y-108500000D02*
X139500000Y-110600000D01*
D35*
%TO.N,5V*%
X146250000Y-110250000D02*
X147000000Y-109500000D01*
D34*
X100757540Y-87520187D02*
X100777540Y-87540187D01*
D35*
X124750000Y-107250000D02*
X117150000Y-107250000D01*
X117150000Y-107250000D02*
X117000000Y-107400000D01*
X146250000Y-110750000D02*
X146250000Y-110250000D01*
D34*
X94500000Y-87520187D02*
X100757540Y-87520187D01*
%TO.N,SW_3V3*%
X99250000Y-104750000D02*
X96750000Y-104750000D01*
D35*
%TO.N,3V3*%
X84000000Y-79250000D02*
X88000000Y-79250000D01*
%TO.N,EN*%
X144250000Y-102250000D02*
X144250000Y-100450000D01*
X140000000Y-105000000D02*
X138000000Y-107000000D01*
X144250000Y-100450000D02*
X144300000Y-100400000D01*
X144250000Y-102250000D02*
X144500000Y-102500000D01*
X138000000Y-107000000D02*
X135750000Y-107000000D01*
X144500000Y-103250000D02*
X142750000Y-105000000D01*
X144500000Y-102500000D02*
X144500000Y-103250000D01*
X142750000Y-105000000D02*
X140000000Y-105000000D01*
D34*
%TO.N,Net-(IC1-BOOT)*%
X135750000Y-106050000D02*
X135750000Y-103500000D01*
%TO.N,EN_3V3*%
X101800000Y-104800000D02*
X102000000Y-104800000D01*
X101750000Y-104750000D02*
X101800000Y-104800000D01*
%TO.N,D25*%
X94500000Y-69740187D02*
X100757540Y-69740187D01*
X100757540Y-69740187D02*
X100777540Y-69760187D01*
%TO.N,D12*%
X100757540Y-79900187D02*
X100777540Y-79920187D01*
X94500000Y-79900187D02*
X100757540Y-79900187D01*
%TO.N,D35*%
X94500000Y-62120187D02*
X100757540Y-62120187D01*
X100757540Y-62120187D02*
X100777540Y-62140187D01*
%TO.N,D26*%
X94500000Y-72280187D02*
X100757540Y-72280187D01*
X100757540Y-72280187D02*
X100777540Y-72300187D01*
%TO.N,D34*%
X94500000Y-59580187D02*
X100757540Y-59580187D01*
X100757540Y-59580187D02*
X100777540Y-59600187D01*
%TO.N,D32*%
X94500000Y-64660187D02*
X100757540Y-64660187D01*
X100757540Y-64660187D02*
X100777540Y-64680187D01*
%TO.N,VN*%
X100757540Y-57040187D02*
X100777540Y-57060187D01*
X94500000Y-57040187D02*
X100757540Y-57040187D01*
%TO.N,D14*%
X100757540Y-77360187D02*
X100777540Y-77380187D01*
X94500000Y-77360187D02*
X100757540Y-77360187D01*
%TO.N,D33*%
X94500000Y-67200187D02*
X100757540Y-67200187D01*
X100757540Y-67200187D02*
X100777540Y-67220187D01*
%TO.N,D27*%
X94500000Y-74820187D02*
X100757540Y-74820187D01*
X100757540Y-74820187D02*
X100777540Y-74840187D01*
%TO.N,D13*%
X100757540Y-82440187D02*
X100777540Y-82460187D01*
X94500000Y-82440187D02*
X100757540Y-82440187D01*
%TO.N,VP*%
X100757540Y-54500187D02*
X100777540Y-54520187D01*
X94500000Y-54500187D02*
X100757540Y-54500187D01*
%TO.N,RX2*%
X132500000Y-64680187D02*
X134319813Y-64680187D01*
X134319813Y-64680187D02*
X137500000Y-61500000D01*
X137500000Y-61500000D02*
X142000000Y-61500000D01*
X132500000Y-64680187D02*
X126177540Y-64680187D01*
%TO.N,TX2*%
X126177540Y-67220187D02*
X132500000Y-67220187D01*
X134529813Y-67220187D02*
X137710000Y-64040000D01*
X132500000Y-67220187D02*
X134529813Y-67220187D01*
X137710000Y-64040000D02*
X142000000Y-64040000D01*
%TO.N,D22*%
X126177540Y-85000187D02*
X132500000Y-85000187D01*
%TO.N,D18*%
X132500000Y-72300187D02*
X126177540Y-72300187D01*
%TO.N,D15*%
X126177540Y-57060187D02*
X132500000Y-57060187D01*
%TO.N,D21*%
X132500000Y-77380187D02*
X126177540Y-77380187D01*
%TO.N,D5*%
X126177540Y-69760187D02*
X132500000Y-69760187D01*
%TO.N,RX0*%
X126177540Y-79920187D02*
X132500000Y-79920187D01*
%TO.N,D19*%
X132500000Y-74840187D02*
X126177540Y-74840187D01*
%TO.N,D4*%
X126177540Y-62140187D02*
X132500000Y-62140187D01*
%TO.N,D2*%
X132500000Y-59600187D02*
X126177540Y-59600187D01*
%TO.N,3V3_esp*%
X126177540Y-51980187D02*
X132500000Y-51980187D01*
%TO.N,TX0*%
X132500000Y-82460187D02*
X126177540Y-82460187D01*
%TO.N,D23*%
X132500000Y-87540187D02*
X126177540Y-87540187D01*
D35*
%TO.N,Net-(JP1-A)*%
X145550000Y-102250000D02*
X145550000Y-104050000D01*
X146000000Y-104500000D02*
X146000000Y-105802879D01*
X146000000Y-105802879D02*
X143750000Y-105802879D01*
X145550000Y-104050000D02*
X146000000Y-104500000D01*
%TO.N,Net-(R2-Pad1)*%
X142700000Y-110750000D02*
X142700000Y-109900000D01*
X146250000Y-112750000D02*
X144250000Y-110750000D01*
X144250000Y-110750000D02*
X144000000Y-110750000D01*
X141500000Y-110600000D02*
X141500000Y-110962500D01*
X142700000Y-110750000D02*
X144000000Y-110750000D01*
X141500000Y-110600000D02*
X141650000Y-110750000D01*
X141500000Y-110500000D02*
X141500000Y-110600000D01*
X141650000Y-110750000D02*
X142700000Y-110750000D01*
D34*
%TO.N,EN_esp*%
X100757540Y-51960187D02*
X100777540Y-51980187D01*
X94500000Y-51960187D02*
X100757540Y-51960187D01*
%TO.N,GND*%
X97300000Y-97800000D02*
X97300000Y-96262500D01*
X97300000Y-96262500D02*
X97287500Y-96250000D01*
D35*
%TO.N,EN_3V3*%
X107000000Y-95929907D02*
X107000000Y-97000000D01*
D34*
%TO.N,GND*%
X105700000Y-97000000D02*
X104000000Y-97000000D01*
D36*
%TO.N,Vin*%
X112250000Y-99000000D02*
X112250000Y-100500000D01*
X112250000Y-100500000D02*
X114200000Y-102450000D01*
%TO.N,Net-(JP2-A)*%
X112250000Y-97000000D02*
X108300000Y-97000000D01*
X114450000Y-97000000D02*
X112250000Y-97000000D01*
%TD*%
%TA.AperFunction,Conductor*%
%TO.N,GND*%
G36*
X144003032Y-43250648D02*
G01*
X144336929Y-43267052D01*
X144349037Y-43268245D01*
X144452146Y-43283539D01*
X144676699Y-43316849D01*
X144688617Y-43319219D01*
X145009951Y-43399709D01*
X145021588Y-43403240D01*
X145092806Y-43428722D01*
X145333467Y-43514832D01*
X145344688Y-43519479D01*
X145644163Y-43661120D01*
X145654871Y-43666844D01*
X145938988Y-43837137D01*
X145949106Y-43843897D01*
X146215170Y-44041224D01*
X146224576Y-44048944D01*
X146470013Y-44271395D01*
X146478604Y-44279986D01*
X146665755Y-44486475D01*
X146701055Y-44525423D01*
X146708775Y-44534829D01*
X146906102Y-44800893D01*
X146912862Y-44811011D01*
X147041776Y-45026092D01*
X147083148Y-45095116D01*
X147088885Y-45105848D01*
X147230514Y-45405297D01*
X147235170Y-45416540D01*
X147346759Y-45728411D01*
X147350292Y-45740055D01*
X147430777Y-46061369D01*
X147433151Y-46073305D01*
X147481754Y-46400962D01*
X147482947Y-46413071D01*
X147499351Y-46746966D01*
X147499500Y-46753051D01*
X147499500Y-108654865D01*
X147479815Y-108721904D01*
X147427011Y-108767659D01*
X147357853Y-108777603D01*
X147328048Y-108769427D01*
X147294425Y-108755500D01*
X147233497Y-108730263D01*
X147233494Y-108730262D01*
X147233491Y-108730261D01*
X147078845Y-108699500D01*
X147078842Y-108699500D01*
X146921158Y-108699500D01*
X146921155Y-108699500D01*
X146766510Y-108730261D01*
X146766498Y-108730264D01*
X146620827Y-108790602D01*
X146620814Y-108790609D01*
X146489711Y-108878210D01*
X146489707Y-108878213D01*
X146378213Y-108989707D01*
X146378210Y-108989711D01*
X146290609Y-109120814D01*
X146290602Y-109120827D01*
X146230264Y-109266498D01*
X146230261Y-109266508D01*
X146208141Y-109377714D01*
X146199375Y-109394470D01*
X146195356Y-109412949D01*
X146176613Y-109437985D01*
X146175756Y-109439625D01*
X146174205Y-109441203D01*
X146002227Y-109613181D01*
X145940904Y-109646666D01*
X145914547Y-109649500D01*
X145749999Y-109649500D01*
X145749980Y-109649501D01*
X145647203Y-109660000D01*
X145647200Y-109660001D01*
X145480668Y-109715185D01*
X145480663Y-109715187D01*
X145331342Y-109807289D01*
X145212681Y-109925951D01*
X145151358Y-109959436D01*
X145081666Y-109954452D01*
X145037319Y-109925951D01*
X144918657Y-109807289D01*
X144918656Y-109807288D01*
X144769334Y-109715186D01*
X144602797Y-109660001D01*
X144602794Y-109660000D01*
X144497873Y-109649281D01*
X144433181Y-109622884D01*
X144393030Y-109565703D01*
X144390167Y-109495892D01*
X144407372Y-109457034D01*
X144459394Y-109379179D01*
X144464742Y-109366269D01*
X144473067Y-109346166D01*
X144519737Y-109233497D01*
X144519737Y-109233492D01*
X144519740Y-109233486D01*
X144548228Y-109090262D01*
X144550500Y-109078842D01*
X144550500Y-108921158D01*
X144549115Y-108914196D01*
X144555338Y-108844607D01*
X144598198Y-108789427D01*
X144605621Y-108784470D01*
X144668656Y-108745591D01*
X144792712Y-108621535D01*
X144884814Y-108472213D01*
X144939999Y-108305676D01*
X144950500Y-108202888D01*
X144950499Y-107402871D01*
X144950076Y-107398733D01*
X144939999Y-107300082D01*
X144939998Y-107300079D01*
X144904989Y-107194430D01*
X144884814Y-107133545D01*
X144792712Y-106984223D01*
X144699049Y-106890560D01*
X144694710Y-106882614D01*
X144687463Y-106877189D01*
X144678228Y-106852429D01*
X144665564Y-106829237D01*
X144666209Y-106820207D01*
X144663046Y-106811725D01*
X144668662Y-106785904D01*
X144670548Y-106759545D01*
X144676366Y-106750491D01*
X144677898Y-106743452D01*
X144699049Y-106715198D01*
X144787319Y-106626928D01*
X144848642Y-106593443D01*
X144918334Y-106598427D01*
X144962681Y-106626928D01*
X145081344Y-106745591D01*
X145230666Y-106837693D01*
X145397203Y-106892878D01*
X145499991Y-106903379D01*
X146500008Y-106903378D01*
X146500016Y-106903377D01*
X146500019Y-106903377D01*
X146556302Y-106897627D01*
X146602797Y-106892878D01*
X146769334Y-106837693D01*
X146918656Y-106745591D01*
X147042712Y-106621535D01*
X147134814Y-106472213D01*
X147189999Y-106305676D01*
X147200500Y-106202888D01*
X147200499Y-105402871D01*
X147195315Y-105352127D01*
X147189999Y-105300082D01*
X147189998Y-105300079D01*
X147165119Y-105225000D01*
X147134814Y-105133545D01*
X147042712Y-104984223D01*
X146918656Y-104860167D01*
X146796194Y-104784632D01*
X146769336Y-104768066D01*
X146769335Y-104768065D01*
X146769334Y-104768065D01*
X146710493Y-104748567D01*
X146653051Y-104708795D01*
X146626228Y-104644279D01*
X146625500Y-104630862D01*
X146625500Y-104438394D01*
X146621709Y-104419336D01*
X146618286Y-104402128D01*
X146608017Y-104350500D01*
X146601463Y-104317548D01*
X146579732Y-104265084D01*
X146554312Y-104203714D01*
X146516999Y-104147873D01*
X146485858Y-104101267D01*
X146485856Y-104101264D01*
X146395636Y-104011044D01*
X146395606Y-104011016D01*
X146211819Y-103827229D01*
X146197115Y-103800301D01*
X146180523Y-103774483D01*
X146179631Y-103768282D01*
X146178334Y-103765906D01*
X146175500Y-103739548D01*
X146175500Y-103573466D01*
X146195185Y-103506427D01*
X146247989Y-103460672D01*
X146256156Y-103457288D01*
X146292331Y-103443796D01*
X146407546Y-103357546D01*
X146493796Y-103242331D01*
X146544091Y-103107483D01*
X146550500Y-103047873D01*
X146550499Y-101452128D01*
X146544091Y-101392517D01*
X146542221Y-101387504D01*
X146493797Y-101257671D01*
X146493793Y-101257664D01*
X146407547Y-101142455D01*
X146407544Y-101142452D01*
X146292335Y-101056206D01*
X146292328Y-101056202D01*
X146157482Y-101005908D01*
X146157483Y-101005908D01*
X146097883Y-100999501D01*
X146097881Y-100999500D01*
X146097873Y-100999500D01*
X146097865Y-100999500D01*
X145094167Y-100999500D01*
X145027128Y-100979815D01*
X144981373Y-100927011D01*
X144971429Y-100857853D01*
X144991065Y-100806608D01*
X145009394Y-100779179D01*
X145069737Y-100633497D01*
X145100500Y-100478842D01*
X145100500Y-100321158D01*
X145100500Y-100321153D01*
X145070380Y-100169735D01*
X145069737Y-100166503D01*
X145068588Y-100163728D01*
X145009397Y-100020827D01*
X145009390Y-100020814D01*
X144921789Y-99889711D01*
X144921786Y-99889707D01*
X144810292Y-99778213D01*
X144810288Y-99778210D01*
X144679185Y-99690609D01*
X144679172Y-99690602D01*
X144533501Y-99630264D01*
X144533489Y-99630261D01*
X144378845Y-99599500D01*
X144378842Y-99599500D01*
X144221158Y-99599500D01*
X144221155Y-99599500D01*
X144066510Y-99630261D01*
X144066498Y-99630264D01*
X143920827Y-99690602D01*
X143920814Y-99690609D01*
X143789711Y-99778210D01*
X143789707Y-99778213D01*
X143678213Y-99889707D01*
X143678210Y-99889711D01*
X143590609Y-100020814D01*
X143590602Y-100020827D01*
X143530264Y-100166498D01*
X143530261Y-100166510D01*
X143499500Y-100321153D01*
X143499500Y-100478846D01*
X143530261Y-100633489D01*
X143530264Y-100633501D01*
X143590603Y-100779174D01*
X143590604Y-100779175D01*
X143590606Y-100779179D01*
X143590609Y-100779183D01*
X143603602Y-100798628D01*
X143609252Y-100816674D01*
X143619477Y-100832584D01*
X143623928Y-100863543D01*
X143624480Y-100865305D01*
X143624500Y-100867519D01*
X143624500Y-100876000D01*
X143604815Y-100943039D01*
X143552011Y-100988794D01*
X143500500Y-101000000D01*
X143200000Y-101000000D01*
X143200000Y-103504137D01*
X143228508Y-103556346D01*
X143223524Y-103626038D01*
X143195023Y-103670385D01*
X142527229Y-104338181D01*
X142465906Y-104371666D01*
X142439548Y-104374500D01*
X139938389Y-104374500D01*
X139880673Y-104385980D01*
X139880660Y-104385983D01*
X139877971Y-104386518D01*
X139817548Y-104398537D01*
X139808879Y-104402128D01*
X139800155Y-104405741D01*
X139800149Y-104405743D01*
X139703713Y-104445688D01*
X139703708Y-104445690D01*
X139601272Y-104514138D01*
X139601264Y-104514144D01*
X139555597Y-104559812D01*
X139514142Y-104601267D01*
X139514139Y-104601270D01*
X138633826Y-105481584D01*
X137777229Y-106338181D01*
X137715906Y-106371666D01*
X137689548Y-106374500D01*
X136999500Y-106374500D01*
X136932461Y-106354815D01*
X136886706Y-106302011D01*
X136875500Y-106250500D01*
X136875499Y-105702129D01*
X136875498Y-105702123D01*
X136869091Y-105642516D01*
X136818797Y-105507671D01*
X136818793Y-105507664D01*
X136732547Y-105392455D01*
X136732544Y-105392452D01*
X136617334Y-105306205D01*
X136581164Y-105292714D01*
X136525231Y-105250841D01*
X136500816Y-105185376D01*
X136500500Y-105176533D01*
X136500500Y-104615638D01*
X136520185Y-104548599D01*
X136559401Y-104510100D01*
X136668656Y-104442712D01*
X136792712Y-104318656D01*
X136884814Y-104169334D01*
X136939999Y-104002797D01*
X136950500Y-103900009D01*
X136950499Y-103099992D01*
X136946869Y-103064461D01*
X136945172Y-103047844D01*
X141950000Y-103047844D01*
X141956401Y-103107372D01*
X141956403Y-103107379D01*
X142006645Y-103242086D01*
X142006649Y-103242093D01*
X142092809Y-103357187D01*
X142092812Y-103357190D01*
X142207906Y-103443350D01*
X142207913Y-103443354D01*
X142342620Y-103493596D01*
X142342627Y-103493598D01*
X142402155Y-103499999D01*
X142402172Y-103500000D01*
X142700000Y-103500000D01*
X142700000Y-102500000D01*
X141950000Y-102500000D01*
X141950000Y-103047844D01*
X136945172Y-103047844D01*
X136939999Y-102997203D01*
X136939998Y-102997200D01*
X136926460Y-102956346D01*
X136884814Y-102830666D01*
X136792712Y-102681344D01*
X136699049Y-102587681D01*
X136694710Y-102579735D01*
X136687463Y-102574310D01*
X136678228Y-102549550D01*
X136665564Y-102526358D01*
X136666209Y-102517328D01*
X136663046Y-102508846D01*
X136668662Y-102483025D01*
X136670548Y-102456666D01*
X136676366Y-102447612D01*
X136677898Y-102440573D01*
X136699049Y-102412319D01*
X136750411Y-102360957D01*
X136765460Y-102345908D01*
X136792712Y-102318656D01*
X136884814Y-102169334D01*
X136939999Y-102002797D01*
X136950500Y-101900009D01*
X136950499Y-101452155D01*
X141950000Y-101452155D01*
X141950000Y-102000000D01*
X142700000Y-102000000D01*
X142700000Y-101000000D01*
X142402155Y-101000000D01*
X142342627Y-101006401D01*
X142342620Y-101006403D01*
X142207913Y-101056645D01*
X142207906Y-101056649D01*
X142092812Y-101142809D01*
X142092809Y-101142812D01*
X142006649Y-101257906D01*
X142006645Y-101257913D01*
X141956403Y-101392620D01*
X141956401Y-101392627D01*
X141950000Y-101452155D01*
X136950499Y-101452155D01*
X136950499Y-101099992D01*
X136946071Y-101056649D01*
X136939999Y-100997203D01*
X136939998Y-100997200D01*
X136884814Y-100830666D01*
X136792712Y-100681344D01*
X136668656Y-100557288D01*
X136554700Y-100487000D01*
X136519336Y-100465187D01*
X136519331Y-100465185D01*
X136493622Y-100456666D01*
X136352797Y-100410001D01*
X136352795Y-100410000D01*
X136250010Y-100399500D01*
X135249998Y-100399500D01*
X135249980Y-100399501D01*
X135147203Y-100410000D01*
X135147200Y-100410001D01*
X134980668Y-100465185D01*
X134980663Y-100465187D01*
X134831342Y-100557289D01*
X134787678Y-100600952D01*
X134726355Y-100634436D01*
X134656663Y-100629450D01*
X134612318Y-100600950D01*
X134543657Y-100532289D01*
X134543656Y-100532288D01*
X134428157Y-100461048D01*
X134394336Y-100440187D01*
X134394331Y-100440185D01*
X134392862Y-100439698D01*
X134227797Y-100385001D01*
X134227795Y-100385000D01*
X134125010Y-100374500D01*
X133074998Y-100374500D01*
X133074980Y-100374501D01*
X132972203Y-100385000D01*
X132972200Y-100385001D01*
X132805668Y-100440185D01*
X132805663Y-100440187D01*
X132656342Y-100532289D01*
X132532289Y-100656342D01*
X132440187Y-100805663D01*
X132440185Y-100805668D01*
X132419690Y-100867519D01*
X132385001Y-100972203D01*
X132385001Y-100972204D01*
X132385000Y-100972204D01*
X132374500Y-101074983D01*
X132374500Y-101850006D01*
X132374535Y-101850675D01*
X132374500Y-101850817D01*
X132374501Y-101853165D01*
X132373939Y-101853165D01*
X132358283Y-101918628D01*
X132307873Y-101967007D01*
X132274894Y-101978593D01*
X132266508Y-101980261D01*
X132266498Y-101980264D01*
X132120827Y-102040602D01*
X132120814Y-102040609D01*
X131989711Y-102128210D01*
X131989707Y-102128213D01*
X131878213Y-102239707D01*
X131878210Y-102239711D01*
X131790609Y-102370814D01*
X131790602Y-102370827D01*
X131730264Y-102516498D01*
X131730261Y-102516510D01*
X131699500Y-102671153D01*
X131699500Y-102828846D01*
X131730261Y-102983489D01*
X131730264Y-102983501D01*
X131790602Y-103129172D01*
X131790609Y-103129185D01*
X131878210Y-103260288D01*
X131878213Y-103260292D01*
X131989710Y-103371789D01*
X132031906Y-103399983D01*
X132120821Y-103459394D01*
X132120826Y-103459396D01*
X132120828Y-103459397D01*
X132144473Y-103469191D01*
X132151406Y-103473823D01*
X132156451Y-103474921D01*
X132184701Y-103496068D01*
X132338182Y-103649550D01*
X132371666Y-103710872D01*
X132374500Y-103737229D01*
X132374500Y-103925000D01*
X132374501Y-103925019D01*
X132385000Y-104027796D01*
X132385001Y-104027799D01*
X132440185Y-104194331D01*
X132440187Y-104194336D01*
X132448296Y-104207483D01*
X132532288Y-104343656D01*
X132656344Y-104467712D01*
X132805666Y-104559814D01*
X132972203Y-104614999D01*
X133074991Y-104625500D01*
X134125008Y-104625499D01*
X134125016Y-104625498D01*
X134125019Y-104625498D01*
X134192007Y-104618655D01*
X134227797Y-104614999D01*
X134394334Y-104559814D01*
X134543656Y-104467712D01*
X134612319Y-104399049D01*
X134673642Y-104365564D01*
X134743334Y-104370548D01*
X134773406Y-104386792D01*
X134781007Y-104392375D01*
X134831344Y-104442712D01*
X134944865Y-104512732D01*
X134948906Y-104515700D01*
X134967178Y-104539652D01*
X134987321Y-104562047D01*
X134988618Y-104567757D01*
X134991284Y-104571251D01*
X134992313Y-104584015D01*
X134999500Y-104615638D01*
X134999500Y-105176533D01*
X134979815Y-105243572D01*
X134927011Y-105289327D01*
X134918836Y-105292714D01*
X134882665Y-105306205D01*
X134767455Y-105392452D01*
X134767452Y-105392455D01*
X134681206Y-105507664D01*
X134681202Y-105507671D01*
X134630910Y-105642513D01*
X134630909Y-105642517D01*
X134624500Y-105702127D01*
X134624500Y-105702134D01*
X134624500Y-105702135D01*
X134624500Y-106397870D01*
X134624501Y-106397876D01*
X134630909Y-106457484D01*
X134639929Y-106481670D01*
X134644911Y-106551361D01*
X134639929Y-106568330D01*
X134630910Y-106592512D01*
X134630909Y-106592515D01*
X134630909Y-106592517D01*
X134624500Y-106652127D01*
X134624500Y-106652134D01*
X134624500Y-106652135D01*
X134624500Y-107347870D01*
X134624501Y-107347876D01*
X134630909Y-107407484D01*
X134639929Y-107431670D01*
X134642117Y-107462281D01*
X134646483Y-107492650D01*
X134644768Y-107499367D01*
X134644911Y-107501361D01*
X134643688Y-107503600D01*
X134639929Y-107518330D01*
X134630910Y-107542512D01*
X134630909Y-107542515D01*
X134630909Y-107542517D01*
X134624500Y-107602127D01*
X134624500Y-107602134D01*
X134624500Y-107602135D01*
X134624500Y-108021020D01*
X134615851Y-108050472D01*
X134609315Y-108080479D01*
X134606096Y-108083695D01*
X134604815Y-108088059D01*
X134581621Y-108108156D01*
X134559895Y-108129870D01*
X134555447Y-108130836D01*
X134552011Y-108133814D01*
X134521622Y-108138183D01*
X134491618Y-108144701D01*
X134487357Y-108143110D01*
X134482853Y-108143758D01*
X134454918Y-108131000D01*
X134426160Y-108120265D01*
X134421751Y-108115853D01*
X134419297Y-108114733D01*
X134401211Y-108095301D01*
X134400210Y-108093963D01*
X134375812Y-108028492D01*
X134375499Y-108019682D01*
X134375499Y-107602129D01*
X134375498Y-107602123D01*
X134373264Y-107581344D01*
X134369091Y-107542517D01*
X134360070Y-107518333D01*
X134357880Y-107487714D01*
X134353515Y-107457349D01*
X134355410Y-107453197D01*
X134355085Y-107448644D01*
X134360066Y-107431677D01*
X134369091Y-107407483D01*
X134375500Y-107347873D01*
X134375499Y-106652128D01*
X134369091Y-106592517D01*
X134369089Y-106592512D01*
X134318797Y-106457671D01*
X134318793Y-106457664D01*
X134232547Y-106342455D01*
X134232544Y-106342452D01*
X134117335Y-106256206D01*
X134117328Y-106256202D01*
X133982482Y-106205908D01*
X133982483Y-106205908D01*
X133922883Y-106199501D01*
X133922881Y-106199500D01*
X133922873Y-106199500D01*
X133922865Y-106199500D01*
X132655923Y-106199500D01*
X132648760Y-106197396D01*
X132641399Y-106198647D01*
X132615690Y-106187686D01*
X132588884Y-106179815D01*
X132582398Y-106173492D01*
X132577127Y-106171245D01*
X132563166Y-106154743D01*
X132553344Y-106145168D01*
X132550752Y-106141351D01*
X132517442Y-106083462D01*
X132474332Y-106028478D01*
X132474329Y-106028474D01*
X132370342Y-105929034D01*
X131226148Y-105111752D01*
X131215892Y-105104616D01*
X131210861Y-105101207D01*
X131205814Y-105097876D01*
X131200601Y-105094435D01*
X131200598Y-105094433D01*
X131093886Y-105045698D01*
X131069724Y-105034663D01*
X131002679Y-105014976D01*
X130940609Y-105006052D01*
X130860262Y-104994500D01*
X128124000Y-104994500D01*
X128123991Y-104994500D01*
X128123990Y-104994501D01*
X128016549Y-105006052D01*
X128016537Y-105006054D01*
X127965027Y-105017260D01*
X127862502Y-105051383D01*
X127862496Y-105051386D01*
X127741462Y-105129171D01*
X127741451Y-105129179D01*
X127688659Y-105174923D01*
X127594433Y-105283664D01*
X127594430Y-105283668D01*
X127534664Y-105414534D01*
X127514976Y-105481582D01*
X127511225Y-105507671D01*
X127494500Y-105624000D01*
X127494500Y-108626000D01*
X127494501Y-108626009D01*
X127506052Y-108733450D01*
X127506054Y-108733462D01*
X127517260Y-108784972D01*
X127551383Y-108887497D01*
X127551386Y-108887503D01*
X127629171Y-109008537D01*
X127629179Y-109008548D01*
X127674923Y-109061340D01*
X127674926Y-109061343D01*
X127674930Y-109061347D01*
X127783664Y-109155567D01*
X127783667Y-109155568D01*
X127783668Y-109155569D01*
X127876677Y-109198046D01*
X127914541Y-109215338D01*
X127981580Y-109235023D01*
X127981584Y-109235024D01*
X128124000Y-109255500D01*
X128124003Y-109255500D01*
X131216273Y-109255500D01*
X131216282Y-109255500D01*
X131281223Y-109251311D01*
X131312819Y-109247218D01*
X131376683Y-109234721D01*
X131509180Y-109178633D01*
X131568991Y-109142516D01*
X131568992Y-109142515D01*
X131569010Y-109142500D01*
X131572364Y-109139875D01*
X131573753Y-109138616D01*
X131680320Y-109051369D01*
X131779094Y-108943615D01*
X131838903Y-108907499D01*
X131908746Y-108909451D01*
X131966445Y-108948854D01*
X131993683Y-109013195D01*
X131994500Y-109027406D01*
X131994500Y-110073932D01*
X131974815Y-110140971D01*
X131922011Y-110186726D01*
X131871753Y-110197926D01*
X131400475Y-110202687D01*
X131304452Y-110212880D01*
X131304447Y-110212881D01*
X131258255Y-110222312D01*
X131165943Y-110250570D01*
X131165941Y-110250571D01*
X131165939Y-110250572D01*
X131156951Y-110254295D01*
X131097327Y-110278990D01*
X131074075Y-110286043D01*
X131041038Y-110292616D01*
X131016841Y-110295000D01*
X130983161Y-110295000D01*
X130958969Y-110292617D01*
X130935742Y-110287996D01*
X130925926Y-110286044D01*
X130902671Y-110278989D01*
X130853430Y-110258594D01*
X130841387Y-110254974D01*
X130810007Y-110245541D01*
X130756105Y-110229338D01*
X130756103Y-110229337D01*
X130756101Y-110229337D01*
X130745785Y-110227339D01*
X130707401Y-110219904D01*
X130606191Y-110210710D01*
X130606182Y-110210710D01*
X130029545Y-110216534D01*
X129965474Y-110217182D01*
X129869461Y-110227373D01*
X129869447Y-110227375D01*
X129823285Y-110236801D01*
X129823259Y-110236807D01*
X129730951Y-110265063D01*
X129730948Y-110265064D01*
X129709052Y-110274134D01*
X129700941Y-110277494D01*
X129697329Y-110278990D01*
X129674074Y-110286044D01*
X129674071Y-110286045D01*
X129657340Y-110289373D01*
X129641031Y-110292617D01*
X129616841Y-110295000D01*
X129583159Y-110295000D01*
X129558967Y-110292617D01*
X129525929Y-110286045D01*
X129502671Y-110278990D01*
X129486761Y-110272400D01*
X129457330Y-110263553D01*
X129389434Y-110243143D01*
X129340737Y-110233711D01*
X129340731Y-110233710D01*
X129340724Y-110233709D01*
X129239518Y-110224514D01*
X129239509Y-110224514D01*
X129239508Y-110224514D01*
X128781303Y-110229142D01*
X128735482Y-110229605D01*
X128639467Y-110239796D01*
X128639452Y-110239798D01*
X128593286Y-110249225D01*
X128593278Y-110249226D01*
X128593273Y-110249228D01*
X128593268Y-110249229D01*
X128593266Y-110249230D01*
X128500955Y-110277488D01*
X128500937Y-110277494D01*
X128497312Y-110278996D01*
X128474076Y-110286043D01*
X128474073Y-110286044D01*
X128457292Y-110289382D01*
X128441030Y-110292617D01*
X128416839Y-110295000D01*
X128383159Y-110295000D01*
X128358968Y-110292617D01*
X128341623Y-110289167D01*
X128318243Y-110284516D01*
X128306741Y-110281650D01*
X128218000Y-110254975D01*
X128169292Y-110245541D01*
X128068084Y-110236347D01*
X128068075Y-110236347D01*
X127300488Y-110244100D01*
X127204462Y-110254293D01*
X127185976Y-110258068D01*
X127158261Y-110263728D01*
X127158255Y-110263729D01*
X127158249Y-110263731D01*
X127112271Y-110277806D01*
X127100167Y-110280854D01*
X127041033Y-110292617D01*
X127016841Y-110295000D01*
X126983156Y-110295000D01*
X126958964Y-110292617D01*
X126881014Y-110277111D01*
X126869516Y-110274247D01*
X126851331Y-110268781D01*
X126830485Y-110264743D01*
X126802627Y-110259348D01*
X126802621Y-110259347D01*
X126802614Y-110259346D01*
X126701408Y-110250151D01*
X126701399Y-110250151D01*
X126701398Y-110250151D01*
X126337393Y-110253827D01*
X125864174Y-110258608D01*
X125803441Y-110263553D01*
X125801079Y-110263723D01*
X125790966Y-110264352D01*
X125783003Y-110265679D01*
X125778939Y-110265186D01*
X125751963Y-110270552D01*
X125746601Y-110271497D01*
X125727145Y-110274485D01*
X125716048Y-110277693D01*
X125716025Y-110277697D01*
X125716024Y-110277698D01*
X125714945Y-110277912D01*
X125688069Y-110283261D01*
X125688068Y-110283260D01*
X125688060Y-110283263D01*
X125655967Y-110289647D01*
X125641034Y-110292617D01*
X125616845Y-110295000D01*
X125583157Y-110295000D01*
X125558965Y-110292617D01*
X125528706Y-110286598D01*
X125474961Y-110275907D01*
X125465522Y-110274531D01*
X125423353Y-110268383D01*
X125397908Y-110266007D01*
X125345818Y-110263844D01*
X125345806Y-110263844D01*
X125345804Y-110263844D01*
X124794652Y-110269411D01*
X124287742Y-110274531D01*
X124240758Y-110277197D01*
X124217817Y-110279574D01*
X124217803Y-110279576D01*
X124171343Y-110286588D01*
X124171288Y-110286598D01*
X124147576Y-110291315D01*
X124141030Y-110292617D01*
X124116840Y-110295000D01*
X124083162Y-110295000D01*
X124058970Y-110292617D01*
X124056890Y-110292203D01*
X124047448Y-110290325D01*
X124047447Y-110290324D01*
X124047439Y-110290323D01*
X124019495Y-110286250D01*
X123995827Y-110282801D01*
X123982629Y-110281568D01*
X123970399Y-110280426D01*
X123918311Y-110278263D01*
X123918299Y-110278263D01*
X123918297Y-110278263D01*
X122724319Y-110290323D01*
X114925752Y-110369093D01*
X114858518Y-110350086D01*
X114812232Y-110297747D01*
X114800500Y-110245099D01*
X114800500Y-107862562D01*
X114820185Y-107795523D01*
X114872989Y-107749768D01*
X114942147Y-107739824D01*
X115005703Y-107768849D01*
X115043477Y-107827627D01*
X115044265Y-107830434D01*
X115101602Y-108044418D01*
X115101605Y-108044428D01*
X115201953Y-108286690D01*
X115201958Y-108286700D01*
X115333075Y-108513803D01*
X115492718Y-108721851D01*
X115492726Y-108721860D01*
X115678140Y-108907274D01*
X115678148Y-108907281D01*
X115678149Y-108907282D01*
X115696234Y-108921159D01*
X115886196Y-109066924D01*
X116113299Y-109198041D01*
X116113309Y-109198046D01*
X116337812Y-109291038D01*
X116355581Y-109298398D01*
X116608884Y-109366270D01*
X116868880Y-109400500D01*
X116868887Y-109400500D01*
X117131113Y-109400500D01*
X117131120Y-109400500D01*
X117391116Y-109366270D01*
X117644419Y-109298398D01*
X117844943Y-109215338D01*
X117886690Y-109198046D01*
X117886691Y-109198045D01*
X117886697Y-109198043D01*
X118113803Y-109066924D01*
X118321851Y-108907282D01*
X118321855Y-108907277D01*
X118321860Y-108907274D01*
X118507274Y-108721860D01*
X118507277Y-108721855D01*
X118507282Y-108721851D01*
X118666924Y-108513803D01*
X118798043Y-108286697D01*
X118898398Y-108044419D01*
X118919033Y-107967405D01*
X118955398Y-107907746D01*
X119018245Y-107877217D01*
X119038808Y-107875500D01*
X122866445Y-107875500D01*
X122933484Y-107895185D01*
X122979239Y-107947989D01*
X122990429Y-107997532D01*
X122992626Y-108135985D01*
X123004984Y-108239339D01*
X123004987Y-108239353D01*
X123016172Y-108288873D01*
X123016174Y-108288881D01*
X123049431Y-108387498D01*
X123049434Y-108387504D01*
X123127218Y-108508537D01*
X123127226Y-108508548D01*
X123172970Y-108561340D01*
X123172973Y-108561343D01*
X123172977Y-108561347D01*
X123281711Y-108655567D01*
X123281714Y-108655568D01*
X123281715Y-108655569D01*
X123397216Y-108708318D01*
X123412588Y-108715338D01*
X123479627Y-108735023D01*
X123479631Y-108735024D01*
X123622047Y-108755500D01*
X123622050Y-108755500D01*
X126375990Y-108755500D01*
X126376000Y-108755500D01*
X126483456Y-108743947D01*
X126534967Y-108732741D01*
X126572691Y-108720185D01*
X126637497Y-108698616D01*
X126637501Y-108698613D01*
X126637504Y-108698613D01*
X126758543Y-108620825D01*
X126811347Y-108575070D01*
X126905567Y-108466336D01*
X126965338Y-108335459D01*
X126985023Y-108268420D01*
X126985024Y-108268416D01*
X127005500Y-108126000D01*
X127005500Y-105665592D01*
X127025185Y-105598553D01*
X127026291Y-105596861D01*
X130875120Y-99823616D01*
X130928683Y-99778757D01*
X130978908Y-99768403D01*
X138440208Y-99805710D01*
X139178858Y-99809404D01*
X139178861Y-99809403D01*
X139178874Y-99809404D01*
X139202038Y-99808989D01*
X139213394Y-99808525D01*
X139236525Y-99807048D01*
X139376633Y-99774317D01*
X139441716Y-99748902D01*
X139566927Y-99678026D01*
X143760906Y-96437225D01*
X143824415Y-96378848D01*
X143852911Y-96347768D01*
X143905567Y-96279447D01*
X143918788Y-96250499D01*
X143940879Y-96202127D01*
X143965338Y-96148570D01*
X143985023Y-96081531D01*
X143985024Y-96081527D01*
X144005500Y-95939111D01*
X144005500Y-88624000D01*
X143993947Y-88516544D01*
X143982741Y-88465033D01*
X143978585Y-88452545D01*
X143948616Y-88362502D01*
X143948613Y-88362496D01*
X143918508Y-88315652D01*
X143870825Y-88241457D01*
X143870820Y-88241451D01*
X143825076Y-88188659D01*
X143825072Y-88188656D01*
X143825070Y-88188653D01*
X143716336Y-88094433D01*
X143716333Y-88094431D01*
X143716331Y-88094430D01*
X143585465Y-88034664D01*
X143585460Y-88034662D01*
X143585459Y-88034662D01*
X143518420Y-88014977D01*
X143518422Y-88014977D01*
X143518417Y-88014976D01*
X143464895Y-88007281D01*
X143376000Y-87994500D01*
X143375998Y-87994500D01*
X141129500Y-87994500D01*
X141062461Y-87974815D01*
X141016706Y-87922011D01*
X141005500Y-87870500D01*
X141005500Y-86399275D01*
X141025185Y-86332236D01*
X141077989Y-86286481D01*
X141128466Y-86275279D01*
X141534992Y-86271891D01*
X141611940Y-86265351D01*
X141611943Y-86265350D01*
X141611949Y-86265350D01*
X141641828Y-86260489D01*
X141649225Y-86259286D01*
X141724271Y-86241103D01*
X141792858Y-86218817D01*
X141811747Y-86214282D01*
X141923863Y-86196525D01*
X141943249Y-86195000D01*
X142056744Y-86195000D01*
X142076141Y-86196527D01*
X142095803Y-86199641D01*
X142188241Y-86214281D01*
X142207151Y-86218820D01*
X142252214Y-86233462D01*
X142331415Y-86252303D01*
X142368362Y-86257997D01*
X142370771Y-86258369D01*
X142451976Y-86264249D01*
X142451979Y-86264248D01*
X142451980Y-86264249D01*
X143381245Y-86256506D01*
X143381250Y-86256505D01*
X143381256Y-86256505D01*
X143418173Y-86252302D01*
X143486548Y-86244518D01*
X143531238Y-86234600D01*
X143537013Y-86233319D01*
X143537014Y-86233318D01*
X143537026Y-86233316D01*
X143637504Y-86199641D01*
X143751941Y-86126096D01*
X143758537Y-86121857D01*
X143758537Y-86121856D01*
X143758543Y-86121853D01*
X143811347Y-86076098D01*
X143905567Y-85967364D01*
X143965338Y-85836487D01*
X143985023Y-85769448D01*
X143985024Y-85769444D01*
X144005500Y-85627028D01*
X144005500Y-80124000D01*
X143993947Y-80016544D01*
X143982741Y-79965033D01*
X143960312Y-79897644D01*
X143948616Y-79862502D01*
X143948613Y-79862496D01*
X143914853Y-79809965D01*
X143870825Y-79741457D01*
X143870820Y-79741451D01*
X143825076Y-79688659D01*
X143825072Y-79688656D01*
X143825070Y-79688653D01*
X143716336Y-79594433D01*
X143716333Y-79594431D01*
X143716331Y-79594430D01*
X143585465Y-79534664D01*
X143585460Y-79534662D01*
X143585459Y-79534662D01*
X143518420Y-79514977D01*
X143518422Y-79514977D01*
X143518417Y-79514976D01*
X143470944Y-79508150D01*
X143376000Y-79494500D01*
X143375998Y-79494500D01*
X141129500Y-79494500D01*
X141062461Y-79474815D01*
X141016706Y-79422011D01*
X141005500Y-79370500D01*
X141005500Y-77927651D01*
X141025185Y-77860612D01*
X141077989Y-77814857D01*
X141127666Y-77803665D01*
X141254387Y-77801790D01*
X141536683Y-77797615D01*
X141592562Y-77792593D01*
X141611962Y-77790850D01*
X141611964Y-77790849D01*
X141611971Y-77790849D01*
X141648454Y-77784794D01*
X141721896Y-77766874D01*
X141721899Y-77766872D01*
X141721903Y-77766872D01*
X141792844Y-77743821D01*
X141811755Y-77739280D01*
X141905300Y-77724463D01*
X141923852Y-77721526D01*
X141943247Y-77720000D01*
X142056744Y-77720000D01*
X142076142Y-77721527D01*
X142188237Y-77739281D01*
X142207157Y-77743823D01*
X142236940Y-77753500D01*
X142317772Y-77772590D01*
X142317777Y-77772590D01*
X142317778Y-77772591D01*
X142357914Y-77778644D01*
X142357921Y-77778644D01*
X142357924Y-77778645D01*
X142440778Y-77784242D01*
X142440779Y-77784241D01*
X142440780Y-77784242D01*
X142575566Y-77782248D01*
X143586483Y-77767295D01*
X143655183Y-77759320D01*
X143687495Y-77755570D01*
X143687496Y-77755569D01*
X143687511Y-77755568D01*
X143735998Y-77744912D01*
X143832630Y-77713200D01*
X143954483Y-77636692D01*
X144007766Y-77591496D01*
X144007771Y-77591491D01*
X144103131Y-77483751D01*
X144164275Y-77353510D01*
X144184664Y-77286681D01*
X144206638Y-77144490D01*
X144238883Y-74081238D01*
X144254153Y-72630633D01*
X144254152Y-72630632D01*
X144254153Y-72630626D01*
X144243187Y-72520451D01*
X144231988Y-72467635D01*
X144197301Y-72362496D01*
X144197300Y-72362494D01*
X144119517Y-72241462D01*
X144119508Y-72241451D01*
X144073764Y-72188659D01*
X144073760Y-72188656D01*
X144073758Y-72188653D01*
X143965024Y-72094433D01*
X143965021Y-72094431D01*
X143965019Y-72094430D01*
X143830119Y-72032822D01*
X143830776Y-72031382D01*
X143780227Y-71993536D01*
X143755815Y-71928070D01*
X143755500Y-71919233D01*
X143755500Y-65624010D01*
X143755500Y-65624000D01*
X143743947Y-65516544D01*
X143732741Y-65465033D01*
X143727861Y-65450372D01*
X143698616Y-65362502D01*
X143698613Y-65362496D01*
X143620828Y-65241462D01*
X143620825Y-65241457D01*
X143598451Y-65215636D01*
X143575076Y-65188659D01*
X143575072Y-65188656D01*
X143575070Y-65188653D01*
X143466336Y-65094433D01*
X143466333Y-65094431D01*
X143466331Y-65094430D01*
X143335465Y-65034664D01*
X143335460Y-65034662D01*
X143335459Y-65034662D01*
X143310930Y-65027459D01*
X143268418Y-65014976D01*
X143193565Y-65004214D01*
X143130010Y-64975189D01*
X143092236Y-64916410D01*
X143092236Y-64846541D01*
X143110896Y-64808590D01*
X143131997Y-64779548D01*
X143155051Y-64747816D01*
X143251557Y-64558412D01*
X143317246Y-64356243D01*
X143350500Y-64146287D01*
X143350500Y-63933713D01*
X143317246Y-63723757D01*
X143251557Y-63521588D01*
X143155051Y-63332184D01*
X143155049Y-63332181D01*
X143155048Y-63332179D01*
X143030109Y-63160213D01*
X142879786Y-63009890D01*
X142707820Y-62884951D01*
X142707115Y-62884591D01*
X142699054Y-62880485D01*
X142648259Y-62832512D01*
X142631463Y-62764692D01*
X142653999Y-62698556D01*
X142699054Y-62659515D01*
X142707816Y-62655051D01*
X142749431Y-62624816D01*
X142879786Y-62530109D01*
X142879788Y-62530106D01*
X142879792Y-62530104D01*
X143030104Y-62379792D01*
X143030106Y-62379788D01*
X143030109Y-62379786D01*
X143155048Y-62207820D01*
X143155047Y-62207820D01*
X143155051Y-62207816D01*
X143251557Y-62018412D01*
X143317246Y-61816243D01*
X143350500Y-61606287D01*
X143350500Y-61393713D01*
X143317246Y-61183757D01*
X143251557Y-60981588D01*
X143155051Y-60792184D01*
X143155049Y-60792181D01*
X143155048Y-60792179D01*
X143030109Y-60620213D01*
X142879786Y-60469890D01*
X142707820Y-60344951D01*
X142518414Y-60248444D01*
X142518413Y-60248443D01*
X142518412Y-60248443D01*
X142316243Y-60182754D01*
X142316241Y-60182753D01*
X142316240Y-60182753D01*
X142154957Y-60157208D01*
X142106287Y-60149500D01*
X141893713Y-60149500D01*
X141845042Y-60157208D01*
X141683760Y-60182753D01*
X141481585Y-60248444D01*
X141292179Y-60344951D01*
X141120213Y-60469890D01*
X140969892Y-60620211D01*
X140913097Y-60698385D01*
X140857767Y-60741051D01*
X140812779Y-60749500D01*
X137426082Y-60749500D01*
X137405725Y-60753549D01*
X137405717Y-60753550D01*
X137402595Y-60754172D01*
X137281088Y-60778341D01*
X137247669Y-60792184D01*
X137239355Y-60795627D01*
X137239346Y-60795630D01*
X137144506Y-60834914D01*
X137062372Y-60889795D01*
X137021585Y-60917047D01*
X137021581Y-60917050D01*
X134045264Y-63893368D01*
X134018336Y-63908071D01*
X133992518Y-63924664D01*
X133986317Y-63925555D01*
X133983941Y-63926853D01*
X133957583Y-63929687D01*
X133749024Y-63929687D01*
X133681985Y-63910002D01*
X133648705Y-63878571D01*
X133635909Y-63860959D01*
X133626807Y-63848430D01*
X133568245Y-63767825D01*
X133412363Y-63611943D01*
X133412358Y-63611939D01*
X133272745Y-63510505D01*
X133230079Y-63455176D01*
X133224100Y-63385562D01*
X133256705Y-63323767D01*
X133272745Y-63309869D01*
X133412358Y-63208434D01*
X133412356Y-63208434D01*
X133412365Y-63208429D01*
X133568242Y-63052552D01*
X133697815Y-62874209D01*
X133797895Y-62677793D01*
X133866015Y-62468138D01*
X133900500Y-62250409D01*
X133900500Y-62029965D01*
X133866015Y-61812236D01*
X133797895Y-61602581D01*
X133797895Y-61602580D01*
X133734668Y-61478493D01*
X133697815Y-61406165D01*
X133665175Y-61361239D01*
X133568247Y-61227828D01*
X133568243Y-61227823D01*
X133412363Y-61071943D01*
X133412358Y-61071939D01*
X133272745Y-60970505D01*
X133230079Y-60915176D01*
X133224100Y-60845562D01*
X133256705Y-60783767D01*
X133272745Y-60769869D01*
X133412358Y-60668434D01*
X133412356Y-60668434D01*
X133412365Y-60668429D01*
X133568242Y-60512552D01*
X133697815Y-60334209D01*
X133797895Y-60137793D01*
X133866015Y-59928138D01*
X133900500Y-59710409D01*
X133900500Y-59489965D01*
X133866015Y-59272236D01*
X133797895Y-59062581D01*
X133797895Y-59062580D01*
X133734668Y-58938493D01*
X133697815Y-58866165D01*
X133665175Y-58821239D01*
X133568247Y-58687828D01*
X133568243Y-58687823D01*
X133412363Y-58531943D01*
X133412358Y-58531939D01*
X133272745Y-58430505D01*
X133230079Y-58375176D01*
X133224100Y-58305562D01*
X133256705Y-58243767D01*
X133272745Y-58229869D01*
X133412358Y-58128434D01*
X133412356Y-58128434D01*
X133412365Y-58128429D01*
X133568242Y-57972552D01*
X133697815Y-57794209D01*
X133797895Y-57597793D01*
X133866015Y-57388138D01*
X133900500Y-57170409D01*
X133900500Y-56949965D01*
X133866015Y-56732236D01*
X133797895Y-56522581D01*
X133797895Y-56522580D01*
X133734668Y-56398493D01*
X133697815Y-56326165D01*
X133665175Y-56281239D01*
X133568247Y-56147828D01*
X133568243Y-56147823D01*
X133412363Y-55991943D01*
X133412358Y-55991939D01*
X133234025Y-55862374D01*
X133234024Y-55862373D01*
X133234022Y-55862372D01*
X133141396Y-55815176D01*
X133037606Y-55762291D01*
X133037603Y-55762290D01*
X132827952Y-55694172D01*
X132674508Y-55669869D01*
X132610222Y-55659687D01*
X132389778Y-55659687D01*
X132325492Y-55669869D01*
X132172047Y-55694172D01*
X131962396Y-55762290D01*
X131962393Y-55762291D01*
X131765974Y-55862374D01*
X131587641Y-55991939D01*
X131587636Y-55991943D01*
X131431754Y-56147825D01*
X131351295Y-56258571D01*
X131295965Y-56301238D01*
X131250976Y-56309687D01*
X127443987Y-56309687D01*
X127376948Y-56290002D01*
X127343669Y-56258573D01*
X127343668Y-56258571D01*
X127328521Y-56237723D01*
X127188004Y-56097206D01*
X127027234Y-55980400D01*
X127010636Y-55971943D01*
X126850172Y-55890181D01*
X126850169Y-55890180D01*
X126661177Y-55828774D01*
X126563038Y-55813230D01*
X126464901Y-55797687D01*
X125890179Y-55797687D01*
X125824754Y-55808049D01*
X125693902Y-55828774D01*
X125504910Y-55890180D01*
X125504907Y-55890181D01*
X125327845Y-55980400D01*
X125167073Y-56097208D01*
X125026561Y-56237720D01*
X124909753Y-56398492D01*
X124819534Y-56575554D01*
X124819533Y-56575557D01*
X124758127Y-56764549D01*
X124727040Y-56960826D01*
X124727040Y-57159547D01*
X124758127Y-57355824D01*
X124819533Y-57544816D01*
X124819534Y-57544819D01*
X124885830Y-57674930D01*
X124909753Y-57721881D01*
X125026559Y-57882651D01*
X125167076Y-58023168D01*
X125327846Y-58139974D01*
X125446372Y-58200366D01*
X125484320Y-58219702D01*
X125535116Y-58267677D01*
X125551911Y-58335498D01*
X125529373Y-58401633D01*
X125484320Y-58440672D01*
X125327845Y-58520400D01*
X125167073Y-58637208D01*
X125026561Y-58777720D01*
X124909753Y-58938492D01*
X124819534Y-59115554D01*
X124819533Y-59115557D01*
X124758127Y-59304549D01*
X124727040Y-59500826D01*
X124727040Y-59699547D01*
X124758127Y-59895824D01*
X124819533Y-60084816D01*
X124819534Y-60084819D01*
X124874215Y-60192135D01*
X124909753Y-60261881D01*
X125026559Y-60422651D01*
X125167076Y-60563168D01*
X125327846Y-60679974D01*
X125446372Y-60740366D01*
X125484320Y-60759702D01*
X125535116Y-60807677D01*
X125551911Y-60875498D01*
X125529373Y-60941633D01*
X125484320Y-60980672D01*
X125327845Y-61060400D01*
X125167073Y-61177208D01*
X125026561Y-61317720D01*
X124909753Y-61478492D01*
X124819534Y-61655554D01*
X124819533Y-61655557D01*
X124758127Y-61844549D01*
X124758127Y-61844551D01*
X124727040Y-62040826D01*
X124727040Y-62239548D01*
X124742583Y-62337685D01*
X124758127Y-62435824D01*
X124819533Y-62624816D01*
X124819534Y-62624819D01*
X124890804Y-62764692D01*
X124909753Y-62801881D01*
X125026559Y-62962651D01*
X125167076Y-63103168D01*
X125327846Y-63219974D01*
X125446372Y-63280366D01*
X125484320Y-63299702D01*
X125535116Y-63347677D01*
X125551911Y-63415498D01*
X125529373Y-63481633D01*
X125484320Y-63520672D01*
X125327845Y-63600400D01*
X125167073Y-63717208D01*
X125026561Y-63857720D01*
X124909753Y-64018492D01*
X124819534Y-64195554D01*
X124819533Y-64195557D01*
X124758127Y-64384549D01*
X124727040Y-64580826D01*
X124727040Y-64779547D01*
X124758127Y-64975824D01*
X124819533Y-65164816D01*
X124819534Y-65164819D01*
X124884130Y-65291593D01*
X124909753Y-65341881D01*
X125026559Y-65502651D01*
X125167076Y-65643168D01*
X125327846Y-65759974D01*
X125439504Y-65816867D01*
X125484320Y-65839702D01*
X125535116Y-65887677D01*
X125551911Y-65955498D01*
X125529373Y-66021633D01*
X125484320Y-66060672D01*
X125327845Y-66140400D01*
X125167073Y-66257208D01*
X125026561Y-66397720D01*
X124909753Y-66558492D01*
X124819534Y-66735554D01*
X124819533Y-66735557D01*
X124758127Y-66924549D01*
X124727040Y-67120826D01*
X124727040Y-67319547D01*
X124758127Y-67515824D01*
X124819533Y-67704816D01*
X124819534Y-67704819D01*
X124874215Y-67812135D01*
X124909753Y-67881881D01*
X125026559Y-68042651D01*
X125167076Y-68183168D01*
X125327846Y-68299974D01*
X125446372Y-68360366D01*
X125484320Y-68379702D01*
X125535116Y-68427677D01*
X125551911Y-68495498D01*
X125529373Y-68561633D01*
X125484320Y-68600672D01*
X125327845Y-68680400D01*
X125167073Y-68797208D01*
X125026561Y-68937720D01*
X124909753Y-69098492D01*
X124819534Y-69275554D01*
X124819533Y-69275557D01*
X124758127Y-69464549D01*
X124727040Y-69660826D01*
X124727040Y-69859547D01*
X124758127Y-70055824D01*
X124819533Y-70244816D01*
X124819534Y-70244819D01*
X124868741Y-70341391D01*
X124909753Y-70421881D01*
X125026559Y-70582651D01*
X125167076Y-70723168D01*
X125327846Y-70839974D01*
X125446372Y-70900366D01*
X125484320Y-70919702D01*
X125535116Y-70967677D01*
X125551911Y-71035498D01*
X125529373Y-71101633D01*
X125484320Y-71140672D01*
X125327845Y-71220400D01*
X125167073Y-71337208D01*
X125026561Y-71477720D01*
X124909753Y-71638492D01*
X124819534Y-71815554D01*
X124819533Y-71815557D01*
X124758127Y-72004549D01*
X124727040Y-72200826D01*
X124727040Y-72399547D01*
X124758127Y-72595824D01*
X124819533Y-72784816D01*
X124819534Y-72784819D01*
X124868741Y-72881391D01*
X124909753Y-72961881D01*
X125026559Y-73122651D01*
X125167076Y-73263168D01*
X125327846Y-73379974D01*
X125446372Y-73440366D01*
X125484320Y-73459702D01*
X125535116Y-73507677D01*
X125551911Y-73575498D01*
X125529373Y-73641633D01*
X125484320Y-73680672D01*
X125327845Y-73760400D01*
X125167073Y-73877208D01*
X125026561Y-74017720D01*
X124909753Y-74178492D01*
X124819534Y-74355554D01*
X124819533Y-74355557D01*
X124758127Y-74544549D01*
X124727040Y-74740826D01*
X124727040Y-74939547D01*
X124758127Y-75135824D01*
X124819533Y-75324816D01*
X124819534Y-75324819D01*
X124868741Y-75421391D01*
X124909753Y-75501881D01*
X125026559Y-75662651D01*
X125167076Y-75803168D01*
X125327846Y-75919974D01*
X125446372Y-75980366D01*
X125484320Y-75999702D01*
X125535116Y-76047677D01*
X125551911Y-76115498D01*
X125529373Y-76181633D01*
X125484320Y-76220672D01*
X125327845Y-76300400D01*
X125167073Y-76417208D01*
X125026561Y-76557720D01*
X124909753Y-76718492D01*
X124819534Y-76895554D01*
X124819533Y-76895557D01*
X124758127Y-77084549D01*
X124748633Y-77144493D01*
X124727040Y-77280826D01*
X124727040Y-77479548D01*
X124727706Y-77483751D01*
X124758127Y-77675824D01*
X124819533Y-77864816D01*
X124819534Y-77864819D01*
X124868741Y-77961391D01*
X124909753Y-78041881D01*
X125026559Y-78202651D01*
X125167076Y-78343168D01*
X125327846Y-78459974D01*
X125446372Y-78520366D01*
X125484320Y-78539702D01*
X125535116Y-78587677D01*
X125551911Y-78655498D01*
X125529373Y-78721633D01*
X125484320Y-78760672D01*
X125327845Y-78840400D01*
X125167073Y-78957208D01*
X125026561Y-79097720D01*
X124909753Y-79258492D01*
X124819534Y-79435554D01*
X124819533Y-79435557D01*
X124758127Y-79624549D01*
X124727040Y-79820826D01*
X124727040Y-80019547D01*
X124758127Y-80215824D01*
X124819533Y-80404816D01*
X124819534Y-80404819D01*
X124868741Y-80501391D01*
X124909753Y-80581881D01*
X125026559Y-80742651D01*
X125167076Y-80883168D01*
X125327846Y-80999974D01*
X125422186Y-81048043D01*
X125484320Y-81079702D01*
X125535116Y-81127677D01*
X125551911Y-81195498D01*
X125529373Y-81261633D01*
X125484320Y-81300672D01*
X125327845Y-81380400D01*
X125167073Y-81497208D01*
X125026561Y-81637720D01*
X124909753Y-81798492D01*
X124819534Y-81975554D01*
X124819533Y-81975557D01*
X124758127Y-82164549D01*
X124727040Y-82360826D01*
X124727040Y-82559547D01*
X124758127Y-82755824D01*
X124819533Y-82944816D01*
X124819534Y-82944819D01*
X124868741Y-83041391D01*
X124909753Y-83121881D01*
X125026559Y-83282651D01*
X125167076Y-83423168D01*
X125327846Y-83539974D01*
X125446372Y-83600366D01*
X125484320Y-83619702D01*
X125535116Y-83667677D01*
X125551911Y-83735498D01*
X125529373Y-83801633D01*
X125484320Y-83840672D01*
X125327845Y-83920400D01*
X125167073Y-84037208D01*
X125026561Y-84177720D01*
X124909753Y-84338492D01*
X124819534Y-84515554D01*
X124819533Y-84515557D01*
X124758127Y-84704549D01*
X124727040Y-84900826D01*
X124727040Y-85099547D01*
X124758127Y-85295824D01*
X124819533Y-85484816D01*
X124819534Y-85484819D01*
X124884999Y-85613299D01*
X124909753Y-85661881D01*
X125026559Y-85822651D01*
X125167076Y-85963168D01*
X125327846Y-86079974D01*
X125384585Y-86108884D01*
X125484320Y-86159702D01*
X125535116Y-86207677D01*
X125551911Y-86275498D01*
X125529373Y-86341633D01*
X125484320Y-86380672D01*
X125327845Y-86460400D01*
X125167073Y-86577208D01*
X125026561Y-86717720D01*
X124909753Y-86878492D01*
X124819534Y-87055554D01*
X124819533Y-87055557D01*
X124758127Y-87244549D01*
X124727040Y-87440826D01*
X124727040Y-87639547D01*
X124758127Y-87835824D01*
X124819533Y-88024816D01*
X124819534Y-88024819D01*
X124855005Y-88094433D01*
X124909753Y-88201881D01*
X125026559Y-88362651D01*
X125026561Y-88362653D01*
X125144445Y-88480537D01*
X125177930Y-88541860D01*
X125172946Y-88611552D01*
X125131074Y-88667485D01*
X125065610Y-88691902D01*
X125056255Y-88692217D01*
X103178991Y-88602334D01*
X103112033Y-88582374D01*
X103066495Y-88529383D01*
X103055500Y-88478335D01*
X103055500Y-86377514D01*
X103055499Y-86377505D01*
X103051629Y-86341633D01*
X103043866Y-86269686D01*
X103032582Y-86218004D01*
X102998219Y-86115149D01*
X102920250Y-85994226D01*
X102874416Y-85941491D01*
X102874413Y-85941488D01*
X102840912Y-85912548D01*
X102811696Y-85887309D01*
X102765534Y-85847431D01*
X102711060Y-85822653D01*
X102634572Y-85787862D01*
X102634569Y-85787861D01*
X102634565Y-85787859D01*
X102619538Y-85783471D01*
X102578192Y-85771398D01*
X102571781Y-85768884D01*
X102425054Y-85748015D01*
X102425045Y-85748014D01*
X101119135Y-85749990D01*
X101079846Y-85751578D01*
X101079833Y-85751578D01*
X101079833Y-85751579D01*
X101060663Y-85753102D01*
X101039131Y-85755660D01*
X101033567Y-85756321D01*
X101018942Y-85757187D01*
X100533844Y-85757187D01*
X100519316Y-85756333D01*
X100500113Y-85754067D01*
X100480569Y-85752544D01*
X100440522Y-85751016D01*
X99373039Y-85752631D01*
X99265964Y-85764266D01*
X99214662Y-85775469D01*
X99214654Y-85775471D01*
X99112498Y-85809516D01*
X99112492Y-85809519D01*
X98991462Y-85887301D01*
X98991451Y-85887309D01*
X98938659Y-85933053D01*
X98844433Y-86041794D01*
X98844430Y-86041798D01*
X98784664Y-86172664D01*
X98764976Y-86239712D01*
X98759831Y-86275498D01*
X98745115Y-86377856D01*
X98744500Y-86382131D01*
X98744500Y-86645687D01*
X98724815Y-86712726D01*
X98672011Y-86758481D01*
X98620500Y-86769687D01*
X96024499Y-86769687D01*
X95957460Y-86750002D01*
X95911705Y-86697198D01*
X95900499Y-86645687D01*
X95900499Y-86572316D01*
X95900498Y-86572310D01*
X95894091Y-86512703D01*
X95843797Y-86377858D01*
X95843793Y-86377851D01*
X95757547Y-86262642D01*
X95757544Y-86262639D01*
X95642335Y-86176393D01*
X95642328Y-86176389D01*
X95507482Y-86126095D01*
X95507483Y-86126095D01*
X95447883Y-86119688D01*
X95447881Y-86119687D01*
X95447873Y-86119687D01*
X95447864Y-86119687D01*
X93552129Y-86119687D01*
X93552123Y-86119688D01*
X93492516Y-86126095D01*
X93357671Y-86176389D01*
X93357664Y-86176393D01*
X93242455Y-86262639D01*
X93228766Y-86280926D01*
X93172832Y-86322796D01*
X93103140Y-86327780D01*
X93041818Y-86294294D01*
X93008333Y-86232970D01*
X93005500Y-86206614D01*
X93005500Y-83108430D01*
X93025185Y-83041391D01*
X93077989Y-82995636D01*
X93147147Y-82985692D01*
X93210703Y-83014717D01*
X93239983Y-83052133D01*
X93275522Y-83121881D01*
X93302187Y-83174212D01*
X93431752Y-83352545D01*
X93431756Y-83352550D01*
X93587636Y-83508430D01*
X93587641Y-83508434D01*
X93631053Y-83539974D01*
X93765978Y-83638002D01*
X93871167Y-83691599D01*
X93962393Y-83738082D01*
X93962396Y-83738083D01*
X94013884Y-83754812D01*
X94172049Y-83806202D01*
X94389778Y-83840687D01*
X94389779Y-83840687D01*
X94610221Y-83840687D01*
X94610222Y-83840687D01*
X94827951Y-83806202D01*
X95037606Y-83738082D01*
X95234022Y-83638002D01*
X95412365Y-83508429D01*
X95568242Y-83352552D01*
X95648705Y-83241802D01*
X95704035Y-83199136D01*
X95749024Y-83190687D01*
X99496562Y-83190687D01*
X99563601Y-83210372D01*
X99596878Y-83241799D01*
X99626559Y-83282651D01*
X99767076Y-83423168D01*
X99927846Y-83539974D01*
X100014689Y-83584222D01*
X100104907Y-83630192D01*
X100104910Y-83630193D01*
X100199406Y-83660896D01*
X100293904Y-83691600D01*
X100490179Y-83722687D01*
X100490180Y-83722687D01*
X101064900Y-83722687D01*
X101064901Y-83722687D01*
X101261176Y-83691600D01*
X101450172Y-83630192D01*
X101627234Y-83539974D01*
X101788004Y-83423168D01*
X101928521Y-83282651D01*
X102045327Y-83121881D01*
X102135545Y-82944819D01*
X102196953Y-82755823D01*
X102228040Y-82559548D01*
X102228040Y-82360826D01*
X102196953Y-82164551D01*
X102135545Y-81975555D01*
X102135545Y-81975554D01*
X102060483Y-81828238D01*
X102045327Y-81798493D01*
X101928521Y-81637723D01*
X101788004Y-81497206D01*
X101627234Y-81380400D01*
X101470758Y-81300671D01*
X101419963Y-81252697D01*
X101403168Y-81184876D01*
X101425705Y-81118741D01*
X101470758Y-81079702D01*
X101627234Y-80999974D01*
X101788004Y-80883168D01*
X101928521Y-80742651D01*
X102045327Y-80581881D01*
X102135545Y-80404819D01*
X102196953Y-80215823D01*
X102228040Y-80019548D01*
X102228040Y-79820826D01*
X102196953Y-79624551D01*
X102135545Y-79435555D01*
X102135545Y-79435554D01*
X102060483Y-79288238D01*
X102045327Y-79258493D01*
X101928521Y-79097723D01*
X101788004Y-78957206D01*
X101627234Y-78840400D01*
X101470758Y-78760671D01*
X101419963Y-78712697D01*
X101403168Y-78644876D01*
X101425705Y-78578741D01*
X101470758Y-78539702D01*
X101627234Y-78459974D01*
X101788004Y-78343168D01*
X101928521Y-78202651D01*
X102045327Y-78041881D01*
X102135545Y-77864819D01*
X102196953Y-77675823D01*
X102228040Y-77479548D01*
X102228040Y-77280826D01*
X102196953Y-77084551D01*
X102135545Y-76895555D01*
X102135545Y-76895554D01*
X102060483Y-76748238D01*
X102045327Y-76718493D01*
X101928521Y-76557723D01*
X101788004Y-76417206D01*
X101627234Y-76300400D01*
X101470758Y-76220671D01*
X101419963Y-76172697D01*
X101403168Y-76104876D01*
X101425705Y-76038741D01*
X101470758Y-75999702D01*
X101627234Y-75919974D01*
X101788004Y-75803168D01*
X101928521Y-75662651D01*
X102045327Y-75501881D01*
X102135545Y-75324819D01*
X102196953Y-75135823D01*
X102228040Y-74939548D01*
X102228040Y-74740826D01*
X102196953Y-74544551D01*
X102135545Y-74355555D01*
X102135545Y-74355554D01*
X102060483Y-74208238D01*
X102045327Y-74178493D01*
X101928521Y-74017723D01*
X101788004Y-73877206D01*
X101627234Y-73760400D01*
X101470758Y-73680671D01*
X101419963Y-73632697D01*
X101403168Y-73564876D01*
X101425705Y-73498741D01*
X101470758Y-73459702D01*
X101627234Y-73379974D01*
X101788004Y-73263168D01*
X101928521Y-73122651D01*
X102045327Y-72961881D01*
X102135545Y-72784819D01*
X102196953Y-72595823D01*
X102228040Y-72399548D01*
X102228040Y-72200826D01*
X102196953Y-72004551D01*
X102135545Y-71815555D01*
X102135545Y-71815554D01*
X102060483Y-71668238D01*
X102045327Y-71638493D01*
X101928521Y-71477723D01*
X101788004Y-71337206D01*
X101627234Y-71220400D01*
X101470758Y-71140671D01*
X101419963Y-71092697D01*
X101403168Y-71024876D01*
X101425705Y-70958741D01*
X101470758Y-70919702D01*
X101627234Y-70839974D01*
X101788004Y-70723168D01*
X101928521Y-70582651D01*
X102045327Y-70421881D01*
X102135545Y-70244819D01*
X102196953Y-70055823D01*
X102228040Y-69859548D01*
X102228040Y-69660826D01*
X102196953Y-69464551D01*
X102135545Y-69275555D01*
X102135545Y-69275554D01*
X102060483Y-69128238D01*
X102045327Y-69098493D01*
X101928521Y-68937723D01*
X101788004Y-68797206D01*
X101627234Y-68680400D01*
X101470758Y-68600671D01*
X101419963Y-68552697D01*
X101403168Y-68484876D01*
X101425705Y-68418741D01*
X101470758Y-68379702D01*
X101627234Y-68299974D01*
X101788004Y-68183168D01*
X101928521Y-68042651D01*
X102045327Y-67881881D01*
X102135545Y-67704819D01*
X102196953Y-67515823D01*
X102228040Y-67319548D01*
X102228040Y-67120826D01*
X102196953Y-66924551D01*
X102151178Y-66783668D01*
X102135546Y-66735557D01*
X102135545Y-66735554D01*
X102060483Y-66588238D01*
X102045327Y-66558493D01*
X101928521Y-66397723D01*
X101788004Y-66257206D01*
X101627234Y-66140400D01*
X101470758Y-66060671D01*
X101419963Y-66012697D01*
X101403168Y-65944876D01*
X101425705Y-65878741D01*
X101470758Y-65839702D01*
X101627234Y-65759974D01*
X101788004Y-65643168D01*
X101928521Y-65502651D01*
X102045327Y-65341881D01*
X102135545Y-65164819D01*
X102196953Y-64975823D01*
X102228040Y-64779548D01*
X102228040Y-64580826D01*
X102196953Y-64384551D01*
X102135545Y-64195555D01*
X102135545Y-64195554D01*
X102060483Y-64048238D01*
X102045327Y-64018493D01*
X101928521Y-63857723D01*
X101788004Y-63717206D01*
X101627234Y-63600400D01*
X101470758Y-63520671D01*
X101419963Y-63472697D01*
X101403168Y-63404876D01*
X101425705Y-63338741D01*
X101470758Y-63299702D01*
X101627234Y-63219974D01*
X101788004Y-63103168D01*
X101928521Y-62962651D01*
X102045327Y-62801881D01*
X102135545Y-62624819D01*
X102196953Y-62435823D01*
X102228040Y-62239548D01*
X102228040Y-62040826D01*
X102196953Y-61844551D01*
X102135545Y-61655555D01*
X102135545Y-61655554D01*
X102060483Y-61508238D01*
X102045327Y-61478493D01*
X101928521Y-61317723D01*
X101788004Y-61177206D01*
X101627234Y-61060400D01*
X101470758Y-60980671D01*
X101419963Y-60932697D01*
X101403168Y-60864876D01*
X101425705Y-60798741D01*
X101470758Y-60759702D01*
X101627234Y-60679974D01*
X101788004Y-60563168D01*
X101928521Y-60422651D01*
X102045327Y-60261881D01*
X102135545Y-60084819D01*
X102196953Y-59895823D01*
X102228040Y-59699548D01*
X102228040Y-59500826D01*
X102196953Y-59304551D01*
X102135545Y-59115555D01*
X102135545Y-59115554D01*
X102060483Y-58968238D01*
X102045327Y-58938493D01*
X101928521Y-58777723D01*
X101788004Y-58637206D01*
X101627234Y-58520400D01*
X101470758Y-58440671D01*
X101419963Y-58392697D01*
X101403168Y-58324876D01*
X101425705Y-58258741D01*
X101470758Y-58219702D01*
X101627234Y-58139974D01*
X101788004Y-58023168D01*
X101928521Y-57882651D01*
X102045327Y-57721881D01*
X102135545Y-57544819D01*
X102196953Y-57355823D01*
X102228040Y-57159548D01*
X102228040Y-56960826D01*
X102196953Y-56764551D01*
X102135545Y-56575555D01*
X102135545Y-56575554D01*
X102045326Y-56398492D01*
X101928521Y-56237723D01*
X101788004Y-56097206D01*
X101627234Y-55980400D01*
X101470758Y-55900671D01*
X101419963Y-55852697D01*
X101403168Y-55784876D01*
X101425705Y-55718741D01*
X101470758Y-55679702D01*
X101627234Y-55599974D01*
X101788004Y-55483168D01*
X101928521Y-55342651D01*
X102045327Y-55181881D01*
X102135545Y-55004819D01*
X102196953Y-54815823D01*
X102228040Y-54619548D01*
X102228040Y-54420826D01*
X102196953Y-54224551D01*
X102135545Y-54035555D01*
X102135545Y-54035554D01*
X102045326Y-53858492D01*
X101928521Y-53697723D01*
X101788004Y-53557206D01*
X101627234Y-53440400D01*
X101470758Y-53360671D01*
X101419963Y-53312697D01*
X101403168Y-53244876D01*
X101425705Y-53178741D01*
X101470758Y-53139702D01*
X101627234Y-53059974D01*
X101788004Y-52943168D01*
X101928521Y-52802651D01*
X102045327Y-52641881D01*
X102135545Y-52464819D01*
X102196953Y-52275823D01*
X102228040Y-52079548D01*
X102228040Y-51880826D01*
X124727040Y-51880826D01*
X124727040Y-52079547D01*
X124758127Y-52275824D01*
X124819533Y-52464816D01*
X124819534Y-52464819D01*
X124909753Y-52641881D01*
X125026559Y-52802651D01*
X125167076Y-52943168D01*
X125327846Y-53059974D01*
X125414689Y-53104222D01*
X125504907Y-53150192D01*
X125504910Y-53150193D01*
X125599406Y-53180896D01*
X125693904Y-53211600D01*
X125890179Y-53242687D01*
X125890180Y-53242687D01*
X126464900Y-53242687D01*
X126464901Y-53242687D01*
X126661176Y-53211600D01*
X126850172Y-53150192D01*
X127027234Y-53059974D01*
X127188004Y-52943168D01*
X127328521Y-52802651D01*
X127343669Y-52781800D01*
X127399000Y-52739136D01*
X127443987Y-52730687D01*
X130975501Y-52730687D01*
X131042540Y-52750372D01*
X131088295Y-52803176D01*
X131099501Y-52854687D01*
X131099501Y-52928063D01*
X131105908Y-52987670D01*
X131156202Y-53122515D01*
X131156206Y-53122522D01*
X131242452Y-53237731D01*
X131242455Y-53237734D01*
X131357664Y-53323980D01*
X131357671Y-53323984D01*
X131492517Y-53374278D01*
X131492516Y-53374278D01*
X131499444Y-53375022D01*
X131552127Y-53380687D01*
X133447872Y-53380686D01*
X133507483Y-53374278D01*
X133642331Y-53323983D01*
X133757546Y-53237733D01*
X133843796Y-53122518D01*
X133894091Y-52987670D01*
X133900500Y-52928060D01*
X133900499Y-51032315D01*
X133894091Y-50972704D01*
X133867123Y-50900400D01*
X133843797Y-50837858D01*
X133843793Y-50837851D01*
X133757547Y-50722642D01*
X133757544Y-50722639D01*
X133642335Y-50636393D01*
X133642328Y-50636389D01*
X133507482Y-50586095D01*
X133507483Y-50586095D01*
X133447883Y-50579688D01*
X133447881Y-50579687D01*
X133447873Y-50579687D01*
X133447864Y-50579687D01*
X131552129Y-50579687D01*
X131552123Y-50579688D01*
X131492516Y-50586095D01*
X131357671Y-50636389D01*
X131357664Y-50636393D01*
X131242455Y-50722639D01*
X131242452Y-50722642D01*
X131156206Y-50837851D01*
X131156202Y-50837858D01*
X131105908Y-50972704D01*
X131101124Y-51017206D01*
X131099501Y-51032310D01*
X131099500Y-51032322D01*
X131099500Y-51105687D01*
X131079815Y-51172726D01*
X131027011Y-51218481D01*
X130975500Y-51229687D01*
X127443987Y-51229687D01*
X127376948Y-51210002D01*
X127343669Y-51178573D01*
X127339421Y-51172726D01*
X127328521Y-51157723D01*
X127188004Y-51017206D01*
X127027234Y-50900400D01*
X127010636Y-50891943D01*
X126850172Y-50810181D01*
X126850169Y-50810180D01*
X126661177Y-50748774D01*
X126563038Y-50733230D01*
X126464901Y-50717687D01*
X125890179Y-50717687D01*
X125824754Y-50728049D01*
X125693902Y-50748774D01*
X125504910Y-50810180D01*
X125504907Y-50810181D01*
X125327845Y-50900400D01*
X125167073Y-51017208D01*
X125026561Y-51157720D01*
X124909753Y-51318492D01*
X124819534Y-51495554D01*
X124819533Y-51495557D01*
X124758127Y-51684549D01*
X124727040Y-51880826D01*
X102228040Y-51880826D01*
X102196953Y-51684551D01*
X102135545Y-51495555D01*
X102135545Y-51495554D01*
X102045326Y-51318492D01*
X101928521Y-51157723D01*
X101788004Y-51017206D01*
X101627234Y-50900400D01*
X101610636Y-50891943D01*
X101450172Y-50810181D01*
X101450169Y-50810180D01*
X101261177Y-50748774D01*
X101163038Y-50733230D01*
X101064901Y-50717687D01*
X100490179Y-50717687D01*
X100424754Y-50728049D01*
X100293902Y-50748774D01*
X100104910Y-50810180D01*
X100104907Y-50810181D01*
X99927845Y-50900400D01*
X99767073Y-51017208D01*
X99626558Y-51157723D01*
X99625941Y-51158574D01*
X99625623Y-51158818D01*
X99623395Y-51161428D01*
X99622846Y-51160959D01*
X99570610Y-51201239D01*
X99525624Y-51209687D01*
X95749024Y-51209687D01*
X95681985Y-51190002D01*
X95648705Y-51158571D01*
X95648087Y-51157721D01*
X95610283Y-51105687D01*
X95568245Y-51047825D01*
X95412363Y-50891943D01*
X95412358Y-50891939D01*
X95234025Y-50762374D01*
X95234024Y-50762373D01*
X95234022Y-50762372D01*
X95171096Y-50730309D01*
X95037606Y-50662291D01*
X95037603Y-50662290D01*
X94827952Y-50594172D01*
X94719086Y-50576929D01*
X94610222Y-50559687D01*
X94389778Y-50559687D01*
X94317201Y-50571182D01*
X94172047Y-50594172D01*
X93962396Y-50662290D01*
X93962393Y-50662291D01*
X93765974Y-50762374D01*
X93587641Y-50891939D01*
X93587636Y-50891943D01*
X93431756Y-51047823D01*
X93431752Y-51047828D01*
X93302187Y-51226161D01*
X93202104Y-51422580D01*
X93202103Y-51422583D01*
X93133985Y-51632234D01*
X93133985Y-51632236D01*
X93099500Y-51849965D01*
X93099500Y-52070409D01*
X93116742Y-52179273D01*
X93133985Y-52288139D01*
X93202103Y-52497790D01*
X93202104Y-52497793D01*
X93302187Y-52694212D01*
X93431752Y-52872545D01*
X93431756Y-52872550D01*
X93587636Y-53028430D01*
X93587641Y-53028434D01*
X93727254Y-53129869D01*
X93769920Y-53185199D01*
X93775899Y-53254812D01*
X93743293Y-53316607D01*
X93727254Y-53330505D01*
X93587641Y-53431939D01*
X93587636Y-53431943D01*
X93431756Y-53587823D01*
X93431752Y-53587828D01*
X93302187Y-53766161D01*
X93202104Y-53962580D01*
X93202103Y-53962583D01*
X93133985Y-54172234D01*
X93133985Y-54172236D01*
X93099500Y-54389965D01*
X93099500Y-54610409D01*
X93116742Y-54719273D01*
X93133985Y-54828139D01*
X93202103Y-55037790D01*
X93202104Y-55037793D01*
X93302187Y-55234212D01*
X93431752Y-55412545D01*
X93431756Y-55412550D01*
X93587636Y-55568430D01*
X93587641Y-55568434D01*
X93727254Y-55669869D01*
X93769920Y-55725199D01*
X93775899Y-55794812D01*
X93743293Y-55856607D01*
X93727254Y-55870505D01*
X93587641Y-55971939D01*
X93587636Y-55971943D01*
X93431756Y-56127823D01*
X93431752Y-56127828D01*
X93302187Y-56306161D01*
X93202104Y-56502580D01*
X93202103Y-56502583D01*
X93133985Y-56712234D01*
X93130817Y-56732236D01*
X93099500Y-56929965D01*
X93099500Y-57150409D01*
X93102668Y-57170408D01*
X93133985Y-57368139D01*
X93202103Y-57577790D01*
X93202104Y-57577793D01*
X93270122Y-57711283D01*
X93285499Y-57741462D01*
X93302187Y-57774212D01*
X93431752Y-57952545D01*
X93431756Y-57952550D01*
X93587636Y-58108430D01*
X93587641Y-58108434D01*
X93727254Y-58209869D01*
X93769920Y-58265199D01*
X93775899Y-58334812D01*
X93743293Y-58396607D01*
X93727254Y-58410505D01*
X93587641Y-58511939D01*
X93587636Y-58511943D01*
X93431756Y-58667823D01*
X93431752Y-58667828D01*
X93302187Y-58846161D01*
X93239985Y-58968238D01*
X93192010Y-59019034D01*
X93124189Y-59035829D01*
X93058054Y-59013291D01*
X93014603Y-58958576D01*
X93005500Y-58911943D01*
X93005500Y-58124010D01*
X93005500Y-58124000D01*
X92993947Y-58016544D01*
X92982741Y-57965033D01*
X92978585Y-57952545D01*
X92948616Y-57862502D01*
X92948613Y-57862496D01*
X92915317Y-57810687D01*
X92870825Y-57741457D01*
X92870820Y-57741451D01*
X92825076Y-57688659D01*
X92825072Y-57688656D01*
X92825070Y-57688653D01*
X92716336Y-57594433D01*
X92716333Y-57594431D01*
X92716331Y-57594430D01*
X92585465Y-57534664D01*
X92585460Y-57534662D01*
X92585459Y-57534662D01*
X92518420Y-57514977D01*
X92518422Y-57514977D01*
X92518417Y-57514976D01*
X92456347Y-57506052D01*
X92376000Y-57494500D01*
X83874000Y-57494500D01*
X83873991Y-57494500D01*
X83873990Y-57494501D01*
X83766549Y-57506052D01*
X83766537Y-57506054D01*
X83715027Y-57517260D01*
X83612502Y-57551383D01*
X83612496Y-57551386D01*
X83491462Y-57629171D01*
X83491451Y-57629179D01*
X83438659Y-57674923D01*
X83344433Y-57783664D01*
X83344430Y-57783668D01*
X83284664Y-57914534D01*
X83264976Y-57981582D01*
X83258997Y-58023168D01*
X83244500Y-58124000D01*
X83244500Y-62376000D01*
X83244501Y-62376009D01*
X83256052Y-62483450D01*
X83256054Y-62483462D01*
X83267260Y-62534972D01*
X83301383Y-62637497D01*
X83301386Y-62637503D01*
X83379171Y-62758537D01*
X83379179Y-62758548D01*
X83424923Y-62811340D01*
X83424926Y-62811343D01*
X83424930Y-62811347D01*
X83533664Y-62905567D01*
X83533667Y-62905568D01*
X83533668Y-62905569D01*
X83658661Y-62962653D01*
X83664541Y-62965338D01*
X83731580Y-62985023D01*
X83731584Y-62985024D01*
X83874000Y-63005500D01*
X83874003Y-63005500D01*
X85003316Y-63005500D01*
X85003322Y-63005500D01*
X85082404Y-62999276D01*
X85120720Y-62993207D01*
X85197846Y-62974690D01*
X85292864Y-62943816D01*
X85311754Y-62939280D01*
X85423859Y-62921525D01*
X85443247Y-62920000D01*
X85556746Y-62920000D01*
X85576129Y-62921524D01*
X85688243Y-62939281D01*
X85707143Y-62943819D01*
X85802153Y-62974690D01*
X85879281Y-62993207D01*
X85917598Y-62999276D01*
X85996678Y-63005500D01*
X87120500Y-63005500D01*
X87187539Y-63025185D01*
X87233294Y-63077989D01*
X87244500Y-63129500D01*
X87244500Y-66370500D01*
X87224815Y-66437539D01*
X87172011Y-66483294D01*
X87120500Y-66494500D01*
X83874000Y-66494500D01*
X83873991Y-66494500D01*
X83873990Y-66494501D01*
X83766549Y-66506052D01*
X83766537Y-66506054D01*
X83715027Y-66517260D01*
X83612502Y-66551383D01*
X83612496Y-66551386D01*
X83491462Y-66629171D01*
X83491451Y-66629179D01*
X83438659Y-66674923D01*
X83344433Y-66783664D01*
X83344430Y-66783668D01*
X83284664Y-66914534D01*
X83284662Y-66914541D01*
X83264977Y-66981580D01*
X83264976Y-66981584D01*
X83244500Y-67124000D01*
X83244500Y-70151000D01*
X83244501Y-70151009D01*
X83256052Y-70258450D01*
X83256054Y-70258462D01*
X83267260Y-70309972D01*
X83301383Y-70412497D01*
X83301386Y-70412503D01*
X83379171Y-70533537D01*
X83379179Y-70533548D01*
X83424923Y-70586340D01*
X83424926Y-70586343D01*
X83424930Y-70586347D01*
X83533664Y-70680567D01*
X83533667Y-70680568D01*
X83533668Y-70680569D01*
X83626944Y-70723168D01*
X83664541Y-70740338D01*
X83731580Y-70760023D01*
X83731584Y-70760024D01*
X83874000Y-70780500D01*
X83874003Y-70780500D01*
X85003316Y-70780500D01*
X85003322Y-70780500D01*
X85082404Y-70774276D01*
X85120720Y-70768207D01*
X85197846Y-70749690D01*
X85292864Y-70718816D01*
X85311754Y-70714280D01*
X85423859Y-70696525D01*
X85443247Y-70695000D01*
X85556746Y-70695000D01*
X85576129Y-70696524D01*
X85688243Y-70714281D01*
X85707143Y-70718819D01*
X85802153Y-70749690D01*
X85879281Y-70768207D01*
X85917598Y-70774276D01*
X85996678Y-70780500D01*
X86370500Y-70780500D01*
X86437539Y-70800185D01*
X86483294Y-70852989D01*
X86494500Y-70904500D01*
X86494500Y-78500500D01*
X86474815Y-78567539D01*
X86422011Y-78613294D01*
X86370500Y-78624500D01*
X85989089Y-78624500D01*
X85922050Y-78604815D01*
X85876295Y-78552011D01*
X85874528Y-78547953D01*
X85798046Y-78363309D01*
X85798041Y-78363299D01*
X85666924Y-78136196D01*
X85507281Y-77928148D01*
X85507274Y-77928140D01*
X85321860Y-77742726D01*
X85321851Y-77742718D01*
X85113803Y-77583075D01*
X84886700Y-77451958D01*
X84886690Y-77451953D01*
X84644428Y-77351605D01*
X84644421Y-77351603D01*
X84644419Y-77351602D01*
X84391116Y-77283730D01*
X84333339Y-77276123D01*
X84131127Y-77249500D01*
X84131120Y-77249500D01*
X83868880Y-77249500D01*
X83868872Y-77249500D01*
X83637772Y-77279926D01*
X83608884Y-77283730D01*
X83355581Y-77351602D01*
X83355571Y-77351605D01*
X83113309Y-77451953D01*
X83113299Y-77451958D01*
X82886196Y-77583075D01*
X82678148Y-77742718D01*
X82492718Y-77928148D01*
X82333075Y-78136196D01*
X82201958Y-78363299D01*
X82201953Y-78363309D01*
X82101605Y-78605571D01*
X82101602Y-78605581D01*
X82035590Y-78851945D01*
X82033730Y-78858885D01*
X81999500Y-79118872D01*
X81999500Y-79381127D01*
X82026123Y-79583339D01*
X82033730Y-79641116D01*
X82093050Y-79862502D01*
X82101602Y-79894418D01*
X82101605Y-79894428D01*
X82201953Y-80136690D01*
X82201958Y-80136700D01*
X82333075Y-80363803D01*
X82492718Y-80571851D01*
X82492726Y-80571860D01*
X82678140Y-80757274D01*
X82678148Y-80757281D01*
X82886196Y-80916924D01*
X83113299Y-81048041D01*
X83113309Y-81048046D01*
X83305556Y-81127677D01*
X83355581Y-81148398D01*
X83608884Y-81216270D01*
X83868880Y-81250500D01*
X83868887Y-81250500D01*
X84131113Y-81250500D01*
X84131120Y-81250500D01*
X84391116Y-81216270D01*
X84644419Y-81148398D01*
X84821340Y-81075114D01*
X84886690Y-81048046D01*
X84886691Y-81048045D01*
X84886697Y-81048043D01*
X85113803Y-80916924D01*
X85321851Y-80757282D01*
X85321855Y-80757277D01*
X85321860Y-80757274D01*
X85507274Y-80571860D01*
X85507277Y-80571855D01*
X85507282Y-80571851D01*
X85666924Y-80363803D01*
X85798043Y-80136697D01*
X85803302Y-80124000D01*
X85874528Y-79952047D01*
X85918369Y-79897644D01*
X85984663Y-79875579D01*
X85989089Y-79875500D01*
X86370500Y-79875500D01*
X86437539Y-79895185D01*
X86483294Y-79947989D01*
X86494500Y-79999500D01*
X86494500Y-101126000D01*
X86494501Y-101126009D01*
X86506052Y-101233450D01*
X86506054Y-101233462D01*
X86517260Y-101284972D01*
X86551383Y-101387497D01*
X86551386Y-101387503D01*
X86629171Y-101508537D01*
X86629179Y-101508548D01*
X86674923Y-101561340D01*
X86674926Y-101561343D01*
X86674930Y-101561347D01*
X86783664Y-101655567D01*
X86783667Y-101655568D01*
X86783668Y-101655569D01*
X86909274Y-101712933D01*
X86914541Y-101715338D01*
X86981580Y-101735023D01*
X86981584Y-101735024D01*
X87124000Y-101755500D01*
X87124003Y-101755500D01*
X95675490Y-101755500D01*
X95675500Y-101755500D01*
X95782956Y-101743947D01*
X95834467Y-101732741D01*
X95886484Y-101715427D01*
X95956304Y-101712933D01*
X96013322Y-101745401D01*
X96089707Y-101821786D01*
X96089711Y-101821789D01*
X96220814Y-101909390D01*
X96220827Y-101909397D01*
X96366498Y-101969735D01*
X96366503Y-101969737D01*
X96458317Y-101988000D01*
X96521153Y-102000499D01*
X96521156Y-102000500D01*
X96521158Y-102000500D01*
X96678843Y-102000500D01*
X96729703Y-101990383D01*
X96753895Y-101988000D01*
X98228752Y-101988000D01*
X98295791Y-102007685D01*
X98326531Y-102038997D01*
X98327807Y-102037989D01*
X98332287Y-102043655D01*
X98332288Y-102043656D01*
X98456344Y-102167712D01*
X98605666Y-102259814D01*
X98772203Y-102314999D01*
X98874991Y-102325500D01*
X99925008Y-102325499D01*
X99925016Y-102325498D01*
X99925019Y-102325498D01*
X99991997Y-102318656D01*
X100027797Y-102314999D01*
X100194334Y-102259814D01*
X100343656Y-102167712D01*
X100467712Y-102043656D01*
X100514671Y-101967523D01*
X100566619Y-101920798D01*
X100635581Y-101909575D01*
X100699664Y-101937419D01*
X100725749Y-101967523D01*
X100757288Y-102018656D01*
X100881344Y-102142712D01*
X100940596Y-102179258D01*
X100987321Y-102231204D01*
X100999500Y-102284797D01*
X100999500Y-102926533D01*
X100979815Y-102993572D01*
X100927011Y-103039327D01*
X100918836Y-103042714D01*
X100882665Y-103056205D01*
X100767455Y-103142452D01*
X100767452Y-103142455D01*
X100681206Y-103257664D01*
X100681202Y-103257671D01*
X100637445Y-103374992D01*
X100630909Y-103392517D01*
X100624500Y-103452127D01*
X100624501Y-104147872D01*
X100625401Y-104156241D01*
X100630909Y-104207484D01*
X100639929Y-104231670D01*
X100644911Y-104301361D01*
X100639929Y-104318330D01*
X100630910Y-104342512D01*
X100630909Y-104342515D01*
X100630909Y-104342517D01*
X100624500Y-104402127D01*
X100624500Y-104402128D01*
X100624500Y-104402132D01*
X100624500Y-105097870D01*
X100624501Y-105097876D01*
X100630909Y-105157484D01*
X100639929Y-105181670D01*
X100641754Y-105207212D01*
X100647539Y-105232158D01*
X100644552Y-105246351D01*
X100644911Y-105251361D01*
X100642614Y-105255567D01*
X100639929Y-105268330D01*
X100630909Y-105292515D01*
X100629126Y-105300062D01*
X100626994Y-105299558D01*
X100604512Y-105353817D01*
X100547114Y-105393658D01*
X100477289Y-105396143D01*
X100417204Y-105360483D01*
X100403659Y-105343045D01*
X100373398Y-105295960D01*
X100370923Y-105291016D01*
X100369705Y-105289830D01*
X100369165Y-105287503D01*
X100361535Y-105272259D01*
X100360071Y-105268334D01*
X100357996Y-105239332D01*
X100353923Y-105221766D01*
X100356269Y-105215201D01*
X100355085Y-105198642D01*
X100360066Y-105181677D01*
X100369091Y-105157483D01*
X100375500Y-105097873D01*
X100375499Y-104402128D01*
X100369214Y-104343657D01*
X100369091Y-104342516D01*
X100318797Y-104207671D01*
X100318793Y-104207664D01*
X100232547Y-104092455D01*
X100232544Y-104092452D01*
X100117335Y-104006206D01*
X100117328Y-104006202D01*
X99982482Y-103955908D01*
X99982483Y-103955908D01*
X99922883Y-103949501D01*
X99922881Y-103949500D01*
X99922873Y-103949500D01*
X99922864Y-103949500D01*
X98577129Y-103949500D01*
X98577123Y-103949501D01*
X98517516Y-103955908D01*
X98421604Y-103991682D01*
X98415974Y-103992697D01*
X98413206Y-103994477D01*
X98378271Y-103999500D01*
X98326538Y-103999500D01*
X98308892Y-103998238D01*
X98282894Y-103994500D01*
X98282893Y-103994500D01*
X98190597Y-103994500D01*
X98123558Y-103974815D01*
X98121814Y-103973674D01*
X96061707Y-102600269D01*
X96057887Y-102597746D01*
X96056271Y-102596690D01*
X96056247Y-102596674D01*
X96052792Y-102594433D01*
X95971458Y-102557288D01*
X95921918Y-102534663D01*
X95905731Y-102529910D01*
X95854876Y-102514977D01*
X95854878Y-102514977D01*
X95854873Y-102514976D01*
X95792643Y-102506029D01*
X95712456Y-102494500D01*
X89374000Y-102494500D01*
X89373991Y-102494500D01*
X89373990Y-102494501D01*
X89266549Y-102506052D01*
X89266537Y-102506054D01*
X89215027Y-102517260D01*
X89112502Y-102551383D01*
X89112496Y-102551386D01*
X88991462Y-102629171D01*
X88991451Y-102629179D01*
X88938659Y-102674923D01*
X88844433Y-102783664D01*
X88844430Y-102783668D01*
X88784664Y-102914534D01*
X88764976Y-102981582D01*
X88755445Y-103047872D01*
X88744500Y-103124000D01*
X88744500Y-105626000D01*
X88744501Y-105626009D01*
X88756052Y-105733450D01*
X88756054Y-105733462D01*
X88767260Y-105784972D01*
X88801383Y-105887497D01*
X88801386Y-105887503D01*
X88879171Y-106008537D01*
X88879179Y-106008548D01*
X88924923Y-106061340D01*
X88924926Y-106061343D01*
X88924930Y-106061347D01*
X89033664Y-106155567D01*
X89033667Y-106155568D01*
X89033668Y-106155569D01*
X89143894Y-106205909D01*
X89164541Y-106215338D01*
X89231580Y-106235023D01*
X89231584Y-106235024D01*
X89374000Y-106255500D01*
X89374003Y-106255500D01*
X95481796Y-106255500D01*
X95481802Y-106255500D01*
X95555214Y-106250141D01*
X95555228Y-106250139D01*
X95555230Y-106250139D01*
X95568898Y-106248132D01*
X95590845Y-106244911D01*
X95662687Y-106228951D01*
X97684871Y-105622294D01*
X97754737Y-105621885D01*
X97813736Y-105659315D01*
X97843132Y-105722699D01*
X97844500Y-105741065D01*
X97844500Y-107445919D01*
X97847397Y-107499967D01*
X97847397Y-107499968D01*
X97850229Y-107526301D01*
X97850232Y-107526328D01*
X97858885Y-107579724D01*
X97858885Y-107579726D01*
X97872636Y-107616592D01*
X97909168Y-107714536D01*
X97938825Y-107768849D01*
X97942653Y-107775859D01*
X97942654Y-107775861D01*
X98019829Y-107878955D01*
X98026100Y-107888167D01*
X98048715Y-107924831D01*
X98060883Y-107950926D01*
X98071238Y-107982176D01*
X98076888Y-108008560D01*
X98077124Y-108010867D01*
X98077768Y-108023486D01*
X98077768Y-109009349D01*
X98077125Y-109021958D01*
X98076890Y-109024257D01*
X98071239Y-109050652D01*
X98060882Y-109081907D01*
X98048715Y-109107999D01*
X98031520Y-109135877D01*
X98018231Y-109153642D01*
X97992717Y-109182045D01*
X97976073Y-109202700D01*
X97944433Y-109246578D01*
X97884663Y-109377452D01*
X97864976Y-109444497D01*
X97857587Y-109495892D01*
X97847407Y-109566700D01*
X97844500Y-109586916D01*
X97844500Y-109695919D01*
X97847397Y-109749965D01*
X97850231Y-109776323D01*
X97858871Y-109829659D01*
X97858874Y-109829669D01*
X97859712Y-109831917D01*
X97862808Y-109840220D01*
X97869998Y-109873265D01*
X97897939Y-109934448D01*
X97899492Y-109938613D01*
X97909136Y-109964481D01*
X97922417Y-109988810D01*
X97924542Y-109992702D01*
X97929768Y-110004143D01*
X97936591Y-110014761D01*
X97938715Y-110018649D01*
X97938715Y-110018650D01*
X97938718Y-110018655D01*
X97942648Y-110025852D01*
X97942655Y-110025862D01*
X98019833Y-110128960D01*
X98026105Y-110138174D01*
X98048715Y-110174831D01*
X98060881Y-110200922D01*
X98071238Y-110232176D01*
X98076890Y-110258566D01*
X98077009Y-110259735D01*
X98077125Y-110260864D01*
X98077768Y-110273479D01*
X98077768Y-111259349D01*
X98077125Y-111271958D01*
X98076890Y-111274257D01*
X98071239Y-111300652D01*
X98060882Y-111331907D01*
X98048715Y-111357999D01*
X98031520Y-111385877D01*
X98018231Y-111403642D01*
X97992717Y-111432045D01*
X97976073Y-111452700D01*
X97944433Y-111496578D01*
X97884663Y-111627452D01*
X97864976Y-111694497D01*
X97844500Y-111836916D01*
X97844500Y-111945919D01*
X97847397Y-111999965D01*
X97850231Y-112026323D01*
X97858871Y-112079659D01*
X97858874Y-112079669D01*
X97859712Y-112081917D01*
X97862808Y-112090220D01*
X97869998Y-112123265D01*
X97897939Y-112184448D01*
X97899492Y-112188613D01*
X97909136Y-112214481D01*
X97922417Y-112238810D01*
X97924542Y-112242702D01*
X97929768Y-112254143D01*
X97936591Y-112264761D01*
X97938715Y-112268649D01*
X97938715Y-112268650D01*
X97938718Y-112268655D01*
X97942648Y-112275852D01*
X97942655Y-112275862D01*
X98019833Y-112378960D01*
X98026105Y-112388174D01*
X98048715Y-112424831D01*
X98060881Y-112450922D01*
X98071238Y-112482176D01*
X98076890Y-112508566D01*
X98077125Y-112510864D01*
X98077768Y-112523479D01*
X98077768Y-113509349D01*
X98077125Y-113521958D01*
X98076890Y-113524257D01*
X98071239Y-113550652D01*
X98060882Y-113581907D01*
X98048715Y-113607999D01*
X98031520Y-113635877D01*
X98018231Y-113653642D01*
X97992717Y-113682045D01*
X97976073Y-113702700D01*
X97944433Y-113746578D01*
X97884663Y-113877452D01*
X97884662Y-113877456D01*
X97864977Y-113944495D01*
X97864976Y-113944499D01*
X97844500Y-114086915D01*
X97844500Y-115026000D01*
X97844501Y-115026009D01*
X97856052Y-115133450D01*
X97856054Y-115133462D01*
X97867260Y-115184972D01*
X97901383Y-115287497D01*
X97901386Y-115287503D01*
X97979171Y-115408537D01*
X97979179Y-115408548D01*
X98024923Y-115461340D01*
X98024926Y-115461343D01*
X98024930Y-115461347D01*
X98133664Y-115555567D01*
X98133667Y-115555568D01*
X98133668Y-115555569D01*
X98264536Y-115615336D01*
X98264537Y-115615336D01*
X98264541Y-115615338D01*
X98305436Y-115627346D01*
X98364214Y-115665121D01*
X98393238Y-115728677D01*
X98394500Y-115746323D01*
X98394500Y-124125500D01*
X98374815Y-124192539D01*
X98322011Y-124238294D01*
X98270500Y-124249500D01*
X84003051Y-124249500D01*
X83996968Y-124249351D01*
X83976900Y-124248365D01*
X83663071Y-124232947D01*
X83650962Y-124231754D01*
X83323305Y-124183151D01*
X83311369Y-124180777D01*
X82990055Y-124100292D01*
X82978411Y-124096759D01*
X82666540Y-123985170D01*
X82655301Y-123980515D01*
X82355844Y-123838883D01*
X82345121Y-123833150D01*
X82061011Y-123662862D01*
X82050893Y-123656102D01*
X81784829Y-123458775D01*
X81775423Y-123451055D01*
X81736475Y-123415755D01*
X81529986Y-123228604D01*
X81521395Y-123220013D01*
X81298944Y-122974576D01*
X81291224Y-122965170D01*
X81241702Y-122898397D01*
X81093895Y-122699103D01*
X81087137Y-122688988D01*
X80916844Y-122404871D01*
X80911120Y-122394163D01*
X80769479Y-122094688D01*
X80764829Y-122083459D01*
X80756548Y-122060316D01*
X80653240Y-121771588D01*
X80649707Y-121759944D01*
X80620772Y-121644428D01*
X80569219Y-121438617D01*
X80566848Y-121426694D01*
X80518245Y-121099037D01*
X80517052Y-121086927D01*
X80508507Y-120912997D01*
X80500649Y-120753032D01*
X80500500Y-120746948D01*
X80500500Y-119615186D01*
X82599500Y-119615186D01*
X82599500Y-119884813D01*
X82629686Y-120152719D01*
X82629688Y-120152731D01*
X82689684Y-120415594D01*
X82689687Y-120415602D01*
X82778734Y-120670082D01*
X82895714Y-120912994D01*
X82895716Y-120912997D01*
X83039162Y-121141289D01*
X83207266Y-121352085D01*
X83397915Y-121542734D01*
X83608711Y-121710838D01*
X83837003Y-121854284D01*
X84079921Y-121971267D01*
X84271049Y-122038145D01*
X84334397Y-122060312D01*
X84334405Y-122060315D01*
X84334408Y-122060315D01*
X84334409Y-122060316D01*
X84597268Y-122120312D01*
X84865187Y-122150499D01*
X84865188Y-122150500D01*
X84865191Y-122150500D01*
X85134812Y-122150500D01*
X85134812Y-122150499D01*
X85402732Y-122120312D01*
X85665591Y-122060316D01*
X85920079Y-121971267D01*
X86162997Y-121854284D01*
X86391289Y-121710838D01*
X86602085Y-121542734D01*
X86792734Y-121352085D01*
X86960838Y-121141289D01*
X87104284Y-120912997D01*
X87221267Y-120670079D01*
X87310316Y-120415591D01*
X87370312Y-120152732D01*
X87400500Y-119884809D01*
X87400500Y-119615191D01*
X87370312Y-119347268D01*
X87310316Y-119084409D01*
X87221267Y-118829921D01*
X87104284Y-118587003D01*
X86960838Y-118358711D01*
X86792734Y-118147915D01*
X86602085Y-117957266D01*
X86391289Y-117789162D01*
X86162997Y-117645716D01*
X86162994Y-117645714D01*
X85920082Y-117528734D01*
X85665602Y-117439687D01*
X85665594Y-117439684D01*
X85468446Y-117394687D01*
X85402732Y-117379688D01*
X85402728Y-117379687D01*
X85402719Y-117379686D01*
X85134813Y-117349500D01*
X85134809Y-117349500D01*
X84865191Y-117349500D01*
X84865186Y-117349500D01*
X84597280Y-117379686D01*
X84597268Y-117379688D01*
X84334405Y-117439684D01*
X84334397Y-117439687D01*
X84079917Y-117528734D01*
X83837005Y-117645714D01*
X83608712Y-117789161D01*
X83397915Y-117957265D01*
X83207265Y-118147915D01*
X83039161Y-118358712D01*
X82895714Y-118587005D01*
X82778734Y-118829917D01*
X82689687Y-119084397D01*
X82689684Y-119084405D01*
X82629688Y-119347268D01*
X82629686Y-119347280D01*
X82599500Y-119615186D01*
X80500500Y-119615186D01*
X80500500Y-94118872D01*
X81749500Y-94118872D01*
X81749500Y-94381127D01*
X81769659Y-94534238D01*
X81783730Y-94641116D01*
X81851602Y-94894418D01*
X81851605Y-94894428D01*
X81951953Y-95136690D01*
X81951958Y-95136700D01*
X82083075Y-95363803D01*
X82242718Y-95571851D01*
X82242726Y-95571860D01*
X82428140Y-95757274D01*
X82428148Y-95757281D01*
X82428149Y-95757282D01*
X82456540Y-95779067D01*
X82636196Y-95916924D01*
X82863299Y-96048041D01*
X82863309Y-96048046D01*
X83105571Y-96148394D01*
X83105581Y-96148398D01*
X83358884Y-96216270D01*
X83618880Y-96250500D01*
X83618887Y-96250500D01*
X83881113Y-96250500D01*
X83881120Y-96250500D01*
X84141116Y-96216270D01*
X84394419Y-96148398D01*
X84636697Y-96048043D01*
X84863803Y-95916924D01*
X85071851Y-95757282D01*
X85071855Y-95757277D01*
X85071860Y-95757274D01*
X85257274Y-95571860D01*
X85257277Y-95571855D01*
X85257282Y-95571851D01*
X85416924Y-95363803D01*
X85548043Y-95136697D01*
X85648398Y-94894419D01*
X85716270Y-94641116D01*
X85750500Y-94381120D01*
X85750500Y-94118880D01*
X85716270Y-93858884D01*
X85648398Y-93605581D01*
X85630901Y-93563340D01*
X85548046Y-93363309D01*
X85548041Y-93363299D01*
X85416924Y-93136196D01*
X85257281Y-92928148D01*
X85257274Y-92928140D01*
X85071860Y-92742726D01*
X85071851Y-92742718D01*
X84863803Y-92583075D01*
X84636700Y-92451958D01*
X84636690Y-92451953D01*
X84394428Y-92351605D01*
X84394421Y-92351603D01*
X84394419Y-92351602D01*
X84141116Y-92283730D01*
X84083339Y-92276123D01*
X83881127Y-92249500D01*
X83881120Y-92249500D01*
X83618880Y-92249500D01*
X83618872Y-92249500D01*
X83387772Y-92279926D01*
X83358884Y-92283730D01*
X83221682Y-92320493D01*
X83105581Y-92351602D01*
X83105571Y-92351605D01*
X82863309Y-92451953D01*
X82863299Y-92451958D01*
X82636196Y-92583075D01*
X82428148Y-92742718D01*
X82242718Y-92928148D01*
X82083075Y-93136196D01*
X81951958Y-93363299D01*
X81951953Y-93363309D01*
X81851605Y-93605571D01*
X81851602Y-93605581D01*
X81801438Y-93792799D01*
X81783730Y-93858885D01*
X81749500Y-94118872D01*
X80500500Y-94118872D01*
X80500500Y-86368872D01*
X81999500Y-86368872D01*
X81999500Y-86631127D01*
X82019264Y-86781238D01*
X82033730Y-86891116D01*
X82077791Y-87055554D01*
X82101602Y-87144418D01*
X82101605Y-87144428D01*
X82201953Y-87386690D01*
X82201958Y-87386700D01*
X82333075Y-87613803D01*
X82492718Y-87821851D01*
X82492726Y-87821860D01*
X82678140Y-88007274D01*
X82678148Y-88007281D01*
X82678149Y-88007282D01*
X82713831Y-88034662D01*
X82886196Y-88166924D01*
X83113299Y-88298041D01*
X83113309Y-88298046D01*
X83355571Y-88398394D01*
X83355581Y-88398398D01*
X83608884Y-88466270D01*
X83833204Y-88495803D01*
X83868682Y-88500474D01*
X83868880Y-88500500D01*
X83868887Y-88500500D01*
X84131113Y-88500500D01*
X84131120Y-88500500D01*
X84391116Y-88466270D01*
X84644419Y-88398398D01*
X84856932Y-88310372D01*
X84886690Y-88298046D01*
X84886691Y-88298045D01*
X84886697Y-88298043D01*
X85113803Y-88166924D01*
X85321851Y-88007282D01*
X85321855Y-88007277D01*
X85321860Y-88007274D01*
X85507274Y-87821860D01*
X85507277Y-87821855D01*
X85507282Y-87821851D01*
X85666924Y-87613803D01*
X85798043Y-87386697D01*
X85898398Y-87144419D01*
X85966270Y-86891116D01*
X86000500Y-86631120D01*
X86000500Y-86368880D01*
X85966270Y-86108884D01*
X85898398Y-85855581D01*
X85895022Y-85847430D01*
X85798046Y-85613309D01*
X85798041Y-85613299D01*
X85666924Y-85386196D01*
X85507281Y-85178148D01*
X85507274Y-85178140D01*
X85321860Y-84992726D01*
X85321851Y-84992718D01*
X85113803Y-84833075D01*
X84886700Y-84701958D01*
X84886690Y-84701953D01*
X84644428Y-84601605D01*
X84644421Y-84601603D01*
X84644419Y-84601602D01*
X84391116Y-84533730D01*
X84333339Y-84526123D01*
X84131127Y-84499500D01*
X84131120Y-84499500D01*
X83868880Y-84499500D01*
X83868872Y-84499500D01*
X83637772Y-84529926D01*
X83608884Y-84533730D01*
X83355581Y-84601602D01*
X83355571Y-84601605D01*
X83113309Y-84701953D01*
X83113299Y-84701958D01*
X82886196Y-84833075D01*
X82678148Y-84992718D01*
X82492718Y-85178148D01*
X82333075Y-85386196D01*
X82201958Y-85613299D01*
X82201953Y-85613309D01*
X82101605Y-85855571D01*
X82101602Y-85855581D01*
X82041477Y-86079974D01*
X82033730Y-86108885D01*
X81999500Y-86368872D01*
X80500500Y-86368872D01*
X80500500Y-47615186D01*
X82599500Y-47615186D01*
X82599500Y-47884813D01*
X82629686Y-48152719D01*
X82629688Y-48152731D01*
X82689684Y-48415594D01*
X82689687Y-48415602D01*
X82778734Y-48670082D01*
X82895714Y-48912994D01*
X82895716Y-48912997D01*
X83039162Y-49141289D01*
X83207266Y-49352085D01*
X83397915Y-49542734D01*
X83608711Y-49710838D01*
X83837003Y-49854284D01*
X84079921Y-49971267D01*
X84271049Y-50038145D01*
X84334397Y-50060312D01*
X84334405Y-50060315D01*
X84334408Y-50060315D01*
X84334409Y-50060316D01*
X84597268Y-50120312D01*
X84865187Y-50150499D01*
X84865188Y-50150500D01*
X84865191Y-50150500D01*
X85134812Y-50150500D01*
X85134812Y-50150499D01*
X85402732Y-50120312D01*
X85665591Y-50060316D01*
X85920079Y-49971267D01*
X86162997Y-49854284D01*
X86391289Y-49710838D01*
X86602085Y-49542734D01*
X86792734Y-49352085D01*
X86960838Y-49141289D01*
X87104284Y-48912997D01*
X87221267Y-48670079D01*
X87310316Y-48415591D01*
X87370312Y-48152732D01*
X87400500Y-47884809D01*
X87400500Y-47615191D01*
X87400499Y-47615186D01*
X140599500Y-47615186D01*
X140599500Y-47884813D01*
X140629686Y-48152719D01*
X140629688Y-48152731D01*
X140689684Y-48415594D01*
X140689687Y-48415602D01*
X140778734Y-48670082D01*
X140895714Y-48912994D01*
X140895716Y-48912997D01*
X141039162Y-49141289D01*
X141207266Y-49352085D01*
X141397915Y-49542734D01*
X141608711Y-49710838D01*
X141837003Y-49854284D01*
X142079921Y-49971267D01*
X142271049Y-50038145D01*
X142334397Y-50060312D01*
X142334405Y-50060315D01*
X142334408Y-50060315D01*
X142334409Y-50060316D01*
X142597268Y-50120312D01*
X142865187Y-50150499D01*
X142865188Y-50150500D01*
X142865191Y-50150500D01*
X143134812Y-50150500D01*
X143134812Y-50150499D01*
X143402732Y-50120312D01*
X143665591Y-50060316D01*
X143920079Y-49971267D01*
X144162997Y-49854284D01*
X144391289Y-49710838D01*
X144602085Y-49542734D01*
X144792734Y-49352085D01*
X144960838Y-49141289D01*
X145104284Y-48912997D01*
X145221267Y-48670079D01*
X145310316Y-48415591D01*
X145370312Y-48152732D01*
X145400500Y-47884809D01*
X145400500Y-47615191D01*
X145370312Y-47347268D01*
X145310316Y-47084409D01*
X145221267Y-46829921D01*
X145104284Y-46587003D01*
X144960838Y-46358711D01*
X144792734Y-46147915D01*
X144602085Y-45957266D01*
X144391289Y-45789162D01*
X144162997Y-45645716D01*
X144162994Y-45645714D01*
X143920082Y-45528734D01*
X143665602Y-45439687D01*
X143665594Y-45439684D01*
X143468446Y-45394687D01*
X143402732Y-45379688D01*
X143402728Y-45379687D01*
X143402719Y-45379686D01*
X143134813Y-45349500D01*
X143134809Y-45349500D01*
X142865191Y-45349500D01*
X142865186Y-45349500D01*
X142597280Y-45379686D01*
X142597268Y-45379688D01*
X142334405Y-45439684D01*
X142334397Y-45439687D01*
X142079917Y-45528734D01*
X141837005Y-45645714D01*
X141608712Y-45789161D01*
X141397915Y-45957265D01*
X141207265Y-46147915D01*
X141039161Y-46358712D01*
X140895714Y-46587005D01*
X140778734Y-46829917D01*
X140689687Y-47084397D01*
X140689684Y-47084405D01*
X140629688Y-47347268D01*
X140629686Y-47347280D01*
X140599500Y-47615186D01*
X87400499Y-47615186D01*
X87370312Y-47347268D01*
X87310316Y-47084409D01*
X87221267Y-46829921D01*
X87104284Y-46587003D01*
X86960838Y-46358711D01*
X86792734Y-46147915D01*
X86602085Y-45957266D01*
X86391289Y-45789162D01*
X86162997Y-45645716D01*
X86162994Y-45645714D01*
X85920082Y-45528734D01*
X85665602Y-45439687D01*
X85665594Y-45439684D01*
X85468446Y-45394687D01*
X85402732Y-45379688D01*
X85402728Y-45379687D01*
X85402719Y-45379686D01*
X85134813Y-45349500D01*
X85134809Y-45349500D01*
X84865191Y-45349500D01*
X84865186Y-45349500D01*
X84597280Y-45379686D01*
X84597268Y-45379688D01*
X84334405Y-45439684D01*
X84334397Y-45439687D01*
X84079917Y-45528734D01*
X83837005Y-45645714D01*
X83608712Y-45789161D01*
X83397915Y-45957265D01*
X83207265Y-46147915D01*
X83039161Y-46358712D01*
X82895714Y-46587005D01*
X82778734Y-46829917D01*
X82689687Y-47084397D01*
X82689684Y-47084405D01*
X82629688Y-47347268D01*
X82629686Y-47347280D01*
X82599500Y-47615186D01*
X80500500Y-47615186D01*
X80500500Y-46753051D01*
X80500649Y-46746967D01*
X80508507Y-46587005D01*
X80517052Y-46413068D01*
X80518245Y-46400962D01*
X80524512Y-46358711D01*
X80566849Y-46073296D01*
X80569218Y-46061385D01*
X80649710Y-45740043D01*
X80653240Y-45728411D01*
X80682829Y-45645716D01*
X80764835Y-45416525D01*
X80769476Y-45405318D01*
X80911124Y-45105828D01*
X80916840Y-45095136D01*
X81087145Y-44810998D01*
X81093888Y-44800905D01*
X81291232Y-44534818D01*
X81298935Y-44525433D01*
X81521405Y-44279975D01*
X81529975Y-44271405D01*
X81775433Y-44048935D01*
X81784818Y-44041232D01*
X82050905Y-43843888D01*
X82060998Y-43837145D01*
X82345136Y-43666840D01*
X82355828Y-43661124D01*
X82655318Y-43519476D01*
X82666525Y-43514835D01*
X82978412Y-43403239D01*
X82990043Y-43399710D01*
X83311385Y-43319218D01*
X83323296Y-43316849D01*
X83650962Y-43268244D01*
X83663068Y-43267052D01*
X83996967Y-43250648D01*
X84003051Y-43250500D01*
X84065892Y-43250500D01*
X143934108Y-43250500D01*
X143996949Y-43250500D01*
X144003032Y-43250648D01*
G37*
%TD.AperFunction*%
%TA.AperFunction,Conductor*%
G36*
X134710703Y-108536464D02*
G01*
X134728763Y-108555862D01*
X134767454Y-108607546D01*
X134797685Y-108630177D01*
X134882664Y-108693793D01*
X134882671Y-108693797D01*
X135017517Y-108744091D01*
X135017516Y-108744091D01*
X135024444Y-108744835D01*
X135077127Y-108750500D01*
X136422872Y-108750499D01*
X136482483Y-108744091D01*
X136559582Y-108715335D01*
X136578396Y-108708318D01*
X136621729Y-108700500D01*
X137337770Y-108700500D01*
X137404809Y-108720185D01*
X137425451Y-108736819D01*
X137559635Y-108871002D01*
X137667048Y-108978415D01*
X137667049Y-108978416D01*
X137726394Y-109037761D01*
X137771585Y-109082952D01*
X137894498Y-109165080D01*
X137894511Y-109165087D01*
X138031082Y-109221656D01*
X138031087Y-109221658D01*
X138031091Y-109221658D01*
X138031092Y-109221659D01*
X138176079Y-109250500D01*
X138176082Y-109250500D01*
X138384362Y-109250500D01*
X138389295Y-109251948D01*
X138394331Y-109250901D01*
X138422483Y-109261693D01*
X138451401Y-109270185D01*
X138456066Y-109274568D01*
X138459571Y-109275912D01*
X138471402Y-109288977D01*
X138484300Y-109301094D01*
X138487267Y-109305134D01*
X138557288Y-109418656D01*
X138607621Y-109468989D01*
X138613207Y-109476594D01*
X138622031Y-109500927D01*
X138634435Y-109523643D01*
X138633748Y-109533235D01*
X138637028Y-109542278D01*
X138631296Y-109567519D01*
X138629450Y-109593335D01*
X138623241Y-109602996D01*
X138621557Y-109610413D01*
X138613201Y-109618618D01*
X138600951Y-109637680D01*
X138557289Y-109681342D01*
X138465187Y-109830663D01*
X138465185Y-109830668D01*
X138456353Y-109857321D01*
X138410001Y-109997203D01*
X138410001Y-109997204D01*
X138410000Y-109997204D01*
X138399500Y-110099983D01*
X138399500Y-111100001D01*
X138399501Y-111100019D01*
X138410000Y-111202796D01*
X138410001Y-111202799D01*
X138465185Y-111369331D01*
X138465187Y-111369336D01*
X138475390Y-111385877D01*
X138543670Y-111496578D01*
X138557289Y-111518657D01*
X138625951Y-111587319D01*
X138659436Y-111648642D01*
X138654452Y-111718334D01*
X138625951Y-111762681D01*
X138532289Y-111856342D01*
X138440187Y-112005663D01*
X138440185Y-112005668D01*
X138433341Y-112026323D01*
X138385001Y-112172203D01*
X138385001Y-112172204D01*
X138385000Y-112172204D01*
X138374500Y-112274983D01*
X138374500Y-113325001D01*
X138374501Y-113325019D01*
X138385000Y-113427796D01*
X138385001Y-113427799D01*
X138440185Y-113594331D01*
X138440187Y-113594336D01*
X138459409Y-113625500D01*
X138532288Y-113743656D01*
X138656344Y-113867712D01*
X138805666Y-113959814D01*
X138972203Y-114014999D01*
X139074991Y-114025500D01*
X139850008Y-114025499D01*
X139850016Y-114025498D01*
X139850019Y-114025498D01*
X139906302Y-114019748D01*
X139952797Y-114014999D01*
X140119334Y-113959814D01*
X140268656Y-113867712D01*
X140392712Y-113743656D01*
X140394461Y-113740819D01*
X140396169Y-113739283D01*
X140397193Y-113737989D01*
X140397414Y-113738163D01*
X140446406Y-113694096D01*
X140515368Y-113682872D01*
X140579451Y-113710713D01*
X140605537Y-113740817D01*
X140607288Y-113743656D01*
X140731344Y-113867712D01*
X140880666Y-113959814D01*
X141047203Y-114014999D01*
X141149991Y-114025500D01*
X141925008Y-114025499D01*
X141925016Y-114025498D01*
X141925019Y-114025498D01*
X141981302Y-114019748D01*
X142027797Y-114014999D01*
X142194334Y-113959814D01*
X142343656Y-113867712D01*
X142467712Y-113743656D01*
X142504259Y-113684402D01*
X142556207Y-113637679D01*
X142609798Y-113625500D01*
X142962770Y-113625500D01*
X143029809Y-113645185D01*
X143050451Y-113661819D01*
X143081344Y-113692712D01*
X143230666Y-113784814D01*
X143397203Y-113839999D01*
X143499991Y-113850500D01*
X144500008Y-113850499D01*
X144500016Y-113850498D01*
X144500019Y-113850498D01*
X144556302Y-113844748D01*
X144602797Y-113839999D01*
X144769334Y-113784814D01*
X144918656Y-113692712D01*
X145037319Y-113574049D01*
X145098642Y-113540564D01*
X145168334Y-113545548D01*
X145212681Y-113574049D01*
X145331344Y-113692712D01*
X145480666Y-113784814D01*
X145647203Y-113839999D01*
X145749991Y-113850500D01*
X146750008Y-113850499D01*
X146750016Y-113850498D01*
X146750019Y-113850498D01*
X146806302Y-113844748D01*
X146852797Y-113839999D01*
X147019334Y-113784814D01*
X147168656Y-113692712D01*
X147287819Y-113573549D01*
X147349142Y-113540064D01*
X147418834Y-113545048D01*
X147474767Y-113586920D01*
X147499184Y-113652384D01*
X147499500Y-113661230D01*
X147499500Y-120746948D01*
X147499351Y-120753033D01*
X147482947Y-121086928D01*
X147481754Y-121099037D01*
X147433151Y-121426694D01*
X147430777Y-121438630D01*
X147350292Y-121759944D01*
X147346759Y-121771588D01*
X147235170Y-122083459D01*
X147230514Y-122094702D01*
X147088885Y-122394151D01*
X147083148Y-122404883D01*
X146912862Y-122688988D01*
X146906102Y-122699106D01*
X146708775Y-122965170D01*
X146701055Y-122974576D01*
X146478611Y-123220006D01*
X146470006Y-123228611D01*
X146224576Y-123451055D01*
X146215170Y-123458775D01*
X145949106Y-123656102D01*
X145938988Y-123662862D01*
X145654883Y-123833148D01*
X145644151Y-123838885D01*
X145344702Y-123980514D01*
X145333459Y-123985170D01*
X145021588Y-124096759D01*
X145009944Y-124100292D01*
X144688630Y-124180777D01*
X144676694Y-124183151D01*
X144349037Y-124231754D01*
X144336928Y-124232947D01*
X144021989Y-124248419D01*
X144003031Y-124249351D01*
X143996949Y-124249500D01*
X118629500Y-124249500D01*
X118562461Y-124229815D01*
X118516706Y-124177011D01*
X118505500Y-124125500D01*
X118505500Y-120874010D01*
X118505500Y-120874000D01*
X118493947Y-120766544D01*
X118482741Y-120715033D01*
X118467779Y-120670079D01*
X118448616Y-120612502D01*
X118448613Y-120612496D01*
X118370828Y-120491462D01*
X118370825Y-120491457D01*
X118370820Y-120491451D01*
X118325076Y-120438659D01*
X118325072Y-120438656D01*
X118325070Y-120438653D01*
X118249547Y-120373211D01*
X118211774Y-120314434D01*
X118211775Y-120244564D01*
X118249550Y-120185786D01*
X118313106Y-120156762D01*
X118330752Y-120155500D01*
X132802048Y-120155500D01*
X132869087Y-120175185D01*
X132905150Y-120210609D01*
X132917049Y-120228418D01*
X132917052Y-120228421D01*
X133463340Y-120774708D01*
X133496825Y-120836031D01*
X133498973Y-120864821D01*
X133499500Y-120864821D01*
X133499500Y-121131127D01*
X133526123Y-121333339D01*
X133533730Y-121391116D01*
X133574356Y-121542734D01*
X133601602Y-121644418D01*
X133601605Y-121644428D01*
X133701953Y-121886690D01*
X133701958Y-121886700D01*
X133833075Y-122113803D01*
X133992718Y-122321851D01*
X133992726Y-122321860D01*
X134178140Y-122507274D01*
X134178148Y-122507281D01*
X134386196Y-122666924D01*
X134613299Y-122798041D01*
X134613309Y-122798046D01*
X134855571Y-122898394D01*
X134855581Y-122898398D01*
X135108884Y-122966270D01*
X135368880Y-123000500D01*
X135368887Y-123000500D01*
X135631113Y-123000500D01*
X135631120Y-123000500D01*
X135891116Y-122966270D01*
X136144419Y-122898398D01*
X136386697Y-122798043D01*
X136613803Y-122666924D01*
X136821851Y-122507282D01*
X136821855Y-122507277D01*
X136821860Y-122507274D01*
X137007274Y-122321860D01*
X137007277Y-122321855D01*
X137007282Y-122321851D01*
X137166924Y-122113803D01*
X137298043Y-121886697D01*
X137398398Y-121644419D01*
X137466270Y-121391116D01*
X137500500Y-121131120D01*
X137500500Y-120868880D01*
X137466270Y-120608884D01*
X137398398Y-120355581D01*
X137385757Y-120325063D01*
X137298046Y-120113309D01*
X137298041Y-120113299D01*
X137166924Y-119886196D01*
X137014226Y-119687199D01*
X137007282Y-119678149D01*
X137007279Y-119678145D01*
X136944320Y-119615186D01*
X140599500Y-119615186D01*
X140599500Y-119884813D01*
X140629686Y-120152719D01*
X140629688Y-120152731D01*
X140689684Y-120415594D01*
X140689687Y-120415602D01*
X140778734Y-120670082D01*
X140895714Y-120912994D01*
X140895716Y-120912997D01*
X141039162Y-121141289D01*
X141207266Y-121352085D01*
X141397915Y-121542734D01*
X141608711Y-121710838D01*
X141837003Y-121854284D01*
X142079921Y-121971267D01*
X142271049Y-122038145D01*
X142334397Y-122060312D01*
X142334405Y-122060315D01*
X142334408Y-122060315D01*
X142334409Y-122060316D01*
X142597268Y-122120312D01*
X142865187Y-122150499D01*
X142865188Y-122150500D01*
X142865191Y-122150500D01*
X143134812Y-122150500D01*
X143134812Y-122150499D01*
X143402732Y-122120312D01*
X143665591Y-122060316D01*
X143920079Y-121971267D01*
X144162997Y-121854284D01*
X144391289Y-121710838D01*
X144602085Y-121542734D01*
X144792734Y-121352085D01*
X144960838Y-121141289D01*
X145104284Y-120912997D01*
X145221267Y-120670079D01*
X145310316Y-120415591D01*
X145370312Y-120152732D01*
X145400500Y-119884809D01*
X145400500Y-119615191D01*
X145370312Y-119347268D01*
X145310316Y-119084409D01*
X145221267Y-118829921D01*
X145104284Y-118587003D01*
X144960838Y-118358711D01*
X144792734Y-118147915D01*
X144602085Y-117957266D01*
X144391289Y-117789162D01*
X144162997Y-117645716D01*
X144162994Y-117645714D01*
X143920082Y-117528734D01*
X143665602Y-117439687D01*
X143665594Y-117439684D01*
X143468446Y-117394687D01*
X143402732Y-117379688D01*
X143402728Y-117379687D01*
X143402719Y-117379686D01*
X143134813Y-117349500D01*
X143134809Y-117349500D01*
X142865191Y-117349500D01*
X142865186Y-117349500D01*
X142597280Y-117379686D01*
X142597268Y-117379688D01*
X142334405Y-117439684D01*
X142334397Y-117439687D01*
X142079917Y-117528734D01*
X141837005Y-117645714D01*
X141608712Y-117789161D01*
X141397915Y-117957265D01*
X141207265Y-118147915D01*
X141039161Y-118358712D01*
X140895714Y-118587005D01*
X140778734Y-118829917D01*
X140689687Y-119084397D01*
X140689684Y-119084405D01*
X140629688Y-119347268D01*
X140629686Y-119347280D01*
X140599500Y-119615186D01*
X136944320Y-119615186D01*
X136821860Y-119492726D01*
X136821851Y-119492718D01*
X136613803Y-119333075D01*
X136386700Y-119201958D01*
X136386690Y-119201953D01*
X136144428Y-119101605D01*
X136144421Y-119101603D01*
X136144419Y-119101602D01*
X135891116Y-119033730D01*
X135833339Y-119026123D01*
X135631127Y-118999500D01*
X135631120Y-118999500D01*
X135628128Y-118999500D01*
X135627270Y-118999248D01*
X135627070Y-118999235D01*
X135627072Y-118999190D01*
X135561089Y-118979815D01*
X135515334Y-118927011D01*
X135504129Y-118875956D01*
X135492551Y-115728677D01*
X135472109Y-110171428D01*
X135466969Y-110133423D01*
X135454446Y-110040818D01*
X135454443Y-110040807D01*
X135450384Y-110025861D01*
X135437643Y-109978940D01*
X135386807Y-109857320D01*
X135297519Y-109744496D01*
X135246804Y-109696436D01*
X135246802Y-109696434D01*
X135129360Y-109613346D01*
X135129361Y-109613346D01*
X135129356Y-109613343D01*
X135099163Y-109602996D01*
X134993250Y-109566700D01*
X134993247Y-109566699D01*
X134983760Y-109564900D01*
X134975869Y-109563404D01*
X134926944Y-109554130D01*
X134904603Y-109549894D01*
X134897599Y-109552156D01*
X134888854Y-109552081D01*
X134888503Y-109552065D01*
X134888257Y-109552054D01*
X134876060Y-109550912D01*
X134868669Y-109549849D01*
X134858050Y-109545000D01*
X134834934Y-109545000D01*
X134831287Y-109545000D01*
X134828842Y-109545000D01*
X134752981Y-109545000D01*
X134730448Y-109542936D01*
X134722072Y-109541388D01*
X134702797Y-109535001D01*
X134668602Y-109531507D01*
X134663659Y-109530594D01*
X134659381Y-109528430D01*
X134638742Y-109523220D01*
X134564357Y-109492411D01*
X134563720Y-109492183D01*
X134563606Y-109492100D01*
X134561561Y-109491253D01*
X134561765Y-109490759D01*
X134507241Y-109451050D01*
X134486862Y-109411436D01*
X134486160Y-109409122D01*
X134472563Y-109364297D01*
X134469613Y-109352522D01*
X134457381Y-109291028D01*
X134455000Y-109266847D01*
X134455000Y-109233150D01*
X134457381Y-109208969D01*
X134469608Y-109147497D01*
X134472559Y-109135720D01*
X134482114Y-109104218D01*
X134486349Y-109090256D01*
X134495787Y-109042809D01*
X134505500Y-108944189D01*
X134505500Y-108630177D01*
X134525185Y-108563138D01*
X134577989Y-108517383D01*
X134647147Y-108507439D01*
X134710703Y-108536464D01*
G37*
%TD.AperFunction*%
%TA.AperFunction,Conductor*%
G36*
X111305215Y-99929376D02*
G01*
X111326979Y-99940019D01*
X111331342Y-99942710D01*
X111331344Y-99942712D01*
X111480666Y-100034814D01*
X111564505Y-100062595D01*
X111584535Y-100076463D01*
X111606703Y-100086587D01*
X111612751Y-100095998D01*
X111621948Y-100102366D01*
X111631302Y-100124864D01*
X111644477Y-100145365D01*
X111646935Y-100162465D01*
X111648772Y-100166882D01*
X111649500Y-100180300D01*
X111649500Y-100413330D01*
X111649499Y-100413348D01*
X111649499Y-100579054D01*
X111649498Y-100579054D01*
X111649499Y-100579057D01*
X111690423Y-100731785D01*
X111713401Y-100771584D01*
X111769477Y-100868712D01*
X111769481Y-100868717D01*
X111888349Y-100987585D01*
X111888355Y-100987590D01*
X113563181Y-102662416D01*
X113596666Y-102723739D01*
X113599500Y-102750097D01*
X113599500Y-110259735D01*
X113579815Y-110326774D01*
X113527011Y-110372529D01*
X113476752Y-110383729D01*
X103630180Y-110483187D01*
X103562946Y-110464180D01*
X103516660Y-110411841D01*
X103504928Y-110359180D01*
X103505262Y-107724080D01*
X103493716Y-107616592D01*
X103482510Y-107565065D01*
X103448375Y-107462496D01*
X103370587Y-107341457D01*
X103370582Y-107341451D01*
X103324838Y-107288659D01*
X103324834Y-107288656D01*
X103324832Y-107288653D01*
X103216098Y-107194433D01*
X103216095Y-107194431D01*
X103216093Y-107194430D01*
X103085227Y-107134664D01*
X103085222Y-107134662D01*
X103085221Y-107134662D01*
X103018182Y-107114977D01*
X103018184Y-107114977D01*
X103018179Y-107114976D01*
X102970706Y-107108150D01*
X102875762Y-107094500D01*
X101081356Y-107094500D01*
X101081353Y-107094500D01*
X101078323Y-107094649D01*
X101078320Y-107094601D01*
X101070190Y-107095000D01*
X100929810Y-107095000D01*
X100921679Y-107094601D01*
X100921677Y-107094649D01*
X100918647Y-107094500D01*
X100918644Y-107094500D01*
X100855417Y-107094500D01*
X100788378Y-107074815D01*
X100742623Y-107022011D01*
X100739682Y-107015013D01*
X100513765Y-106427628D01*
X100512581Y-106421252D01*
X100510523Y-106418050D01*
X100505500Y-106383115D01*
X100505500Y-106380177D01*
X100525185Y-106313138D01*
X100577989Y-106267383D01*
X100647147Y-106257439D01*
X100710703Y-106286464D01*
X100728763Y-106305862D01*
X100767454Y-106357546D01*
X100786316Y-106371666D01*
X100882664Y-106443793D01*
X100882671Y-106443797D01*
X101017517Y-106494091D01*
X101017516Y-106494091D01*
X101024444Y-106494835D01*
X101077127Y-106500500D01*
X102422872Y-106500499D01*
X102482483Y-106494091D01*
X102578396Y-106458318D01*
X102621729Y-106450500D01*
X103384362Y-106450500D01*
X103451401Y-106470185D01*
X103489899Y-106509401D01*
X103557288Y-106618656D01*
X103681344Y-106742712D01*
X103830666Y-106834814D01*
X103997203Y-106889999D01*
X104099991Y-106900500D01*
X105100008Y-106900499D01*
X105100016Y-106900498D01*
X105100019Y-106900498D01*
X105174623Y-106892877D01*
X105202797Y-106889999D01*
X105369334Y-106834814D01*
X105518656Y-106742712D01*
X105642712Y-106618656D01*
X105648420Y-106609402D01*
X105656006Y-106602578D01*
X105660245Y-106593297D01*
X105681543Y-106579609D01*
X105700368Y-106562678D01*
X105712004Y-106560033D01*
X105719023Y-106555523D01*
X105753958Y-106550500D01*
X105846042Y-106550500D01*
X105913081Y-106570185D01*
X105951580Y-106609402D01*
X105957288Y-106618656D01*
X106081344Y-106742712D01*
X106230666Y-106834814D01*
X106397203Y-106889999D01*
X106499991Y-106900500D01*
X107500008Y-106900499D01*
X107500016Y-106900498D01*
X107500019Y-106900498D01*
X107574623Y-106892877D01*
X107602797Y-106889999D01*
X107769334Y-106834814D01*
X107918656Y-106742712D01*
X108037049Y-106624319D01*
X108063976Y-106609615D01*
X108089795Y-106593023D01*
X108095995Y-106592131D01*
X108098372Y-106590834D01*
X108124730Y-106588000D01*
X108228752Y-106588000D01*
X108295791Y-106607685D01*
X108326531Y-106638997D01*
X108327807Y-106637989D01*
X108332288Y-106643656D01*
X108456344Y-106767712D01*
X108605666Y-106859814D01*
X108772203Y-106914999D01*
X108874991Y-106925500D01*
X109925008Y-106925499D01*
X109925016Y-106925498D01*
X109925019Y-106925498D01*
X109981302Y-106919748D01*
X110027797Y-106914999D01*
X110194334Y-106859814D01*
X110343656Y-106767712D01*
X110467712Y-106643656D01*
X110559814Y-106494334D01*
X110614999Y-106327797D01*
X110625500Y-106225009D01*
X110625499Y-105449992D01*
X110619744Y-105393658D01*
X110614999Y-105347203D01*
X110614998Y-105347200D01*
X110559814Y-105180666D01*
X110467712Y-105031344D01*
X110343656Y-104907288D01*
X110340819Y-104905538D01*
X110339283Y-104903830D01*
X110337989Y-104902807D01*
X110338163Y-104902585D01*
X110294096Y-104853594D01*
X110282872Y-104784632D01*
X110310713Y-104720549D01*
X110340817Y-104694462D01*
X110343656Y-104692712D01*
X110467712Y-104568656D01*
X110559814Y-104419334D01*
X110614999Y-104252797D01*
X110625500Y-104150009D01*
X110625499Y-103374992D01*
X110622017Y-103340909D01*
X110614999Y-103272203D01*
X110614998Y-103272200D01*
X110611051Y-103260288D01*
X110559814Y-103105666D01*
X110467712Y-102956344D01*
X110343656Y-102832288D01*
X110209402Y-102749480D01*
X110202578Y-102741893D01*
X110193297Y-102737655D01*
X110179608Y-102716355D01*
X110162679Y-102697533D01*
X110160034Y-102685897D01*
X110155523Y-102678877D01*
X110150500Y-102643942D01*
X110150500Y-102541195D01*
X110168960Y-102476099D01*
X110234814Y-102369334D01*
X110289999Y-102202797D01*
X110300500Y-102100009D01*
X110300499Y-101099992D01*
X110296071Y-101056649D01*
X110289999Y-100997203D01*
X110289998Y-100997200D01*
X110234814Y-100830666D01*
X110142712Y-100681344D01*
X110049049Y-100587681D01*
X110015564Y-100526358D01*
X110020548Y-100456666D01*
X110049049Y-100412319D01*
X110086868Y-100374500D01*
X110142712Y-100318656D01*
X110205980Y-100216080D01*
X110257926Y-100169357D01*
X110326889Y-100158134D01*
X110358970Y-100166617D01*
X110366498Y-100169735D01*
X110366503Y-100169737D01*
X110518157Y-100199903D01*
X110521153Y-100200499D01*
X110521156Y-100200500D01*
X110521158Y-100200500D01*
X110678844Y-100200500D01*
X110678845Y-100200499D01*
X110833497Y-100169737D01*
X110971374Y-100112627D01*
X110979172Y-100109397D01*
X110979172Y-100109396D01*
X110979179Y-100109394D01*
X111110289Y-100021789D01*
X111174202Y-99957875D01*
X111235523Y-99924392D01*
X111305215Y-99929376D01*
G37*
%TD.AperFunction*%
%TA.AperFunction,Conductor*%
G36*
X142492539Y-105645185D02*
G01*
X142538294Y-105697989D01*
X142549500Y-105749500D01*
X142549500Y-106202880D01*
X142549501Y-106202898D01*
X142560000Y-106305675D01*
X142560001Y-106305678D01*
X142615185Y-106472210D01*
X142615187Y-106472215D01*
X142632632Y-106500498D01*
X142705512Y-106618656D01*
X142707289Y-106621536D01*
X142800951Y-106715198D01*
X142834436Y-106776521D01*
X142829452Y-106846213D01*
X142800951Y-106890560D01*
X142707289Y-106984221D01*
X142615187Y-107133542D01*
X142615185Y-107133547D01*
X142596623Y-107189563D01*
X142560001Y-107300082D01*
X142560001Y-107300083D01*
X142560000Y-107300083D01*
X142549500Y-107402862D01*
X142549500Y-108202880D01*
X142549501Y-108202898D01*
X142560000Y-108305675D01*
X142560001Y-108305678D01*
X142577168Y-108357483D01*
X142615186Y-108472213D01*
X142707288Y-108621535D01*
X142831344Y-108745591D01*
X142894365Y-108784462D01*
X142941089Y-108836409D01*
X142953165Y-108895055D01*
X142952770Y-108904713D01*
X142949500Y-108921158D01*
X142949500Y-108984881D01*
X142949397Y-108987406D01*
X142938971Y-109018207D01*
X142929815Y-109049390D01*
X142927836Y-109051104D01*
X142926996Y-109053587D01*
X142901568Y-109073865D01*
X142877011Y-109095145D01*
X142874419Y-109095517D01*
X142872370Y-109097152D01*
X142840027Y-109100462D01*
X142807853Y-109105089D01*
X142802980Y-109104255D01*
X142802864Y-109104267D01*
X142802768Y-109104218D01*
X142801310Y-109103969D01*
X142778842Y-109099500D01*
X142621158Y-109099500D01*
X142621155Y-109099500D01*
X142466510Y-109130261D01*
X142466498Y-109130264D01*
X142320827Y-109190602D01*
X142320814Y-109190609D01*
X142189711Y-109278210D01*
X142189707Y-109278213D01*
X142094476Y-109373445D01*
X142033153Y-109406930D01*
X141994192Y-109409121D01*
X141947208Y-109404322D01*
X141900010Y-109399500D01*
X141099998Y-109399500D01*
X141099980Y-109399501D01*
X140997203Y-109410000D01*
X140997200Y-109410001D01*
X140830668Y-109465185D01*
X140830663Y-109465187D01*
X140681342Y-109557289D01*
X140587681Y-109650951D01*
X140579735Y-109655289D01*
X140574310Y-109662537D01*
X140549550Y-109671771D01*
X140526358Y-109684436D01*
X140517328Y-109683790D01*
X140508846Y-109686954D01*
X140483025Y-109681337D01*
X140456666Y-109679452D01*
X140447612Y-109673633D01*
X140440573Y-109672102D01*
X140412319Y-109650951D01*
X140399049Y-109637681D01*
X140365564Y-109576358D01*
X140370548Y-109506666D01*
X140399049Y-109462319D01*
X140420165Y-109441203D01*
X140442712Y-109418656D01*
X140534814Y-109269334D01*
X140589999Y-109102797D01*
X140600500Y-109000009D01*
X140600499Y-107999992D01*
X140589999Y-107897203D01*
X140534814Y-107730666D01*
X140442712Y-107581344D01*
X140318656Y-107457288D01*
X140169334Y-107365186D01*
X140002797Y-107310001D01*
X140002795Y-107310000D01*
X139900010Y-107299500D01*
X139099998Y-107299500D01*
X139099980Y-107299501D01*
X138997203Y-107310000D01*
X138997200Y-107310001D01*
X138861787Y-107354873D01*
X138791958Y-107357275D01*
X138731917Y-107321543D01*
X138700724Y-107259022D01*
X138708285Y-107189563D01*
X138735099Y-107149489D01*
X140222771Y-105661819D01*
X140284094Y-105628334D01*
X140310452Y-105625500D01*
X142425500Y-105625500D01*
X142492539Y-105645185D01*
G37*
%TD.AperFunction*%
%TA.AperFunction,Conductor*%
G36*
X122741072Y-95775350D02*
G01*
X122786844Y-95828138D01*
X122798051Y-95877719D01*
X122889763Y-101655566D01*
X122966565Y-106494091D01*
X122966636Y-106498532D01*
X122948018Y-106565875D01*
X122895947Y-106612463D01*
X122842652Y-106624500D01*
X118926956Y-106624500D01*
X118859917Y-106604815D01*
X118814162Y-106552011D01*
X118812405Y-106547978D01*
X118798043Y-106513303D01*
X118798041Y-106513299D01*
X118666924Y-106286196D01*
X118507281Y-106078148D01*
X118507274Y-106078140D01*
X118321860Y-105892726D01*
X118321851Y-105892718D01*
X118113803Y-105733075D01*
X117886700Y-105601958D01*
X117886690Y-105601953D01*
X117644428Y-105501605D01*
X117644421Y-105501603D01*
X117644419Y-105501602D01*
X117391116Y-105433730D01*
X117333339Y-105426123D01*
X117131127Y-105399500D01*
X117131120Y-105399500D01*
X116868880Y-105399500D01*
X116868872Y-105399500D01*
X116637772Y-105429926D01*
X116608884Y-105433730D01*
X116430297Y-105481582D01*
X116355581Y-105501602D01*
X116355571Y-105501605D01*
X116113309Y-105601953D01*
X116113299Y-105601958D01*
X115886196Y-105733075D01*
X115678148Y-105892718D01*
X115492718Y-106078148D01*
X115333075Y-106286196D01*
X115201958Y-106513299D01*
X115201953Y-106513309D01*
X115101605Y-106755571D01*
X115101603Y-106755578D01*
X115101602Y-106755581D01*
X115052084Y-106940388D01*
X115044275Y-106969531D01*
X115007910Y-107029191D01*
X114945063Y-107059720D01*
X114875687Y-107051425D01*
X114821810Y-107006940D01*
X114800535Y-106940388D01*
X114800500Y-106937437D01*
X114800500Y-102370943D01*
X114800467Y-102370821D01*
X114793792Y-102345908D01*
X114781625Y-102300500D01*
X114759577Y-102218216D01*
X114737084Y-102179257D01*
X114680524Y-102081290D01*
X114680521Y-102081286D01*
X114680520Y-102081284D01*
X114568716Y-101969480D01*
X114568715Y-101969479D01*
X114564385Y-101965149D01*
X114564374Y-101965139D01*
X112886819Y-100287584D01*
X112872115Y-100260656D01*
X112855523Y-100234838D01*
X112854631Y-100228637D01*
X112853334Y-100226261D01*
X112850500Y-100199903D01*
X112850500Y-100180300D01*
X112870185Y-100113261D01*
X112922989Y-100067506D01*
X112935482Y-100062599D01*
X113019334Y-100034814D01*
X113168656Y-99942712D01*
X113292712Y-99818656D01*
X113384814Y-99669334D01*
X113439999Y-99502797D01*
X113450500Y-99400009D01*
X113450499Y-98599992D01*
X113443417Y-98530668D01*
X113439999Y-98497203D01*
X113439998Y-98497200D01*
X113428228Y-98461681D01*
X113384814Y-98330666D01*
X113292712Y-98181344D01*
X113199049Y-98087681D01*
X113194710Y-98079735D01*
X113187463Y-98074310D01*
X113178228Y-98049550D01*
X113165564Y-98026358D01*
X113166209Y-98017328D01*
X113163046Y-98008846D01*
X113168662Y-97983025D01*
X113170548Y-97956666D01*
X113176366Y-97947612D01*
X113177898Y-97940573D01*
X113199049Y-97912319D01*
X113262319Y-97849049D01*
X113323642Y-97815564D01*
X113393334Y-97820548D01*
X113437681Y-97849049D01*
X113531344Y-97942712D01*
X113680666Y-98034814D01*
X113847203Y-98089999D01*
X113949991Y-98100500D01*
X114950008Y-98100499D01*
X114950016Y-98100498D01*
X114950019Y-98100498D01*
X115006302Y-98094748D01*
X115052797Y-98089999D01*
X115219334Y-98034814D01*
X115368656Y-97942712D01*
X115492712Y-97818656D01*
X115584814Y-97669334D01*
X115639999Y-97502797D01*
X115650500Y-97400009D01*
X115650499Y-96599992D01*
X115639999Y-96497203D01*
X115584814Y-96330666D01*
X115492712Y-96181344D01*
X115368656Y-96057288D01*
X115255745Y-95987644D01*
X115209022Y-95935697D01*
X115197799Y-95866734D01*
X115225643Y-95802652D01*
X115283712Y-95763796D01*
X115320797Y-95758106D01*
X122674026Y-95755687D01*
X122741072Y-95775350D01*
G37*
%TD.AperFunction*%
%TA.AperFunction,Conductor*%
G36*
X98687539Y-88290372D02*
G01*
X98733294Y-88343176D01*
X98744500Y-88394687D01*
X98744500Y-93694187D01*
X98754210Y-93792793D01*
X98754210Y-93792798D01*
X98763649Y-93840251D01*
X98763651Y-93840259D01*
X98777433Y-93885694D01*
X98780389Y-93897494D01*
X98792617Y-93958963D01*
X98795000Y-93983156D01*
X98795000Y-94016840D01*
X98792617Y-94041034D01*
X98780387Y-94102511D01*
X98777432Y-94114309D01*
X98763652Y-94159738D01*
X98754211Y-94207202D01*
X98744500Y-94305813D01*
X98744500Y-95094186D01*
X98754209Y-95192790D01*
X98767107Y-95257643D01*
X98767274Y-95258036D01*
X98771397Y-95262968D01*
X98776522Y-95276989D01*
X98777623Y-95280677D01*
X98787284Y-95322299D01*
X98787772Y-95323554D01*
X98791883Y-95333796D01*
X98797623Y-95347656D01*
X98799222Y-95353009D01*
X98799273Y-95353157D01*
X98802660Y-95361872D01*
X98808182Y-95375490D01*
X98810985Y-95382127D01*
X98816892Y-95395558D01*
X98816897Y-95395569D01*
X98821201Y-95402260D01*
X98827160Y-95412584D01*
X98841714Y-95440858D01*
X98867515Y-95481484D01*
X98890661Y-95517931D01*
X98920463Y-95546932D01*
X98927666Y-95554561D01*
X98939704Y-95568445D01*
X98940375Y-95569234D01*
X98940499Y-95569361D01*
X98950136Y-95577705D01*
X98965136Y-95590694D01*
X98970435Y-95595558D01*
X98993773Y-95618269D01*
X98993775Y-95618271D01*
X98993778Y-95618273D01*
X99009634Y-95629808D01*
X99017833Y-95636322D01*
X99049268Y-95663540D01*
X99084239Y-95679495D01*
X99110988Y-95691699D01*
X99117454Y-95694879D01*
X99177486Y-95726603D01*
X99177488Y-95726604D01*
X99218215Y-95734882D01*
X99228390Y-95737403D01*
X99242465Y-95741532D01*
X99245032Y-95742285D01*
X99246633Y-95742786D01*
X99247185Y-95742916D01*
X99247196Y-95742920D01*
X99279480Y-95747550D01*
X99286563Y-95748778D01*
X99296220Y-95750741D01*
X99318484Y-95755267D01*
X99325748Y-95755687D01*
X99338019Y-95756397D01*
X99348462Y-95757445D01*
X99389618Y-95763349D01*
X104693273Y-95761604D01*
X104760315Y-95781266D01*
X104806087Y-95834054D01*
X104816054Y-95903210D01*
X104792577Y-95959913D01*
X104756649Y-96007906D01*
X104756645Y-96007913D01*
X104706403Y-96142620D01*
X104706401Y-96142627D01*
X104700000Y-96202155D01*
X104700000Y-96750000D01*
X105576000Y-96750000D01*
X105643039Y-96769685D01*
X105688794Y-96822489D01*
X105700000Y-96874000D01*
X105700000Y-97126000D01*
X105680315Y-97193039D01*
X105627511Y-97238794D01*
X105576000Y-97250000D01*
X104700000Y-97250000D01*
X104700000Y-97797844D01*
X104706401Y-97857372D01*
X104706403Y-97857379D01*
X104756645Y-97992086D01*
X104756649Y-97992093D01*
X104842809Y-98107187D01*
X104842812Y-98107190D01*
X104957906Y-98193350D01*
X104957913Y-98193354D01*
X105092620Y-98243596D01*
X105092627Y-98243598D01*
X105152155Y-98249999D01*
X105152172Y-98250000D01*
X105166046Y-98250000D01*
X105233085Y-98269685D01*
X105278840Y-98322489D01*
X105288784Y-98391647D01*
X105259759Y-98455203D01*
X105253727Y-98461681D01*
X103602781Y-100112627D01*
X103602767Y-100112641D01*
X103601269Y-100114140D01*
X103601267Y-100114142D01*
X103514142Y-100201267D01*
X103504842Y-100215186D01*
X103499258Y-100223541D01*
X103499250Y-100223551D01*
X103445690Y-100303709D01*
X103445686Y-100303715D01*
X103438465Y-100321151D01*
X103438465Y-100321153D01*
X103438463Y-100321158D01*
X103406013Y-100399501D01*
X103406012Y-100399504D01*
X103398538Y-100417544D01*
X103398538Y-100417545D01*
X103398537Y-100417548D01*
X103398537Y-100417549D01*
X103376895Y-100526358D01*
X103375717Y-100532279D01*
X103375715Y-100532284D01*
X103374501Y-100538383D01*
X103374500Y-100538398D01*
X103374500Y-103289547D01*
X103354815Y-103356586D01*
X103338181Y-103377228D01*
X103087180Y-103628229D01*
X103025857Y-103661714D01*
X102956165Y-103656730D01*
X102900232Y-103614858D01*
X102875815Y-103549394D01*
X102875499Y-103540548D01*
X102875499Y-103452129D01*
X102875498Y-103452123D01*
X102874555Y-103443354D01*
X102869091Y-103392517D01*
X102849842Y-103340909D01*
X102818797Y-103257671D01*
X102818793Y-103257664D01*
X102732547Y-103142455D01*
X102732544Y-103142452D01*
X102617334Y-103056205D01*
X102581164Y-103042714D01*
X102525231Y-103000841D01*
X102500816Y-102935376D01*
X102500500Y-102926533D01*
X102500500Y-102345908D01*
X102520185Y-102278869D01*
X102564271Y-102240363D01*
X102563187Y-102238605D01*
X102569332Y-102234814D01*
X102569334Y-102234814D01*
X102718656Y-102142712D01*
X102842712Y-102018656D01*
X102934814Y-101869334D01*
X102989999Y-101702797D01*
X103000500Y-101600009D01*
X103000499Y-100799992D01*
X102998373Y-100779183D01*
X102989999Y-100697203D01*
X102989998Y-100697200D01*
X102984743Y-100681342D01*
X102934814Y-100530666D01*
X102842712Y-100381344D01*
X102749049Y-100287681D01*
X102715564Y-100226358D01*
X102720548Y-100156666D01*
X102749049Y-100112319D01*
X102795740Y-100065628D01*
X102842712Y-100018656D01*
X102934814Y-99869334D01*
X102989999Y-99702797D01*
X103000500Y-99600009D01*
X103000499Y-98799992D01*
X102989999Y-98697203D01*
X102934814Y-98530666D01*
X102842712Y-98381344D01*
X102718656Y-98257288D01*
X102624966Y-98199500D01*
X102569336Y-98165187D01*
X102569331Y-98165185D01*
X102567862Y-98164698D01*
X102402797Y-98110001D01*
X102402795Y-98110000D01*
X102300010Y-98099500D01*
X101299998Y-98099500D01*
X101299980Y-98099501D01*
X101197203Y-98110000D01*
X101197200Y-98110001D01*
X101030668Y-98165185D01*
X101030659Y-98165189D01*
X100923900Y-98231039D01*
X100858804Y-98249500D01*
X100406727Y-98249500D01*
X100341631Y-98231039D01*
X100194334Y-98140186D01*
X100027797Y-98085001D01*
X100027795Y-98085000D01*
X99925010Y-98074500D01*
X98874998Y-98074500D01*
X98874980Y-98074501D01*
X98772203Y-98085000D01*
X98772200Y-98085001D01*
X98605668Y-98140185D01*
X98605663Y-98140187D01*
X98456342Y-98232289D01*
X98332289Y-98356342D01*
X98240187Y-98505663D01*
X98240185Y-98505668D01*
X98217468Y-98574223D01*
X98185001Y-98672203D01*
X98185001Y-98672204D01*
X98185000Y-98672204D01*
X98174500Y-98774983D01*
X98174500Y-99550001D01*
X98174501Y-99550019D01*
X98185000Y-99652796D01*
X98185001Y-99652799D01*
X98240185Y-99819331D01*
X98240187Y-99819336D01*
X98271024Y-99869331D01*
X98325639Y-99957877D01*
X98332289Y-99968657D01*
X98456346Y-100092714D01*
X98459182Y-100094463D01*
X98460717Y-100096170D01*
X98462011Y-100097193D01*
X98461836Y-100097414D01*
X98505905Y-100146411D01*
X98517126Y-100215374D01*
X98489282Y-100279456D01*
X98481140Y-100288302D01*
X98471137Y-100298163D01*
X98456344Y-100307288D01*
X98332288Y-100431344D01*
X98326446Y-100440814D01*
X98315809Y-100451302D01*
X98297653Y-100461048D01*
X98282335Y-100474825D01*
X98264401Y-100478899D01*
X98254249Y-100484350D01*
X98243972Y-100483541D01*
X98228752Y-100487000D01*
X96995138Y-100487000D01*
X96947685Y-100477561D01*
X96832047Y-100429662D01*
X96777644Y-100385821D01*
X96755579Y-100319527D01*
X96755500Y-100315101D01*
X96755500Y-97018507D01*
X96755499Y-97018504D01*
X96749045Y-96937998D01*
X96749044Y-96937981D01*
X96742750Y-96898979D01*
X96723547Y-96820508D01*
X96711528Y-96784238D01*
X96705872Y-96757804D01*
X96705637Y-96755499D01*
X96705000Y-96742944D01*
X96705000Y-95757057D01*
X96705639Y-95744489D01*
X96705872Y-95742202D01*
X96711528Y-95715763D01*
X96723548Y-95679492D01*
X96742747Y-95601032D01*
X96742748Y-95601025D01*
X96742750Y-95601018D01*
X96749044Y-95562014D01*
X96752578Y-95517930D01*
X96755500Y-95481493D01*
X96755500Y-94768507D01*
X96755499Y-94768504D01*
X96749045Y-94687998D01*
X96749044Y-94687981D01*
X96742750Y-94648979D01*
X96723547Y-94570508D01*
X96711528Y-94534238D01*
X96705872Y-94507804D01*
X96705637Y-94505499D01*
X96705000Y-94492944D01*
X96705000Y-93507057D01*
X96705639Y-93494489D01*
X96705872Y-93492202D01*
X96711528Y-93465763D01*
X96723548Y-93429492D01*
X96742747Y-93351032D01*
X96742748Y-93351025D01*
X96742750Y-93351018D01*
X96749044Y-93312014D01*
X96751205Y-93285057D01*
X96755500Y-93231493D01*
X96755500Y-92518507D01*
X96755499Y-92518504D01*
X96749045Y-92437998D01*
X96749044Y-92437981D01*
X96742750Y-92398979D01*
X96723547Y-92320508D01*
X96711528Y-92284238D01*
X96705872Y-92257804D01*
X96705637Y-92255499D01*
X96705000Y-92242944D01*
X96705000Y-91257057D01*
X96705639Y-91244489D01*
X96705872Y-91242202D01*
X96711528Y-91215763D01*
X96723548Y-91179492D01*
X96742747Y-91101032D01*
X96742748Y-91101025D01*
X96742750Y-91101018D01*
X96749044Y-91062014D01*
X96751205Y-91035057D01*
X96755500Y-90981493D01*
X96755500Y-89674010D01*
X96755500Y-89674000D01*
X96743947Y-89566544D01*
X96732741Y-89515033D01*
X96727571Y-89499500D01*
X96698616Y-89412502D01*
X96698613Y-89412496D01*
X96620825Y-89291457D01*
X96620820Y-89291451D01*
X96575076Y-89238659D01*
X96575072Y-89238656D01*
X96575070Y-89238653D01*
X96466336Y-89144433D01*
X96466333Y-89144431D01*
X96466331Y-89144430D01*
X96335465Y-89084664D01*
X96335460Y-89084662D01*
X96335459Y-89084662D01*
X96268420Y-89064977D01*
X96268422Y-89064977D01*
X96268417Y-89064976D01*
X96220944Y-89058150D01*
X96126000Y-89044500D01*
X96125998Y-89044500D01*
X95773748Y-89044500D01*
X95706709Y-89024815D01*
X95660954Y-88972011D01*
X95651010Y-88902853D01*
X95680035Y-88839297D01*
X95699437Y-88821234D01*
X95730645Y-88797870D01*
X95757546Y-88777733D01*
X95843796Y-88662518D01*
X95894091Y-88527670D01*
X95900500Y-88468060D01*
X95900500Y-88394687D01*
X95920185Y-88327648D01*
X95972989Y-88281893D01*
X96024500Y-88270687D01*
X98620500Y-88270687D01*
X98687539Y-88290372D01*
G37*
%TD.AperFunction*%
%TD*%
%TA.AperFunction,Conductor*%
%TO.N,Net-(J3-Pin_1)*%
G36*
X117943039Y-120769685D02*
G01*
X117988794Y-120822489D01*
X118000000Y-120874000D01*
X118000000Y-124125500D01*
X117980315Y-124192539D01*
X117927511Y-124238294D01*
X117876000Y-124249500D01*
X111374000Y-124249500D01*
X111306961Y-124229815D01*
X111261206Y-124177011D01*
X111250000Y-124125500D01*
X111250000Y-120874000D01*
X111269685Y-120806961D01*
X111322489Y-120761206D01*
X111374000Y-120750000D01*
X117876000Y-120750000D01*
X117943039Y-120769685D01*
G37*
%TD.AperFunction*%
%TD*%
%TA.AperFunction,Conductor*%
%TO.N,SW_3V3*%
G36*
X95779495Y-103019685D02*
G01*
X95781239Y-103020826D01*
X98000000Y-104500000D01*
X98282893Y-104500000D01*
X98349932Y-104519685D01*
X98357204Y-104524733D01*
X98382668Y-104543795D01*
X98382671Y-104543797D01*
X98517517Y-104594091D01*
X98517516Y-104594091D01*
X98524444Y-104594835D01*
X98577127Y-104600500D01*
X99575500Y-104600499D01*
X99584186Y-104603049D01*
X99593147Y-104601761D01*
X99617183Y-104612738D01*
X99642539Y-104620183D01*
X99648467Y-104627025D01*
X99656703Y-104630786D01*
X99670989Y-104653017D01*
X99688294Y-104672987D01*
X99690581Y-104683502D01*
X99694477Y-104689564D01*
X99699500Y-104724499D01*
X99699500Y-104775500D01*
X99679815Y-104842539D01*
X99627011Y-104888294D01*
X99575500Y-104899500D01*
X98577129Y-104899500D01*
X98577123Y-104899501D01*
X98517516Y-104905908D01*
X98382671Y-104956202D01*
X98382668Y-104956204D01*
X98357204Y-104975267D01*
X98291739Y-104999684D01*
X98282893Y-105000000D01*
X97999999Y-105000000D01*
X95517433Y-105744770D01*
X95481802Y-105750000D01*
X89374000Y-105750000D01*
X89306961Y-105730315D01*
X89261206Y-105677511D01*
X89250000Y-105626000D01*
X89250000Y-103124000D01*
X89269685Y-103056961D01*
X89322489Y-103011206D01*
X89374000Y-103000000D01*
X95712456Y-103000000D01*
X95779495Y-103019685D01*
G37*
%TD.AperFunction*%
%TD*%
%TA.AperFunction,Conductor*%
%TO.N,Vin*%
G36*
X98517337Y-105544024D02*
G01*
X98517517Y-105544091D01*
X98577127Y-105550500D01*
X99876000Y-105550499D01*
X99943039Y-105570184D01*
X99988794Y-105622987D01*
X100000000Y-105674499D01*
X100000000Y-106500000D01*
X100423077Y-107600000D01*
X100918644Y-107600000D01*
X100921158Y-107600500D01*
X101078842Y-107600500D01*
X101081356Y-107600000D01*
X102875762Y-107600000D01*
X102942801Y-107619685D01*
X102988556Y-107672489D01*
X102999762Y-107724016D01*
X102999349Y-110995085D01*
X102999350Y-110995084D01*
X102999350Y-110995086D01*
X123923403Y-110783737D01*
X123948824Y-110786111D01*
X124021158Y-110800500D01*
X124178843Y-110800500D01*
X124212309Y-110793842D01*
X124269928Y-110782381D01*
X124292860Y-110780005D01*
X125350910Y-110769318D01*
X125376340Y-110771693D01*
X125399227Y-110776246D01*
X125521155Y-110800500D01*
X125521158Y-110800500D01*
X125678844Y-110800500D01*
X125678845Y-110800499D01*
X125717249Y-110792860D01*
X125833480Y-110769741D01*
X125833485Y-110769739D01*
X125833497Y-110769737D01*
X125833507Y-110769732D01*
X125834538Y-110769420D01*
X125836978Y-110769045D01*
X125839473Y-110768549D01*
X125839494Y-110768658D01*
X125869293Y-110764082D01*
X126706504Y-110755625D01*
X126755206Y-110765058D01*
X126762674Y-110768151D01*
X126766498Y-110769735D01*
X126766501Y-110769736D01*
X126766505Y-110769738D01*
X126921153Y-110800499D01*
X126921156Y-110800500D01*
X126921158Y-110800500D01*
X127078844Y-110800500D01*
X127078845Y-110800499D01*
X127233497Y-110769737D01*
X127259401Y-110759007D01*
X127305594Y-110749574D01*
X128073181Y-110741821D01*
X128121876Y-110751252D01*
X128166503Y-110769737D01*
X128321153Y-110800499D01*
X128321156Y-110800500D01*
X128321158Y-110800500D01*
X128478844Y-110800500D01*
X128478845Y-110800499D01*
X128633497Y-110769737D01*
X128694399Y-110744510D01*
X128740589Y-110735079D01*
X129244614Y-110729988D01*
X129293311Y-110739420D01*
X129366503Y-110769737D01*
X129521153Y-110800499D01*
X129521156Y-110800500D01*
X129521158Y-110800500D01*
X129678844Y-110800500D01*
X129678845Y-110800499D01*
X129833497Y-110769737D01*
X129924394Y-110732086D01*
X129970581Y-110722656D01*
X130611288Y-110716184D01*
X130659982Y-110725615D01*
X130766503Y-110769737D01*
X130921153Y-110800499D01*
X130921156Y-110800500D01*
X130921158Y-110800500D01*
X131078844Y-110800500D01*
X131078845Y-110800499D01*
X131233497Y-110769737D01*
X131306687Y-110739421D01*
X131359383Y-110717594D01*
X131405580Y-110708161D01*
X132500000Y-110697107D01*
X132500000Y-108192794D01*
X132519685Y-108125755D01*
X132522642Y-108121362D01*
X132530067Y-108110826D01*
X132589838Y-107979949D01*
X132609523Y-107912910D01*
X132609524Y-107912906D01*
X132610394Y-107906853D01*
X132639418Y-107843298D01*
X132698195Y-107805523D01*
X132733132Y-107800499D01*
X133592098Y-107800499D01*
X133659137Y-107820184D01*
X133704892Y-107872988D01*
X133713715Y-107900308D01*
X133730261Y-107983489D01*
X133730264Y-107983501D01*
X133790602Y-108129172D01*
X133790609Y-108129185D01*
X133878209Y-108260287D01*
X133878210Y-108260288D01*
X133878211Y-108260289D01*
X133963682Y-108345760D01*
X133997166Y-108407081D01*
X134000000Y-108433440D01*
X134000000Y-108944189D01*
X133990562Y-108991636D01*
X133980263Y-109016503D01*
X133980262Y-109016507D01*
X133980261Y-109016510D01*
X133980260Y-109016511D01*
X133949500Y-109171153D01*
X133949500Y-109328846D01*
X133979337Y-109478842D01*
X133980263Y-109483497D01*
X133986781Y-109499234D01*
X133990561Y-109508358D01*
X134000000Y-109555811D01*
X134000000Y-109950000D01*
X134323476Y-109950000D01*
X134370928Y-109959439D01*
X134516498Y-110019735D01*
X134516503Y-110019737D01*
X134668936Y-110050058D01*
X134671153Y-110050499D01*
X134671156Y-110050500D01*
X134671158Y-110050500D01*
X134828835Y-110050500D01*
X134828842Y-110050500D01*
X134828848Y-110050498D01*
X134830448Y-110050341D01*
X134831287Y-110050500D01*
X134834934Y-110050500D01*
X134834934Y-110051191D01*
X134899095Y-110063354D01*
X134949810Y-110111414D01*
X134966612Y-110173287D01*
X135001014Y-119525544D01*
X134981576Y-119592655D01*
X134928941Y-119638604D01*
X134877015Y-119650000D01*
X104379500Y-119650000D01*
X104312461Y-119630315D01*
X104266706Y-119577511D01*
X104255500Y-119526000D01*
X104255500Y-115624010D01*
X104255500Y-115624000D01*
X104250710Y-115579446D01*
X104250000Y-115566193D01*
X104250000Y-115150000D01*
X104076713Y-115150000D01*
X104009674Y-115130315D01*
X103995510Y-115119713D01*
X103966335Y-115094432D01*
X103966331Y-115094430D01*
X103835465Y-115034664D01*
X103835460Y-115034662D01*
X103835459Y-115034662D01*
X103768420Y-115014977D01*
X103768422Y-115014977D01*
X103768417Y-115014976D01*
X103706347Y-115006052D01*
X103626000Y-114994500D01*
X99024000Y-114994500D01*
X99023991Y-114994500D01*
X99023990Y-114994501D01*
X98916549Y-115006052D01*
X98916537Y-115006054D01*
X98865027Y-115017260D01*
X98762502Y-115051383D01*
X98762496Y-115051386D01*
X98639682Y-115130315D01*
X98622575Y-115135337D01*
X98607577Y-115144977D01*
X98572642Y-115150000D01*
X98474000Y-115150000D01*
X98406961Y-115130315D01*
X98361206Y-115077511D01*
X98350000Y-115026000D01*
X98350000Y-114086915D01*
X98369685Y-114019876D01*
X98386319Y-113999234D01*
X98425481Y-113960072D01*
X98517583Y-113810750D01*
X98572768Y-113644213D01*
X98583269Y-113541425D01*
X98583268Y-112491408D01*
X98572768Y-112388619D01*
X98517583Y-112222082D01*
X98425481Y-112072760D01*
X98386319Y-112033598D01*
X98371615Y-112006670D01*
X98355023Y-111980852D01*
X98354131Y-111974651D01*
X98352834Y-111972275D01*
X98350000Y-111945917D01*
X98350000Y-111836915D01*
X98369685Y-111769876D01*
X98386319Y-111749234D01*
X98425481Y-111710072D01*
X98517583Y-111560750D01*
X98572768Y-111394213D01*
X98583269Y-111291425D01*
X98583268Y-110241408D01*
X98572768Y-110138619D01*
X98517583Y-109972082D01*
X98425481Y-109822760D01*
X98386319Y-109783598D01*
X98371615Y-109756670D01*
X98355023Y-109730852D01*
X98354131Y-109724651D01*
X98352834Y-109722275D01*
X98350000Y-109695917D01*
X98350000Y-109586915D01*
X98369685Y-109519876D01*
X98386319Y-109499234D01*
X98402064Y-109483489D01*
X98425481Y-109460072D01*
X98517583Y-109310750D01*
X98572768Y-109144213D01*
X98583269Y-109041425D01*
X98583268Y-107991408D01*
X98582460Y-107983501D01*
X98572768Y-107888619D01*
X98572767Y-107888616D01*
X98557750Y-107843298D01*
X98517583Y-107722082D01*
X98425481Y-107572760D01*
X98386319Y-107533598D01*
X98352834Y-107472275D01*
X98350000Y-107445917D01*
X98350000Y-105660204D01*
X98369685Y-105593165D01*
X98422489Y-105547410D01*
X98491647Y-105537466D01*
X98517337Y-105544024D01*
G37*
%TD.AperFunction*%
%TD*%
%TA.AperFunction,Conductor*%
%TO.N,Net-(D2-A)*%
G36*
X103693039Y-115519685D02*
G01*
X103738794Y-115572489D01*
X103750000Y-115624000D01*
X103750000Y-120250000D01*
X109626000Y-120250000D01*
X109693039Y-120269685D01*
X109738794Y-120322489D01*
X109750000Y-120374000D01*
X109750000Y-124125500D01*
X109730315Y-124192539D01*
X109677511Y-124238294D01*
X109626000Y-124249500D01*
X99024000Y-124249500D01*
X98956961Y-124229815D01*
X98911206Y-124177011D01*
X98900000Y-124125500D01*
X98900000Y-115624000D01*
X98919685Y-115556961D01*
X98972489Y-115511206D01*
X99024000Y-115500000D01*
X103626000Y-115500000D01*
X103693039Y-115519685D01*
G37*
%TD.AperFunction*%
%TD*%
%TA.AperFunction,Conductor*%
%TO.N,3V3*%
G36*
X92443039Y-58019685D02*
G01*
X92488794Y-58072489D01*
X92500000Y-58124000D01*
X92500000Y-89550000D01*
X96126000Y-89550000D01*
X96193039Y-89569685D01*
X96238794Y-89622489D01*
X96250000Y-89674000D01*
X96250000Y-90981484D01*
X96243706Y-91020488D01*
X96210001Y-91122203D01*
X96210000Y-91122204D01*
X96199500Y-91224983D01*
X96199500Y-92275001D01*
X96199501Y-92275019D01*
X96210000Y-92377796D01*
X96227955Y-92431979D01*
X96243706Y-92479513D01*
X96250000Y-92518515D01*
X96250000Y-93231484D01*
X96243706Y-93270488D01*
X96210001Y-93372203D01*
X96210000Y-93372204D01*
X96199500Y-93474983D01*
X96199500Y-94525001D01*
X96199501Y-94525019D01*
X96210000Y-94627796D01*
X96214414Y-94641116D01*
X96243706Y-94729513D01*
X96250000Y-94768515D01*
X96250000Y-95481484D01*
X96243706Y-95520488D01*
X96210001Y-95622203D01*
X96210000Y-95622204D01*
X96199500Y-95724983D01*
X96199500Y-96775001D01*
X96199501Y-96775019D01*
X96210000Y-96877796D01*
X96227955Y-96931979D01*
X96243706Y-96979513D01*
X96250000Y-97018515D01*
X96250000Y-100404830D01*
X96230315Y-100471869D01*
X96194890Y-100507932D01*
X96089715Y-100578207D01*
X96089707Y-100578213D01*
X95978213Y-100689707D01*
X95978210Y-100689711D01*
X95890609Y-100820814D01*
X95890602Y-100820827D01*
X95830264Y-100966498D01*
X95830261Y-100966510D01*
X95799500Y-101121153D01*
X95799500Y-101126000D01*
X95779815Y-101193039D01*
X95727011Y-101238794D01*
X95675500Y-101250000D01*
X87124000Y-101250000D01*
X87056961Y-101230315D01*
X87011206Y-101177511D01*
X87000000Y-101126000D01*
X87000000Y-70275000D01*
X85996678Y-70275000D01*
X85958361Y-70268931D01*
X85816243Y-70222754D01*
X85816240Y-70222753D01*
X85654957Y-70197208D01*
X85606287Y-70189500D01*
X85393713Y-70189500D01*
X85354202Y-70195757D01*
X85183759Y-70222753D01*
X85088025Y-70253859D01*
X85041638Y-70268931D01*
X85003322Y-70275000D01*
X83874000Y-70275000D01*
X83806961Y-70255315D01*
X83761206Y-70202511D01*
X83750000Y-70151000D01*
X83750000Y-67124000D01*
X83769685Y-67056961D01*
X83822489Y-67011206D01*
X83874000Y-67000000D01*
X87750000Y-67000000D01*
X87750000Y-62500000D01*
X85996678Y-62500000D01*
X85958361Y-62493931D01*
X85816243Y-62447754D01*
X85816240Y-62447753D01*
X85654957Y-62422208D01*
X85606287Y-62414500D01*
X85393713Y-62414500D01*
X85354202Y-62420757D01*
X85183759Y-62447753D01*
X85097804Y-62475682D01*
X85041638Y-62493931D01*
X85003322Y-62500000D01*
X83874000Y-62500000D01*
X83806961Y-62480315D01*
X83761206Y-62427511D01*
X83750000Y-62376000D01*
X83750000Y-58124000D01*
X83769685Y-58056961D01*
X83822489Y-58011206D01*
X83874000Y-58000000D01*
X92376000Y-58000000D01*
X92443039Y-58019685D01*
G37*
%TD.AperFunction*%
%TD*%
%TA.AperFunction,Conductor*%
%TO.N,5V*%
G36*
X143193039Y-65519685D02*
G01*
X143238794Y-65572489D01*
X143250000Y-65624000D01*
X143250000Y-72500000D01*
X143624688Y-72500000D01*
X143691727Y-72519685D01*
X143737482Y-72572489D01*
X143748681Y-72625305D01*
X143701166Y-77139169D01*
X143680777Y-77205998D01*
X143627494Y-77251194D01*
X143579007Y-77261850D01*
X142433302Y-77278797D01*
X142393150Y-77272742D01*
X142316246Y-77247754D01*
X142158776Y-77222813D01*
X142106287Y-77214500D01*
X141893713Y-77214500D01*
X141851721Y-77221150D01*
X141683753Y-77247754D01*
X141565689Y-77286115D01*
X141529206Y-77292170D01*
X140500000Y-77307395D01*
X140500000Y-77307396D01*
X140500000Y-80000000D01*
X143376000Y-80000000D01*
X143443039Y-80019685D01*
X143488794Y-80072489D01*
X143500000Y-80124000D01*
X143500000Y-85627028D01*
X143480315Y-85694067D01*
X143427511Y-85739822D01*
X143377033Y-85751024D01*
X142447768Y-85758767D01*
X142408418Y-85752702D01*
X142316245Y-85722754D01*
X142316246Y-85722754D01*
X142158776Y-85697813D01*
X142106287Y-85689500D01*
X141893713Y-85689500D01*
X141823727Y-85700584D01*
X141683755Y-85722754D01*
X141568064Y-85760344D01*
X141530779Y-85766409D01*
X140500000Y-85775000D01*
X140500000Y-88500000D01*
X143376000Y-88500000D01*
X143443039Y-88519685D01*
X143488794Y-88572489D01*
X143500000Y-88624000D01*
X143500000Y-95939111D01*
X143480315Y-96006150D01*
X143451819Y-96037230D01*
X139257840Y-99278031D01*
X139192757Y-99303446D01*
X139181401Y-99303910D01*
X130642521Y-99261216D01*
X130642520Y-99261216D01*
X126500000Y-105474997D01*
X126500000Y-108126000D01*
X126480315Y-108193039D01*
X126427511Y-108238794D01*
X126376000Y-108250000D01*
X123622047Y-108250000D01*
X123555008Y-108230315D01*
X123509253Y-108177511D01*
X123498063Y-108127968D01*
X123293651Y-95249985D01*
X123293650Y-95249984D01*
X107468734Y-95255191D01*
X107401688Y-95235528D01*
X107399837Y-95234316D01*
X107379179Y-95220513D01*
X107379175Y-95220511D01*
X107379173Y-95220510D01*
X107379174Y-95220510D01*
X107233501Y-95160171D01*
X107233489Y-95160168D01*
X107078845Y-95129407D01*
X107078842Y-95129407D01*
X106921158Y-95129407D01*
X106921155Y-95129407D01*
X106766510Y-95160168D01*
X106766498Y-95160171D01*
X106620828Y-95220509D01*
X106620814Y-95220517D01*
X106599731Y-95234604D01*
X106533053Y-95255480D01*
X106530884Y-95255500D01*
X99389452Y-95257849D01*
X99368971Y-95251842D01*
X99347664Y-95250610D01*
X99336112Y-95242205D01*
X99322406Y-95238186D01*
X99308425Y-95222062D01*
X99291165Y-95209505D01*
X99281856Y-95191420D01*
X99276634Y-95185398D01*
X99273830Y-95178761D01*
X99270439Y-95170036D01*
X99269737Y-95166503D01*
X99258907Y-95140356D01*
X99258419Y-95139101D01*
X99258033Y-95134580D01*
X99250000Y-95094189D01*
X99250000Y-94305811D01*
X99259439Y-94258358D01*
X99269737Y-94233497D01*
X99300500Y-94078842D01*
X99300500Y-93921158D01*
X99300500Y-93921155D01*
X99300499Y-93921153D01*
X99269739Y-93766511D01*
X99269738Y-93766510D01*
X99269737Y-93766503D01*
X99259437Y-93741636D01*
X99250000Y-93694189D01*
X99250000Y-86382130D01*
X99269685Y-86315091D01*
X99322489Y-86269336D01*
X99373808Y-86258130D01*
X100441287Y-86256516D01*
X100460843Y-86258040D01*
X100490179Y-86262687D01*
X100490183Y-86262687D01*
X101064898Y-86262687D01*
X101064901Y-86262687D01*
X101100713Y-86257014D01*
X101119899Y-86255489D01*
X102425814Y-86253514D01*
X102492882Y-86273097D01*
X102538716Y-86325832D01*
X102550000Y-86377514D01*
X102550000Y-89105255D01*
X127626511Y-89208283D01*
X127693467Y-89228243D01*
X127739005Y-89281234D01*
X127750000Y-89332282D01*
X127750000Y-91357192D01*
X127749735Y-91365301D01*
X127749500Y-91368886D01*
X127749500Y-91631114D01*
X127749735Y-91634700D01*
X127750000Y-91642809D01*
X127750000Y-94187500D01*
X137499999Y-94244186D01*
X137500000Y-94244186D01*
X137500000Y-65624000D01*
X137519685Y-65556961D01*
X137572489Y-65511206D01*
X137624000Y-65500000D01*
X143126000Y-65500000D01*
X143193039Y-65519685D01*
G37*
%TD.AperFunction*%
%TD*%
%TA.AperFunction,Conductor*%
%TO.N,SW*%
G36*
X130927301Y-105519685D02*
G01*
X130932332Y-105523094D01*
X131073600Y-105624000D01*
X132076526Y-106340376D01*
X132119636Y-106395360D01*
X132127742Y-106428025D01*
X132130908Y-106457483D01*
X132181202Y-106592328D01*
X132181206Y-106592335D01*
X132267452Y-106707544D01*
X132267455Y-106707547D01*
X132382664Y-106793793D01*
X132382671Y-106793797D01*
X132427618Y-106810561D01*
X132517517Y-106844091D01*
X132577127Y-106850500D01*
X133076002Y-106850499D01*
X133084686Y-106853049D01*
X133093647Y-106851761D01*
X133117683Y-106862738D01*
X133143039Y-106870183D01*
X133148967Y-106877025D01*
X133157203Y-106880786D01*
X133171489Y-106903017D01*
X133188794Y-106922987D01*
X133191081Y-106933502D01*
X133194977Y-106939564D01*
X133200000Y-106974499D01*
X133200000Y-107025500D01*
X133180315Y-107092539D01*
X133127511Y-107138294D01*
X133076000Y-107149500D01*
X132577129Y-107149500D01*
X132577123Y-107149501D01*
X132517516Y-107155908D01*
X132382671Y-107206202D01*
X132382664Y-107206206D01*
X132267455Y-107292452D01*
X132267452Y-107292455D01*
X132181206Y-107407664D01*
X132181202Y-107407671D01*
X132130908Y-107542517D01*
X132124501Y-107602116D01*
X132124500Y-107602135D01*
X132124500Y-107770490D01*
X132104815Y-107837529D01*
X132091907Y-107854280D01*
X131307689Y-108709790D01*
X131247878Y-108745907D01*
X131216282Y-108750000D01*
X128124000Y-108750000D01*
X128056961Y-108730315D01*
X128011206Y-108677511D01*
X128000000Y-108626000D01*
X128000000Y-105624000D01*
X128019685Y-105556961D01*
X128072489Y-105511206D01*
X128124000Y-105500000D01*
X130860262Y-105500000D01*
X130927301Y-105519685D01*
G37*
%TD.AperFunction*%
%TD*%
M02*
