%TF.GenerationSoftware,KiCad,Pcbnew,9.0.3*%
%TF.CreationDate,2026-05-01T17:42:47+01:00*%
%TF.ProjectId,default_esp32_board,64656661-756c-4745-9f65-737033325f62,rev?*%
%TF.SameCoordinates,Original*%
%TF.FileFunction,Paste,Top*%
%TF.FilePolarity,Positive*%
%FSLAX46Y46*%
G04 Gerber Fmt 4.6, Leading zero omitted, Abs format (unit mm)*
G04 Created by KiCad (PCBNEW 9.0.3) date 2026-05-01 17:42:47*
%MOMM*%
%LPD*%
G01*
G04 APERTURE LIST*
G04 Aperture macros list*
%AMRoundRect*
0 Rectangle with rounded corners*
0 $1 Rounding radius*
0 $2 $3 $4 $5 $6 $7 $8 $9 X,Y pos of 4 corners*
0 Add a 4 corners polygon primitive as box body*
4,1,4,$2,$3,$4,$5,$6,$7,$8,$9,$2,$3,0*
0 Add four circle primitives for the rounded corners*
1,1,$1+$1,$2,$3*
1,1,$1+$1,$4,$5*
1,1,$1+$1,$6,$7*
1,1,$1+$1,$8,$9*
0 Add four rect primitives between the rounded corners*
20,1,$1+$1,$2,$3,$4,$5,0*
20,1,$1+$1,$4,$5,$6,$7,0*
20,1,$1+$1,$6,$7,$8,$9,0*
20,1,$1+$1,$8,$9,$2,$3,0*%
G04 Aperture macros list end*
%ADD10R,1.250000X0.600000*%
%ADD11RoundRect,0.250000X-0.450000X0.350000X-0.450000X-0.350000X0.450000X-0.350000X0.450000X0.350000X0*%
%ADD12RoundRect,0.250000X0.450000X-0.350000X0.450000X0.350000X-0.450000X0.350000X-0.450000X-0.350000X0*%
%ADD13RoundRect,0.250000X-0.475000X0.337500X-0.475000X-0.337500X0.475000X-0.337500X0.475000X0.337500X0*%
%ADD14RoundRect,0.250000X0.337500X0.475000X-0.337500X0.475000X-0.337500X-0.475000X0.337500X-0.475000X0*%
%ADD15R,1.250000X1.500000*%
%ADD16R,2.000000X1.800000*%
%ADD17RoundRect,0.250000X-0.337500X-0.475000X0.337500X-0.475000X0.337500X0.475000X-0.337500X0.475000X0*%
%ADD18R,5.100000X1.900000*%
%ADD19RoundRect,0.250000X-0.350000X-0.450000X0.350000X-0.450000X0.350000X0.450000X-0.350000X0.450000X0*%
%ADD20RoundRect,0.250000X0.475000X-0.337500X0.475000X0.337500X-0.475000X0.337500X-0.475000X-0.337500X0*%
%ADD21RoundRect,0.250000X0.350000X0.450000X-0.350000X0.450000X-0.350000X-0.450000X0.350000X-0.450000X0*%
G04 APERTURE END LIST*
D10*
%TO.C,IC2*%
X99250000Y-103800000D03*
X99250000Y-104750000D03*
X99250000Y-105700000D03*
X101750000Y-105700000D03*
X101750000Y-104750000D03*
X101750000Y-103800000D03*
%TD*%
D11*
%TO.C,R13*%
X112250000Y-99000000D03*
X112250000Y-97000000D03*
%TD*%
D12*
%TO.C,R14*%
X114450000Y-97000000D03*
X114450000Y-99000000D03*
%TD*%
D13*
%TO.C,C4*%
X133600000Y-101462500D03*
X133600000Y-103537500D03*
%TD*%
D12*
%TO.C,R11*%
X107000000Y-105800000D03*
X107000000Y-103800000D03*
%TD*%
D14*
%TO.C,C9*%
X99570269Y-113016416D03*
X97495269Y-113016416D03*
%TD*%
%TO.C,C7*%
X124037500Y-99500000D03*
X121962500Y-99500000D03*
%TD*%
D12*
%TO.C,R12*%
X104600000Y-107800000D03*
X104600000Y-105800000D03*
%TD*%
D15*
%TO.C,F1*%
X112275000Y-122550000D03*
X108825000Y-122550000D03*
%TD*%
D16*
%TO.C,L1*%
X129250000Y-107250000D03*
X124750000Y-107250000D03*
%TD*%
D14*
%TO.C,C11*%
X99570269Y-108516416D03*
X97495269Y-108516416D03*
%TD*%
D12*
%TO.C,R1*%
X135750000Y-103500000D03*
X135750000Y-101500000D03*
%TD*%
D17*
%TO.C,C15*%
X95212500Y-94000000D03*
X97287500Y-94000000D03*
%TD*%
D18*
%TO.C,L2*%
X93500000Y-104350000D03*
X93500000Y-100150000D03*
%TD*%
D17*
%TO.C,C14*%
X95212500Y-91750000D03*
X97287500Y-91750000D03*
%TD*%
D19*
%TO.C,R3*%
X139500000Y-110600000D03*
X141500000Y-110600000D03*
%TD*%
D12*
%TO.C,R7*%
X146000000Y-107802879D03*
X146000000Y-105802879D03*
%TD*%
D14*
%TO.C,C6*%
X124037500Y-97000000D03*
X121962500Y-97000000D03*
%TD*%
D17*
%TO.C,C3*%
X134212500Y-110750000D03*
X136287500Y-110750000D03*
%TD*%
D12*
%TO.C,R2*%
X146250000Y-112750000D03*
X146250000Y-110750000D03*
%TD*%
D19*
%TO.C,R9*%
X107200000Y-101600000D03*
X109200000Y-101600000D03*
%TD*%
D17*
%TO.C,C5*%
X139462500Y-112800000D03*
X141537500Y-112800000D03*
%TD*%
D14*
%TO.C,C8*%
X124037500Y-102000000D03*
X121962500Y-102000000D03*
%TD*%
D17*
%TO.C,C2*%
X134212500Y-113250000D03*
X136287500Y-113250000D03*
%TD*%
D20*
%TO.C,C13*%
X109400000Y-105837500D03*
X109400000Y-103762500D03*
%TD*%
D11*
%TO.C,R5*%
X144000000Y-110750000D03*
X144000000Y-112750000D03*
%TD*%
%TO.C,R6*%
X143750000Y-105802879D03*
X143750000Y-107802879D03*
%TD*%
D21*
%TO.C,R4*%
X141500000Y-108500000D03*
X139500000Y-108500000D03*
%TD*%
D17*
%TO.C,C1*%
X134212500Y-115750000D03*
X136287500Y-115750000D03*
%TD*%
D19*
%TO.C,R10*%
X107200000Y-99400000D03*
X109200000Y-99400000D03*
%TD*%
D17*
%TO.C,C16*%
X95212500Y-96250000D03*
X97287500Y-96250000D03*
%TD*%
D10*
%TO.C,IC1*%
X133250000Y-106050000D03*
X133250000Y-107000000D03*
X133250000Y-107950000D03*
X135750000Y-107950000D03*
X135750000Y-107000000D03*
X135750000Y-106050000D03*
%TD*%
D13*
%TO.C,C12*%
X99400000Y-99162500D03*
X99400000Y-101237500D03*
%TD*%
D12*
%TO.C,R8*%
X101800000Y-101200000D03*
X101800000Y-99200000D03*
%TD*%
D14*
%TO.C,C10*%
X99570269Y-110766416D03*
X97495269Y-110766416D03*
%TD*%
M02*
